<?xml version="1.0" encoding="utf-8" standalone="no"?>
<!DOCTYPE svg PUBLIC "-//W3C//DTD SVG 1.1//EN"
  "http://www.w3.org/Graphics/SVG/1.1/DTD/svg11.dtd">
<svg xmlns:xlink="http://www.w3.org/1999/xlink" width="657.41pt" height="220.754375pt" viewBox="0 0 657.41 220.754375" xmlns="http://www.w3.org/2000/svg" version="1.1">
 <metadata>
  <rdf:RDF xmlns:dc="http://purl.org/dc/elements/1.1/" xmlns:cc="http://creativecommons.org/ns#" xmlns:rdf="http://www.w3.org/1999/02/22-rdf-syntax-ns#">
   <cc:Work>
    <dc:type rdf:resource="http://purl.org/dc/dcmitype/StillImage"/>
    <dc:date>2026-06-05T16:30:01.293012</dc:date>
    <dc:format>image/svg+xml</dc:format>
    <dc:creator>
     <cc:Agent>
      <dc:title>Matplotlib v3.8.2, https://matplotlib.org/</dc:title>
     </cc:Agent>
    </dc:creator>
   </cc:Work>
  </rdf:RDF>
 </metadata>
 <defs>
  <style type="text/css">*{stroke-linejoin: round; stroke-linecap: butt}</style>
 </defs>
 <g id="figure_1">
  <g id="patch_1">
   <path d="M 0 220.754375 
L 657.41 220.754375 
L 657.41 0 
L 0 0 
z
" style="fill: #ffffff"/>
  </g>
  <g id="axes_1">
   <g id="patch_2">
    <path d="M 64.856875 173.52 
L 511.256875 173.52 
L 511.256875 7.2 
L 64.856875 7.2 
z
" style="fill: #ffffff"/>
   </g>
   <g id="PolyCollection_1"/>
   <g id="PolyCollection_2"/>
   <g id="PolyCollection_3"/>
   <g id="PolyCollection_4"/>
   <g id="matplotlib.axis_1">
    <g id="xtick_1">
     <g id="line2d_1">
      <defs>
       <path id="mc9b8ecd0f2" d="M 0 0 
L 0 3.5 
" style="stroke: #000000; stroke-width: 0.8"/>
      </defs>
      <g>
       <use xlink:href="#mc9b8ecd0f2" x="85.147784" y="173.52" style="stroke: #000000; stroke-width: 0.8"/>
      </g>
     </g>
     <g id="text_1">
      <!-- 0 -->
      <g transform="translate(80.694034 191.157813) scale(0.14 -0.14)">
       <defs>
        <path id="DejaVuSans-30" d="M 2034 4250 
Q 1547 4250 1301 3770 
Q 1056 3291 1056 2328 
Q 1056 1369 1301 889 
Q 1547 409 2034 409 
Q 2525 409 2770 889 
Q 3016 1369 3016 2328 
Q 3016 3291 2770 3770 
Q 2525 4250 2034 4250 
z
M 2034 4750 
Q 2819 4750 3233 4129 
Q 3647 3509 3647 2328 
Q 3647 1150 3233 529 
Q 2819 -91 2034 -91 
Q 1250 -91 836 529 
Q 422 1150 422 2328 
Q 422 3509 836 4129 
Q 1250 4750 2034 4750 
z
" transform="scale(0.015625)"/>
       </defs>
       <use xlink:href="#DejaVuSans-30"/>
      </g>
     </g>
    </g>
    <g id="xtick_2">
     <g id="line2d_2">
      <g>
       <use xlink:href="#mc9b8ecd0f2" x="179.965116" y="173.52" style="stroke: #000000; stroke-width: 0.8"/>
      </g>
     </g>
     <g id="text_2">
      <!-- 50 -->
      <g transform="translate(171.057616 191.157813) scale(0.14 -0.14)">
       <defs>
        <path id="DejaVuSans-35" d="M 691 4666 
L 3169 4666 
L 3169 4134 
L 1269 4134 
L 1269 2991 
Q 1406 3038 1543 3061 
Q 1681 3084 1819 3084 
Q 2600 3084 3056 2656 
Q 3513 2228 3513 1497 
Q 3513 744 3044 326 
Q 2575 -91 1722 -91 
Q 1428 -91 1123 -41 
Q 819 9 494 109 
L 494 744 
Q 775 591 1075 516 
Q 1375 441 1709 441 
Q 2250 441 2565 725 
Q 2881 1009 2881 1497 
Q 2881 1984 2565 2268 
Q 2250 2553 1709 2553 
Q 1456 2553 1204 2497 
Q 953 2441 691 2322 
L 691 4666 
z
" transform="scale(0.015625)"/>
       </defs>
       <use xlink:href="#DejaVuSans-35"/>
       <use xlink:href="#DejaVuSans-30" x="63.623047"/>
      </g>
     </g>
    </g>
    <g id="xtick_3">
     <g id="line2d_3">
      <g>
       <use xlink:href="#mc9b8ecd0f2" x="274.782448" y="173.52" style="stroke: #000000; stroke-width: 0.8"/>
      </g>
     </g>
     <g id="text_3">
      <!-- 100 -->
      <g transform="translate(261.421198 191.157813) scale(0.14 -0.14)">
       <defs>
        <path id="DejaVuSans-31" d="M 794 531 
L 1825 531 
L 1825 4091 
L 703 3866 
L 703 4441 
L 1819 4666 
L 2450 4666 
L 2450 531 
L 3481 531 
L 3481 0 
L 794 0 
L 794 531 
z
" transform="scale(0.015625)"/>
       </defs>
       <use xlink:href="#DejaVuSans-31"/>
       <use xlink:href="#DejaVuSans-30" x="63.623047"/>
       <use xlink:href="#DejaVuSans-30" x="127.246094"/>
      </g>
     </g>
    </g>
    <g id="xtick_4">
     <g id="line2d_4">
      <g>
       <use xlink:href="#mc9b8ecd0f2" x="369.599781" y="173.52" style="stroke: #000000; stroke-width: 0.8"/>
      </g>
     </g>
     <g id="text_4">
      <!-- 150 -->
      <g transform="translate(356.238531 191.157813) scale(0.14 -0.14)">
       <use xlink:href="#DejaVuSans-31"/>
       <use xlink:href="#DejaVuSans-35" x="63.623047"/>
       <use xlink:href="#DejaVuSans-30" x="127.246094"/>
      </g>
     </g>
    </g>
    <g id="xtick_5">
     <g id="line2d_5">
      <g>
       <use xlink:href="#mc9b8ecd0f2" x="464.417113" y="173.52" style="stroke: #000000; stroke-width: 0.8"/>
      </g>
     </g>
     <g id="text_5">
      <!-- 200 -->
      <g transform="translate(451.055863 191.157813) scale(0.14 -0.14)">
       <defs>
        <path id="DejaVuSans-32" d="M 1228 531 
L 3431 531 
L 3431 0 
L 469 0 
L 469 531 
Q 828 903 1448 1529 
Q 2069 2156 2228 2338 
Q 2531 2678 2651 2914 
Q 2772 3150 2772 3378 
Q 2772 3750 2511 3984 
Q 2250 4219 1831 4219 
Q 1534 4219 1204 4116 
Q 875 4013 500 3803 
L 500 4441 
Q 881 4594 1212 4672 
Q 1544 4750 1819 4750 
Q 2544 4750 2975 4387 
Q 3406 4025 3406 3419 
Q 3406 3131 3298 2873 
Q 3191 2616 2906 2266 
Q 2828 2175 2409 1742 
Q 1991 1309 1228 531 
z
" transform="scale(0.015625)"/>
       </defs>
       <use xlink:href="#DejaVuSans-32"/>
       <use xlink:href="#DejaVuSans-30" x="63.623047"/>
       <use xlink:href="#DejaVuSans-30" x="127.246094"/>
      </g>
     </g>
    </g>
    <g id="text_6">
     <!-- Alignment location -->
     <g transform="translate(212.784375 210.226875) scale(0.16 -0.16)">
      <defs>
       <path id="DejaVuSans-41" d="M 2188 4044 
L 1331 1722 
L 3047 1722 
L 2188 4044 
z
M 1831 4666 
L 2547 4666 
L 4325 0 
L 3669 0 
L 3244 1197 
L 1141 1197 
L 716 0 
L 50 0 
L 1831 4666 
z
" transform="scale(0.015625)"/>
       <path id="DejaVuSans-6c" d="M 603 4863 
L 1178 4863 
L 1178 0 
L 603 0 
L 603 4863 
z
" transform="scale(0.015625)"/>
       <path id="DejaVuSans-69" d="M 603 3500 
L 1178 3500 
L 1178 0 
L 603 0 
L 603 3500 
z
M 603 4863 
L 1178 4863 
L 1178 4134 
L 603 4134 
L 603 4863 
z
" transform="scale(0.015625)"/>
       <path id="DejaVuSans-67" d="M 2906 1791 
Q 2906 2416 2648 2759 
Q 2391 3103 1925 3103 
Q 1463 3103 1205 2759 
Q 947 2416 947 1791 
Q 947 1169 1205 825 
Q 1463 481 1925 481 
Q 2391 481 2648 825 
Q 2906 1169 2906 1791 
z
M 3481 434 
Q 3481 -459 3084 -895 
Q 2688 -1331 1869 -1331 
Q 1566 -1331 1297 -1286 
Q 1028 -1241 775 -1147 
L 775 -588 
Q 1028 -725 1275 -790 
Q 1522 -856 1778 -856 
Q 2344 -856 2625 -561 
Q 2906 -266 2906 331 
L 2906 616 
Q 2728 306 2450 153 
Q 2172 0 1784 0 
Q 1141 0 747 490 
Q 353 981 353 1791 
Q 353 2603 747 3093 
Q 1141 3584 1784 3584 
Q 2172 3584 2450 3431 
Q 2728 3278 2906 2969 
L 2906 3500 
L 3481 3500 
L 3481 434 
z
" transform="scale(0.015625)"/>
       <path id="DejaVuSans-6e" d="M 3513 2113 
L 3513 0 
L 2938 0 
L 2938 2094 
Q 2938 2591 2744 2837 
Q 2550 3084 2163 3084 
Q 1697 3084 1428 2787 
Q 1159 2491 1159 1978 
L 1159 0 
L 581 0 
L 581 3500 
L 1159 3500 
L 1159 2956 
Q 1366 3272 1645 3428 
Q 1925 3584 2291 3584 
Q 2894 3584 3203 3211 
Q 3513 2838 3513 2113 
z
" transform="scale(0.015625)"/>
       <path id="DejaVuSans-6d" d="M 3328 2828 
Q 3544 3216 3844 3400 
Q 4144 3584 4550 3584 
Q 5097 3584 5394 3201 
Q 5691 2819 5691 2113 
L 5691 0 
L 5113 0 
L 5113 2094 
Q 5113 2597 4934 2840 
Q 4756 3084 4391 3084 
Q 3944 3084 3684 2787 
Q 3425 2491 3425 1978 
L 3425 0 
L 2847 0 
L 2847 2094 
Q 2847 2600 2669 2842 
Q 2491 3084 2119 3084 
Q 1678 3084 1418 2786 
Q 1159 2488 1159 1978 
L 1159 0 
L 581 0 
L 581 3500 
L 1159 3500 
L 1159 2956 
Q 1356 3278 1631 3431 
Q 1906 3584 2284 3584 
Q 2666 3584 2933 3390 
Q 3200 3197 3328 2828 
z
" transform="scale(0.015625)"/>
       <path id="DejaVuSans-65" d="M 3597 1894 
L 3597 1613 
L 953 1613 
Q 991 1019 1311 708 
Q 1631 397 2203 397 
Q 2534 397 2845 478 
Q 3156 559 3463 722 
L 3463 178 
Q 3153 47 2828 -22 
Q 2503 -91 2169 -91 
Q 1331 -91 842 396 
Q 353 884 353 1716 
Q 353 2575 817 3079 
Q 1281 3584 2069 3584 
Q 2775 3584 3186 3129 
Q 3597 2675 3597 1894 
z
M 3022 2063 
Q 3016 2534 2758 2815 
Q 2500 3097 2075 3097 
Q 1594 3097 1305 2825 
Q 1016 2553 972 2059 
L 3022 2063 
z
" transform="scale(0.015625)"/>
       <path id="DejaVuSans-74" d="M 1172 4494 
L 1172 3500 
L 2356 3500 
L 2356 3053 
L 1172 3053 
L 1172 1153 
Q 1172 725 1289 603 
Q 1406 481 1766 481 
L 2356 481 
L 2356 0 
L 1766 0 
Q 1100 0 847 248 
Q 594 497 594 1153 
L 594 3053 
L 172 3053 
L 172 3500 
L 594 3500 
L 594 4494 
L 1172 4494 
z
" transform="scale(0.015625)"/>
       <path id="DejaVuSans-20" transform="scale(0.015625)"/>
       <path id="DejaVuSans-6f" d="M 1959 3097 
Q 1497 3097 1228 2736 
Q 959 2375 959 1747 
Q 959 1119 1226 758 
Q 1494 397 1959 397 
Q 2419 397 2687 759 
Q 2956 1122 2956 1747 
Q 2956 2369 2687 2733 
Q 2419 3097 1959 3097 
z
M 1959 3584 
Q 2709 3584 3137 3096 
Q 3566 2609 3566 1747 
Q 3566 888 3137 398 
Q 2709 -91 1959 -91 
Q 1206 -91 779 398 
Q 353 888 353 1747 
Q 353 2609 779 3096 
Q 1206 3584 1959 3584 
z
" transform="scale(0.015625)"/>
       <path id="DejaVuSans-63" d="M 3122 3366 
L 3122 2828 
Q 2878 2963 2633 3030 
Q 2388 3097 2138 3097 
Q 1578 3097 1268 2742 
Q 959 2388 959 1747 
Q 959 1106 1268 751 
Q 1578 397 2138 397 
Q 2388 397 2633 464 
Q 2878 531 3122 666 
L 3122 134 
Q 2881 22 2623 -34 
Q 2366 -91 2075 -91 
Q 1284 -91 818 406 
Q 353 903 353 1747 
Q 353 2603 823 3093 
Q 1294 3584 2113 3584 
Q 2378 3584 2631 3529 
Q 2884 3475 3122 3366 
z
" transform="scale(0.015625)"/>
       <path id="DejaVuSans-61" d="M 2194 1759 
Q 1497 1759 1228 1600 
Q 959 1441 959 1056 
Q 959 750 1161 570 
Q 1363 391 1709 391 
Q 2188 391 2477 730 
Q 2766 1069 2766 1631 
L 2766 1759 
L 2194 1759 
z
M 3341 1997 
L 3341 0 
L 2766 0 
L 2766 531 
Q 2569 213 2275 61 
Q 1981 -91 1556 -91 
Q 1019 -91 701 211 
Q 384 513 384 1019 
Q 384 1609 779 1909 
Q 1175 2209 1959 2209 
L 2766 2209 
L 2766 2266 
Q 2766 2663 2505 2880 
Q 2244 3097 1772 3097 
Q 1472 3097 1187 3025 
Q 903 2953 641 2809 
L 641 3341 
Q 956 3463 1253 3523 
Q 1550 3584 1831 3584 
Q 2591 3584 2966 3190 
Q 3341 2797 3341 1997 
z
" transform="scale(0.015625)"/>
      </defs>
      <use xlink:href="#DejaVuSans-41"/>
      <use xlink:href="#DejaVuSans-6c" x="68.408203"/>
      <use xlink:href="#DejaVuSans-69" x="96.191406"/>
      <use xlink:href="#DejaVuSans-67" x="123.974609"/>
      <use xlink:href="#DejaVuSans-6e" x="187.451172"/>
      <use xlink:href="#DejaVuSans-6d" x="250.830078"/>
      <use xlink:href="#DejaVuSans-65" x="348.242188"/>
      <use xlink:href="#DejaVuSans-6e" x="409.765625"/>
      <use xlink:href="#DejaVuSans-74" x="473.144531"/>
      <use xlink:href="#DejaVuSans-20" x="512.353516"/>
      <use xlink:href="#DejaVuSans-6c" x="544.140625"/>
      <use xlink:href="#DejaVuSans-6f" x="571.923828"/>
      <use xlink:href="#DejaVuSans-63" x="633.105469"/>
      <use xlink:href="#DejaVuSans-61" x="688.085938"/>
      <use xlink:href="#DejaVuSans-74" x="749.365234"/>
      <use xlink:href="#DejaVuSans-69" x="788.574219"/>
      <use xlink:href="#DejaVuSans-6f" x="816.357422"/>
      <use xlink:href="#DejaVuSans-6e" x="877.539062"/>
     </g>
    </g>
   </g>
   <g id="matplotlib.axis_2">
    <g id="ytick_1">
     <g id="line2d_6">
      <defs>
       <path id="m3ee5fe9e7d" d="M 0 0 
L -3.5 0 
" style="stroke: #000000; stroke-width: 0.8"/>
      </defs>
      <g>
       <use xlink:href="#m3ee5fe9e7d" x="64.856875" y="95.904" style="stroke: #000000; stroke-width: 0.8"/>
      </g>
     </g>
     <g id="text_7">
      <!-- 0.75 -->
      <g transform="translate(26.685 101.222906) scale(0.14 -0.14)">
       <defs>
        <path id="DejaVuSans-2e" d="M 684 794 
L 1344 794 
L 1344 0 
L 684 0 
L 684 794 
z
" transform="scale(0.015625)"/>
        <path id="DejaVuSans-37" d="M 525 4666 
L 3525 4666 
L 3525 4397 
L 1831 0 
L 1172 0 
L 2766 4134 
L 525 4134 
L 525 4666 
z
" transform="scale(0.015625)"/>
       </defs>
       <use xlink:href="#DejaVuSans-30"/>
       <use xlink:href="#DejaVuSans-2e" x="63.623047"/>
       <use xlink:href="#DejaVuSans-37" x="95.410156"/>
       <use xlink:href="#DejaVuSans-35" x="159.033203"/>
      </g>
     </g>
    </g>
    <g id="ytick_2">
     <g id="line2d_7">
      <g>
       <use xlink:href="#m3ee5fe9e7d" x="64.856875" y="29.376" style="stroke: #000000; stroke-width: 0.8"/>
      </g>
     </g>
     <g id="text_8">
      <!-- 0.90 -->
      <g transform="translate(26.685 34.694906) scale(0.14 -0.14)">
       <defs>
        <path id="DejaVuSans-39" d="M 703 97 
L 703 672 
Q 941 559 1184 500 
Q 1428 441 1663 441 
Q 2288 441 2617 861 
Q 2947 1281 2994 2138 
Q 2813 1869 2534 1725 
Q 2256 1581 1919 1581 
Q 1219 1581 811 2004 
Q 403 2428 403 3163 
Q 403 3881 828 4315 
Q 1253 4750 1959 4750 
Q 2769 4750 3195 4129 
Q 3622 3509 3622 2328 
Q 3622 1225 3098 567 
Q 2575 -91 1691 -91 
Q 1453 -91 1209 -44 
Q 966 3 703 97 
z
M 1959 2075 
Q 2384 2075 2632 2365 
Q 2881 2656 2881 3163 
Q 2881 3666 2632 3958 
Q 2384 4250 1959 4250 
Q 1534 4250 1286 3958 
Q 1038 3666 1038 3163 
Q 1038 2656 1286 2365 
Q 1534 2075 1959 2075 
z
" transform="scale(0.015625)"/>
       </defs>
       <use xlink:href="#DejaVuSans-30"/>
       <use xlink:href="#DejaVuSans-2e" x="63.623047"/>
       <use xlink:href="#DejaVuSans-39" x="95.410156"/>
       <use xlink:href="#DejaVuSans-30" x="159.033203"/>
      </g>
     </g>
    </g>
    <g id="text_9">
     <!-- Spearman R -->
     <g transform="translate(19.3575 139.3575) rotate(-90) scale(0.16 -0.16)">
      <defs>
       <path id="DejaVuSans-53" d="M 3425 4513 
L 3425 3897 
Q 3066 4069 2747 4153 
Q 2428 4238 2131 4238 
Q 1616 4238 1336 4038 
Q 1056 3838 1056 3469 
Q 1056 3159 1242 3001 
Q 1428 2844 1947 2747 
L 2328 2669 
Q 3034 2534 3370 2195 
Q 3706 1856 3706 1288 
Q 3706 609 3251 259 
Q 2797 -91 1919 -91 
Q 1588 -91 1214 -16 
Q 841 59 441 206 
L 441 856 
Q 825 641 1194 531 
Q 1563 422 1919 422 
Q 2459 422 2753 634 
Q 3047 847 3047 1241 
Q 3047 1584 2836 1778 
Q 2625 1972 2144 2069 
L 1759 2144 
Q 1053 2284 737 2584 
Q 422 2884 422 3419 
Q 422 4038 858 4394 
Q 1294 4750 2059 4750 
Q 2388 4750 2728 4690 
Q 3069 4631 3425 4513 
z
" transform="scale(0.015625)"/>
       <path id="DejaVuSans-70" d="M 1159 525 
L 1159 -1331 
L 581 -1331 
L 581 3500 
L 1159 3500 
L 1159 2969 
Q 1341 3281 1617 3432 
Q 1894 3584 2278 3584 
Q 2916 3584 3314 3078 
Q 3713 2572 3713 1747 
Q 3713 922 3314 415 
Q 2916 -91 2278 -91 
Q 1894 -91 1617 61 
Q 1341 213 1159 525 
z
M 3116 1747 
Q 3116 2381 2855 2742 
Q 2594 3103 2138 3103 
Q 1681 3103 1420 2742 
Q 1159 2381 1159 1747 
Q 1159 1113 1420 752 
Q 1681 391 2138 391 
Q 2594 391 2855 752 
Q 3116 1113 3116 1747 
z
" transform="scale(0.015625)"/>
       <path id="DejaVuSans-72" d="M 2631 2963 
Q 2534 3019 2420 3045 
Q 2306 3072 2169 3072 
Q 1681 3072 1420 2755 
Q 1159 2438 1159 1844 
L 1159 0 
L 581 0 
L 581 3500 
L 1159 3500 
L 1159 2956 
Q 1341 3275 1631 3429 
Q 1922 3584 2338 3584 
Q 2397 3584 2469 3576 
Q 2541 3569 2628 3553 
L 2631 2963 
z
" transform="scale(0.015625)"/>
       <path id="DejaVuSans-52" d="M 2841 2188 
Q 3044 2119 3236 1894 
Q 3428 1669 3622 1275 
L 4263 0 
L 3584 0 
L 2988 1197 
Q 2756 1666 2539 1819 
Q 2322 1972 1947 1972 
L 1259 1972 
L 1259 0 
L 628 0 
L 628 4666 
L 2053 4666 
Q 2853 4666 3247 4331 
Q 3641 3997 3641 3322 
Q 3641 2881 3436 2590 
Q 3231 2300 2841 2188 
z
M 1259 4147 
L 1259 2491 
L 2053 2491 
Q 2509 2491 2742 2702 
Q 2975 2913 2975 3322 
Q 2975 3731 2742 3939 
Q 2509 4147 2053 4147 
L 1259 4147 
z
" transform="scale(0.015625)"/>
      </defs>
      <use xlink:href="#DejaVuSans-53"/>
      <use xlink:href="#DejaVuSans-70" x="63.476562"/>
      <use xlink:href="#DejaVuSans-65" x="126.953125"/>
      <use xlink:href="#DejaVuSans-61" x="188.476562"/>
      <use xlink:href="#DejaVuSans-72" x="249.755859"/>
      <use xlink:href="#DejaVuSans-6d" x="289.119141"/>
      <use xlink:href="#DejaVuSans-61" x="386.53125"/>
      <use xlink:href="#DejaVuSans-6e" x="447.810547"/>
      <use xlink:href="#DejaVuSans-20" x="511.189453"/>
      <use xlink:href="#DejaVuSans-52" x="542.976562"/>
     </g>
    </g>
   </g>
   <g id="line2d_8">
    <path d="M 85.147784 68.965886 
L 87.044131 139.143781 
L 88.940477 115.711082 
L 90.836824 132.646164 
L 92.733171 106.504134 
L 94.629517 102.128009 
L 96.525864 117.581864 
L 98.422211 94.377283 
L 100.318557 98.609737 
L 102.214904 88.218553 
L 104.111251 91.951342 
L 106.007597 93.55606 
L 107.903944 87.669974 
L 109.80029 59.552973 
L 111.696637 93.901088 
L 113.592984 86.540135 
L 115.48933 103.063948 
L 117.385677 100.796374 
L 119.282024 145.6936 
L 121.17837 166.658025 
L 123.074717 113.83372 
L 124.971064 137.727259 
L 126.86741 121.164184 
L 128.763757 158.723489 
L 130.660104 144.616185 
L 132.55645 120.516023 
L 134.452797 132.58431 
L 136.349143 129.923013 
L 138.24549 121.718027 
L 140.141837 103.131067 
L 142.038183 113.874957 
L 143.93453 90.930517 
L 145.830877 86.602867 
L 147.727223 102.710366 
L 149.62357 101.912175 
L 151.519917 103.170111 
L 153.416263 84.57372 
L 155.31261 100.821379 
L 157.208957 93.834188 
L 159.105303 89.280614 
L 161.00165 96.390419 
L 162.897996 108.078143 
L 164.794343 116.726643 
L 166.69069 84.351305 
L 168.587036 108.281914 
L 170.483383 90.293982 
L 172.37973 69.605053 
L 174.276076 86.897007 
L 176.172423 86.974216 
L 178.06877 88.510499 
L 179.965116 111.012742 
L 181.861463 123.241368 
L 183.75781 108.814699 
L 185.654156 97.457745 
L 187.550503 84.790212 
L 189.44685 108.041074 
L 191.343196 74.543136 
L 193.239543 98.123233 
L 195.135889 94.098936 
L 197.032236 86.33483 
L 198.928583 91.623862 
L 200.824929 76.556052 
L 202.721276 86.010859 
L 204.617623 91.518577 
L 206.513969 90.534821 
L 208.410316 120.135901 
L 210.306663 92.299879 
L 212.203009 98.287741 
L 214.099356 116.650312 
L 215.995703 105.60987 
L 217.892049 92.205123 
L 219.788396 87.70463 
L 221.684742 117.921846 
L 223.581089 112.183159 
L 225.477436 113.971687 
L 227.373782 108.489851 
L 229.270129 95.16692 
L 231.166476 103.864991 
L 233.062822 122.897657 
L 234.959169 125.607428 
L 236.855516 115.792239 
L 238.751862 97.414095 
L 240.648209 84.557269 
L 242.544556 89.388531 
L 244.440902 76.254455 
L 246.337249 77.68633 
L 248.233595 83.031515 
L 250.129942 68.775934 
L 252.026289 68.844589 
L 253.922635 76.381455 
L 255.818982 105.956652 
L 257.715329 122.003393 
L 259.611675 79.259243 
L 261.508022 75.157737 
L 263.404369 94.78263 
L 265.300715 98.99644 
L 267.197062 105.730947 
L 269.093409 93.260604 
L 270.989755 107.131895 
L 272.886102 124.549972 
L 274.782448 90.838832 
L 276.678795 118.859321 
L 278.575142 107.86889 
L 280.471488 138.280883 
L 282.367835 114.432747 
L 284.264182 124.429552 
L 286.160528 115.231378 
L 288.056875 110.292856 
L 289.953222 113.294573 
L 291.849568 117.398273 
L 293.745915 102.888912 
L 295.642262 110.663766 
L 297.538608 98.021019 
L 299.434955 89.637048 
L 301.331302 111.303591 
L 303.227648 94.477742 
L 305.123995 113.741596 
L 307.020341 143.593824 
L 308.916688 89.895873 
L 310.813035 92.189111 
L 312.709381 82.488859 
L 314.605728 98.965951 
L 316.502075 95.283391 
L 318.398421 72.408484 
L 320.294768 112.790083 
L 322.191115 96.613491 
L 324.087461 83.03985 
L 325.983808 91.479096 
L 327.880155 108.941041 
L 329.776501 113.235131 
L 331.672848 87.658568 
L 333.569194 115.278537 
L 335.465541 102.19776 
L 337.361888 107.054247 
L 339.258234 105.356966 
L 341.154581 107.840156 
L 343.050928 97.452042 
L 344.947274 111.448358 
L 346.843621 109.09173 
L 348.739968 97.286876 
L 350.636314 90.293982 
L 352.532661 106.481322 
L 354.429008 94.484761 
L 356.325354 92.693821 
L 358.221701 106.847187 
L 360.118047 113.69992 
L 362.014394 113.511285 
L 363.910741 105.676769 
L 365.807087 125.654367 
L 367.703434 109.475362 
L 369.599781 96.086628 
L 371.496127 99.475706 
L 373.392474 103.74852 
L 375.288821 88.76757 
L 377.185167 103.146641 
L 379.081514 97.344563 
L 380.977861 109.360426 
L 382.874207 113.615693 
L 384.770554 100.89135 
L 386.6669 81.483607 
L 388.563247 78.890088 
L 390.459594 70.5785 
L 392.35594 70.864524 
L 394.252287 85.003852 
L 396.148634 86.062405 
L 398.04498 95.022592 
L 399.941327 102.313574 
L 401.837674 101.97074 
L 403.73402 104.111753 
L 405.630367 120.693692 
L 407.526714 90.470334 
L 409.42306 100.177825 
L 411.319407 99.67158 
L 413.215754 102.882551 
L 415.1121 88.388763 
L 417.008447 128.471617 
L 418.904793 137.402631 
L 420.80114 120.346252 
L 422.697487 112.621627 
L 424.593833 149.702324 
L 426.49018 110.223763 
L 428.386527 101.106745 
L 430.282873 106.575201 
L 432.17922 101.010453 
L 434.075567 89.941277 
L 435.971913 93.541584 
L 437.86826 100.357248 
L 439.764607 97.941178 
L 441.660953 102.805342 
L 443.5573 97.798166 
L 445.453646 99.44434 
L 447.349993 85.503737 
L 449.24634 82.808442 
L 451.142686 102.473914 
L 453.039033 105.739721 
L 454.93538 86.870467 
L 456.831726 83.66476 
L 458.728073 102.471501 
L 460.62442 120.163758 
L 462.520766 104.206509 
L 464.417113 121.601116 
L 466.31346 94.115606 
L 468.209806 99.964404 
L 470.106153 98.788941 
L 472.002499 146.094122 
L 473.898846 112.007026 
L 475.795193 128.841869 
L 477.691539 135.643276 
L 479.587886 108.904192 
L 481.484233 108.524288 
L 483.380579 105.812324 
L 485.276926 126.370524 
L 487.173273 110.721453 
L 489.069619 113.193675 
L 490.965966 122.340743 
L 490.965966 122.340743 
" clip-path="url(#p2a1babb5b9)" style="fill: none; stroke: #abd0e6; stroke-width: 1.5; stroke-linecap: square"/>
   </g>
   <g id="line2d_9">
    <path d="M 85.147784 46.036142 
L 87.044131 71.034077 
L 88.940477 80.793552 
L 90.836824 58.602119 
L 92.733171 74.855481 
L 94.629517 72.659193 
L 96.525864 83.414269 
L 98.422211 61.280524 
L 100.318557 80.863742 
L 102.214904 69.082138 
L 104.111251 63.632326 
L 106.007597 61.84314 
L 107.903944 62.34434 
L 109.80029 53.208898 
L 111.696637 55.651508 
L 113.592984 61.907408 
L 115.48933 64.723999 
L 117.385677 72.31614 
L 119.282024 75.102243 
L 121.17837 87.267698 
L 123.074717 105.36925 
L 124.971064 89.066754 
L 126.86741 78.307511 
L 128.763757 78.839419 
L 130.660104 80.229839 
L 132.55645 86.830766 
L 134.452797 79.181157 
L 136.349143 83.906476 
L 138.24549 83.293411 
L 140.141837 75.422046 
L 142.038183 68.621955 
L 143.93453 68.398882 
L 145.830877 67.782527 
L 147.727223 72.725874 
L 149.62357 66.925332 
L 151.519917 67.248425 
L 153.416263 57.221789 
L 155.31261 71.920005 
L 157.208957 80.586491 
L 159.105303 78.356644 
L 161.00165 79.479245 
L 162.897996 79.856516 
L 164.794343 85.701585 
L 166.69069 68.589711 
L 168.587036 74.792749 
L 170.483383 63.45049 
L 172.37973 62.158337 
L 174.276076 64.584716 
L 176.172423 73.124202 
L 178.06877 78.438021 
L 179.965116 76.907879 
L 181.861463 68.623271 
L 183.75781 66.963717 
L 185.654156 93.634366 
L 187.550503 76.587638 
L 189.44685 67.151475 
L 191.343196 62.184219 
L 193.239543 75.762028 
L 195.135889 72.916264 
L 197.032236 68.394276 
L 198.928583 72.270955 
L 200.824929 70.280631 
L 202.721276 76.288014 
L 204.617623 77.438691 
L 206.513969 68.559222 
L 208.410316 82.149753 
L 210.306663 72.089339 
L 212.203009 72.922186 
L 214.099356 94.042345 
L 215.995703 73.467913 
L 217.892049 81.494574 
L 219.788396 72.307147 
L 221.684742 75.867533 
L 223.581089 88.862765 
L 225.477436 86.995712 
L 227.373782 76.399222 
L 229.270129 76.411285 
L 231.166476 85.820907 
L 233.062822 86.355448 
L 234.959169 77.544853 
L 236.855516 81.509489 
L 238.751862 71.902458 
L 240.648209 64.190775 
L 242.544556 61.177432 
L 244.440902 52.641237 
L 246.337249 57.964048 
L 248.233595 59.0963 
L 250.129942 48.511435 
L 252.026289 58.389136 
L 253.922635 62.721173 
L 255.818982 71.556992 
L 257.715329 68.11571 
L 259.611675 59.905678 
L 261.508022 76.939246 
L 263.404369 64.064652 
L 265.300715 73.391143 
L 267.197062 70.03036 
L 269.093409 78.072594 
L 270.989755 97.758465 
L 272.886102 103.597831 
L 274.782448 77.009216 
L 276.678795 88.821528 
L 278.575142 86.63555 
L 280.471488 114.656697 
L 282.367835 113.891627 
L 284.264182 104.585754 
L 286.160528 97.431423 
L 288.056875 87.533981 
L 289.953222 96.439113 
L 291.849568 82.821822 
L 293.745915 94.528411 
L 295.642262 94.766179 
L 297.538608 102.975772 
L 299.434955 85.827926 
L 301.331302 82.93939 
L 303.227648 92.689653 
L 305.123995 108.254057 
L 307.020341 103.358527 
L 308.916688 83.998601 
L 310.813035 74.426445 
L 312.709381 74.833547 
L 314.605728 66.559905 
L 316.502075 78.103083 
L 318.398421 75.522724 
L 320.294768 90.023312 
L 322.191115 86.545619 
L 324.087461 96.263199 
L 325.983808 82.784314 
L 327.880155 88.97814 
L 329.776501 98.281819 
L 331.672848 88.091114 
L 333.569194 88.061064 
L 335.465541 76.859185 
L 337.361888 88.476281 
L 339.258234 102.128228 
L 341.154581 96.546153 
L 343.050928 87.084107 
L 344.947274 80.268224 
L 346.843621 93.376199 
L 348.739968 97.556888 
L 350.636314 99.401568 
L 352.532661 109.602582 
L 354.429008 96.428584 
L 356.325354 106.319446 
L 358.221701 97.006993 
L 360.118047 112.339332 
L 362.014394 102.094669 
L 363.910741 97.41914 
L 367.703434 82.786727 
L 369.599781 92.985548 
L 371.496127 89.102946 
L 373.392474 86.066572 
L 375.288821 93.188002 
L 377.185167 83.22695 
L 379.081514 93.05815 
L 380.977861 88.408504 
L 382.874207 80.53692 
L 384.770554 80.507528 
L 386.6669 65.838484 
L 388.563247 61.263634 
L 390.459594 60.55318 
L 392.35594 66.628121 
L 394.252287 70.376484 
L 396.148634 64.333348 
L 398.04498 79.33031 
L 399.941327 86.873538 
L 401.837674 77.139726 
L 403.73402 82.603575 
L 405.630367 89.711405 
L 407.526714 74.338708 
L 409.42306 85.696101 
L 411.319407 79.453581 
L 413.215754 82.252625 
L 415.1121 81.878206 
L 417.008447 103.571509 
L 418.904793 88.061283 
L 420.80114 80.310557 
L 422.697487 83.553114 
L 424.593833 76.729992 
L 426.49018 72.616641 
L 428.386527 62.76548 
L 430.282873 77.592451 
L 432.17922 70.82921 
L 434.075567 62.207031 
L 435.971913 67.811041 
L 437.86826 70.625878 
L 439.764607 68.880342 
L 441.660953 73.143943 
L 443.5573 76.951309 
L 445.453646 60.723391 
L 447.349993 61.932413 
L 449.24634 67.819376 
L 451.142686 61.741803 
L 453.039033 61.393486 
L 454.93538 69.492968 
L 456.831726 64.933472 
L 458.728073 80.947531 
L 460.62442 76.510867 
L 462.520766 80.23269 
L 464.417113 77.737218 
L 466.31346 69.967409 
L 468.209806 65.437743 
L 470.106153 74.653246 
L 472.002499 79.577949 
L 473.898846 80.411674 
L 475.795193 109.140425 
L 477.691539 94.894276 
L 479.587886 105.600877 
L 481.484233 76.014932 
L 483.380579 79.35707 
L 485.276926 69.574345 
L 487.173273 75.23341 
L 489.069619 78.838323 
L 490.965966 64.203716 
L 490.965966 64.203716 
" clip-path="url(#p2a1babb5b9)" style="fill: none; stroke: #3787c0; stroke-width: 1.5; stroke-linecap: square"/>
   </g>
   <g id="line2d_10"/>
   <g id="line2d_11"/>
   <g id="line2d_12">
    <path d="M 85.147784 41.198518 
L 87.044131 50.616256 
L 88.940477 58.195675 
L 90.836824 52.24247 
L 92.733171 61.462798 
L 94.629517 52.712743 
L 96.525864 57.329926 
L 98.422211 44.131801 
L 100.318557 51.145532 
L 102.214904 49.346915 
L 104.111251 45.853648 
L 106.007597 45.993589 
L 107.903944 42.608898 
L 109.80029 48.203696 
L 111.696637 45.110293 
L 113.592984 51.012829 
L 115.48933 61.922323 
L 117.385677 52.17886 
L 119.282024 54.946538 
L 121.17837 71.574101 
L 123.074717 72.705256 
L 124.971064 67.449782 
L 126.86741 57.522729 
L 128.763757 72.707449 
L 130.660104 69.485949 
L 132.55645 64.400248 
L 134.452797 57.054211 
L 136.349143 61.723598 
L 138.24549 68.420597 
L 140.141837 63.661279 
L 142.038183 52.771527 
L 143.93453 60.495712 
L 145.830877 52.734238 
L 147.727223 56.347486 
L 149.62357 56.099189 
L 151.519917 53.634424 
L 157.208957 64.224115 
L 159.105303 57.952642 
L 161.00165 57.430385 
L 162.897996 62.654492 
L 164.794343 66.505728 
L 166.69069 64.511236 
L 168.587036 52.438563 
L 170.483383 58.073939 
L 172.37973 52.996793 
L 174.276076 57.573178 
L 176.172423 56.971738 
L 178.06877 50.176034 
L 179.965116 50.975102 
L 181.861463 60.322431 
L 183.75781 64.489082 
L 185.654156 58.245685 
L 187.550503 60.907201 
L 189.44685 59.946915 
L 191.343196 53.249915 
L 193.239543 61.23819 
L 195.135889 51.338993 
L 197.032236 57.532819 
L 198.928583 54.137379 
L 200.824929 53.720407 
L 202.721276 51.430679 
L 204.617623 64.036138 
L 206.513969 51.013707 
L 208.410316 55.970434 
L 210.306663 49.905802 
L 212.203009 63.5209 
L 214.099356 61.285569 
L 215.995703 58.813347 
L 217.892049 56.863163 
L 219.788396 56.574287 
L 221.684742 61.818793 
L 223.581089 59.743802 
L 225.477436 54.20735 
L 227.373782 47.533162 
L 229.270129 52.207375 
L 231.166476 53.029913 
L 233.062822 57.925005 
L 234.959169 55.195054 
L 236.855516 54.229504 
L 238.751862 64.66017 
L 240.648209 52.731387 
L 242.544556 55.039978 
L 244.440902 63.435136 
L 246.337249 44.993163 
L 248.233595 51.73798 
L 250.129942 42.560862 
L 252.026289 42.027857 
L 255.818982 52.762534 
L 257.715329 49.024918 
L 259.611675 52.065898 
L 261.508022 61.785672 
L 263.404369 58.018445 
L 265.300715 53.967169 
L 267.197062 62.105475 
L 269.093409 65.747895 
L 270.989755 61.054161 
L 272.886102 71.740144 
L 274.782448 61.746848 
L 276.678795 59.368505 
L 278.575142 60.452282 
L 280.471488 63.92493 
L 282.367835 57.932463 
L 284.264182 61.176994 
L 286.160528 58.44134 
L 288.056875 56.28936 
L 289.953222 58.835062 
L 291.849568 58.534122 
L 293.745915 51.939556 
L 295.642262 65.88674 
L 297.538608 53.104052 
L 299.434955 58.338248 
L 301.331302 54.968472 
L 303.227648 63.613463 
L 305.123995 60.106816 
L 307.020341 74.814683 
L 308.916688 63.21338 
L 310.813035 58.655639 
L 312.709381 68.34273 
L 314.605728 61.831296 
L 316.502075 60.237325 
L 318.398421 59.603422 
L 320.294768 56.308443 
L 322.191115 58.215855 
L 324.087461 69.473666 
L 325.983808 66.784952 
L 327.880155 69.422559 
L 329.776501 64.969225 
L 331.672848 62.734333 
L 333.569194 61.081798 
L 335.465541 58.557153 
L 337.361888 59.013607 
L 339.258234 62.523983 
L 341.154581 68.882096 
L 343.050928 70.458519 
L 344.947274 61.206605 
L 346.843621 70.7724 
L 348.739968 64.245172 
L 350.636314 63.354418 
L 352.532661 57.820378 
L 354.429008 58.294818 
L 356.325354 61.701444 
L 358.221701 56.185628 
L 360.118047 70.318578 
L 362.014394 61.584753 
L 363.910741 65.290345 
L 365.807087 55.499065 
L 367.703434 63.108534 
L 369.599781 68.537288 
L 371.496127 67.930803 
L 373.392474 56.923921 
L 375.288821 60.867061 
L 377.185167 68.32277 
L 379.081514 70.464441 
L 380.977861 63.700542 
L 382.874207 68.123825 
L 384.770554 60.762873 
L 386.6669 58.000021 
L 388.563247 51.902707 
L 390.459594 49.409866 
L 392.35594 51.918061 
L 394.252287 60.468294 
L 396.148634 54.037359 
L 398.04498 54.407611 
L 399.941327 67.148404 
L 403.73402 65.992683 
L 405.630367 57.300095 
L 407.526714 52.788416 
L 409.42306 72.064553 
L 411.319407 66.824653 
L 413.215754 58.688101 
L 415.1121 73.82983 
L 417.008447 70.100769 
L 418.904793 57.835513 
L 420.80114 53.56226 
L 422.697487 65.156545 
L 424.593833 50.754662 
L 426.49018 52.668874 
L 428.386527 58.160799 
L 430.282873 55.61093 
L 432.17922 53.89325 
L 434.075567 55.20997 
L 435.971913 48.897699 
L 437.86826 45.842023 
L 439.764607 52.932964 
L 441.660953 57.174411 
L 443.5573 49.423027 
L 445.453646 55.468356 
L 447.349993 49.992224 
L 449.24634 52.06546 
L 451.142686 53.565112 
L 453.039033 61.745971 
L 454.93538 57.233634 
L 456.831726 66.923796 
L 458.728073 65.723329 
L 460.62442 64.740889 
L 462.520766 57.778264 
L 464.417113 60.208153 
L 466.31346 58.617692 
L 468.209806 58.910735 
L 470.106153 64.886972 
L 472.002499 64.687808 
L 473.898846 66.231767 
L 475.795193 69.823519 
L 477.691539 61.023892 
L 479.587886 71.199242 
L 481.484233 49.023164 
L 483.380579 57.418979 
L 485.276926 57.875872 
L 487.173273 57.319178 
L 489.069619 50.950317 
L 490.965966 56.783541 
L 490.965966 56.783541 
" clip-path="url(#p2a1babb5b9)" style="fill: none; stroke: #ffffff; stroke-width: 3; stroke-linecap: square"/>
   </g>
   <g id="line2d_13"/>
   <g id="line2d_14">
    <path d="M 85.147784 41.198518 
L 87.044131 50.616256 
L 88.940477 58.195675 
L 90.836824 52.24247 
L 92.733171 61.462798 
L 94.629517 52.712743 
L 96.525864 57.329926 
L 98.422211 44.131801 
L 100.318557 51.145532 
L 102.214904 49.346915 
L 104.111251 45.853648 
L 106.007597 45.993589 
L 107.903944 42.608898 
L 109.80029 48.203696 
L 111.696637 45.110293 
L 113.592984 51.012829 
L 115.48933 61.922323 
L 117.385677 52.17886 
L 119.282024 54.946538 
L 121.17837 71.574101 
L 123.074717 72.705256 
L 124.971064 67.449782 
L 126.86741 57.522729 
L 128.763757 72.707449 
L 130.660104 69.485949 
L 132.55645 64.400248 
L 134.452797 57.054211 
L 136.349143 61.723598 
L 138.24549 68.420597 
L 140.141837 63.661279 
L 142.038183 52.771527 
L 143.93453 60.495712 
L 145.830877 52.734238 
L 147.727223 56.347486 
L 149.62357 56.099189 
L 151.519917 53.634424 
L 157.208957 64.224115 
L 159.105303 57.952642 
L 161.00165 57.430385 
L 162.897996 62.654492 
L 164.794343 66.505728 
L 166.69069 64.511236 
L 168.587036 52.438563 
L 170.483383 58.073939 
L 172.37973 52.996793 
L 174.276076 57.573178 
L 176.172423 56.971738 
L 178.06877 50.176034 
L 179.965116 50.975102 
L 181.861463 60.322431 
L 183.75781 64.489082 
L 185.654156 58.245685 
L 187.550503 60.907201 
L 189.44685 59.946915 
L 191.343196 53.249915 
L 193.239543 61.23819 
L 195.135889 51.338993 
L 197.032236 57.532819 
L 198.928583 54.137379 
L 200.824929 53.720407 
L 202.721276 51.430679 
L 204.617623 64.036138 
L 206.513969 51.013707 
L 208.410316 55.970434 
L 210.306663 49.905802 
L 212.203009 63.5209 
L 214.099356 61.285569 
L 215.995703 58.813347 
L 217.892049 56.863163 
L 219.788396 56.574287 
L 221.684742 61.818793 
L 223.581089 59.743802 
L 225.477436 54.20735 
L 227.373782 47.533162 
L 229.270129 52.207375 
L 231.166476 53.029913 
L 233.062822 57.925005 
L 234.959169 55.195054 
L 236.855516 54.229504 
L 238.751862 64.66017 
L 240.648209 52.731387 
L 242.544556 55.039978 
L 244.440902 63.435136 
L 246.337249 44.993163 
L 248.233595 51.73798 
L 250.129942 42.560862 
L 252.026289 42.027857 
L 255.818982 52.762534 
L 257.715329 49.024918 
L 259.611675 52.065898 
L 261.508022 61.785672 
L 263.404369 58.018445 
L 265.300715 53.967169 
L 267.197062 62.105475 
L 269.093409 65.747895 
L 270.989755 61.054161 
L 272.886102 71.740144 
L 274.782448 61.746848 
L 276.678795 59.368505 
L 278.575142 60.452282 
L 280.471488 63.92493 
L 282.367835 57.932463 
L 284.264182 61.176994 
L 286.160528 58.44134 
L 288.056875 56.28936 
L 289.953222 58.835062 
L 291.849568 58.534122 
L 293.745915 51.939556 
L 295.642262 65.88674 
L 297.538608 53.104052 
L 299.434955 58.338248 
L 301.331302 54.968472 
L 303.227648 63.613463 
L 305.123995 60.106816 
L 307.020341 74.814683 
L 308.916688 63.21338 
L 310.813035 58.655639 
L 312.709381 68.34273 
L 314.605728 61.831296 
L 316.502075 60.237325 
L 318.398421 59.603422 
L 320.294768 56.308443 
L 322.191115 58.215855 
L 324.087461 69.473666 
L 325.983808 66.784952 
L 327.880155 69.422559 
L 329.776501 64.969225 
L 331.672848 62.734333 
L 333.569194 61.081798 
L 335.465541 58.557153 
L 337.361888 59.013607 
L 339.258234 62.523983 
L 341.154581 68.882096 
L 343.050928 70.458519 
L 344.947274 61.206605 
L 346.843621 70.7724 
L 348.739968 64.245172 
L 350.636314 63.354418 
L 352.532661 57.820378 
L 354.429008 58.294818 
L 356.325354 61.701444 
L 358.221701 56.185628 
L 360.118047 70.318578 
L 362.014394 61.584753 
L 363.910741 65.290345 
L 365.807087 55.499065 
L 367.703434 63.108534 
L 369.599781 68.537288 
L 371.496127 67.930803 
L 373.392474 56.923921 
L 375.288821 60.867061 
L 377.185167 68.32277 
L 379.081514 70.464441 
L 380.977861 63.700542 
L 382.874207 68.123825 
L 384.770554 60.762873 
L 386.6669 58.000021 
L 388.563247 51.902707 
L 390.459594 49.409866 
L 392.35594 51.918061 
L 394.252287 60.468294 
L 396.148634 54.037359 
L 398.04498 54.407611 
L 399.941327 67.148404 
L 403.73402 65.992683 
L 405.630367 57.300095 
L 407.526714 52.788416 
L 409.42306 72.064553 
L 411.319407 66.824653 
L 413.215754 58.688101 
L 415.1121 73.82983 
L 417.008447 70.100769 
L 418.904793 57.835513 
L 420.80114 53.56226 
L 422.697487 65.156545 
L 424.593833 50.754662 
L 426.49018 52.668874 
L 428.386527 58.160799 
L 430.282873 55.61093 
L 432.17922 53.89325 
L 434.075567 55.20997 
L 435.971913 48.897699 
L 437.86826 45.842023 
L 439.764607 52.932964 
L 441.660953 57.174411 
L 443.5573 49.423027 
L 445.453646 55.468356 
L 447.349993 49.992224 
L 449.24634 52.06546 
L 451.142686 53.565112 
L 453.039033 61.745971 
L 454.93538 57.233634 
L 456.831726 66.923796 
L 458.728073 65.723329 
L 460.62442 64.740889 
L 462.520766 57.778264 
L 464.417113 60.208153 
L 466.31346 58.617692 
L 468.209806 58.910735 
L 470.106153 64.886972 
L 472.002499 64.687808 
L 473.898846 66.231767 
L 475.795193 69.823519 
L 477.691539 61.023892 
L 479.587886 71.199242 
L 481.484233 49.023164 
L 483.380579 57.418979 
L 485.276926 57.875872 
L 487.173273 57.319178 
L 489.069619 50.950317 
L 490.965966 56.783541 
L 490.965966 56.783541 
" clip-path="url(#p2a1babb5b9)" style="fill: none; stroke: #ff0000; stroke-width: 2; stroke-linecap: square"/>
   </g>
   <g id="line2d_15"/>
   <g id="patch_3">
    <path d="M 64.856875 173.52 
L 64.856875 7.2 
" style="fill: none; stroke: #000000; stroke-width: 0.8; stroke-linejoin: miter; stroke-linecap: square"/>
   </g>
   <g id="patch_4">
    <path d="M 64.856875 173.52 
L 511.256875 173.52 
" style="fill: none; stroke: #000000; stroke-width: 0.8; stroke-linejoin: miter; stroke-linecap: square"/>
   </g>
   <g id="legend_1">
    <g id="patch_5">
     <path d="M 518.256875 121.21625 
L 648.21 121.21625 
Q 650.21 121.21625 650.21 119.21625 
L 650.21 61.50375 
Q 650.21 59.50375 648.21 59.50375 
L 518.256875 59.50375 
Q 516.256875 59.50375 516.256875 61.50375 
L 516.256875 119.21625 
Q 516.256875 121.21625 518.256875 121.21625 
z
" style="fill: #ffffff; opacity: 0.8; stroke: #cccccc; stroke-linejoin: miter"/>
    </g>
    <g id="line2d_16">
     <path d="M 520.256875 67.602187 
L 530.256875 67.602187 
L 540.256875 67.602187 
" style="fill: none; stroke: #ff0000; stroke-width: 2; stroke-linecap: square"/>
    </g>
    <g id="text_10">
     <!-- ROSEATE (layer 12) -->
     <g transform="translate(548.256875 71.102187) scale(0.1 -0.1)">
      <defs>
       <path id="DejaVuSans-4f" d="M 2522 4238 
Q 1834 4238 1429 3725 
Q 1025 3213 1025 2328 
Q 1025 1447 1429 934 
Q 1834 422 2522 422 
Q 3209 422 3611 934 
Q 4013 1447 4013 2328 
Q 4013 3213 3611 3725 
Q 3209 4238 2522 4238 
z
M 2522 4750 
Q 3503 4750 4090 4092 
Q 4678 3434 4678 2328 
Q 4678 1225 4090 567 
Q 3503 -91 2522 -91 
Q 1538 -91 948 565 
Q 359 1222 359 2328 
Q 359 3434 948 4092 
Q 1538 4750 2522 4750 
z
" transform="scale(0.015625)"/>
       <path id="DejaVuSans-45" d="M 628 4666 
L 3578 4666 
L 3578 4134 
L 1259 4134 
L 1259 2753 
L 3481 2753 
L 3481 2222 
L 1259 2222 
L 1259 531 
L 3634 531 
L 3634 0 
L 628 0 
L 628 4666 
z
" transform="scale(0.015625)"/>
       <path id="DejaVuSans-54" d="M -19 4666 
L 3928 4666 
L 3928 4134 
L 2272 4134 
L 2272 0 
L 1638 0 
L 1638 4134 
L -19 4134 
L -19 4666 
z
" transform="scale(0.015625)"/>
       <path id="DejaVuSans-28" d="M 1984 4856 
Q 1566 4138 1362 3434 
Q 1159 2731 1159 2009 
Q 1159 1288 1364 580 
Q 1569 -128 1984 -844 
L 1484 -844 
Q 1016 -109 783 600 
Q 550 1309 550 2009 
Q 550 2706 781 3412 
Q 1013 4119 1484 4856 
L 1984 4856 
z
" transform="scale(0.015625)"/>
       <path id="DejaVuSans-79" d="M 2059 -325 
Q 1816 -950 1584 -1140 
Q 1353 -1331 966 -1331 
L 506 -1331 
L 506 -850 
L 844 -850 
Q 1081 -850 1212 -737 
Q 1344 -625 1503 -206 
L 1606 56 
L 191 3500 
L 800 3500 
L 1894 763 
L 2988 3500 
L 3597 3500 
L 2059 -325 
z
" transform="scale(0.015625)"/>
       <path id="DejaVuSans-29" d="M 513 4856 
L 1013 4856 
Q 1481 4119 1714 3412 
Q 1947 2706 1947 2009 
Q 1947 1309 1714 600 
Q 1481 -109 1013 -844 
L 513 -844 
Q 928 -128 1133 580 
Q 1338 1288 1338 2009 
Q 1338 2731 1133 3434 
Q 928 4138 513 4856 
z
" transform="scale(0.015625)"/>
      </defs>
      <use xlink:href="#DejaVuSans-52"/>
      <use xlink:href="#DejaVuSans-4f" x="69.482422"/>
      <use xlink:href="#DejaVuSans-53" x="148.193359"/>
      <use xlink:href="#DejaVuSans-45" x="211.669922"/>
      <use xlink:href="#DejaVuSans-41" x="274.853516"/>
      <use xlink:href="#DejaVuSans-54" x="335.511719"/>
      <use xlink:href="#DejaVuSans-45" x="396.595703"/>
      <use xlink:href="#DejaVuSans-20" x="459.779297"/>
      <use xlink:href="#DejaVuSans-28" x="491.566406"/>
      <use xlink:href="#DejaVuSans-6c" x="530.580078"/>
      <use xlink:href="#DejaVuSans-61" x="558.363281"/>
      <use xlink:href="#DejaVuSans-79" x="619.642578"/>
      <use xlink:href="#DejaVuSans-65" x="678.822266"/>
      <use xlink:href="#DejaVuSans-72" x="740.345703"/>
      <use xlink:href="#DejaVuSans-20" x="781.458984"/>
      <use xlink:href="#DejaVuSans-31" x="813.246094"/>
      <use xlink:href="#DejaVuSans-32" x="876.869141"/>
      <use xlink:href="#DejaVuSans-29" x="940.492188"/>
     </g>
    </g>
    <g id="line2d_17">
     <path d="M 520.256875 82.280312 
L 530.256875 82.280312 
L 540.256875 82.280312 
" style="fill: none; stroke: #ffffff; stroke-width: 3; stroke-linecap: square"/>
    </g>
    <g id="text_11">
     <!-- ROSEATE (layer 12) -->
     <g transform="translate(548.256875 85.780312) scale(0.1 -0.1)">
      <use xlink:href="#DejaVuSans-52"/>
      <use xlink:href="#DejaVuSans-4f" x="69.482422"/>
      <use xlink:href="#DejaVuSans-53" x="148.193359"/>
      <use xlink:href="#DejaVuSans-45" x="211.669922"/>
      <use xlink:href="#DejaVuSans-41" x="274.853516"/>
      <use xlink:href="#DejaVuSans-54" x="335.511719"/>
      <use xlink:href="#DejaVuSans-45" x="396.595703"/>
      <use xlink:href="#DejaVuSans-20" x="459.779297"/>
      <use xlink:href="#DejaVuSans-28" x="491.566406"/>
      <use xlink:href="#DejaVuSans-6c" x="530.580078"/>
      <use xlink:href="#DejaVuSans-61" x="558.363281"/>
      <use xlink:href="#DejaVuSans-79" x="619.642578"/>
      <use xlink:href="#DejaVuSans-65" x="678.822266"/>
      <use xlink:href="#DejaVuSans-72" x="740.345703"/>
      <use xlink:href="#DejaVuSans-20" x="781.458984"/>
      <use xlink:href="#DejaVuSans-31" x="813.246094"/>
      <use xlink:href="#DejaVuSans-32" x="876.869141"/>
      <use xlink:href="#DejaVuSans-29" x="940.492188"/>
     </g>
    </g>
    <g id="line2d_18">
     <path d="M 520.256875 96.958437 
L 530.256875 96.958437 
L 540.256875 96.958437 
" style="fill: none; stroke: #3787c0; stroke-width: 1.5; stroke-linecap: square"/>
    </g>
    <g id="text_12">
     <!-- ESM-1b layer 6 -->
     <g transform="translate(548.256875 100.458437) scale(0.1 -0.1)">
      <defs>
       <path id="DejaVuSans-4d" d="M 628 4666 
L 1569 4666 
L 2759 1491 
L 3956 4666 
L 4897 4666 
L 4897 0 
L 4281 0 
L 4281 4097 
L 3078 897 
L 2444 897 
L 1241 4097 
L 1241 0 
L 628 0 
L 628 4666 
z
" transform="scale(0.015625)"/>
       <path id="DejaVuSans-2d" d="M 313 2009 
L 1997 2009 
L 1997 1497 
L 313 1497 
L 313 2009 
z
" transform="scale(0.015625)"/>
       <path id="DejaVuSans-62" d="M 3116 1747 
Q 3116 2381 2855 2742 
Q 2594 3103 2138 3103 
Q 1681 3103 1420 2742 
Q 1159 2381 1159 1747 
Q 1159 1113 1420 752 
Q 1681 391 2138 391 
Q 2594 391 2855 752 
Q 3116 1113 3116 1747 
z
M 1159 2969 
Q 1341 3281 1617 3432 
Q 1894 3584 2278 3584 
Q 2916 3584 3314 3078 
Q 3713 2572 3713 1747 
Q 3713 922 3314 415 
Q 2916 -91 2278 -91 
Q 1894 -91 1617 61 
Q 1341 213 1159 525 
L 1159 0 
L 581 0 
L 581 4863 
L 1159 4863 
L 1159 2969 
z
" transform="scale(0.015625)"/>
       <path id="DejaVuSans-36" d="M 2113 2584 
Q 1688 2584 1439 2293 
Q 1191 2003 1191 1497 
Q 1191 994 1439 701 
Q 1688 409 2113 409 
Q 2538 409 2786 701 
Q 3034 994 3034 1497 
Q 3034 2003 2786 2293 
Q 2538 2584 2113 2584 
z
M 3366 4563 
L 3366 3988 
Q 3128 4100 2886 4159 
Q 2644 4219 2406 4219 
Q 1781 4219 1451 3797 
Q 1122 3375 1075 2522 
Q 1259 2794 1537 2939 
Q 1816 3084 2150 3084 
Q 2853 3084 3261 2657 
Q 3669 2231 3669 1497 
Q 3669 778 3244 343 
Q 2819 -91 2113 -91 
Q 1303 -91 875 529 
Q 447 1150 447 2328 
Q 447 3434 972 4092 
Q 1497 4750 2381 4750 
Q 2619 4750 2861 4703 
Q 3103 4656 3366 4563 
z
" transform="scale(0.015625)"/>
      </defs>
      <use xlink:href="#DejaVuSans-45"/>
      <use xlink:href="#DejaVuSans-53" x="63.183594"/>
      <use xlink:href="#DejaVuSans-4d" x="126.660156"/>
      <use xlink:href="#DejaVuSans-2d" x="212.939453"/>
      <use xlink:href="#DejaVuSans-31" x="249.023438"/>
      <use xlink:href="#DejaVuSans-62" x="312.646484"/>
      <use xlink:href="#DejaVuSans-20" x="376.123047"/>
      <use xlink:href="#DejaVuSans-6c" x="407.910156"/>
      <use xlink:href="#DejaVuSans-61" x="435.693359"/>
      <use xlink:href="#DejaVuSans-79" x="496.972656"/>
      <use xlink:href="#DejaVuSans-65" x="556.152344"/>
      <use xlink:href="#DejaVuSans-72" x="617.675781"/>
      <use xlink:href="#DejaVuSans-20" x="658.789062"/>
      <use xlink:href="#DejaVuSans-36" x="690.576172"/>
     </g>
    </g>
    <g id="line2d_19">
     <path d="M 520.256875 111.636562 
L 530.256875 111.636562 
L 540.256875 111.636562 
" style="fill: none; stroke: #abd0e6; stroke-width: 1.5; stroke-linecap: square"/>
    </g>
    <g id="text_13">
     <!-- ESM-1b layer 1 -->
     <g transform="translate(548.256875 115.136562) scale(0.1 -0.1)">
      <use xlink:href="#DejaVuSans-45"/>
      <use xlink:href="#DejaVuSans-53" x="63.183594"/>
      <use xlink:href="#DejaVuSans-4d" x="126.660156"/>
      <use xlink:href="#DejaVuSans-2d" x="212.939453"/>
      <use xlink:href="#DejaVuSans-31" x="249.023438"/>
      <use xlink:href="#DejaVuSans-62" x="312.646484"/>
      <use xlink:href="#DejaVuSans-20" x="376.123047"/>
      <use xlink:href="#DejaVuSans-6c" x="407.910156"/>
      <use xlink:href="#DejaVuSans-61" x="435.693359"/>
      <use xlink:href="#DejaVuSans-79" x="496.972656"/>
      <use xlink:href="#DejaVuSans-65" x="556.152344"/>
      <use xlink:href="#DejaVuSans-72" x="617.675781"/>
      <use xlink:href="#DejaVuSans-20" x="658.789062"/>
      <use xlink:href="#DejaVuSans-31" x="690.576172"/>
     </g>
    </g>
   </g>
  </g>
 </g>
 <defs>
  <clipPath id="p2a1babb5b9">
   <rect x="64.856875" y="7.2" width="446.4" height="166.32"/>
  </clipPath>
 </defs>
</svg>
