<?xml version="1.0" encoding="UTF-8" standalone="no"?> <svg width="70.5556mm" height="211.667mm"  viewBox="0 0 200 600"  xmlns="http://www.w3.org/2000/svg" xmlns:xlink="http://www.w3.org/1999/xlink"  version="1.2" baseProfile="tiny"> <title>Generated with ETE http://etetoolkit.org</title> <desc>Generated with ETE http://etetoolkit.org</desc> <defs> </defs> <g fill="none" stroke="black" stroke-width="1" fill-rule="evenodd" stroke-linecap="square" stroke-linejoin="bevel" >      <g fill="none" stroke="none" transform="matrix(0.989951,0,0,27.2727,0,0)" font-family="Noto Sans" font-size="12pt" font-weight="400" font-style="normal"  > <rect x="0" y="0" width="202.03" height="22"/> </g>      <g fill="none" stroke="none" transform="matrix(0.989951,0,0,27.2727,0.989951,27.2727)" font-family="Noto Sans" font-size="12pt" font-weight="400" font-style="normal"  > <rect x="0" y="0" width="200.03" height="20"/> </g>                                                                                                                                                                  <g fill="none" stroke="#000000" stroke-opacity="1" stroke-width="1" stroke-linecap="butt" stroke-linejoin="bevel" transform="matrix(0.989951,0,0,27.2727,0.989951,27.2727)" font-family="Noto Sans" font-size="12pt" font-weight="400" font-style="normal"  > <polyline fill="none" vector-effect="non-scaling-stroke" points="20.0301,4.625 20.0301,12.0469 " /> </g>            <g fill="none" stroke="#000000" stroke-opacity="1" stroke-width="1" stroke-linecap="butt" stroke-linejoin="bevel" transform="matrix(0.989951,0,0,27.2727,0.989951,27.2727)" font-family="Noto Sans" font-size="12pt" font-weight="400" font-style="normal"  > <polyline fill="none" vector-effect="non-scaling-stroke" points="0,8.33594 20.0301,8.33594 " /> </g>                  <g fill="none" stroke="#000000" stroke-opacity="1" stroke-width="1" stroke-linecap="butt" stroke-linejoin="bevel" transform="matrix(0.989951,0,0,27.2727,20.8188,27.2727)" font-family="Noto Sans" font-size="12pt" font-weight="400" font-style="normal"  > <polyline fill="none" vector-effect="non-scaling-stroke" points="20.0301,2.125 20.0301,7.125 " /> </g>            <g fill="none" stroke="#000000" stroke-opacity="1" stroke-width="1" stroke-linecap="butt" stroke-linejoin="bevel" transform="matrix(0.989951,0,0,27.2727,20.8188,27.2727)" font-family="Noto Sans" font-size="12pt" font-weight="400" font-style="normal"  > <polyline fill="none" vector-effect="non-scaling-stroke" points="0,4.625 20.0301,4.625 " /> </g>                  <g fill="none" stroke="#000000" stroke-opacity="1" stroke-width="1" stroke-linecap="butt" stroke-linejoin="bevel" transform="matrix(0.989951,0,0,27.2727,40.6477,27.2727)" font-family="Noto Sans" font-size="12pt" font-weight="400" font-style="normal"  > <polyline fill="none" vector-effect="non-scaling-stroke" points="20.0301,1 20.0301,3.25 " /> </g>            <g fill="none" stroke="#000000" stroke-opacity="1" stroke-width="1" stroke-linecap="butt" stroke-linejoin="bevel" transform="matrix(0.989951,0,0,27.2727,40.6477,27.2727)" font-family="Noto Sans" font-size="12pt" font-weight="400" font-style="normal"  > <polyline fill="none" vector-effect="non-scaling-stroke" points="0,2.125 20.0301,2.125 " /> </g>                  <g fill="none" stroke="#000000" stroke-opacity="1" stroke-width="1" stroke-linecap="butt" stroke-linejoin="bevel" transform="matrix(0.989951,0,0,27.2727,60.4766,27.2727)" font-family="Noto Sans" font-size="12pt" font-weight="400" font-style="normal"  > <polyline fill="none" vector-effect="non-scaling-stroke" points="20.0301,0.5 20.0301,1.5 " /> </g>            <g fill="none" stroke="#000000" stroke-opacity="1" stroke-width="1" stroke-linecap="butt" stroke-linejoin="bevel" transform="matrix(0.989951,0,0,27.2727,60.4766,27.2727)" font-family="Noto Sans" font-size="12pt" font-weight="400" font-style="normal"  > <polyline fill="none" vector-effect="non-scaling-stroke" points="0,1 20.0301,1 " /> </g>                        <g fill="none" stroke="#00008b" stroke-opacity="1" stroke-width="1" stroke-linecap="butt" stroke-linejoin="bevel" transform="matrix(0.989951,0,0,27.2727,80.3054,27.2727)" font-family="Noto Sans" font-size="12pt" font-weight="400" font-style="normal"  > <polyline fill="none" vector-effect="non-scaling-stroke" points="0,0.5 20.0301,0.5 " /> </g>                        <g fill="none" stroke="#000000" stroke-opacity="1" stroke-width="1" stroke-linecap="butt" stroke-linejoin="bevel" transform="matrix(0.989951,0,0,27.2727,80.3054,54.5455)" font-family="Noto Sans" font-size="12pt" font-weight="400" font-style="normal"  > <polyline fill="none" vector-effect="non-scaling-stroke" points="0,0.5 20.0301,0.5 " /> </g>                  <g fill="none" stroke="#000000" stroke-opacity="1" stroke-width="1" stroke-linecap="butt" stroke-linejoin="bevel" transform="matrix(0.989951,0,0,27.2727,60.4766,81.8182)" font-family="Noto Sans" font-size="12pt" font-weight="400" font-style="normal"  > <polyline fill="none" vector-effect="non-scaling-stroke" points="20.0301,0.5 20.0301,2 " /> </g>            <g fill="none" stroke="#000000" stroke-opacity="1" stroke-width="1" stroke-linecap="butt" stroke-linejoin="bevel" transform="matrix(0.989951,0,0,27.2727,60.4766,81.8182)" font-family="Noto Sans" font-size="12pt" font-weight="400" font-style="normal"  > <polyline fill="none" vector-effect="non-scaling-stroke" points="0,1.25 20.0301,1.25 " /> </g>                        <g fill="none" stroke="#00008b" stroke-opacity="1" stroke-width="1" stroke-linecap="butt" stroke-linejoin="bevel" transform="matrix(0.989951,0,0,27.2727,80.3054,81.8182)" font-family="Noto Sans" font-size="12pt" font-weight="400" font-style="normal"  > <polyline fill="none" vector-effect="non-scaling-stroke" points="0,0.5 20.0301,0.5 " /> </g>                  <g fill="none" stroke="#000000" stroke-opacity="1" stroke-width="1" stroke-linecap="butt" stroke-linejoin="bevel" transform="matrix(0.989951,0,0,27.2727,80.3054,109.091)" font-family="Noto Sans" font-size="12pt" font-weight="400" font-style="normal"  > <polyline fill="none" vector-effect="non-scaling-stroke" points="20.7511,0.5 20.7511,1.5 " /> </g>            <g fill="none" stroke="#000000" stroke-opacity="1" stroke-width="1" stroke-linecap="butt" stroke-linejoin="bevel" transform="matrix(0.989951,0,0,27.2727,80.3054,109.091)" font-family="Noto Sans" font-size="12pt" font-weight="400" font-style="normal"  > <polyline fill="none" vector-effect="non-scaling-stroke" points="0,1 20.7511,1 " /> </g>                        <g fill="none" stroke="#000000" stroke-opacity="1" stroke-width="1" stroke-linecap="butt" stroke-linejoin="bevel" transform="matrix(0.989951,0,0,27.2727,100.848,109.091)" font-family="Noto Sans" font-size="12pt" font-weight="400" font-style="normal"  > <polyline fill="none" vector-effect="non-scaling-stroke" points="0,0.5 29.2817,0.5 " /> </g>                        <g fill="none" stroke="#000000" stroke-opacity="1" stroke-width="1" stroke-linecap="butt" stroke-linejoin="bevel" transform="matrix(0.989951,0,0,27.2727,100.848,136.364)" font-family="Noto Sans" font-size="12pt" font-weight="400" font-style="normal"  > <polyline fill="none" vector-effect="non-scaling-stroke" points="0,0.5 31.3036,0.5 " /> </g>                  <g fill="none" stroke="#000000" stroke-opacity="1" stroke-width="1" stroke-linecap="butt" stroke-linejoin="bevel" transform="matrix(0.989951,0,0,27.2727,40.6477,163.636)" font-family="Noto Sans" font-size="12pt" font-weight="400" font-style="normal"  > <polyline fill="none" vector-effect="non-scaling-stroke" points="20.0301,1 20.0301,3.25 " /> </g>            <g fill="none" stroke="#000000" stroke-opacity="1" stroke-width="1" stroke-linecap="butt" stroke-linejoin="bevel" transform="matrix(0.989951,0,0,27.2727,40.6477,163.636)" font-family="Noto Sans" font-size="12pt" font-weight="400" font-style="normal"  > <polyline fill="none" vector-effect="non-scaling-stroke" points="0,2.125 20.0301,2.125 " /> </g>                  <g fill="none" stroke="#000000" stroke-opacity="1" stroke-width="1" stroke-linecap="butt" stroke-linejoin="bevel" transform="matrix(0.989951,0,0,27.2727,60.4766,163.636)" font-family="Noto Sans" font-size="12pt" font-weight="400" font-style="normal"  > <polyline fill="none" vector-effect="non-scaling-stroke" points="20.0301,0.5 20.0301,1.5 " /> </g>            <g fill="none" stroke="#000000" stroke-opacity="1" stroke-width="1" stroke-linecap="butt" stroke-linejoin="bevel" transform="matrix(0.989951,0,0,27.2727,60.4766,163.636)" font-family="Noto Sans" font-size="12pt" font-weight="400" font-style="normal"  > <polyline fill="none" vector-effect="non-scaling-stroke" points="0,1 20.0301,1 " /> </g>                        <g fill="none" stroke="#000000" stroke-opacity="1" stroke-width="1" stroke-linecap="butt" stroke-linejoin="bevel" transform="matrix(0.989951,0,0,27.2727,80.3054,163.636)" font-family="Noto Sans" font-size="12pt" font-weight="400" font-style="normal"  > <polyline fill="none" vector-effect="non-scaling-stroke" points="0,0.5 20.0301,0.5 " /> </g>                        <g fill="none" stroke="#000000" stroke-opacity="1" stroke-width="1" stroke-linecap="butt" stroke-linejoin="bevel" transform="matrix(0.989951,0,0,27.2727,80.3054,190.909)" font-family="Noto Sans" font-size="12pt" font-weight="400" font-style="normal"  > <polyline fill="none" vector-effect="non-scaling-stroke" points="0,0.5 20.0301,0.5 " /> </g>                  <g fill="none" stroke="#000000" stroke-opacity="1" stroke-width="1" stroke-linecap="butt" stroke-linejoin="bevel" transform="matrix(0.989951,0,0,27.2727,60.4766,218.182)" font-family="Noto Sans" font-size="12pt" font-weight="400" font-style="normal"  > <polyline fill="none" vector-effect="non-scaling-stroke" points="20.0301,0.5 20.0301,2 " /> </g>            <g fill="none" stroke="#000000" stroke-opacity="1" stroke-width="1" stroke-linecap="butt" stroke-linejoin="bevel" transform="matrix(0.989951,0,0,27.2727,60.4766,218.182)" font-family="Noto Sans" font-size="12pt" font-weight="400" font-style="normal"  > <polyline fill="none" vector-effect="non-scaling-stroke" points="0,1.25 20.0301,1.25 " /> </g>                        <g fill="none" stroke="#000000" stroke-opacity="1" stroke-width="1" stroke-linecap="butt" stroke-linejoin="bevel" transform="matrix(0.989951,0,0,27.2727,80.3054,218.182)" font-family="Noto Sans" font-size="12pt" font-weight="400" font-style="normal"  > <polyline fill="none" vector-effect="non-scaling-stroke" points="0,0.5 25.2171,0.5 " /> </g>                  <g fill="none" stroke="#000000" stroke-opacity="1" stroke-width="1" stroke-linecap="butt" stroke-linejoin="bevel" transform="matrix(0.989951,0,0,27.2727,80.3054,245.455)" font-family="Noto Sans" font-size="12pt" font-weight="400" font-style="normal"  > <polyline fill="none" vector-effect="non-scaling-stroke" points="20.0301,0.5 20.0301,1.5 " /> </g>            <g fill="none" stroke="#000000" stroke-opacity="1" stroke-width="1" stroke-linecap="butt" stroke-linejoin="bevel" transform="matrix(0.989951,0,0,27.2727,80.3054,245.455)" font-family="Noto Sans" font-size="12pt" font-weight="400" font-style="normal"  > <polyline fill="none" vector-effect="non-scaling-stroke" points="0,1 20.0301,1 " /> </g>                        <g fill="none" stroke="#000000" stroke-opacity="1" stroke-width="1" stroke-linecap="butt" stroke-linejoin="bevel" transform="matrix(0.989951,0,0,27.2727,100.134,245.455)" font-family="Noto Sans" font-size="12pt" font-weight="400" font-style="normal"  > <polyline fill="none" vector-effect="non-scaling-stroke" points="0,0.5 20.0301,0.5 " /> </g>                        <g fill="none" stroke="#000000" stroke-opacity="1" stroke-width="1" stroke-linecap="butt" stroke-linejoin="bevel" transform="matrix(0.989951,0,0,27.2727,100.134,272.727)" font-family="Noto Sans" font-size="12pt" font-weight="400" font-style="normal"  > <polyline fill="none" vector-effect="non-scaling-stroke" points="0,0.5 42.1341,0.5 " /> </g>                  <g fill="none" stroke="#000000" stroke-opacity="1" stroke-width="1" stroke-linecap="butt" stroke-linejoin="bevel" transform="matrix(0.989951,0,0,27.2727,20.8188,300)" font-family="Noto Sans" font-size="12pt" font-weight="400" font-style="normal"  > <polyline fill="none" vector-effect="non-scaling-stroke" points="20.0301,0.5 20.0301,3.59375 " /> </g>            <g fill="none" stroke="#000000" stroke-opacity="1" stroke-width="1" stroke-linecap="butt" stroke-linejoin="bevel" transform="matrix(0.989951,0,0,27.2727,20.8188,300)" font-family="Noto Sans" font-size="12pt" font-weight="400" font-style="normal"  > <polyline fill="none" vector-effect="non-scaling-stroke" points="0,2.04688 20.0301,2.04688 " /> </g>                        <g fill="none" stroke="#000000" stroke-opacity="1" stroke-width="1" stroke-linecap="butt" stroke-linejoin="bevel" transform="matrix(0.989951,0,0,27.2727,40.6477,300)" font-family="Noto Sans" font-size="12pt" font-weight="400" font-style="normal"  > <polyline fill="none" vector-effect="non-scaling-stroke" points="0,0.5 24.7328,0.5 " /> </g>                  <g fill="none" stroke="#000000" stroke-opacity="1" stroke-width="1" stroke-linecap="butt" stroke-linejoin="bevel" transform="matrix(0.989951,0,0,27.2727,40.6477,327.273)" font-family="Noto Sans" font-size="12pt" font-weight="400" font-style="normal"  > <polyline fill="none" vector-effect="non-scaling-stroke" points="29.7784,0.5 29.7784,4.6875 " /> </g>            <g fill="none" stroke="#000000" stroke-opacity="1" stroke-width="1" stroke-linecap="butt" stroke-linejoin="bevel" transform="matrix(0.989951,0,0,27.2727,40.6477,327.273)" font-family="Noto Sans" font-size="12pt" font-weight="400" font-style="normal"  > <polyline fill="none" vector-effect="non-scaling-stroke" points="0,2.59375 29.7784,2.59375 " /> </g>                        <g fill="none" stroke="#00008b" stroke-opacity="1" stroke-width="1" stroke-linecap="butt" stroke-linejoin="bevel" transform="matrix(0.989951,0,0,27.2727,70.1269,327.273)" font-family="Noto Sans" font-size="12pt" font-weight="400" font-style="normal"  > <polyline fill="none" vector-effect="non-scaling-stroke" points="0,0.5 20.0301,0.5 " /> </g>                  <g fill="none" stroke="#000000" stroke-opacity="1" stroke-width="1" stroke-linecap="butt" stroke-linejoin="bevel" transform="matrix(0.989951,0,0,27.2727,70.1269,354.545)" font-family="Noto Sans" font-size="12pt" font-weight="400" font-style="normal"  > <polyline fill="none" vector-effect="non-scaling-stroke" points="20.0301,1.375 20.0301,6 " /> </g>            <g fill="none" stroke="#000000" stroke-opacity="1" stroke-width="1" stroke-linecap="butt" stroke-linejoin="bevel" transform="matrix(0.989951,0,0,27.2727,70.1269,354.545)" font-family="Noto Sans" font-size="12pt" font-weight="400" font-style="normal"  > <polyline fill="none" vector-effect="non-scaling-stroke" points="0,3.6875 20.0301,3.6875 " /> </g>                  <g fill="none" stroke="#000000" stroke-opacity="1" stroke-width="1" stroke-linecap="butt" stroke-linejoin="bevel" transform="matrix(0.989951,0,0,27.2727,89.9557,354.545)" font-family="Noto Sans" font-size="12pt" font-weight="400" font-style="normal"  > <polyline fill="none" vector-effect="non-scaling-stroke" points="49.0351,0.5 49.0351,2.25 " /> </g>            <g fill="none" stroke="#000000" stroke-opacity="1" stroke-width="1" stroke-linecap="butt" stroke-linejoin="bevel" transform="matrix(0.989951,0,0,27.2727,89.9557,354.545)" font-family="Noto Sans" font-size="12pt" font-weight="400" font-style="normal"  > <polyline fill="none" vector-effect="non-scaling-stroke" points="0,1.375 49.0351,1.375 " /> </g>                        <g fill="none" stroke="#000000" stroke-opacity="1" stroke-width="1" stroke-linecap="butt" stroke-linejoin="bevel" transform="matrix(0.989951,0,0,27.2727,138.498,354.545)" font-family="Noto Sans" font-size="12pt" font-weight="400" font-style="normal"  > <polyline fill="none" vector-effect="non-scaling-stroke" points="0,0.5 20.0301,0.5 " /> </g>                  <g fill="none" stroke="#000000" stroke-opacity="1" stroke-width="1" stroke-linecap="butt" stroke-linejoin="bevel" transform="matrix(0.989951,0,0,27.2727,138.498,381.818)" font-family="Noto Sans" font-size="12pt" font-weight="400" font-style="normal"  > <polyline fill="none" vector-effect="non-scaling-stroke" points="20.0301,0.5 20.0301,2 " /> </g>            <g fill="none" stroke="#000000" stroke-opacity="1" stroke-width="1" stroke-linecap="butt" stroke-linejoin="bevel" transform="matrix(0.989951,0,0,27.2727,138.498,381.818)" font-family="Noto Sans" font-size="12pt" font-weight="400" font-style="normal"  > <polyline fill="none" vector-effect="non-scaling-stroke" points="0,1.25 20.0301,1.25 " /> </g>                        <g fill="none" stroke="#00008b" stroke-opacity="1" stroke-width="1" stroke-linecap="butt" stroke-linejoin="bevel" transform="matrix(0.989951,0,0,27.2727,158.327,381.818)" font-family="Noto Sans" font-size="12pt" font-weight="400" font-style="normal"  > <polyline fill="none" vector-effect="non-scaling-stroke" points="0,0.5 20.0301,0.5 " /> </g>                  <g fill="none" stroke="#000000" stroke-opacity="1" stroke-width="1" stroke-linecap="butt" stroke-linejoin="bevel" transform="matrix(0.989951,0,0,27.2727,158.327,409.091)" font-family="Noto Sans" font-size="12pt" font-weight="400" font-style="normal"  > <polyline fill="none" vector-effect="non-scaling-stroke" points="20.0301,0.5 20.0301,1.5 " /> </g>            <g fill="none" stroke="#000000" stroke-opacity="1" stroke-width="1" stroke-linecap="butt" stroke-linejoin="bevel" transform="matrix(0.989951,0,0,27.2727,158.327,409.091)" font-family="Noto Sans" font-size="12pt" font-weight="400" font-style="normal"  > <polyline fill="none" vector-effect="non-scaling-stroke" points="0,1 20.0301,1 " /> </g>                        <g fill="none" stroke="#000000" stroke-opacity="1" stroke-width="1" stroke-linecap="butt" stroke-linejoin="bevel" transform="matrix(0.989951,0,0,27.2727,178.156,409.091)" font-family="Noto Sans" font-size="12pt" font-weight="400" font-style="normal"  > <polyline fill="none" vector-effect="non-scaling-stroke" points="0,0.5 21.0126,0.5 " /> </g>                        <g fill="none" stroke="#000000" stroke-opacity="1" stroke-width="1" stroke-linecap="butt" stroke-linejoin="bevel" transform="matrix(0.989951,0,0,27.2727,178.156,436.364)" font-family="Noto Sans" font-size="12pt" font-weight="400" font-style="normal"  > <polyline fill="none" vector-effect="non-scaling-stroke" points="0,0.5 21.0659,0.5 " /> </g>                  <g fill="none" stroke="#000000" stroke-opacity="1" stroke-width="1" stroke-linecap="butt" stroke-linejoin="bevel" transform="matrix(0.989951,0,0,27.2727,89.9557,463.636)" font-family="Noto Sans" font-size="12pt" font-weight="400" font-style="normal"  > <polyline fill="none" vector-effect="non-scaling-stroke" points="20.0301,1 20.0301,3 " /> </g>            <g fill="none" stroke="#000000" stroke-opacity="1" stroke-width="1" stroke-linecap="butt" stroke-linejoin="bevel" transform="matrix(0.989951,0,0,27.2727,89.9557,463.636)" font-family="Noto Sans" font-size="12pt" font-weight="400" font-style="normal"  > <polyline fill="none" vector-effect="non-scaling-stroke" points="0,2 20.0301,2 " /> </g>                  <g fill="none" stroke="#000000" stroke-opacity="1" stroke-width="1" stroke-linecap="butt" stroke-linejoin="bevel" transform="matrix(0.989951,0,0,27.2727,109.785,463.636)" font-family="Noto Sans" font-size="12pt" font-weight="400" font-style="normal"  > <polyline fill="none" vector-effect="non-scaling-stroke" points="20.0301,0.5 20.0301,1.5 " /> </g>            <g fill="none" stroke="#000000" stroke-opacity="1" stroke-width="1" stroke-linecap="butt" stroke-linejoin="bevel" transform="matrix(0.989951,0,0,27.2727,109.785,463.636)" font-family="Noto Sans" font-size="12pt" font-weight="400" font-style="normal"  > <polyline fill="none" vector-effect="non-scaling-stroke" points="0,1 20.0301,1 " /> </g>                        <g fill="none" stroke="#000000" stroke-opacity="1" stroke-width="1" stroke-linecap="butt" stroke-linejoin="bevel" transform="matrix(0.989951,0,0,27.2727,129.613,463.636)" font-family="Noto Sans" font-size="12pt" font-weight="400" font-style="normal"  > <polyline fill="none" vector-effect="non-scaling-stroke" points="0,0.5 20.0301,0.5 " /> </g>                        <g fill="none" stroke="#00008b" stroke-opacity="1" stroke-width="1" stroke-linecap="butt" stroke-linejoin="bevel" transform="matrix(0.989951,0,0,27.2727,129.613,490.909)" font-family="Noto Sans" font-size="12pt" font-weight="400" font-style="normal"  > <polyline fill="none" vector-effect="non-scaling-stroke" points="0,0.5 21.9369,0.5 " /> </g>                  <g fill="none" stroke="#000000" stroke-opacity="1" stroke-width="1" stroke-linecap="butt" stroke-linejoin="bevel" transform="matrix(0.989951,0,0,27.2727,109.785,518.182)" font-family="Noto Sans" font-size="12pt" font-weight="400" font-style="normal"  > <polyline fill="none" vector-effect="non-scaling-stroke" points="20.0301,0.5 20.0301,1.5 " /> </g>            <g fill="none" stroke="#000000" stroke-opacity="1" stroke-width="1" stroke-linecap="butt" stroke-linejoin="bevel" transform="matrix(0.989951,0,0,27.2727,109.785,518.182)" font-family="Noto Sans" font-size="12pt" font-weight="400" font-style="normal"  > <polyline fill="none" vector-effect="non-scaling-stroke" points="0,1 20.0301,1 " /> </g>                        <g fill="none" stroke="#000000" stroke-opacity="1" stroke-width="1" stroke-linecap="butt" stroke-linejoin="bevel" transform="matrix(0.989951,0,0,27.2727,129.613,518.182)" font-family="Noto Sans" font-size="12pt" font-weight="400" font-style="normal"  > <polyline fill="none" vector-effect="non-scaling-stroke" points="0,0.5 20.8141,0.5 " /> </g>                        <g fill="none" stroke="#000000" stroke-opacity="1" stroke-width="1" stroke-linecap="butt" stroke-linejoin="bevel" transform="matrix(0.989951,0,0,27.2727,129.613,545.455)" font-family="Noto Sans" font-size="12pt" font-weight="400" font-style="normal"  > <polyline fill="none" vector-effect="non-scaling-stroke" points="0,0.5 45.3276,0.5 " /> </g>                                                                                                                                                                             </g> </svg> 