<?xml version="1.0" encoding="UTF-8" standalone="no"?> <svg width="151.342mm" height="211.667mm"  viewBox="0 0 429.167 600"  xmlns="http://www.w3.org/2000/svg" xmlns:xlink="http://www.w3.org/1999/xlink"  version="1.2" baseProfile="tiny"> <title>Generated with ETE http://etetoolkit.org</title> <desc>Generated with ETE http://etetoolkit.org</desc> <defs> </defs> <g fill="none" stroke="black" stroke-width="1" fill-rule="evenodd" stroke-linecap="square" stroke-linejoin="bevel" >      <g fill="none" stroke="none" transform="matrix(8.33333,0,0,8.33333,0,0)" font-family="Noto Sans" font-size="12pt" font-weight="400" font-style="normal"  > <rect x="0" y="0" width="9.65331" height="72"/> </g>      <g fill="none" stroke="none" transform="matrix(8.33333,0,0,8.33333,8.33333,8.33333)" font-family="Noto Sans" font-size="12pt" font-weight="400" font-style="normal"  > <rect x="0" y="0" width="7.65331" height="20"/> </g>                                                                                                                                                                  <g fill="none" stroke="#000000" stroke-opacity="1" stroke-width="1" stroke-linecap="butt" stroke-linejoin="bevel" transform="matrix(8.33333,0,0,8.33333,8.33333,8.33333)" font-family="Noto Sans" font-size="12pt" font-weight="400" font-style="normal"  > <polyline fill="none" vector-effect="non-scaling-stroke" points="1,4.4375 1,12.7813 " /> </g>            <g fill="none" stroke="#000000" stroke-opacity="1" stroke-width="1" stroke-linecap="butt" stroke-linejoin="bevel" transform="matrix(8.33333,0,0,8.33333,8.33333,8.33333)" font-family="Noto Sans" font-size="12pt" font-weight="400" font-style="normal"  > <polyline fill="none" vector-effect="non-scaling-stroke" points="0,8.60938 1,8.60938 " /> </g>                  <g fill="none" stroke="#000000" stroke-opacity="1" stroke-width="1" stroke-linecap="butt" stroke-linejoin="bevel" transform="matrix(8.33333,0,0,8.33333,16.6667,8.33333)" font-family="Noto Sans" font-size="12pt" font-weight="400" font-style="normal"  > <polyline fill="none" vector-effect="non-scaling-stroke" points="1,1.75 1,7.125 " /> </g>            <g fill="none" stroke="#000000" stroke-opacity="1" stroke-width="1" stroke-linecap="butt" stroke-linejoin="bevel" transform="matrix(8.33333,0,0,8.33333,16.6667,8.33333)" font-family="Noto Sans" font-size="12pt" font-weight="400" font-style="normal"  > <polyline fill="none" vector-effect="non-scaling-stroke" points="0,4.4375 1,4.4375 " /> </g>                  <g fill="none" stroke="#000000" stroke-opacity="1" stroke-width="1" stroke-linecap="butt" stroke-linejoin="bevel" transform="matrix(8.33333,0,0,8.33333,25,8.33333)" font-family="Noto Sans" font-size="12pt" font-weight="400" font-style="normal"  > <polyline fill="none" vector-effect="non-scaling-stroke" points="1,0.5 1,3 " /> </g>            <g fill="none" stroke="#000000" stroke-opacity="1" stroke-width="1" stroke-linecap="butt" stroke-linejoin="bevel" transform="matrix(8.33333,0,0,8.33333,25,8.33333)" font-family="Noto Sans" font-size="12pt" font-weight="400" font-style="normal"  > <polyline fill="none" vector-effect="non-scaling-stroke" points="0,1.75 1,1.75 " /> </g>                        <g fill="none" stroke="#000000" stroke-opacity="1" stroke-width="1" stroke-linecap="butt" stroke-linejoin="bevel" transform="matrix(8.33333,0,0,8.33333,33.3333,8.33333)" font-family="Noto Sans" font-size="12pt" font-weight="400" font-style="normal"  > <polyline fill="none" vector-effect="non-scaling-stroke" points="0,0.5 1,0.5 " /> </g>                  <g fill="none" stroke="#000000" stroke-opacity="1" stroke-width="1" stroke-linecap="butt" stroke-linejoin="bevel" transform="matrix(8.33333,0,0,8.33333,33.3333,16.6667)" font-family="Noto Sans" font-size="12pt" font-weight="400" font-style="normal"  > <polyline fill="none" vector-effect="non-scaling-stroke" points="1,1 1,3 " /> </g>            <g fill="none" stroke="#000000" stroke-opacity="1" stroke-width="1" stroke-linecap="butt" stroke-linejoin="bevel" transform="matrix(8.33333,0,0,8.33333,33.3333,16.6667)" font-family="Noto Sans" font-size="12pt" font-weight="400" font-style="normal"  > <polyline fill="none" vector-effect="non-scaling-stroke" points="0,2 1,2 " /> </g>                  <g fill="none" stroke="#000000" stroke-opacity="1" stroke-width="1" stroke-linecap="butt" stroke-linejoin="bevel" transform="matrix(8.33333,0,0,8.33333,41.6667,16.6667)" font-family="Noto Sans" font-size="12pt" font-weight="400" font-style="normal"  > <polyline fill="none" vector-effect="non-scaling-stroke" points="2.02849,0.5 2.02849,1.5 " /> </g>            <g fill="none" stroke="#000000" stroke-opacity="1" stroke-width="1" stroke-linecap="butt" stroke-linejoin="bevel" transform="matrix(8.33333,0,0,8.33333,41.6667,16.6667)" font-family="Noto Sans" font-size="12pt" font-weight="400" font-style="normal"  > <polyline fill="none" vector-effect="non-scaling-stroke" points="0,1 2.02849,1 " /> </g>                        <g fill="none" stroke="#808080" stroke-opacity="1" stroke-width="1" stroke-linecap="butt" stroke-linejoin="bevel" transform="matrix(8.33333,0,0,8.33333,58.5707,16.6667)" font-family="Noto Sans" font-size="12pt" font-weight="400" font-style="normal"  > <polyline fill="none" vector-effect="non-scaling-stroke" points="0,0.5 1,0.5 " /> </g>                        <g fill="none" stroke="#808080" stroke-opacity="1" stroke-width="1" stroke-linecap="butt" stroke-linejoin="bevel" transform="matrix(8.33333,0,0,8.33333,58.5707,25)" font-family="Noto Sans" font-size="12pt" font-weight="400" font-style="normal"  > <polyline fill="none" vector-effect="non-scaling-stroke" points="0,0.5 1.15588,0.5 " /> </g>                  <g fill="none" stroke="#000000" stroke-opacity="1" stroke-width="1" stroke-linecap="butt" stroke-linejoin="bevel" transform="matrix(8.33333,0,0,8.33333,41.6667,33.3333)" font-family="Noto Sans" font-size="12pt" font-weight="400" font-style="normal"  > <polyline fill="none" vector-effect="non-scaling-stroke" points="1,0.5 1,1.5 " /> </g>            <g fill="none" stroke="#000000" stroke-opacity="1" stroke-width="1" stroke-linecap="butt" stroke-linejoin="bevel" transform="matrix(8.33333,0,0,8.33333,41.6667,33.3333)" font-family="Noto Sans" font-size="12pt" font-weight="400" font-style="normal"  > <polyline fill="none" vector-effect="non-scaling-stroke" points="0,1 1,1 " /> </g>                        <g fill="none" stroke="#000000" stroke-opacity="1" stroke-width="1" stroke-linecap="butt" stroke-linejoin="bevel" transform="matrix(8.33333,0,0,8.33333,50,33.3333)" font-family="Noto Sans" font-size="12pt" font-weight="400" font-style="normal"  > <polyline fill="none" vector-effect="non-scaling-stroke" points="0,0.5 1,0.5 " /> </g>                        <g fill="none" stroke="#000000" stroke-opacity="1" stroke-width="1" stroke-linecap="butt" stroke-linejoin="bevel" transform="matrix(8.33333,0,0,8.33333,50,41.6667)" font-family="Noto Sans" font-size="12pt" font-weight="400" font-style="normal"  > <polyline fill="none" vector-effect="non-scaling-stroke" points="0,0.5 1.29036,0.5 " /> </g>                  <g fill="none" stroke="#000000" stroke-opacity="1" stroke-width="1" stroke-linecap="butt" stroke-linejoin="bevel" transform="matrix(8.33333,0,0,8.33333,25,50)" font-family="Noto Sans" font-size="12pt" font-weight="400" font-style="normal"  > <polyline fill="none" vector-effect="non-scaling-stroke" points="1.25885,1 1.25885,3.25 " /> </g>            <g fill="none" stroke="#000000" stroke-opacity="1" stroke-width="1" stroke-linecap="butt" stroke-linejoin="bevel" transform="matrix(8.33333,0,0,8.33333,25,50)" font-family="Noto Sans" font-size="12pt" font-weight="400" font-style="normal"  > <polyline fill="none" vector-effect="non-scaling-stroke" points="0,2.125 1.25885,2.125 " /> </g>                  <g fill="none" stroke="#000000" stroke-opacity="1" stroke-width="1" stroke-linecap="butt" stroke-linejoin="bevel" transform="matrix(8.33333,0,0,8.33333,35.4904,50)" font-family="Noto Sans" font-size="12pt" font-weight="400" font-style="normal"  > <polyline fill="none" vector-effect="non-scaling-stroke" points="1,0.5 1,1.5 " /> </g>            <g fill="none" stroke="#000000" stroke-opacity="1" stroke-width="1" stroke-linecap="butt" stroke-linejoin="bevel" transform="matrix(8.33333,0,0,8.33333,35.4904,50)" font-family="Noto Sans" font-size="12pt" font-weight="400" font-style="normal"  > <polyline fill="none" vector-effect="non-scaling-stroke" points="0,1 1,1 " /> </g>                        <g fill="none" stroke="#000000" stroke-opacity="1" stroke-width="1" stroke-linecap="butt" stroke-linejoin="bevel" transform="matrix(8.33333,0,0,8.33333,43.8237,50)" font-family="Noto Sans" font-size="12pt" font-weight="400" font-style="normal"  > <polyline fill="none" vector-effect="non-scaling-stroke" points="0,0.5 1,0.5 " /> </g>                        <g fill="none" stroke="#000000" stroke-opacity="1" stroke-width="1" stroke-linecap="butt" stroke-linejoin="bevel" transform="matrix(8.33333,0,0,8.33333,43.8237,58.3333)" font-family="Noto Sans" font-size="12pt" font-weight="400" font-style="normal"  > <polyline fill="none" vector-effect="non-scaling-stroke" points="0,0.5 1,0.5 " /> </g>                  <g fill="none" stroke="#000000" stroke-opacity="1" stroke-width="1" stroke-linecap="butt" stroke-linejoin="bevel" transform="matrix(8.33333,0,0,8.33333,35.4904,66.6667)" font-family="Noto Sans" font-size="12pt" font-weight="400" font-style="normal"  > <polyline fill="none" vector-effect="non-scaling-stroke" points="1.47684,0.5 1.47684,2 " /> </g>            <g fill="none" stroke="#000000" stroke-opacity="1" stroke-width="1" stroke-linecap="butt" stroke-linejoin="bevel" transform="matrix(8.33333,0,0,8.33333,35.4904,66.6667)" font-family="Noto Sans" font-size="12pt" font-weight="400" font-style="normal"  > <polyline fill="none" vector-effect="non-scaling-stroke" points="0,1.25 1.47684,1.25 " /> </g>                        <g fill="none" stroke="#808080" stroke-opacity="1" stroke-width="1" stroke-linecap="butt" stroke-linejoin="bevel" transform="matrix(8.33333,0,0,8.33333,47.7974,66.6667)" font-family="Noto Sans" font-size="12pt" font-weight="400" font-style="normal"  > <polyline fill="none" vector-effect="non-scaling-stroke" points="0,0.5 1,0.5 " /> </g>                  <g fill="none" stroke="#000000" stroke-opacity="1" stroke-width="1" stroke-linecap="butt" stroke-linejoin="bevel" transform="matrix(8.33333,0,0,8.33333,47.7974,75)" font-family="Noto Sans" font-size="12pt" font-weight="400" font-style="normal"  > <polyline fill="none" vector-effect="non-scaling-stroke" points="1,0.5 1,1.5 " /> </g>            <g fill="none" stroke="#000000" stroke-opacity="1" stroke-width="1" stroke-linecap="butt" stroke-linejoin="bevel" transform="matrix(8.33333,0,0,8.33333,47.7974,75)" font-family="Noto Sans" font-size="12pt" font-weight="400" font-style="normal"  > <polyline fill="none" vector-effect="non-scaling-stroke" points="0,1 1,1 " /> </g>                        <g fill="none" stroke="#000000" stroke-opacity="1" stroke-width="1" stroke-linecap="butt" stroke-linejoin="bevel" transform="matrix(8.33333,0,0,8.33333,56.1308,75)" font-family="Noto Sans" font-size="12pt" font-weight="400" font-style="normal"  > <polyline fill="none" vector-effect="non-scaling-stroke" points="0,0.5 1,0.5 " /> </g>                        <g fill="none" stroke="#000000" stroke-opacity="1" stroke-width="1" stroke-linecap="butt" stroke-linejoin="bevel" transform="matrix(8.33333,0,0,8.33333,56.1308,83.3333)" font-family="Noto Sans" font-size="12pt" font-weight="400" font-style="normal"  > <polyline fill="none" vector-effect="non-scaling-stroke" points="0,0.5 1.69014,0.5 " /> </g>                  <g fill="none" stroke="#000000" stroke-opacity="1" stroke-width="1" stroke-linecap="butt" stroke-linejoin="bevel" transform="matrix(8.33333,0,0,8.33333,16.6667,91.6667)" font-family="Noto Sans" font-size="12pt" font-weight="400" font-style="normal"  > <polyline fill="none" vector-effect="non-scaling-stroke" points="1,0.5 1,5.0625 " /> </g>            <g fill="none" stroke="#000000" stroke-opacity="1" stroke-width="1" stroke-linecap="butt" stroke-linejoin="bevel" transform="matrix(8.33333,0,0,8.33333,16.6667,91.6667)" font-family="Noto Sans" font-size="12pt" font-weight="400" font-style="normal"  > <polyline fill="none" vector-effect="non-scaling-stroke" points="0,2.78125 1,2.78125 " /> </g>                        <g fill="none" stroke="#000000" stroke-opacity="1" stroke-width="1" stroke-linecap="butt" stroke-linejoin="bevel" transform="matrix(8.33333,0,0,8.33333,25,91.6667)" font-family="Noto Sans" font-size="12pt" font-weight="400" font-style="normal"  > <polyline fill="none" vector-effect="non-scaling-stroke" points="0,0.5 1,0.5 " /> </g>                  <g fill="none" stroke="#000000" stroke-opacity="1" stroke-width="1" stroke-linecap="butt" stroke-linejoin="bevel" transform="matrix(8.33333,0,0,8.33333,25,100)" font-family="Noto Sans" font-size="12pt" font-weight="400" font-style="normal"  > <polyline fill="none" vector-effect="non-scaling-stroke" points="1,2 1,6.125 " /> </g>            <g fill="none" stroke="#000000" stroke-opacity="1" stroke-width="1" stroke-linecap="butt" stroke-linejoin="bevel" transform="matrix(8.33333,0,0,8.33333,25,100)" font-family="Noto Sans" font-size="12pt" font-weight="400" font-style="normal"  > <polyline fill="none" vector-effect="non-scaling-stroke" points="0,4.0625 1,4.0625 " /> </g>                  <g fill="none" stroke="#000000" stroke-opacity="1" stroke-width="1" stroke-linecap="butt" stroke-linejoin="bevel" transform="matrix(8.33333,0,0,8.33333,33.3333,100)" font-family="Noto Sans" font-size="12pt" font-weight="400" font-style="normal"  > <polyline fill="none" vector-effect="non-scaling-stroke" points="1.75259,1 1.75259,3 " /> </g>            <g fill="none" stroke="#000000" stroke-opacity="1" stroke-width="1" stroke-linecap="butt" stroke-linejoin="bevel" transform="matrix(8.33333,0,0,8.33333,33.3333,100)" font-family="Noto Sans" font-size="12pt" font-weight="400" font-style="normal"  > <polyline fill="none" vector-effect="non-scaling-stroke" points="0,2 1.75259,2 " /> </g>                  <g fill="none" stroke="#000000" stroke-opacity="1" stroke-width="1" stroke-linecap="butt" stroke-linejoin="bevel" transform="matrix(8.33333,0,0,8.33333,47.9383,100)" font-family="Noto Sans" font-size="12pt" font-weight="400" font-style="normal"  > <polyline fill="none" vector-effect="non-scaling-stroke" points="1.28447,0.5 1.28447,1.5 " /> </g>            <g fill="none" stroke="#000000" stroke-opacity="1" stroke-width="1" stroke-linecap="butt" stroke-linejoin="bevel" transform="matrix(8.33333,0,0,8.33333,47.9383,100)" font-family="Noto Sans" font-size="12pt" font-weight="400" font-style="normal"  > <polyline fill="none" vector-effect="non-scaling-stroke" points="0,1 1.28447,1 " /> </g>                        <g fill="none" stroke="#000000" stroke-opacity="1" stroke-width="1" stroke-linecap="butt" stroke-linejoin="bevel" transform="matrix(8.33333,0,0,8.33333,58.6422,100)" font-family="Noto Sans" font-size="12pt" font-weight="400" font-style="normal"  > <polyline fill="none" vector-effect="non-scaling-stroke" points="0,0.5 1.61625,0.5 " /> </g>                        <g fill="none" stroke="#000000" stroke-opacity="1" stroke-width="1" stroke-linecap="butt" stroke-linejoin="bevel" transform="matrix(8.33333,0,0,8.33333,58.6422,108.333)" font-family="Noto Sans" font-size="12pt" font-weight="400" font-style="normal"  > <polyline fill="none" vector-effect="non-scaling-stroke" points="0,0.5 1,0.5 " /> </g>                  <g fill="none" stroke="#000000" stroke-opacity="1" stroke-width="1" stroke-linecap="butt" stroke-linejoin="bevel" transform="matrix(8.33333,0,0,8.33333,47.9383,116.667)" font-family="Noto Sans" font-size="12pt" font-weight="400" font-style="normal"  > <polyline fill="none" vector-effect="non-scaling-stroke" points="1,0.5 1,1.5 " /> </g>            <g fill="none" stroke="#000000" stroke-opacity="1" stroke-width="1" stroke-linecap="butt" stroke-linejoin="bevel" transform="matrix(8.33333,0,0,8.33333,47.9383,116.667)" font-family="Noto Sans" font-size="12pt" font-weight="400" font-style="normal"  > <polyline fill="none" vector-effect="non-scaling-stroke" points="0,1 1,1 " /> </g>                        <g fill="none" stroke="#808080" stroke-opacity="1" stroke-width="1" stroke-linecap="butt" stroke-linejoin="bevel" transform="matrix(8.33333,0,0,8.33333,56.2716,116.667)" font-family="Noto Sans" font-size="12pt" font-weight="400" font-style="normal"  > <polyline fill="none" vector-effect="non-scaling-stroke" points="0,0.5 1,0.5 " /> </g>                        <g fill="none" stroke="#000000" stroke-opacity="1" stroke-width="1" stroke-linecap="butt" stroke-linejoin="bevel" transform="matrix(8.33333,0,0,8.33333,56.2716,125)" font-family="Noto Sans" font-size="12pt" font-weight="400" font-style="normal"  > <polyline fill="none" vector-effect="non-scaling-stroke" points="0,0.5 1,0.5 " /> </g>                  <g fill="none" stroke="#000000" stroke-opacity="1" stroke-width="1" stroke-linecap="butt" stroke-linejoin="bevel" transform="matrix(8.33333,0,0,8.33333,33.3333,133.333)" font-family="Noto Sans" font-size="12pt" font-weight="400" font-style="normal"  > <polyline fill="none" vector-effect="non-scaling-stroke" points="1,1 1,3.25 " /> </g>            <g fill="none" stroke="#000000" stroke-opacity="1" stroke-width="1" stroke-linecap="butt" stroke-linejoin="bevel" transform="matrix(8.33333,0,0,8.33333,33.3333,133.333)" font-family="Noto Sans" font-size="12pt" font-weight="400" font-style="normal"  > <polyline fill="none" vector-effect="non-scaling-stroke" points="0,2.125 1,2.125 " /> </g>                  <g fill="none" stroke="#000000" stroke-opacity="1" stroke-width="1" stroke-linecap="butt" stroke-linejoin="bevel" transform="matrix(8.33333,0,0,8.33333,41.6667,133.333)" font-family="Noto Sans" font-size="12pt" font-weight="400" font-style="normal"  > <polyline fill="none" vector-effect="non-scaling-stroke" points="1,0.5 1,1.5 " /> </g>            <g fill="none" stroke="#000000" stroke-opacity="1" stroke-width="1" stroke-linecap="butt" stroke-linejoin="bevel" transform="matrix(8.33333,0,0,8.33333,41.6667,133.333)" font-family="Noto Sans" font-size="12pt" font-weight="400" font-style="normal"  > <polyline fill="none" vector-effect="non-scaling-stroke" points="0,1 1,1 " /> </g>                        <g fill="none" stroke="#000000" stroke-opacity="1" stroke-width="1" stroke-linecap="butt" stroke-linejoin="bevel" transform="matrix(8.33333,0,0,8.33333,50,133.333)" font-family="Noto Sans" font-size="12pt" font-weight="400" font-style="normal"  > <polyline fill="none" vector-effect="non-scaling-stroke" points="0,0.5 1.27065,0.5 " /> </g>                        <g fill="none" stroke="#000000" stroke-opacity="1" stroke-width="1" stroke-linecap="butt" stroke-linejoin="bevel" transform="matrix(8.33333,0,0,8.33333,50,141.667)" font-family="Noto Sans" font-size="12pt" font-weight="400" font-style="normal"  > <polyline fill="none" vector-effect="non-scaling-stroke" points="0,0.5 1,0.5 " /> </g>                  <g fill="none" stroke="#000000" stroke-opacity="1" stroke-width="1" stroke-linecap="butt" stroke-linejoin="bevel" transform="matrix(8.33333,0,0,8.33333,41.6667,150)" font-family="Noto Sans" font-size="12pt" font-weight="400" font-style="normal"  > <polyline fill="none" vector-effect="non-scaling-stroke" points="1,0.5 1,2 " /> </g>            <g fill="none" stroke="#000000" stroke-opacity="1" stroke-width="1" stroke-linecap="butt" stroke-linejoin="bevel" transform="matrix(8.33333,0,0,8.33333,41.6667,150)" font-family="Noto Sans" font-size="12pt" font-weight="400" font-style="normal"  > <polyline fill="none" vector-effect="non-scaling-stroke" points="0,1.25 1,1.25 " /> </g>                        <g fill="none" stroke="#000000" stroke-opacity="1" stroke-width="1" stroke-linecap="butt" stroke-linejoin="bevel" transform="matrix(8.33333,0,0,8.33333,50,150)" font-family="Noto Sans" font-size="12pt" font-weight="400" font-style="normal"  > <polyline fill="none" vector-effect="non-scaling-stroke" points="0,0.5 1.62677,0.5 " /> </g>                  <g fill="none" stroke="#000000" stroke-opacity="1" stroke-width="1" stroke-linecap="butt" stroke-linejoin="bevel" transform="matrix(8.33333,0,0,8.33333,50,158.333)" font-family="Noto Sans" font-size="12pt" font-weight="400" font-style="normal"  > <polyline fill="none" vector-effect="non-scaling-stroke" points="1.55335,0.5 1.55335,1.5 " /> </g>            <g fill="none" stroke="#000000" stroke-opacity="1" stroke-width="1" stroke-linecap="butt" stroke-linejoin="bevel" transform="matrix(8.33333,0,0,8.33333,50,158.333)" font-family="Noto Sans" font-size="12pt" font-weight="400" font-style="normal"  > <polyline fill="none" vector-effect="non-scaling-stroke" points="0,1 1.55335,1 " /> </g>                        <g fill="none" stroke="#000000" stroke-opacity="1" stroke-width="1" stroke-linecap="butt" stroke-linejoin="bevel" transform="matrix(8.33333,0,0,8.33333,62.9445,158.333)" font-family="Noto Sans" font-size="12pt" font-weight="400" font-style="normal"  > <polyline fill="none" vector-effect="non-scaling-stroke" points="0,0.5 1,0.5 " /> </g>                        <g fill="none" stroke="#808080" stroke-opacity="1" stroke-width="1" stroke-linecap="butt" stroke-linejoin="bevel" transform="matrix(8.33333,0,0,8.33333,62.9445,166.667)" font-family="Noto Sans" font-size="12pt" font-weight="400" font-style="normal"  > <polyline fill="none" vector-effect="non-scaling-stroke" points="0,0.5 1.02998,0.5 " /> </g>                                                                                                                                                                              <g fill="none" stroke="#000000" stroke-opacity="1" stroke-width="1" stroke-linecap="square" stroke-linejoin="bevel" transform="matrix(8.33333,0,0,8.33333,8.33333,183.333)" font-family="Noto Sans" font-size="12pt" font-weight="400" font-style="normal"  > <polyline fill="none" vector-effect="none" points="0,5 50,5 " /> </g>      <g fill="none" stroke="#000000" stroke-opacity="1" stroke-width="1" stroke-linecap="square" stroke-linejoin="bevel" transform="matrix(8.33333,0,0,8.33333,8.33333,183.333)" font-family="Noto Sans" font-size="12pt" font-weight="400" font-style="normal"  > <polyline fill="none" vector-effect="none" points="0,0 0,10 " /> </g>      <g fill="none" stroke="#000000" stroke-opacity="1" stroke-width="1" stroke-linecap="square" stroke-linejoin="bevel" transform="matrix(8.33333,0,0,8.33333,8.33333,183.333)" font-family="Noto Sans" font-size="12pt" font-weight="400" font-style="normal"  > <polyline fill="none" vector-effect="none" points="50,0 50,10 " /> </g>      <g fill="none" stroke="#000000" stroke-opacity="1" stroke-width="1" stroke-linecap="square" stroke-linejoin="bevel" transform="matrix(8.33333,0,0,8.33333,8.33333,266.667)" font-family="Noto Sans" font-size="12pt" font-weight="400" font-style="normal"  > <text fill="#000000" fill-opacity="1" stroke="none" xml:space="preserve" x="0" y="16" font-family="Noto Sans" font-size="12pt" font-weight="400" font-style="normal"   >5</text> </g>     </g> </svg> 