<?xml version="1.0" encoding="utf-8" standalone="no"?>
<!DOCTYPE svg PUBLIC "-//W3C//DTD SVG 1.1//EN"
  "http://www.w3.org/Graphics/SVG/1.1/DTD/svg11.dtd">
<svg xmlns:xlink="http://www.w3.org/1999/xlink" width="820.235937pt" height="276.720125pt" viewBox="0 0 820.235937 276.720125" xmlns="http://www.w3.org/2000/svg" version="1.1">
 <metadata>
  <rdf:RDF xmlns:dc="http://purl.org/dc/elements/1.1/" xmlns:cc="http://creativecommons.org/ns#" xmlns:rdf="http://www.w3.org/1999/02/22-rdf-syntax-ns#">
   <cc:Work>
    <dc:type rdf:resource="http://purl.org/dc/dcmitype/StillImage"/>
    <dc:date>2026-04-23T16:49:33.708205</dc:date>
    <dc:format>image/svg+xml</dc:format>
    <dc:creator>
     <cc:Agent>
      <dc:title>Matplotlib v3.8.2, https://matplotlib.org/</dc:title>
     </cc:Agent>
    </dc:creator>
   </cc:Work>
  </rdf:RDF>
 </metadata>
 <defs>
  <style type="text/css">*{stroke-linejoin: round; stroke-linecap: butt}</style>
 </defs>
 <g id="figure_1">
  <g id="patch_1">
   <path d="M -0 276.720125 
L 820.235937 276.720125 
L 820.235937 0 
L -0 0 
z
" style="fill: #ffffff"/>
  </g>
  <g id="axes_1">
   <g id="patch_2">
    <path d="M 51.5 229.48575 
L 232.472973 229.48575 
L 232.472973 63.16575 
L 51.5 63.16575 
z
" style="fill: #ffffff"/>
   </g>
   <g id="PolyCollection_1">
    <defs>
     <path id="m46964e2393" d="M 69.597297 -91.586375 
L 69.597297 -36.146375 
L 71.120639 -37.546375 
L 72.64398 -38.946375 
L 74.167322 -40.346375 
L 75.690663 -41.746375 
L 77.214005 -43.146375 
L 78.737346 -44.546375 
L 80.260688 -45.946375 
L 81.784029 -47.346375 
L 83.307371 -48.746375 
L 84.830713 -50.146375 
L 86.354054 -51.546375 
L 87.877396 -52.946375 
L 89.400737 -54.346375 
L 90.924079 -55.746375 
L 92.44742 -57.146375 
L 93.970762 -58.546375 
L 95.494103 -59.946375 
L 97.017445 -61.346375 
L 98.540786 -62.746375 
L 100.064128 -64.146375 
L 101.587469 -65.546375 
L 103.110811 -66.946375 
L 104.634152 -68.346375 
L 106.157494 -69.746375 
L 107.680835 -71.146375 
L 109.204177 -72.546375 
L 110.727518 -73.946375 
L 112.25086 -75.346375 
L 113.774201 -76.746375 
L 115.297543 -78.146375 
L 116.820885 -79.546375 
L 118.344226 -80.946375 
L 119.867568 -82.346375 
L 121.390909 -83.746375 
L 122.914251 -85.146375 
L 124.437592 -86.546375 
L 125.960934 -87.946375 
L 127.484275 -89.346375 
L 129.007617 -90.746375 
L 130.530958 -92.146375 
L 132.0543 -93.546375 
L 133.577641 -94.946375 
L 135.100983 -96.346375 
L 136.624324 -97.746375 
L 138.147666 -99.146375 
L 139.671007 -100.546375 
L 141.194349 -101.946375 
L 142.71769 -103.346375 
L 144.241032 -104.746375 
L 145.764373 -106.146375 
L 147.287715 -107.546375 
L 148.811057 -108.946375 
L 150.334398 -110.346375 
L 151.85774 -111.746375 
L 153.381081 -113.146375 
L 154.904423 -114.546375 
L 156.427764 -115.946375 
L 157.951106 -117.346375 
L 159.474447 -118.746375 
L 160.997789 -120.146375 
L 162.52113 -121.546375 
L 164.044472 -122.946375 
L 165.567813 -124.346375 
L 167.091155 -125.746375 
L 168.614496 -127.146375 
L 170.137838 -128.546375 
L 171.661179 -129.946375 
L 173.184521 -131.346375 
L 174.707862 -132.746375 
L 176.231204 -134.146375 
L 177.754545 -135.546375 
L 179.277887 -136.946375 
L 180.801229 -138.346375 
L 182.32457 -139.746375 
L 183.847912 -141.146375 
L 185.371253 -142.546375 
L 186.894595 -143.946375 
L 188.417936 -145.346375 
L 189.941278 -146.746375 
L 191.464619 -148.146375 
L 192.987961 -149.546375 
L 194.511302 -150.946375 
L 196.034644 -152.346375 
L 197.557985 -153.746375 
L 199.081327 -155.146375 
L 200.604668 -156.546375 
L 202.12801 -157.946375 
L 203.651351 -159.346375 
L 205.174693 -160.746375 
L 206.698034 -162.146375 
L 208.221376 -163.546375 
L 209.744717 -164.946375 
L 211.268059 -166.346375 
L 212.7914 -167.746375 
L 214.314742 -169.146375 
L 215.838084 -170.546375 
L 217.361425 -171.946375 
L 218.884767 -173.346375 
L 220.408108 -174.746375 
L 220.408108 -230.186375 
L 220.408108 -230.186375 
L 218.884767 -228.786375 
L 217.361425 -227.386375 
L 215.838084 -225.986375 
L 214.314742 -224.586375 
L 212.7914 -223.186375 
L 211.268059 -221.786375 
L 209.744717 -220.386375 
L 208.221376 -218.986375 
L 206.698034 -217.586375 
L 205.174693 -216.186375 
L 203.651351 -214.786375 
L 202.12801 -213.386375 
L 200.604668 -211.986375 
L 199.081327 -210.586375 
L 197.557985 -209.186375 
L 196.034644 -207.786375 
L 194.511302 -206.386375 
L 192.987961 -204.986375 
L 191.464619 -203.586375 
L 189.941278 -202.186375 
L 188.417936 -200.786375 
L 186.894595 -199.386375 
L 185.371253 -197.986375 
L 183.847912 -196.586375 
L 182.32457 -195.186375 
L 180.801229 -193.786375 
L 179.277887 -192.386375 
L 177.754545 -190.986375 
L 176.231204 -189.586375 
L 174.707862 -188.186375 
L 173.184521 -186.786375 
L 171.661179 -185.386375 
L 170.137838 -183.986375 
L 168.614496 -182.586375 
L 167.091155 -181.186375 
L 165.567813 -179.786375 
L 164.044472 -178.386375 
L 162.52113 -176.986375 
L 160.997789 -175.586375 
L 159.474447 -174.186375 
L 157.951106 -172.786375 
L 156.427764 -171.386375 
L 154.904423 -169.986375 
L 153.381081 -168.586375 
L 151.85774 -167.186375 
L 150.334398 -165.786375 
L 148.811057 -164.386375 
L 147.287715 -162.986375 
L 145.764373 -161.586375 
L 144.241032 -160.186375 
L 142.71769 -158.786375 
L 141.194349 -157.386375 
L 139.671007 -155.986375 
L 138.147666 -154.586375 
L 136.624324 -153.186375 
L 135.100983 -151.786375 
L 133.577641 -150.386375 
L 132.0543 -148.986375 
L 130.530958 -147.586375 
L 129.007617 -146.186375 
L 127.484275 -144.786375 
L 125.960934 -143.386375 
L 124.437592 -141.986375 
L 122.914251 -140.586375 
L 121.390909 -139.186375 
L 119.867568 -137.786375 
L 118.344226 -136.386375 
L 116.820885 -134.986375 
L 115.297543 -133.586375 
L 113.774201 -132.186375 
L 112.25086 -130.786375 
L 110.727518 -129.386375 
L 109.204177 -127.986375 
L 107.680835 -126.586375 
L 106.157494 -125.186375 
L 104.634152 -123.786375 
L 103.110811 -122.386375 
L 101.587469 -120.986375 
L 100.064128 -119.586375 
L 98.540786 -118.186375 
L 97.017445 -116.786375 
L 95.494103 -115.386375 
L 93.970762 -113.986375 
L 92.44742 -112.586375 
L 90.924079 -111.186375 
L 89.400737 -109.786375 
L 87.877396 -108.386375 
L 86.354054 -106.986375 
L 84.830713 -105.586375 
L 83.307371 -104.186375 
L 81.784029 -102.786375 
L 80.260688 -101.386375 
L 78.737346 -99.986375 
L 77.214005 -98.586375 
L 75.690663 -97.186375 
L 74.167322 -95.786375 
L 72.64398 -94.386375 
L 71.120639 -92.986375 
L 69.597297 -91.586375 
z
" style="stroke: #d3d3d3"/>
    </defs>
    <g clip-path="url(#pfcaa77f60e)">
     <use xlink:href="#m46964e2393" x="0" y="276.720125" style="fill: #d3d3d3; stroke: #d3d3d3"/>
    </g>
   </g>
   <g id="line2d_1">
    <path d="M 69.597297 212.85375 
L 220.408108 74.25375 
" clip-path="url(#pfcaa77f60e)" style="fill: none; stroke-dasharray: 5.55,2.4; stroke-dashoffset: 0; stroke: #000000; stroke-width: 1.5"/>
   </g>
   <g id="matplotlib.axis_1">
    <g id="xtick_1">
     <g id="line2d_2">
      <defs>
       <path id="mb6d70be60e" d="M 0 0 
L 0 3.5 
" style="stroke: #000000; stroke-width: 0.8"/>
      </defs>
      <g>
       <use xlink:href="#mb6d70be60e" x="69.597297" y="229.48575" style="stroke: #000000; stroke-width: 0.8"/>
      </g>
     </g>
     <g id="text_1">
      <!-- 10 -->
      <g transform="translate(60.689797 247.123562) scale(0.14 -0.14)">
       <defs>
        <path id="DejaVuSans-31" d="M 794 531 
L 1825 531 
L 1825 4091 
L 703 3866 
L 703 4441 
L 1819 4666 
L 2450 4666 
L 2450 531 
L 3481 531 
L 3481 0 
L 794 0 
L 794 531 
z
" transform="scale(0.015625)"/>
        <path id="DejaVuSans-30" d="M 2034 4250 
Q 1547 4250 1301 3770 
Q 1056 3291 1056 2328 
Q 1056 1369 1301 889 
Q 1547 409 2034 409 
Q 2525 409 2770 889 
Q 3016 1369 3016 2328 
Q 3016 3291 2770 3770 
Q 2525 4250 2034 4250 
z
M 2034 4750 
Q 2819 4750 3233 4129 
Q 3647 3509 3647 2328 
Q 3647 1150 3233 529 
Q 2819 -91 2034 -91 
Q 1250 -91 836 529 
Q 422 1150 422 2328 
Q 422 3509 836 4129 
Q 1250 4750 2034 4750 
z
" transform="scale(0.015625)"/>
       </defs>
       <use xlink:href="#DejaVuSans-31"/>
       <use xlink:href="#DejaVuSans-30" x="63.623047"/>
      </g>
     </g>
    </g>
    <g id="xtick_2">
     <g id="line2d_3">
      <g>
       <use xlink:href="#mb6d70be60e" x="99.759459" y="229.48575" style="stroke: #000000; stroke-width: 0.8"/>
      </g>
     </g>
     <g id="text_2">
      <!-- 15 -->
      <g transform="translate(90.851959 247.123562) scale(0.14 -0.14)">
       <defs>
        <path id="DejaVuSans-35" d="M 691 4666 
L 3169 4666 
L 3169 4134 
L 1269 4134 
L 1269 2991 
Q 1406 3038 1543 3061 
Q 1681 3084 1819 3084 
Q 2600 3084 3056 2656 
Q 3513 2228 3513 1497 
Q 3513 744 3044 326 
Q 2575 -91 1722 -91 
Q 1428 -91 1123 -41 
Q 819 9 494 109 
L 494 744 
Q 775 591 1075 516 
Q 1375 441 1709 441 
Q 2250 441 2565 725 
Q 2881 1009 2881 1497 
Q 2881 1984 2565 2268 
Q 2250 2553 1709 2553 
Q 1456 2553 1204 2497 
Q 953 2441 691 2322 
L 691 4666 
z
" transform="scale(0.015625)"/>
       </defs>
       <use xlink:href="#DejaVuSans-31"/>
       <use xlink:href="#DejaVuSans-35" x="63.623047"/>
      </g>
     </g>
    </g>
    <g id="xtick_3">
     <g id="line2d_4">
      <g>
       <use xlink:href="#mb6d70be60e" x="129.921622" y="229.48575" style="stroke: #000000; stroke-width: 0.8"/>
      </g>
     </g>
     <g id="text_3">
      <!-- 20 -->
      <g transform="translate(121.014122 247.123562) scale(0.14 -0.14)">
       <defs>
        <path id="DejaVuSans-32" d="M 1228 531 
L 3431 531 
L 3431 0 
L 469 0 
L 469 531 
Q 828 903 1448 1529 
Q 2069 2156 2228 2338 
Q 2531 2678 2651 2914 
Q 2772 3150 2772 3378 
Q 2772 3750 2511 3984 
Q 2250 4219 1831 4219 
Q 1534 4219 1204 4116 
Q 875 4013 500 3803 
L 500 4441 
Q 881 4594 1212 4672 
Q 1544 4750 1819 4750 
Q 2544 4750 2975 4387 
Q 3406 4025 3406 3419 
Q 3406 3131 3298 2873 
Q 3191 2616 2906 2266 
Q 2828 2175 2409 1742 
Q 1991 1309 1228 531 
z
" transform="scale(0.015625)"/>
       </defs>
       <use xlink:href="#DejaVuSans-32"/>
       <use xlink:href="#DejaVuSans-30" x="63.623047"/>
      </g>
     </g>
    </g>
    <g id="xtick_4">
     <g id="line2d_5">
      <g>
       <use xlink:href="#mb6d70be60e" x="160.083784" y="229.48575" style="stroke: #000000; stroke-width: 0.8"/>
      </g>
     </g>
     <g id="text_4">
      <!-- 25 -->
      <g transform="translate(151.176284 247.123562) scale(0.14 -0.14)">
       <use xlink:href="#DejaVuSans-32"/>
       <use xlink:href="#DejaVuSans-35" x="63.623047"/>
      </g>
     </g>
    </g>
    <g id="xtick_5">
     <g id="line2d_6">
      <g>
       <use xlink:href="#mb6d70be60e" x="190.245946" y="229.48575" style="stroke: #000000; stroke-width: 0.8"/>
      </g>
     </g>
     <g id="text_5">
      <!-- 30 -->
      <g transform="translate(181.338446 247.123562) scale(0.14 -0.14)">
       <defs>
        <path id="DejaVuSans-33" d="M 2597 2516 
Q 3050 2419 3304 2112 
Q 3559 1806 3559 1356 
Q 3559 666 3084 287 
Q 2609 -91 1734 -91 
Q 1441 -91 1130 -33 
Q 819 25 488 141 
L 488 750 
Q 750 597 1062 519 
Q 1375 441 1716 441 
Q 2309 441 2620 675 
Q 2931 909 2931 1356 
Q 2931 1769 2642 2001 
Q 2353 2234 1838 2234 
L 1294 2234 
L 1294 2753 
L 1863 2753 
Q 2328 2753 2575 2939 
Q 2822 3125 2822 3475 
Q 2822 3834 2567 4026 
Q 2313 4219 1838 4219 
Q 1578 4219 1281 4162 
Q 984 4106 628 3988 
L 628 4550 
Q 988 4650 1302 4700 
Q 1616 4750 1894 4750 
Q 2613 4750 3031 4423 
Q 3450 4097 3450 3541 
Q 3450 3153 3228 2886 
Q 3006 2619 2597 2516 
z
" transform="scale(0.015625)"/>
       </defs>
       <use xlink:href="#DejaVuSans-33"/>
       <use xlink:href="#DejaVuSans-30" x="63.623047"/>
      </g>
     </g>
    </g>
    <g id="xtick_6">
     <g id="line2d_7">
      <g>
       <use xlink:href="#mb6d70be60e" x="220.408108" y="229.48575" style="stroke: #000000; stroke-width: 0.8"/>
      </g>
     </g>
     <g id="text_6">
      <!-- 35 -->
      <g transform="translate(211.500608 247.123562) scale(0.14 -0.14)">
       <use xlink:href="#DejaVuSans-33"/>
       <use xlink:href="#DejaVuSans-35" x="63.623047"/>
      </g>
     </g>
    </g>
    <g id="text_7">
     <!-- Measured OGT (°C) -->
     <g transform="translate(64.905236 266.192625) scale(0.16 -0.16)">
      <defs>
       <path id="DejaVuSans-4d" d="M 628 4666 
L 1569 4666 
L 2759 1491 
L 3956 4666 
L 4897 4666 
L 4897 0 
L 4281 0 
L 4281 4097 
L 3078 897 
L 2444 897 
L 1241 4097 
L 1241 0 
L 628 0 
L 628 4666 
z
" transform="scale(0.015625)"/>
       <path id="DejaVuSans-65" d="M 3597 1894 
L 3597 1613 
L 953 1613 
Q 991 1019 1311 708 
Q 1631 397 2203 397 
Q 2534 397 2845 478 
Q 3156 559 3463 722 
L 3463 178 
Q 3153 47 2828 -22 
Q 2503 -91 2169 -91 
Q 1331 -91 842 396 
Q 353 884 353 1716 
Q 353 2575 817 3079 
Q 1281 3584 2069 3584 
Q 2775 3584 3186 3129 
Q 3597 2675 3597 1894 
z
M 3022 2063 
Q 3016 2534 2758 2815 
Q 2500 3097 2075 3097 
Q 1594 3097 1305 2825 
Q 1016 2553 972 2059 
L 3022 2063 
z
" transform="scale(0.015625)"/>
       <path id="DejaVuSans-61" d="M 2194 1759 
Q 1497 1759 1228 1600 
Q 959 1441 959 1056 
Q 959 750 1161 570 
Q 1363 391 1709 391 
Q 2188 391 2477 730 
Q 2766 1069 2766 1631 
L 2766 1759 
L 2194 1759 
z
M 3341 1997 
L 3341 0 
L 2766 0 
L 2766 531 
Q 2569 213 2275 61 
Q 1981 -91 1556 -91 
Q 1019 -91 701 211 
Q 384 513 384 1019 
Q 384 1609 779 1909 
Q 1175 2209 1959 2209 
L 2766 2209 
L 2766 2266 
Q 2766 2663 2505 2880 
Q 2244 3097 1772 3097 
Q 1472 3097 1187 3025 
Q 903 2953 641 2809 
L 641 3341 
Q 956 3463 1253 3523 
Q 1550 3584 1831 3584 
Q 2591 3584 2966 3190 
Q 3341 2797 3341 1997 
z
" transform="scale(0.015625)"/>
       <path id="DejaVuSans-73" d="M 2834 3397 
L 2834 2853 
Q 2591 2978 2328 3040 
Q 2066 3103 1784 3103 
Q 1356 3103 1142 2972 
Q 928 2841 928 2578 
Q 928 2378 1081 2264 
Q 1234 2150 1697 2047 
L 1894 2003 
Q 2506 1872 2764 1633 
Q 3022 1394 3022 966 
Q 3022 478 2636 193 
Q 2250 -91 1575 -91 
Q 1294 -91 989 -36 
Q 684 19 347 128 
L 347 722 
Q 666 556 975 473 
Q 1284 391 1588 391 
Q 1994 391 2212 530 
Q 2431 669 2431 922 
Q 2431 1156 2273 1281 
Q 2116 1406 1581 1522 
L 1381 1569 
Q 847 1681 609 1914 
Q 372 2147 372 2553 
Q 372 3047 722 3315 
Q 1072 3584 1716 3584 
Q 2034 3584 2315 3537 
Q 2597 3491 2834 3397 
z
" transform="scale(0.015625)"/>
       <path id="DejaVuSans-75" d="M 544 1381 
L 544 3500 
L 1119 3500 
L 1119 1403 
Q 1119 906 1312 657 
Q 1506 409 1894 409 
Q 2359 409 2629 706 
Q 2900 1003 2900 1516 
L 2900 3500 
L 3475 3500 
L 3475 0 
L 2900 0 
L 2900 538 
Q 2691 219 2414 64 
Q 2138 -91 1772 -91 
Q 1169 -91 856 284 
Q 544 659 544 1381 
z
M 1991 3584 
L 1991 3584 
z
" transform="scale(0.015625)"/>
       <path id="DejaVuSans-72" d="M 2631 2963 
Q 2534 3019 2420 3045 
Q 2306 3072 2169 3072 
Q 1681 3072 1420 2755 
Q 1159 2438 1159 1844 
L 1159 0 
L 581 0 
L 581 3500 
L 1159 3500 
L 1159 2956 
Q 1341 3275 1631 3429 
Q 1922 3584 2338 3584 
Q 2397 3584 2469 3576 
Q 2541 3569 2628 3553 
L 2631 2963 
z
" transform="scale(0.015625)"/>
       <path id="DejaVuSans-64" d="M 2906 2969 
L 2906 4863 
L 3481 4863 
L 3481 0 
L 2906 0 
L 2906 525 
Q 2725 213 2448 61 
Q 2172 -91 1784 -91 
Q 1150 -91 751 415 
Q 353 922 353 1747 
Q 353 2572 751 3078 
Q 1150 3584 1784 3584 
Q 2172 3584 2448 3432 
Q 2725 3281 2906 2969 
z
M 947 1747 
Q 947 1113 1208 752 
Q 1469 391 1925 391 
Q 2381 391 2643 752 
Q 2906 1113 2906 1747 
Q 2906 2381 2643 2742 
Q 2381 3103 1925 3103 
Q 1469 3103 1208 2742 
Q 947 2381 947 1747 
z
" transform="scale(0.015625)"/>
       <path id="DejaVuSans-20" transform="scale(0.015625)"/>
       <path id="DejaVuSans-4f" d="M 2522 4238 
Q 1834 4238 1429 3725 
Q 1025 3213 1025 2328 
Q 1025 1447 1429 934 
Q 1834 422 2522 422 
Q 3209 422 3611 934 
Q 4013 1447 4013 2328 
Q 4013 3213 3611 3725 
Q 3209 4238 2522 4238 
z
M 2522 4750 
Q 3503 4750 4090 4092 
Q 4678 3434 4678 2328 
Q 4678 1225 4090 567 
Q 3503 -91 2522 -91 
Q 1538 -91 948 565 
Q 359 1222 359 2328 
Q 359 3434 948 4092 
Q 1538 4750 2522 4750 
z
" transform="scale(0.015625)"/>
       <path id="DejaVuSans-47" d="M 3809 666 
L 3809 1919 
L 2778 1919 
L 2778 2438 
L 4434 2438 
L 4434 434 
Q 4069 175 3628 42 
Q 3188 -91 2688 -91 
Q 1594 -91 976 548 
Q 359 1188 359 2328 
Q 359 3472 976 4111 
Q 1594 4750 2688 4750 
Q 3144 4750 3555 4637 
Q 3966 4525 4313 4306 
L 4313 3634 
Q 3963 3931 3569 4081 
Q 3175 4231 2741 4231 
Q 1884 4231 1454 3753 
Q 1025 3275 1025 2328 
Q 1025 1384 1454 906 
Q 1884 428 2741 428 
Q 3075 428 3337 486 
Q 3600 544 3809 666 
z
" transform="scale(0.015625)"/>
       <path id="DejaVuSans-54" d="M -19 4666 
L 3928 4666 
L 3928 4134 
L 2272 4134 
L 2272 0 
L 1638 0 
L 1638 4134 
L -19 4134 
L -19 4666 
z
" transform="scale(0.015625)"/>
       <path id="DejaVuSans-28" d="M 1984 4856 
Q 1566 4138 1362 3434 
Q 1159 2731 1159 2009 
Q 1159 1288 1364 580 
Q 1569 -128 1984 -844 
L 1484 -844 
Q 1016 -109 783 600 
Q 550 1309 550 2009 
Q 550 2706 781 3412 
Q 1013 4119 1484 4856 
L 1984 4856 
z
" transform="scale(0.015625)"/>
       <path id="DejaVuSans-b0" d="M 1600 4347 
Q 1350 4347 1178 4173 
Q 1006 4000 1006 3750 
Q 1006 3503 1178 3333 
Q 1350 3163 1600 3163 
Q 1850 3163 2022 3333 
Q 2194 3503 2194 3750 
Q 2194 3997 2020 4172 
Q 1847 4347 1600 4347 
z
M 1600 4750 
Q 1800 4750 1984 4673 
Q 2169 4597 2303 4453 
Q 2447 4313 2519 4134 
Q 2591 3956 2591 3750 
Q 2591 3338 2302 3052 
Q 2013 2766 1594 2766 
Q 1172 2766 890 3047 
Q 609 3328 609 3750 
Q 609 4169 896 4459 
Q 1184 4750 1600 4750 
z
" transform="scale(0.015625)"/>
       <path id="DejaVuSans-43" d="M 4122 4306 
L 4122 3641 
Q 3803 3938 3442 4084 
Q 3081 4231 2675 4231 
Q 1875 4231 1450 3742 
Q 1025 3253 1025 2328 
Q 1025 1406 1450 917 
Q 1875 428 2675 428 
Q 3081 428 3442 575 
Q 3803 722 4122 1019 
L 4122 359 
Q 3791 134 3420 21 
Q 3050 -91 2638 -91 
Q 1578 -91 968 557 
Q 359 1206 359 2328 
Q 359 3453 968 4101 
Q 1578 4750 2638 4750 
Q 3056 4750 3426 4639 
Q 3797 4528 4122 4306 
z
" transform="scale(0.015625)"/>
       <path id="DejaVuSans-29" d="M 513 4856 
L 1013 4856 
Q 1481 4119 1714 3412 
Q 1947 2706 1947 2009 
Q 1947 1309 1714 600 
Q 1481 -109 1013 -844 
L 513 -844 
Q 928 -128 1133 580 
Q 1338 1288 1338 2009 
Q 1338 2731 1133 3434 
Q 928 4138 513 4856 
z
" transform="scale(0.015625)"/>
      </defs>
      <use xlink:href="#DejaVuSans-4d"/>
      <use xlink:href="#DejaVuSans-65" x="86.279297"/>
      <use xlink:href="#DejaVuSans-61" x="147.802734"/>
      <use xlink:href="#DejaVuSans-73" x="209.082031"/>
      <use xlink:href="#DejaVuSans-75" x="261.181641"/>
      <use xlink:href="#DejaVuSans-72" x="324.560547"/>
      <use xlink:href="#DejaVuSans-65" x="363.423828"/>
      <use xlink:href="#DejaVuSans-64" x="424.947266"/>
      <use xlink:href="#DejaVuSans-20" x="488.423828"/>
      <use xlink:href="#DejaVuSans-4f" x="520.210938"/>
      <use xlink:href="#DejaVuSans-47" x="598.921875"/>
      <use xlink:href="#DejaVuSans-54" x="672.787109"/>
      <use xlink:href="#DejaVuSans-20" x="733.871094"/>
      <use xlink:href="#DejaVuSans-28" x="765.658203"/>
      <use xlink:href="#DejaVuSans-b0" x="804.671875"/>
      <use xlink:href="#DejaVuSans-43" x="854.671875"/>
      <use xlink:href="#DejaVuSans-29" x="924.496094"/>
     </g>
    </g>
   </g>
   <g id="matplotlib.axis_2">
    <g id="ytick_1">
     <g id="line2d_8">
      <defs>
       <path id="ma7bfa90ceb" d="M 0 0 
L -3.5 0 
" style="stroke: #000000; stroke-width: 0.8"/>
      </defs>
      <g>
       <use xlink:href="#ma7bfa90ceb" x="51.5" y="212.85375" style="stroke: #000000; stroke-width: 0.8"/>
      </g>
     </g>
     <g id="text_8">
      <!-- 10 -->
      <g transform="translate(26.685 218.172656) scale(0.14 -0.14)">
       <use xlink:href="#DejaVuSans-31"/>
       <use xlink:href="#DejaVuSans-30" x="63.623047"/>
      </g>
     </g>
    </g>
    <g id="ytick_2">
     <g id="line2d_9">
      <g>
       <use xlink:href="#ma7bfa90ceb" x="51.5" y="185.13375" style="stroke: #000000; stroke-width: 0.8"/>
      </g>
     </g>
     <g id="text_9">
      <!-- 15 -->
      <g transform="translate(26.685 190.452656) scale(0.14 -0.14)">
       <use xlink:href="#DejaVuSans-31"/>
       <use xlink:href="#DejaVuSans-35" x="63.623047"/>
      </g>
     </g>
    </g>
    <g id="ytick_3">
     <g id="line2d_10">
      <g>
       <use xlink:href="#ma7bfa90ceb" x="51.5" y="157.41375" style="stroke: #000000; stroke-width: 0.8"/>
      </g>
     </g>
     <g id="text_10">
      <!-- 20 -->
      <g transform="translate(26.685 162.732656) scale(0.14 -0.14)">
       <use xlink:href="#DejaVuSans-32"/>
       <use xlink:href="#DejaVuSans-30" x="63.623047"/>
      </g>
     </g>
    </g>
    <g id="ytick_4">
     <g id="line2d_11">
      <g>
       <use xlink:href="#ma7bfa90ceb" x="51.5" y="129.69375" style="stroke: #000000; stroke-width: 0.8"/>
      </g>
     </g>
     <g id="text_11">
      <!-- 25 -->
      <g transform="translate(26.685 135.012656) scale(0.14 -0.14)">
       <use xlink:href="#DejaVuSans-32"/>
       <use xlink:href="#DejaVuSans-35" x="63.623047"/>
      </g>
     </g>
    </g>
    <g id="ytick_5">
     <g id="line2d_12">
      <g>
       <use xlink:href="#ma7bfa90ceb" x="51.5" y="101.97375" style="stroke: #000000; stroke-width: 0.8"/>
      </g>
     </g>
     <g id="text_12">
      <!-- 30 -->
      <g transform="translate(26.685 107.292656) scale(0.14 -0.14)">
       <use xlink:href="#DejaVuSans-33"/>
       <use xlink:href="#DejaVuSans-30" x="63.623047"/>
      </g>
     </g>
    </g>
    <g id="ytick_6">
     <g id="line2d_13">
      <g>
       <use xlink:href="#ma7bfa90ceb" x="51.5" y="74.25375" style="stroke: #000000; stroke-width: 0.8"/>
      </g>
     </g>
     <g id="text_13">
      <!-- 35 -->
      <g transform="translate(26.685 79.572656) scale(0.14 -0.14)">
       <use xlink:href="#DejaVuSans-33"/>
       <use xlink:href="#DejaVuSans-35" x="63.623047"/>
      </g>
     </g>
    </g>
    <g id="text_14">
     <!-- Predicted OGT(°C) -->
     <g transform="translate(19.3575 219.342) rotate(-90) scale(0.16 -0.16)">
      <defs>
       <path id="DejaVuSans-50" d="M 1259 4147 
L 1259 2394 
L 2053 2394 
Q 2494 2394 2734 2622 
Q 2975 2850 2975 3272 
Q 2975 3691 2734 3919 
Q 2494 4147 2053 4147 
L 1259 4147 
z
M 628 4666 
L 2053 4666 
Q 2838 4666 3239 4311 
Q 3641 3956 3641 3272 
Q 3641 2581 3239 2228 
Q 2838 1875 2053 1875 
L 1259 1875 
L 1259 0 
L 628 0 
L 628 4666 
z
" transform="scale(0.015625)"/>
       <path id="DejaVuSans-69" d="M 603 3500 
L 1178 3500 
L 1178 0 
L 603 0 
L 603 3500 
z
M 603 4863 
L 1178 4863 
L 1178 4134 
L 603 4134 
L 603 4863 
z
" transform="scale(0.015625)"/>
       <path id="DejaVuSans-63" d="M 3122 3366 
L 3122 2828 
Q 2878 2963 2633 3030 
Q 2388 3097 2138 3097 
Q 1578 3097 1268 2742 
Q 959 2388 959 1747 
Q 959 1106 1268 751 
Q 1578 397 2138 397 
Q 2388 397 2633 464 
Q 2878 531 3122 666 
L 3122 134 
Q 2881 22 2623 -34 
Q 2366 -91 2075 -91 
Q 1284 -91 818 406 
Q 353 903 353 1747 
Q 353 2603 823 3093 
Q 1294 3584 2113 3584 
Q 2378 3584 2631 3529 
Q 2884 3475 3122 3366 
z
" transform="scale(0.015625)"/>
       <path id="DejaVuSans-74" d="M 1172 4494 
L 1172 3500 
L 2356 3500 
L 2356 3053 
L 1172 3053 
L 1172 1153 
Q 1172 725 1289 603 
Q 1406 481 1766 481 
L 2356 481 
L 2356 0 
L 1766 0 
Q 1100 0 847 248 
Q 594 497 594 1153 
L 594 3053 
L 172 3053 
L 172 3500 
L 594 3500 
L 594 4494 
L 1172 4494 
z
" transform="scale(0.015625)"/>
      </defs>
      <use xlink:href="#DejaVuSans-50"/>
      <use xlink:href="#DejaVuSans-72" x="58.552734"/>
      <use xlink:href="#DejaVuSans-65" x="97.416016"/>
      <use xlink:href="#DejaVuSans-64" x="158.939453"/>
      <use xlink:href="#DejaVuSans-69" x="222.416016"/>
      <use xlink:href="#DejaVuSans-63" x="250.199219"/>
      <use xlink:href="#DejaVuSans-74" x="305.179688"/>
      <use xlink:href="#DejaVuSans-65" x="344.388672"/>
      <use xlink:href="#DejaVuSans-64" x="405.912109"/>
      <use xlink:href="#DejaVuSans-20" x="469.388672"/>
      <use xlink:href="#DejaVuSans-4f" x="501.175781"/>
      <use xlink:href="#DejaVuSans-47" x="579.886719"/>
      <use xlink:href="#DejaVuSans-54" x="653.751953"/>
      <use xlink:href="#DejaVuSans-28" x="714.835938"/>
      <use xlink:href="#DejaVuSans-b0" x="753.849609"/>
      <use xlink:href="#DejaVuSans-43" x="803.849609"/>
      <use xlink:href="#DejaVuSans-29" x="873.673828"/>
     </g>
    </g>
   </g>
   <g id="PathCollection_1">
    <defs>
     <path id="C0_0_84c12935b2" d="M 0 3 
C 0.795609 3 1.55874 2.683901 2.12132 2.12132 
C 2.683901 1.55874 3 0.795609 3 -0 
C 3 -0.795609 2.683901 -1.55874 2.12132 -2.12132 
C 1.55874 -2.683901 0.795609 -3 0 -3 
C -0.795609 -3 -1.55874 -2.683901 -2.12132 -2.12132 
C -2.683901 -1.55874 -3 -0.795609 -3 0 
C -3 0.795609 -2.683901 1.55874 -2.12132 2.12132 
C -1.55874 2.683901 -0.795609 3 0 3 
z
"/>
    </defs>
    <g clip-path="url(#pfcaa77f60e)">
     <use xlink:href="#C0_0_84c12935b2" x="202.310811" y="139.612143" style="fill: #ff7f0e; stroke: #000000; stroke-width: 0.48"/>
    </g>
    <g clip-path="url(#pfcaa77f60e)">
     <use xlink:href="#C0_0_84c12935b2" x="154.051351" y="134.276342" style="fill: #ff7f0e; stroke: #000000; stroke-width: 0.48"/>
    </g>
    <g clip-path="url(#pfcaa77f60e)">
     <use xlink:href="#C0_0_84c12935b2" x="154.051351" y="150.598355" style="fill: #1f77b4; stroke: #000000; stroke-width: 0.48"/>
    </g>
    <g clip-path="url(#pfcaa77f60e)">
     <use xlink:href="#C0_0_84c12935b2" x="160.083784" y="139.560424" style="fill: #ff7f0e; stroke: #000000; stroke-width: 0.48"/>
    </g>
    <g clip-path="url(#pfcaa77f60e)">
     <use xlink:href="#C0_0_84c12935b2" x="166.116216" y="143.945889" style="fill: #ff7f0e; stroke: #000000; stroke-width: 0.48"/>
    </g>
    <g clip-path="url(#pfcaa77f60e)">
     <use xlink:href="#C0_0_84c12935b2" x="148.018919" y="132.171826" style="fill: #ff7f0e; stroke: #000000; stroke-width: 0.48"/>
    </g>
    <g clip-path="url(#pfcaa77f60e)">
     <use xlink:href="#C0_0_84c12935b2" x="93.727027" y="157.414533" style="fill: #1f77b4; stroke: #000000; stroke-width: 0.48"/>
    </g>
    <g clip-path="url(#pfcaa77f60e)">
     <use xlink:href="#C0_0_84c12935b2" x="196.278378" y="130.772502" style="fill: #ff7f0e; stroke: #000000; stroke-width: 0.48"/>
    </g>
    <g clip-path="url(#pfcaa77f60e)">
     <use xlink:href="#C0_0_84c12935b2" x="105.791892" y="120.891267" style="fill: #1f77b4; stroke: #000000; stroke-width: 0.48"/>
    </g>
    <g clip-path="url(#pfcaa77f60e)">
     <use xlink:href="#C0_0_84c12935b2" x="129.921622" y="146.141704" style="fill: #1f77b4; stroke: #000000; stroke-width: 0.48"/>
    </g>
    <g clip-path="url(#pfcaa77f60e)">
     <use xlink:href="#C0_0_84c12935b2" x="111.824324" y="107.497289" style="fill: #1f77b4; stroke: #000000; stroke-width: 0.48"/>
    </g>
    <g clip-path="url(#pfcaa77f60e)">
     <use xlink:href="#C0_0_84c12935b2" x="93.727027" y="123.445372" style="fill: #1f77b4; stroke: #000000; stroke-width: 0.48"/>
    </g>
    <g clip-path="url(#pfcaa77f60e)">
     <use xlink:href="#C0_0_84c12935b2" x="190.245946" y="143.162595" style="fill: #ff7f0e; stroke: #000000; stroke-width: 0.48"/>
    </g>
    <g clip-path="url(#pfcaa77f60e)">
     <use xlink:href="#C0_0_84c12935b2" x="166.116216" y="138.658898" style="fill: #ff7f0e; stroke: #000000; stroke-width: 0.48"/>
    </g>
    <g clip-path="url(#pfcaa77f60e)">
     <use xlink:href="#C0_0_84c12935b2" x="178.181081" y="144.297835" style="fill: #ff7f0e; stroke: #000000; stroke-width: 0.48"/>
    </g>
    <g clip-path="url(#pfcaa77f60e)">
     <use xlink:href="#C0_0_84c12935b2" x="202.310811" y="154.838602" style="fill: #ff7f0e; stroke: #000000; stroke-width: 0.48"/>
    </g>
    <g clip-path="url(#pfcaa77f60e)">
     <use xlink:href="#C0_0_84c12935b2" x="105.791892" y="138.244617" style="fill: #1f77b4; stroke: #000000; stroke-width: 0.48"/>
    </g>
    <g clip-path="url(#pfcaa77f60e)">
     <use xlink:href="#C0_0_84c12935b2" x="111.824324" y="113.503282" style="fill: #1f77b4; stroke: #000000; stroke-width: 0.48"/>
    </g>
    <g clip-path="url(#pfcaa77f60e)">
     <use xlink:href="#C0_0_84c12935b2" x="202.310811" y="150.277233" style="fill: #ff7f0e; stroke: #000000; stroke-width: 0.48"/>
    </g>
    <g clip-path="url(#pfcaa77f60e)">
     <use xlink:href="#C0_0_84c12935b2" x="166.116216" y="150.897989" style="fill: #ff7f0e; stroke: #000000; stroke-width: 0.48"/>
    </g>
    <g clip-path="url(#pfcaa77f60e)">
     <use xlink:href="#C0_0_84c12935b2" x="172.148649" y="149.826269" style="fill: #ff7f0e; stroke: #000000; stroke-width: 0.48"/>
    </g>
    <g clip-path="url(#pfcaa77f60e)">
     <use xlink:href="#C0_0_84c12935b2" x="202.310811" y="141.026493" style="fill: #ff7f0e; stroke: #000000; stroke-width: 0.48"/>
    </g>
    <g clip-path="url(#pfcaa77f60e)">
     <use xlink:href="#C0_0_84c12935b2" x="202.310811" y="150.873214" style="fill: #ff7f0e; stroke: #000000; stroke-width: 0.48"/>
    </g>
    <g clip-path="url(#pfcaa77f60e)">
     <use xlink:href="#C0_0_84c12935b2" x="202.310811" y="150.042874" style="fill: #ff7f0e; stroke: #000000; stroke-width: 0.48"/>
    </g>
    <g clip-path="url(#pfcaa77f60e)">
     <use xlink:href="#C0_0_84c12935b2" x="111.824324" y="126.013372" style="fill: #1f77b4; stroke: #000000; stroke-width: 0.48"/>
    </g>
    <g clip-path="url(#pfcaa77f60e)">
     <use xlink:href="#C0_0_84c12935b2" x="111.824324" y="131.547802" style="fill: #1f77b4; stroke: #000000; stroke-width: 0.48"/>
    </g>
    <g clip-path="url(#pfcaa77f60e)">
     <use xlink:href="#C0_0_84c12935b2" x="111.824324" y="128.567477" style="fill: #1f77b4; stroke: #000000; stroke-width: 0.48"/>
    </g>
    <g clip-path="url(#pfcaa77f60e)">
     <use xlink:href="#C0_0_84c12935b2" x="111.824324" y="127.228268" style="fill: #1f77b4; stroke: #000000; stroke-width: 0.48"/>
    </g>
    <g clip-path="url(#pfcaa77f60e)">
     <use xlink:href="#C0_0_84c12935b2" x="99.759459" y="130.137428" style="fill: #1f77b4; stroke: #000000; stroke-width: 0.48"/>
    </g>
    <g clip-path="url(#pfcaa77f60e)">
     <use xlink:href="#C0_0_84c12935b2" x="105.791892" y="153.282641" style="fill: #1f77b4; stroke: #000000; stroke-width: 0.48"/>
    </g>
    <g clip-path="url(#pfcaa77f60e)">
     <use xlink:href="#C0_0_84c12935b2" x="154.051351" y="138.189672" style="fill: #ff7f0e; stroke: #000000; stroke-width: 0.48"/>
    </g>
    <g clip-path="url(#pfcaa77f60e)">
     <use xlink:href="#C0_0_84c12935b2" x="166.116216" y="143.648063" style="fill: #ff7f0e; stroke: #000000; stroke-width: 0.48"/>
    </g>
    <g clip-path="url(#pfcaa77f60e)">
     <use xlink:href="#C0_0_84c12935b2" x="111.824324" y="116.957591" style="fill: #1f77b4; stroke: #000000; stroke-width: 0.48"/>
    </g>
    <g clip-path="url(#pfcaa77f60e)">
     <use xlink:href="#C0_0_84c12935b2" x="105.791892" y="149.516515" style="fill: #1f77b4; stroke: #000000; stroke-width: 0.48"/>
    </g>
    <g clip-path="url(#pfcaa77f60e)">
     <use xlink:href="#C0_0_84c12935b2" x="111.824324" y="124.459673" style="fill: #1f77b4; stroke: #000000; stroke-width: 0.48"/>
    </g>
    <g clip-path="url(#pfcaa77f60e)">
     <use xlink:href="#C0_0_84c12935b2" x="117.856757" y="119.079713" style="fill: #1f77b4; stroke: #000000; stroke-width: 0.48"/>
    </g>
    <g clip-path="url(#pfcaa77f60e)">
     <use xlink:href="#C0_0_84c12935b2" x="105.791892" y="119.290872" style="fill: #1f77b4; stroke: #000000; stroke-width: 0.48"/>
    </g>
    <g clip-path="url(#pfcaa77f60e)">
     <use xlink:href="#C0_0_84c12935b2" x="123.889189" y="124.511847" style="fill: #1f77b4; stroke: #000000; stroke-width: 0.48"/>
    </g>
    <g clip-path="url(#pfcaa77f60e)">
     <use xlink:href="#C0_0_84c12935b2" x="111.824324" y="143.991052" style="fill: #1f77b4; stroke: #000000; stroke-width: 0.48"/>
    </g>
    <g clip-path="url(#pfcaa77f60e)">
     <use xlink:href="#C0_0_84c12935b2" x="117.856757" y="154.655729" style="fill: #1f77b4; stroke: #000000; stroke-width: 0.48"/>
    </g>
    <g clip-path="url(#pfcaa77f60e)">
     <use xlink:href="#C0_0_84c12935b2" x="202.310811" y="100.394969" style="fill: #ff7f0e; stroke: #000000; stroke-width: 0.48"/>
    </g>
    <g clip-path="url(#pfcaa77f60e)">
     <use xlink:href="#C0_0_84c12935b2" x="111.824324" y="119.474728" style="fill: #1f77b4; stroke: #000000; stroke-width: 0.48"/>
    </g>
    <g clip-path="url(#pfcaa77f60e)">
     <use xlink:href="#C0_0_84c12935b2" x="111.824324" y="135.821348" style="fill: #1f77b4; stroke: #000000; stroke-width: 0.48"/>
    </g>
    <g clip-path="url(#pfcaa77f60e)">
     <use xlink:href="#C0_0_84c12935b2" x="184.213514" y="140.464953" style="fill: #ff7f0e; stroke: #000000; stroke-width: 0.48"/>
    </g>
    <g clip-path="url(#pfcaa77f60e)">
     <use xlink:href="#C0_0_84c12935b2" x="172.148649" y="144.599193" style="fill: #ff7f0e; stroke: #000000; stroke-width: 0.48"/>
    </g>
    <g clip-path="url(#pfcaa77f60e)">
     <use xlink:href="#C0_0_84c12935b2" x="178.181081" y="139.832375" style="fill: #ff7f0e; stroke: #000000; stroke-width: 0.48"/>
    </g>
    <g clip-path="url(#pfcaa77f60e)">
     <use xlink:href="#C0_0_84c12935b2" x="117.856757" y="117.892098" style="fill: #ff7f0e; stroke: #000000; stroke-width: 0.48"/>
    </g>
    <g clip-path="url(#pfcaa77f60e)">
     <use xlink:href="#C0_0_84c12935b2" x="105.791892" y="137.21144" style="fill: #1f77b4; stroke: #000000; stroke-width: 0.48"/>
    </g>
   </g>
   <g id="patch_3">
    <path d="M 51.5 229.48575 
L 51.5 63.16575 
" style="fill: none; stroke: #000000; stroke-width: 0.8; stroke-linejoin: miter; stroke-linecap: square"/>
   </g>
   <g id="patch_4">
    <path d="M 51.5 229.48575 
L 232.472973 229.48575 
" style="fill: none; stroke: #000000; stroke-width: 0.8; stroke-linejoin: miter; stroke-linecap: square"/>
   </g>
   <g id="text_15">
    <!-- $R^2$ = -0.08 -->
    <g transform="translate(69.597297 76.390312) scale(0.12 -0.12)">
     <defs>
      <path id="DejaVuSans-Oblique-52" d="M 1613 4147 
L 1294 2491 
L 2106 2491 
Q 2584 2491 2879 2755 
Q 3175 3019 3175 3444 
Q 3175 3784 2976 3965 
Q 2778 4147 2406 4147 
L 1613 4147 
z
M 2772 2241 
Q 2972 2194 3105 2009 
Q 3238 1825 3413 1275 
L 3809 0 
L 3144 0 
L 2778 1197 
Q 2638 1659 2453 1815 
Q 2269 1972 1888 1972 
L 1191 1972 
L 806 0 
L 172 0 
L 1081 4666 
L 2503 4666 
Q 3150 4666 3495 4373 
Q 3841 4081 3841 3531 
Q 3841 3044 3547 2687 
Q 3253 2331 2772 2241 
z
" transform="scale(0.015625)"/>
      <path id="DejaVuSans-3d" d="M 678 2906 
L 4684 2906 
L 4684 2381 
L 678 2381 
L 678 2906 
z
M 678 1631 
L 4684 1631 
L 4684 1100 
L 678 1100 
L 678 1631 
z
" transform="scale(0.015625)"/>
      <path id="DejaVuSans-2d" d="M 313 2009 
L 1997 2009 
L 1997 1497 
L 313 1497 
L 313 2009 
z
" transform="scale(0.015625)"/>
      <path id="DejaVuSans-2e" d="M 684 794 
L 1344 794 
L 1344 0 
L 684 0 
L 684 794 
z
" transform="scale(0.015625)"/>
      <path id="DejaVuSans-38" d="M 2034 2216 
Q 1584 2216 1326 1975 
Q 1069 1734 1069 1313 
Q 1069 891 1326 650 
Q 1584 409 2034 409 
Q 2484 409 2743 651 
Q 3003 894 3003 1313 
Q 3003 1734 2745 1975 
Q 2488 2216 2034 2216 
z
M 1403 2484 
Q 997 2584 770 2862 
Q 544 3141 544 3541 
Q 544 4100 942 4425 
Q 1341 4750 2034 4750 
Q 2731 4750 3128 4425 
Q 3525 4100 3525 3541 
Q 3525 3141 3298 2862 
Q 3072 2584 2669 2484 
Q 3125 2378 3379 2068 
Q 3634 1759 3634 1313 
Q 3634 634 3220 271 
Q 2806 -91 2034 -91 
Q 1263 -91 848 271 
Q 434 634 434 1313 
Q 434 1759 690 2068 
Q 947 2378 1403 2484 
z
M 1172 3481 
Q 1172 3119 1398 2916 
Q 1625 2713 2034 2713 
Q 2441 2713 2670 2916 
Q 2900 3119 2900 3481 
Q 2900 3844 2670 4047 
Q 2441 4250 2034 4250 
Q 1625 4250 1398 4047 
Q 1172 3844 1172 3481 
z
" transform="scale(0.015625)"/>
     </defs>
     <use xlink:href="#DejaVuSans-Oblique-52" transform="translate(0 0.765625)"/>
     <use xlink:href="#DejaVuSans-32" transform="translate(76.499193 39.046875) scale(0.7)"/>
     <use xlink:href="#DejaVuSans-20" transform="translate(123.769701 0.765625)"/>
     <use xlink:href="#DejaVuSans-3d" transform="translate(155.55681 0.765625)"/>
     <use xlink:href="#DejaVuSans-20" transform="translate(239.345872 0.765625)"/>
     <use xlink:href="#DejaVuSans-2d" transform="translate(271.132982 0.765625)"/>
     <use xlink:href="#DejaVuSans-30" transform="translate(307.216966 0.765625)"/>
     <use xlink:href="#DejaVuSans-2e" transform="translate(370.840013 0.765625)"/>
     <use xlink:href="#DejaVuSans-30" transform="translate(402.627122 0.765625)"/>
     <use xlink:href="#DejaVuSans-38" transform="translate(466.250169 0.765625)"/>
    </g>
    <!-- RMSE = 6.42 -->
    <g transform="translate(69.597297 89.827687) scale(0.12 -0.12)">
     <defs>
      <path id="DejaVuSans-52" d="M 2841 2188 
Q 3044 2119 3236 1894 
Q 3428 1669 3622 1275 
L 4263 0 
L 3584 0 
L 2988 1197 
Q 2756 1666 2539 1819 
Q 2322 1972 1947 1972 
L 1259 1972 
L 1259 0 
L 628 0 
L 628 4666 
L 2053 4666 
Q 2853 4666 3247 4331 
Q 3641 3997 3641 3322 
Q 3641 2881 3436 2590 
Q 3231 2300 2841 2188 
z
M 1259 4147 
L 1259 2491 
L 2053 2491 
Q 2509 2491 2742 2702 
Q 2975 2913 2975 3322 
Q 2975 3731 2742 3939 
Q 2509 4147 2053 4147 
L 1259 4147 
z
" transform="scale(0.015625)"/>
      <path id="DejaVuSans-53" d="M 3425 4513 
L 3425 3897 
Q 3066 4069 2747 4153 
Q 2428 4238 2131 4238 
Q 1616 4238 1336 4038 
Q 1056 3838 1056 3469 
Q 1056 3159 1242 3001 
Q 1428 2844 1947 2747 
L 2328 2669 
Q 3034 2534 3370 2195 
Q 3706 1856 3706 1288 
Q 3706 609 3251 259 
Q 2797 -91 1919 -91 
Q 1588 -91 1214 -16 
Q 841 59 441 206 
L 441 856 
Q 825 641 1194 531 
Q 1563 422 1919 422 
Q 2459 422 2753 634 
Q 3047 847 3047 1241 
Q 3047 1584 2836 1778 
Q 2625 1972 2144 2069 
L 1759 2144 
Q 1053 2284 737 2584 
Q 422 2884 422 3419 
Q 422 4038 858 4394 
Q 1294 4750 2059 4750 
Q 2388 4750 2728 4690 
Q 3069 4631 3425 4513 
z
" transform="scale(0.015625)"/>
      <path id="DejaVuSans-45" d="M 628 4666 
L 3578 4666 
L 3578 4134 
L 1259 4134 
L 1259 2753 
L 3481 2753 
L 3481 2222 
L 1259 2222 
L 1259 531 
L 3634 531 
L 3634 0 
L 628 0 
L 628 4666 
z
" transform="scale(0.015625)"/>
      <path id="DejaVuSans-36" d="M 2113 2584 
Q 1688 2584 1439 2293 
Q 1191 2003 1191 1497 
Q 1191 994 1439 701 
Q 1688 409 2113 409 
Q 2538 409 2786 701 
Q 3034 994 3034 1497 
Q 3034 2003 2786 2293 
Q 2538 2584 2113 2584 
z
M 3366 4563 
L 3366 3988 
Q 3128 4100 2886 4159 
Q 2644 4219 2406 4219 
Q 1781 4219 1451 3797 
Q 1122 3375 1075 2522 
Q 1259 2794 1537 2939 
Q 1816 3084 2150 3084 
Q 2853 3084 3261 2657 
Q 3669 2231 3669 1497 
Q 3669 778 3244 343 
Q 2819 -91 2113 -91 
Q 1303 -91 875 529 
Q 447 1150 447 2328 
Q 447 3434 972 4092 
Q 1497 4750 2381 4750 
Q 2619 4750 2861 4703 
Q 3103 4656 3366 4563 
z
" transform="scale(0.015625)"/>
      <path id="DejaVuSans-34" d="M 2419 4116 
L 825 1625 
L 2419 1625 
L 2419 4116 
z
M 2253 4666 
L 3047 4666 
L 3047 1625 
L 3713 1625 
L 3713 1100 
L 3047 1100 
L 3047 0 
L 2419 0 
L 2419 1100 
L 313 1100 
L 313 1709 
L 2253 4666 
z
" transform="scale(0.015625)"/>
     </defs>
     <use xlink:href="#DejaVuSans-52"/>
     <use xlink:href="#DejaVuSans-4d" x="69.482422"/>
     <use xlink:href="#DejaVuSans-53" x="155.761719"/>
     <use xlink:href="#DejaVuSans-45" x="219.238281"/>
     <use xlink:href="#DejaVuSans-20" x="282.421875"/>
     <use xlink:href="#DejaVuSans-3d" x="314.208984"/>
     <use xlink:href="#DejaVuSans-20" x="397.998047"/>
     <use xlink:href="#DejaVuSans-36" x="429.785156"/>
     <use xlink:href="#DejaVuSans-2e" x="493.408203"/>
     <use xlink:href="#DejaVuSans-34" x="525.195312"/>
     <use xlink:href="#DejaVuSans-32" x="588.818359"/>
    </g>
   </g>
   <g id="text_16">
    <!-- B - Arthrobacter -->
    <g transform="translate(9.272973 25.43625) scale(0.24 -0.24)">
     <defs>
      <path id="DejaVuSans-42" d="M 1259 2228 
L 1259 519 
L 2272 519 
Q 2781 519 3026 730 
Q 3272 941 3272 1375 
Q 3272 1813 3026 2020 
Q 2781 2228 2272 2228 
L 1259 2228 
z
M 1259 4147 
L 1259 2741 
L 2194 2741 
Q 2656 2741 2882 2914 
Q 3109 3088 3109 3444 
Q 3109 3797 2882 3972 
Q 2656 4147 2194 4147 
L 1259 4147 
z
M 628 4666 
L 2241 4666 
Q 2963 4666 3353 4366 
Q 3744 4066 3744 3513 
Q 3744 3084 3544 2831 
Q 3344 2578 2956 2516 
Q 3422 2416 3680 2098 
Q 3938 1781 3938 1306 
Q 3938 681 3513 340 
Q 3088 0 2303 0 
L 628 0 
L 628 4666 
z
" transform="scale(0.015625)"/>
      <path id="DejaVuSans-41" d="M 2188 4044 
L 1331 1722 
L 3047 1722 
L 2188 4044 
z
M 1831 4666 
L 2547 4666 
L 4325 0 
L 3669 0 
L 3244 1197 
L 1141 1197 
L 716 0 
L 50 0 
L 1831 4666 
z
" transform="scale(0.015625)"/>
      <path id="DejaVuSans-68" d="M 3513 2113 
L 3513 0 
L 2938 0 
L 2938 2094 
Q 2938 2591 2744 2837 
Q 2550 3084 2163 3084 
Q 1697 3084 1428 2787 
Q 1159 2491 1159 1978 
L 1159 0 
L 581 0 
L 581 4863 
L 1159 4863 
L 1159 2956 
Q 1366 3272 1645 3428 
Q 1925 3584 2291 3584 
Q 2894 3584 3203 3211 
Q 3513 2838 3513 2113 
z
" transform="scale(0.015625)"/>
      <path id="DejaVuSans-6f" d="M 1959 3097 
Q 1497 3097 1228 2736 
Q 959 2375 959 1747 
Q 959 1119 1226 758 
Q 1494 397 1959 397 
Q 2419 397 2687 759 
Q 2956 1122 2956 1747 
Q 2956 2369 2687 2733 
Q 2419 3097 1959 3097 
z
M 1959 3584 
Q 2709 3584 3137 3096 
Q 3566 2609 3566 1747 
Q 3566 888 3137 398 
Q 2709 -91 1959 -91 
Q 1206 -91 779 398 
Q 353 888 353 1747 
Q 353 2609 779 3096 
Q 1206 3584 1959 3584 
z
" transform="scale(0.015625)"/>
      <path id="DejaVuSans-62" d="M 3116 1747 
Q 3116 2381 2855 2742 
Q 2594 3103 2138 3103 
Q 1681 3103 1420 2742 
Q 1159 2381 1159 1747 
Q 1159 1113 1420 752 
Q 1681 391 2138 391 
Q 2594 391 2855 752 
Q 3116 1113 3116 1747 
z
M 1159 2969 
Q 1341 3281 1617 3432 
Q 1894 3584 2278 3584 
Q 2916 3584 3314 3078 
Q 3713 2572 3713 1747 
Q 3713 922 3314 415 
Q 2916 -91 2278 -91 
Q 1894 -91 1617 61 
Q 1341 213 1159 525 
L 1159 0 
L 581 0 
L 581 4863 
L 1159 4863 
L 1159 2969 
z
" transform="scale(0.015625)"/>
     </defs>
     <use xlink:href="#DejaVuSans-42"/>
     <use xlink:href="#DejaVuSans-20" x="68.603516"/>
     <use xlink:href="#DejaVuSans-2d" x="100.390625"/>
     <use xlink:href="#DejaVuSans-20" x="136.474609"/>
     <use xlink:href="#DejaVuSans-41" x="168.261719"/>
     <use xlink:href="#DejaVuSans-72" x="236.669922"/>
     <use xlink:href="#DejaVuSans-74" x="277.783203"/>
     <use xlink:href="#DejaVuSans-68" x="316.992188"/>
     <use xlink:href="#DejaVuSans-72" x="380.371094"/>
     <use xlink:href="#DejaVuSans-6f" x="419.234375"/>
     <use xlink:href="#DejaVuSans-62" x="480.416016"/>
     <use xlink:href="#DejaVuSans-61" x="543.892578"/>
     <use xlink:href="#DejaVuSans-63" x="605.171875"/>
     <use xlink:href="#DejaVuSans-74" x="660.152344"/>
     <use xlink:href="#DejaVuSans-65" x="699.361328"/>
     <use xlink:href="#DejaVuSans-72" x="760.884766"/>
    </g>
   </g>
   <g id="text_17">
    <!-- ROSEATE -->
    <g transform="translate(109.800705 57.16575) scale(0.14 -0.14)">
     <use xlink:href="#DejaVuSans-52"/>
     <use xlink:href="#DejaVuSans-4f" x="69.482422"/>
     <use xlink:href="#DejaVuSans-53" x="148.193359"/>
     <use xlink:href="#DejaVuSans-45" x="211.669922"/>
     <use xlink:href="#DejaVuSans-41" x="274.853516"/>
     <use xlink:href="#DejaVuSans-54" x="335.511719"/>
     <use xlink:href="#DejaVuSans-45" x="396.595703"/>
    </g>
   </g>
  </g>
  <g id="axes_2">
   <g id="patch_5">
    <path d="M 295.813514 229.48575 
L 476.786486 229.48575 
L 476.786486 63.16575 
L 295.813514 63.16575 
z
" style="fill: #ffffff"/>
   </g>
   <g id="PolyCollection_2">
    <defs>
     <path id="m4034abc62f" d="M 313.910811 -91.586375 
L 313.910811 -36.146375 
L 315.434152 -37.546375 
L 316.957494 -38.946375 
L 318.480835 -40.346375 
L 320.004177 -41.746375 
L 321.527518 -43.146375 
L 323.05086 -44.546375 
L 324.574201 -45.946375 
L 326.097543 -47.346375 
L 327.620885 -48.746375 
L 329.144226 -50.146375 
L 330.667568 -51.546375 
L 332.190909 -52.946375 
L 333.714251 -54.346375 
L 335.237592 -55.746375 
L 336.760934 -57.146375 
L 338.284275 -58.546375 
L 339.807617 -59.946375 
L 341.330958 -61.346375 
L 342.8543 -62.746375 
L 344.377641 -64.146375 
L 345.900983 -65.546375 
L 347.424324 -66.946375 
L 348.947666 -68.346375 
L 350.471007 -69.746375 
L 351.994349 -71.146375 
L 353.51769 -72.546375 
L 355.041032 -73.946375 
L 356.564373 -75.346375 
L 358.087715 -76.746375 
L 359.611057 -78.146375 
L 361.134398 -79.546375 
L 362.65774 -80.946375 
L 364.181081 -82.346375 
L 365.704423 -83.746375 
L 367.227764 -85.146375 
L 368.751106 -86.546375 
L 370.274447 -87.946375 
L 371.797789 -89.346375 
L 373.32113 -90.746375 
L 374.844472 -92.146375 
L 376.367813 -93.546375 
L 377.891155 -94.946375 
L 379.414496 -96.346375 
L 380.937838 -97.746375 
L 382.461179 -99.146375 
L 383.984521 -100.546375 
L 385.507862 -101.946375 
L 387.031204 -103.346375 
L 388.554545 -104.746375 
L 390.077887 -106.146375 
L 391.601229 -107.546375 
L 393.12457 -108.946375 
L 394.647912 -110.346375 
L 396.171253 -111.746375 
L 397.694595 -113.146375 
L 399.217936 -114.546375 
L 400.741278 -115.946375 
L 402.264619 -117.346375 
L 403.787961 -118.746375 
L 405.311302 -120.146375 
L 406.834644 -121.546375 
L 408.357985 -122.946375 
L 409.881327 -124.346375 
L 411.404668 -125.746375 
L 412.92801 -127.146375 
L 414.451351 -128.546375 
L 415.974693 -129.946375 
L 417.498034 -131.346375 
L 419.021376 -132.746375 
L 420.544717 -134.146375 
L 422.068059 -135.546375 
L 423.5914 -136.946375 
L 425.114742 -138.346375 
L 426.638084 -139.746375 
L 428.161425 -141.146375 
L 429.684767 -142.546375 
L 431.208108 -143.946375 
L 432.73145 -145.346375 
L 434.254791 -146.746375 
L 435.778133 -148.146375 
L 437.301474 -149.546375 
L 438.824816 -150.946375 
L 440.348157 -152.346375 
L 441.871499 -153.746375 
L 443.39484 -155.146375 
L 444.918182 -156.546375 
L 446.441523 -157.946375 
L 447.964865 -159.346375 
L 449.488206 -160.746375 
L 451.011548 -162.146375 
L 452.534889 -163.546375 
L 454.058231 -164.946375 
L 455.581572 -166.346375 
L 457.104914 -167.746375 
L 458.628256 -169.146375 
L 460.151597 -170.546375 
L 461.674939 -171.946375 
L 463.19828 -173.346375 
L 464.721622 -174.746375 
L 464.721622 -230.186375 
L 464.721622 -230.186375 
L 463.19828 -228.786375 
L 461.674939 -227.386375 
L 460.151597 -225.986375 
L 458.628256 -224.586375 
L 457.104914 -223.186375 
L 455.581572 -221.786375 
L 454.058231 -220.386375 
L 452.534889 -218.986375 
L 451.011548 -217.586375 
L 449.488206 -216.186375 
L 447.964865 -214.786375 
L 446.441523 -213.386375 
L 444.918182 -211.986375 
L 443.39484 -210.586375 
L 441.871499 -209.186375 
L 440.348157 -207.786375 
L 438.824816 -206.386375 
L 437.301474 -204.986375 
L 435.778133 -203.586375 
L 434.254791 -202.186375 
L 432.73145 -200.786375 
L 431.208108 -199.386375 
L 429.684767 -197.986375 
L 428.161425 -196.586375 
L 426.638084 -195.186375 
L 425.114742 -193.786375 
L 423.5914 -192.386375 
L 422.068059 -190.986375 
L 420.544717 -189.586375 
L 419.021376 -188.186375 
L 417.498034 -186.786375 
L 415.974693 -185.386375 
L 414.451351 -183.986375 
L 412.92801 -182.586375 
L 411.404668 -181.186375 
L 409.881327 -179.786375 
L 408.357985 -178.386375 
L 406.834644 -176.986375 
L 405.311302 -175.586375 
L 403.787961 -174.186375 
L 402.264619 -172.786375 
L 400.741278 -171.386375 
L 399.217936 -169.986375 
L 397.694595 -168.586375 
L 396.171253 -167.186375 
L 394.647912 -165.786375 
L 393.12457 -164.386375 
L 391.601229 -162.986375 
L 390.077887 -161.586375 
L 388.554545 -160.186375 
L 387.031204 -158.786375 
L 385.507862 -157.386375 
L 383.984521 -155.986375 
L 382.461179 -154.586375 
L 380.937838 -153.186375 
L 379.414496 -151.786375 
L 377.891155 -150.386375 
L 376.367813 -148.986375 
L 374.844472 -147.586375 
L 373.32113 -146.186375 
L 371.797789 -144.786375 
L 370.274447 -143.386375 
L 368.751106 -141.986375 
L 367.227764 -140.586375 
L 365.704423 -139.186375 
L 364.181081 -137.786375 
L 362.65774 -136.386375 
L 361.134398 -134.986375 
L 359.611057 -133.586375 
L 358.087715 -132.186375 
L 356.564373 -130.786375 
L 355.041032 -129.386375 
L 353.51769 -127.986375 
L 351.994349 -126.586375 
L 350.471007 -125.186375 
L 348.947666 -123.786375 
L 347.424324 -122.386375 
L 345.900983 -120.986375 
L 344.377641 -119.586375 
L 342.8543 -118.186375 
L 341.330958 -116.786375 
L 339.807617 -115.386375 
L 338.284275 -113.986375 
L 336.760934 -112.586375 
L 335.237592 -111.186375 
L 333.714251 -109.786375 
L 332.190909 -108.386375 
L 330.667568 -106.986375 
L 329.144226 -105.586375 
L 327.620885 -104.186375 
L 326.097543 -102.786375 
L 324.574201 -101.386375 
L 323.05086 -99.986375 
L 321.527518 -98.586375 
L 320.004177 -97.186375 
L 318.480835 -95.786375 
L 316.957494 -94.386375 
L 315.434152 -92.986375 
L 313.910811 -91.586375 
z
" style="stroke: #d3d3d3"/>
    </defs>
    <g clip-path="url(#p8b528cd7a0)">
     <use xlink:href="#m4034abc62f" x="0" y="276.720125" style="fill: #d3d3d3; stroke: #d3d3d3"/>
    </g>
   </g>
   <g id="PathCollection_2">
    <defs>
     <path id="C1_0_934a18bc60" d="M 0 3 
C 0.795609 3 1.55874 2.683901 2.12132 2.12132 
C 2.683901 1.55874 3 0.795609 3 -0 
C 3 -0.795609 2.683901 -1.55874 2.12132 -2.12132 
C 1.55874 -2.683901 0.795609 -3 0 -3 
C -0.795609 -3 -1.55874 -2.683901 -2.12132 -2.12132 
C -2.683901 -1.55874 -3 -0.795609 -3 0 
C -3 0.795609 -2.683901 1.55874 -2.12132 2.12132 
C -1.55874 2.683901 -0.795609 3 0 3 
z
"/>
    </defs>
    <g clip-path="url(#p8b528cd7a0)">
     <use xlink:href="#C1_0_934a18bc60" x="350.105405" y="130.35903" style="fill: #1f77b4; stroke: #000000; stroke-width: 0.48"/>
    </g>
    <g clip-path="url(#p8b528cd7a0)">
     <use xlink:href="#C1_0_934a18bc60" x="356.137838" y="157.13655" style="fill: #1f77b4; stroke: #000000; stroke-width: 0.48"/>
    </g>
    <g clip-path="url(#p8b528cd7a0)">
     <use xlink:href="#C1_0_934a18bc60" x="362.17027" y="155.47335" style="fill: #1f77b4; stroke: #000000; stroke-width: 0.48"/>
    </g>
    <g clip-path="url(#p8b528cd7a0)">
     <use xlink:href="#C1_0_934a18bc60" x="350.105405" y="157.80183" style="fill: #1f77b4; stroke: #000000; stroke-width: 0.48"/>
    </g>
    <g clip-path="url(#p8b528cd7a0)">
     <use xlink:href="#C1_0_934a18bc60" x="356.137838" y="157.08111" style="fill: #1f77b4; stroke: #000000; stroke-width: 0.48"/>
    </g>
    <g clip-path="url(#p8b528cd7a0)">
     <use xlink:href="#C1_0_934a18bc60" x="356.137838" y="157.24743" style="fill: #1f77b4; stroke: #000000; stroke-width: 0.48"/>
    </g>
    <g clip-path="url(#p8b528cd7a0)">
     <use xlink:href="#C1_0_934a18bc60" x="350.105405" y="154.97439" style="fill: #1f77b4; stroke: #000000; stroke-width: 0.48"/>
    </g>
    <g clip-path="url(#p8b528cd7a0)">
     <use xlink:href="#C1_0_934a18bc60" x="356.137838" y="154.36455" style="fill: #1f77b4; stroke: #000000; stroke-width: 0.48"/>
    </g>
    <g clip-path="url(#p8b528cd7a0)">
     <use xlink:href="#C1_0_934a18bc60" x="338.040541" y="162.23703" style="fill: #1f77b4; stroke: #000000; stroke-width: 0.48"/>
    </g>
    <g clip-path="url(#p8b528cd7a0)">
     <use xlink:href="#C1_0_934a18bc60" x="338.040541" y="150.20655" style="fill: #1f77b4; stroke: #000000; stroke-width: 0.48"/>
    </g>
    <g clip-path="url(#p8b528cd7a0)">
     <use xlink:href="#C1_0_934a18bc60" x="356.137838" y="155.69511" style="fill: #1f77b4; stroke: #000000; stroke-width: 0.48"/>
    </g>
    <g clip-path="url(#p8b528cd7a0)">
     <use xlink:href="#C1_0_934a18bc60" x="398.364865" y="144.88431" style="fill: #1f77b4; stroke: #000000; stroke-width: 0.48"/>
    </g>
    <g clip-path="url(#p8b528cd7a0)">
     <use xlink:href="#C1_0_934a18bc60" x="374.235135" y="147.04647" style="fill: #1f77b4; stroke: #000000; stroke-width: 0.48"/>
    </g>
    <g clip-path="url(#p8b528cd7a0)">
     <use xlink:href="#C1_0_934a18bc60" x="350.105405" y="161.40543" style="fill: #1f77b4; stroke: #000000; stroke-width: 0.48"/>
    </g>
    <g clip-path="url(#p8b528cd7a0)">
     <use xlink:href="#C1_0_934a18bc60" x="356.137838" y="162.18159" style="fill: #1f77b4; stroke: #000000; stroke-width: 0.48"/>
    </g>
    <g clip-path="url(#p8b528cd7a0)">
     <use xlink:href="#C1_0_934a18bc60" x="356.137838" y="155.19615" style="fill: #1f77b4; stroke: #000000; stroke-width: 0.48"/>
    </g>
    <g clip-path="url(#p8b528cd7a0)">
     <use xlink:href="#C1_0_934a18bc60" x="356.137838" y="162.95775" style="fill: #1f77b4; stroke: #000000; stroke-width: 0.48"/>
    </g>
    <g clip-path="url(#p8b528cd7a0)">
     <use xlink:href="#C1_0_934a18bc60" x="350.105405" y="162.56967" style="fill: #1f77b4; stroke: #000000; stroke-width: 0.48"/>
    </g>
    <g clip-path="url(#p8b528cd7a0)">
     <use xlink:href="#C1_0_934a18bc60" x="368.202703" y="163.23495" style="fill: #1f77b4; stroke: #000000; stroke-width: 0.48"/>
    </g>
    <g clip-path="url(#p8b528cd7a0)">
     <use xlink:href="#C1_0_934a18bc60" x="356.137838" y="164.28831" style="fill: #1f77b4; stroke: #000000; stroke-width: 0.48"/>
    </g>
    <g clip-path="url(#p8b528cd7a0)">
     <use xlink:href="#C1_0_934a18bc60" x="344.072973" y="158.46711" style="fill: #1f77b4; stroke: #000000; stroke-width: 0.48"/>
    </g>
    <g clip-path="url(#p8b528cd7a0)">
     <use xlink:href="#C1_0_934a18bc60" x="362.17027" y="161.57175" style="fill: #1f77b4; stroke: #000000; stroke-width: 0.48"/>
    </g>
    <g clip-path="url(#p8b528cd7a0)">
     <use xlink:href="#C1_0_934a18bc60" x="356.137838" y="162.18159" style="fill: #1f77b4; stroke: #000000; stroke-width: 0.48"/>
    </g>
    <g clip-path="url(#p8b528cd7a0)">
     <use xlink:href="#C1_0_934a18bc60" x="356.137838" y="155.41791" style="fill: #1f77b4; stroke: #000000; stroke-width: 0.48"/>
    </g>
    <g clip-path="url(#p8b528cd7a0)">
     <use xlink:href="#C1_0_934a18bc60" x="350.105405" y="163.45671" style="fill: #1f77b4; stroke: #000000; stroke-width: 0.48"/>
    </g>
    <g clip-path="url(#p8b528cd7a0)">
     <use xlink:href="#C1_0_934a18bc60" x="398.364865" y="156.63759" style="fill: #ff7f0e; stroke: #000000; stroke-width: 0.48"/>
    </g>
    <g clip-path="url(#p8b528cd7a0)">
     <use xlink:href="#C1_0_934a18bc60" x="446.624324" y="118.32855" style="fill: #ff7f0e; stroke: #000000; stroke-width: 0.48"/>
    </g>
    <g clip-path="url(#p8b528cd7a0)">
     <use xlink:href="#C1_0_934a18bc60" x="362.17027" y="164.17743" style="fill: #ff7f0e; stroke: #000000; stroke-width: 0.48"/>
    </g>
    <g clip-path="url(#p8b528cd7a0)">
     <use xlink:href="#C1_0_934a18bc60" x="416.462162" y="137.17815" style="fill: #ff7f0e; stroke: #000000; stroke-width: 0.48"/>
    </g>
    <g clip-path="url(#p8b528cd7a0)">
     <use xlink:href="#C1_0_934a18bc60" x="398.364865" y="139.78383" style="fill: #ff7f0e; stroke: #000000; stroke-width: 0.48"/>
    </g>
    <g clip-path="url(#p8b528cd7a0)">
     <use xlink:href="#C1_0_934a18bc60" x="404.397297" y="138.50871" style="fill: #ff7f0e; stroke: #000000; stroke-width: 0.48"/>
    </g>
    <g clip-path="url(#p8b528cd7a0)">
     <use xlink:href="#C1_0_934a18bc60" x="392.332432" y="156.58215" style="fill: #ff7f0e; stroke: #000000; stroke-width: 0.48"/>
    </g>
    <g clip-path="url(#p8b528cd7a0)">
     <use xlink:href="#C1_0_934a18bc60" x="446.624324" y="150.31743" style="fill: #ff7f0e; stroke: #000000; stroke-width: 0.48"/>
    </g>
    <g clip-path="url(#p8b528cd7a0)">
     <use xlink:href="#C1_0_934a18bc60" x="410.42973" y="153.25575" style="fill: #ff7f0e; stroke: #000000; stroke-width: 0.48"/>
    </g>
    <g clip-path="url(#p8b528cd7a0)">
     <use xlink:href="#C1_0_934a18bc60" x="428.527027" y="153.47751" style="fill: #ff7f0e; stroke: #000000; stroke-width: 0.48"/>
    </g>
    <g clip-path="url(#p8b528cd7a0)">
     <use xlink:href="#C1_0_934a18bc60" x="410.42973" y="150.37287" style="fill: #ff7f0e; stroke: #000000; stroke-width: 0.48"/>
    </g>
    <g clip-path="url(#p8b528cd7a0)">
     <use xlink:href="#C1_0_934a18bc60" x="446.624324" y="152.47959" style="fill: #ff7f0e; stroke: #000000; stroke-width: 0.48"/>
    </g>
    <g clip-path="url(#p8b528cd7a0)">
     <use xlink:href="#C1_0_934a18bc60" x="410.42973" y="152.31327" style="fill: #ff7f0e; stroke: #000000; stroke-width: 0.48"/>
    </g>
    <g clip-path="url(#p8b528cd7a0)">
     <use xlink:href="#C1_0_934a18bc60" x="410.42973" y="152.70135" style="fill: #ff7f0e; stroke: #000000; stroke-width: 0.48"/>
    </g>
    <g clip-path="url(#p8b528cd7a0)">
     <use xlink:href="#C1_0_934a18bc60" x="422.494595" y="154.30911" style="fill: #ff7f0e; stroke: #000000; stroke-width: 0.48"/>
    </g>
    <g clip-path="url(#p8b528cd7a0)">
     <use xlink:href="#C1_0_934a18bc60" x="446.624324" y="153.42207" style="fill: #ff7f0e; stroke: #000000; stroke-width: 0.48"/>
    </g>
    <g clip-path="url(#p8b528cd7a0)">
     <use xlink:href="#C1_0_934a18bc60" x="446.624324" y="154.41999" style="fill: #ff7f0e; stroke: #000000; stroke-width: 0.48"/>
    </g>
    <g clip-path="url(#p8b528cd7a0)">
     <use xlink:href="#C1_0_934a18bc60" x="440.591892" y="161.07279" style="fill: #ff7f0e; stroke: #000000; stroke-width: 0.48"/>
    </g>
    <g clip-path="url(#p8b528cd7a0)">
     <use xlink:href="#C1_0_934a18bc60" x="446.624324" y="155.47335" style="fill: #ff7f0e; stroke: #000000; stroke-width: 0.48"/>
    </g>
    <g clip-path="url(#p8b528cd7a0)">
     <use xlink:href="#C1_0_934a18bc60" x="416.462162" y="153.03399" style="fill: #ff7f0e; stroke: #000000; stroke-width: 0.48"/>
    </g>
    <g clip-path="url(#p8b528cd7a0)">
     <use xlink:href="#C1_0_934a18bc60" x="422.494595" y="155.02983" style="fill: #ff7f0e; stroke: #000000; stroke-width: 0.48"/>
    </g>
    <g clip-path="url(#p8b528cd7a0)">
     <use xlink:href="#C1_0_934a18bc60" x="434.559459" y="153.08943" style="fill: #ff7f0e; stroke: #000000; stroke-width: 0.48"/>
    </g>
    <g clip-path="url(#p8b528cd7a0)">
     <use xlink:href="#C1_0_934a18bc60" x="446.624324" y="153.42207" style="fill: #ff7f0e; stroke: #000000; stroke-width: 0.48"/>
    </g>
   </g>
   <g id="line2d_14">
    <path d="M 313.910811 212.85375 
L 464.721622 74.25375 
" clip-path="url(#p8b528cd7a0)" style="fill: none; stroke-dasharray: 5.55,2.4; stroke-dashoffset: 0; stroke: #000000; stroke-width: 1.5"/>
   </g>
   <g id="matplotlib.axis_3">
    <g id="xtick_7">
     <g id="line2d_15">
      <g>
       <use xlink:href="#mb6d70be60e" x="313.910811" y="229.48575" style="stroke: #000000; stroke-width: 0.8"/>
      </g>
     </g>
     <g id="text_18">
      <!-- 10 -->
      <g transform="translate(305.003311 247.123562) scale(0.14 -0.14)">
       <use xlink:href="#DejaVuSans-31"/>
       <use xlink:href="#DejaVuSans-30" x="63.623047"/>
      </g>
     </g>
    </g>
    <g id="xtick_8">
     <g id="line2d_16">
      <g>
       <use xlink:href="#mb6d70be60e" x="344.072973" y="229.48575" style="stroke: #000000; stroke-width: 0.8"/>
      </g>
     </g>
     <g id="text_19">
      <!-- 15 -->
      <g transform="translate(335.165473 247.123562) scale(0.14 -0.14)">
       <use xlink:href="#DejaVuSans-31"/>
       <use xlink:href="#DejaVuSans-35" x="63.623047"/>
      </g>
     </g>
    </g>
    <g id="xtick_9">
     <g id="line2d_17">
      <g>
       <use xlink:href="#mb6d70be60e" x="374.235135" y="229.48575" style="stroke: #000000; stroke-width: 0.8"/>
      </g>
     </g>
     <g id="text_20">
      <!-- 20 -->
      <g transform="translate(365.327635 247.123562) scale(0.14 -0.14)">
       <use xlink:href="#DejaVuSans-32"/>
       <use xlink:href="#DejaVuSans-30" x="63.623047"/>
      </g>
     </g>
    </g>
    <g id="xtick_10">
     <g id="line2d_18">
      <g>
       <use xlink:href="#mb6d70be60e" x="404.397297" y="229.48575" style="stroke: #000000; stroke-width: 0.8"/>
      </g>
     </g>
     <g id="text_21">
      <!-- 25 -->
      <g transform="translate(395.489797 247.123562) scale(0.14 -0.14)">
       <use xlink:href="#DejaVuSans-32"/>
       <use xlink:href="#DejaVuSans-35" x="63.623047"/>
      </g>
     </g>
    </g>
    <g id="xtick_11">
     <g id="line2d_19">
      <g>
       <use xlink:href="#mb6d70be60e" x="434.559459" y="229.48575" style="stroke: #000000; stroke-width: 0.8"/>
      </g>
     </g>
     <g id="text_22">
      <!-- 30 -->
      <g transform="translate(425.651959 247.123562) scale(0.14 -0.14)">
       <use xlink:href="#DejaVuSans-33"/>
       <use xlink:href="#DejaVuSans-30" x="63.623047"/>
      </g>
     </g>
    </g>
    <g id="xtick_12">
     <g id="line2d_20">
      <g>
       <use xlink:href="#mb6d70be60e" x="464.721622" y="229.48575" style="stroke: #000000; stroke-width: 0.8"/>
      </g>
     </g>
     <g id="text_23">
      <!-- 35 -->
      <g transform="translate(455.814122 247.123562) scale(0.14 -0.14)">
       <use xlink:href="#DejaVuSans-33"/>
       <use xlink:href="#DejaVuSans-35" x="63.623047"/>
      </g>
     </g>
    </g>
    <g id="text_24">
     <!-- Measured OGT (°C) -->
     <g transform="translate(309.21875 266.192625) scale(0.16 -0.16)">
      <use xlink:href="#DejaVuSans-4d"/>
      <use xlink:href="#DejaVuSans-65" x="86.279297"/>
      <use xlink:href="#DejaVuSans-61" x="147.802734"/>
      <use xlink:href="#DejaVuSans-73" x="209.082031"/>
      <use xlink:href="#DejaVuSans-75" x="261.181641"/>
      <use xlink:href="#DejaVuSans-72" x="324.560547"/>
      <use xlink:href="#DejaVuSans-65" x="363.423828"/>
      <use xlink:href="#DejaVuSans-64" x="424.947266"/>
      <use xlink:href="#DejaVuSans-20" x="488.423828"/>
      <use xlink:href="#DejaVuSans-4f" x="520.210938"/>
      <use xlink:href="#DejaVuSans-47" x="598.921875"/>
      <use xlink:href="#DejaVuSans-54" x="672.787109"/>
      <use xlink:href="#DejaVuSans-20" x="733.871094"/>
      <use xlink:href="#DejaVuSans-28" x="765.658203"/>
      <use xlink:href="#DejaVuSans-b0" x="804.671875"/>
      <use xlink:href="#DejaVuSans-43" x="854.671875"/>
      <use xlink:href="#DejaVuSans-29" x="924.496094"/>
     </g>
    </g>
   </g>
   <g id="matplotlib.axis_4">
    <g id="ytick_7">
     <g id="line2d_21">
      <g>
       <use xlink:href="#ma7bfa90ceb" x="295.813514" y="212.85375" style="stroke: #000000; stroke-width: 0.8"/>
      </g>
     </g>
     <g id="text_25">
      <!-- 10 -->
      <g transform="translate(270.998514 218.172656) scale(0.14 -0.14)">
       <use xlink:href="#DejaVuSans-31"/>
       <use xlink:href="#DejaVuSans-30" x="63.623047"/>
      </g>
     </g>
    </g>
    <g id="ytick_8">
     <g id="line2d_22">
      <g>
       <use xlink:href="#ma7bfa90ceb" x="295.813514" y="185.13375" style="stroke: #000000; stroke-width: 0.8"/>
      </g>
     </g>
     <g id="text_26">
      <!-- 15 -->
      <g transform="translate(270.998514 190.452656) scale(0.14 -0.14)">
       <use xlink:href="#DejaVuSans-31"/>
       <use xlink:href="#DejaVuSans-35" x="63.623047"/>
      </g>
     </g>
    </g>
    <g id="ytick_9">
     <g id="line2d_23">
      <g>
       <use xlink:href="#ma7bfa90ceb" x="295.813514" y="157.41375" style="stroke: #000000; stroke-width: 0.8"/>
      </g>
     </g>
     <g id="text_27">
      <!-- 20 -->
      <g transform="translate(270.998514 162.732656) scale(0.14 -0.14)">
       <use xlink:href="#DejaVuSans-32"/>
       <use xlink:href="#DejaVuSans-30" x="63.623047"/>
      </g>
     </g>
    </g>
    <g id="ytick_10">
     <g id="line2d_24">
      <g>
       <use xlink:href="#ma7bfa90ceb" x="295.813514" y="129.69375" style="stroke: #000000; stroke-width: 0.8"/>
      </g>
     </g>
     <g id="text_28">
      <!-- 25 -->
      <g transform="translate(270.998514 135.012656) scale(0.14 -0.14)">
       <use xlink:href="#DejaVuSans-32"/>
       <use xlink:href="#DejaVuSans-35" x="63.623047"/>
      </g>
     </g>
    </g>
    <g id="ytick_11">
     <g id="line2d_25">
      <g>
       <use xlink:href="#ma7bfa90ceb" x="295.813514" y="101.97375" style="stroke: #000000; stroke-width: 0.8"/>
      </g>
     </g>
     <g id="text_29">
      <!-- 30 -->
      <g transform="translate(270.998514 107.292656) scale(0.14 -0.14)">
       <use xlink:href="#DejaVuSans-33"/>
       <use xlink:href="#DejaVuSans-30" x="63.623047"/>
      </g>
     </g>
    </g>
    <g id="ytick_12">
     <g id="line2d_26">
      <g>
       <use xlink:href="#ma7bfa90ceb" x="295.813514" y="74.25375" style="stroke: #000000; stroke-width: 0.8"/>
      </g>
     </g>
     <g id="text_30">
      <!-- 35 -->
      <g transform="translate(270.998514 79.572656) scale(0.14 -0.14)">
       <use xlink:href="#DejaVuSans-33"/>
       <use xlink:href="#DejaVuSans-35" x="63.623047"/>
      </g>
     </g>
    </g>
    <g id="text_31">
     <!-- Predicted OGT(°C) -->
     <g transform="translate(263.671014 219.342) rotate(-90) scale(0.16 -0.16)">
      <use xlink:href="#DejaVuSans-50"/>
      <use xlink:href="#DejaVuSans-72" x="58.552734"/>
      <use xlink:href="#DejaVuSans-65" x="97.416016"/>
      <use xlink:href="#DejaVuSans-64" x="158.939453"/>
      <use xlink:href="#DejaVuSans-69" x="222.416016"/>
      <use xlink:href="#DejaVuSans-63" x="250.199219"/>
      <use xlink:href="#DejaVuSans-74" x="305.179688"/>
      <use xlink:href="#DejaVuSans-65" x="344.388672"/>
      <use xlink:href="#DejaVuSans-64" x="405.912109"/>
      <use xlink:href="#DejaVuSans-20" x="469.388672"/>
      <use xlink:href="#DejaVuSans-4f" x="501.175781"/>
      <use xlink:href="#DejaVuSans-47" x="579.886719"/>
      <use xlink:href="#DejaVuSans-54" x="653.751953"/>
      <use xlink:href="#DejaVuSans-28" x="714.835938"/>
      <use xlink:href="#DejaVuSans-b0" x="753.849609"/>
      <use xlink:href="#DejaVuSans-43" x="803.849609"/>
      <use xlink:href="#DejaVuSans-29" x="873.673828"/>
     </g>
    </g>
   </g>
   <g id="patch_6">
    <path d="M 295.813514 229.48575 
L 295.813514 63.16575 
" style="fill: none; stroke: #000000; stroke-width: 0.8; stroke-linejoin: miter; stroke-linecap: square"/>
   </g>
   <g id="patch_7">
    <path d="M 295.813514 229.48575 
L 476.786486 229.48575 
" style="fill: none; stroke: #000000; stroke-width: 0.8; stroke-linejoin: miter; stroke-linecap: square"/>
   </g>
   <g id="text_32">
    <!-- $R^2$ = 0.06 -->
    <g transform="translate(313.910811 76.390312) scale(0.12 -0.12)">
     <use xlink:href="#DejaVuSans-Oblique-52" transform="translate(0 0.765625)"/>
     <use xlink:href="#DejaVuSans-32" transform="translate(76.499193 39.046875) scale(0.7)"/>
     <use xlink:href="#DejaVuSans-20" transform="translate(123.769701 0.765625)"/>
     <use xlink:href="#DejaVuSans-3d" transform="translate(155.55681 0.765625)"/>
     <use xlink:href="#DejaVuSans-20" transform="translate(239.345872 0.765625)"/>
     <use xlink:href="#DejaVuSans-30" transform="translate(271.132982 0.765625)"/>
     <use xlink:href="#DejaVuSans-2e" transform="translate(334.756029 0.765625)"/>
     <use xlink:href="#DejaVuSans-30" transform="translate(366.543138 0.765625)"/>
     <use xlink:href="#DejaVuSans-36" transform="translate(430.166185 0.765625)"/>
    </g>
    <!-- RMSE = 5.98 -->
    <g transform="translate(313.910811 89.827687) scale(0.12 -0.12)">
     <defs>
      <path id="DejaVuSans-39" d="M 703 97 
L 703 672 
Q 941 559 1184 500 
Q 1428 441 1663 441 
Q 2288 441 2617 861 
Q 2947 1281 2994 2138 
Q 2813 1869 2534 1725 
Q 2256 1581 1919 1581 
Q 1219 1581 811 2004 
Q 403 2428 403 3163 
Q 403 3881 828 4315 
Q 1253 4750 1959 4750 
Q 2769 4750 3195 4129 
Q 3622 3509 3622 2328 
Q 3622 1225 3098 567 
Q 2575 -91 1691 -91 
Q 1453 -91 1209 -44 
Q 966 3 703 97 
z
M 1959 2075 
Q 2384 2075 2632 2365 
Q 2881 2656 2881 3163 
Q 2881 3666 2632 3958 
Q 2384 4250 1959 4250 
Q 1534 4250 1286 3958 
Q 1038 3666 1038 3163 
Q 1038 2656 1286 2365 
Q 1534 2075 1959 2075 
z
" transform="scale(0.015625)"/>
     </defs>
     <use xlink:href="#DejaVuSans-52"/>
     <use xlink:href="#DejaVuSans-4d" x="69.482422"/>
     <use xlink:href="#DejaVuSans-53" x="155.761719"/>
     <use xlink:href="#DejaVuSans-45" x="219.238281"/>
     <use xlink:href="#DejaVuSans-20" x="282.421875"/>
     <use xlink:href="#DejaVuSans-3d" x="314.208984"/>
     <use xlink:href="#DejaVuSans-20" x="397.998047"/>
     <use xlink:href="#DejaVuSans-35" x="429.785156"/>
     <use xlink:href="#DejaVuSans-2e" x="493.408203"/>
     <use xlink:href="#DejaVuSans-39" x="525.195312"/>
     <use xlink:href="#DejaVuSans-38" x="588.818359"/>
    </g>
   </g>
   <g id="text_33">
    <!-- AA/SVR Model (TOME) -->
    <g transform="translate(308.8975 57.16575) scale(0.14 -0.14)">
     <defs>
      <path id="DejaVuSans-2f" d="M 1625 4666 
L 2156 4666 
L 531 -594 
L 0 -594 
L 1625 4666 
z
" transform="scale(0.015625)"/>
      <path id="DejaVuSans-56" d="M 1831 0 
L 50 4666 
L 709 4666 
L 2188 738 
L 3669 4666 
L 4325 4666 
L 2547 0 
L 1831 0 
z
" transform="scale(0.015625)"/>
      <path id="DejaVuSans-6c" d="M 603 4863 
L 1178 4863 
L 1178 0 
L 603 0 
L 603 4863 
z
" transform="scale(0.015625)"/>
     </defs>
     <use xlink:href="#DejaVuSans-41"/>
     <use xlink:href="#DejaVuSans-41" x="71.158203"/>
     <use xlink:href="#DejaVuSans-2f" x="139.566406"/>
     <use xlink:href="#DejaVuSans-53" x="173.257812"/>
     <use xlink:href="#DejaVuSans-56" x="236.734375"/>
     <use xlink:href="#DejaVuSans-52" x="305.142578"/>
     <use xlink:href="#DejaVuSans-20" x="374.625"/>
     <use xlink:href="#DejaVuSans-4d" x="406.412109"/>
     <use xlink:href="#DejaVuSans-6f" x="492.691406"/>
     <use xlink:href="#DejaVuSans-64" x="553.873047"/>
     <use xlink:href="#DejaVuSans-65" x="617.349609"/>
     <use xlink:href="#DejaVuSans-6c" x="678.873047"/>
     <use xlink:href="#DejaVuSans-20" x="706.65625"/>
     <use xlink:href="#DejaVuSans-28" x="738.443359"/>
     <use xlink:href="#DejaVuSans-54" x="777.457031"/>
     <use xlink:href="#DejaVuSans-4f" x="838.541016"/>
     <use xlink:href="#DejaVuSans-4d" x="917.251953"/>
     <use xlink:href="#DejaVuSans-45" x="1003.53125"/>
     <use xlink:href="#DejaVuSans-29" x="1066.714844"/>
    </g>
   </g>
  </g>
  <g id="axes_3">
   <g id="patch_8">
    <path d="M 540.127027 229.48575 
L 721.1 229.48575 
L 721.1 63.16575 
L 540.127027 63.16575 
z
" style="fill: #ffffff"/>
   </g>
   <g id="PolyCollection_3">
    <defs>
     <path id="m26e7c86e9b" d="M 558.224324 -91.586375 
L 558.224324 -36.146375 
L 559.747666 -37.546375 
L 561.271007 -38.946375 
L 562.794349 -40.346375 
L 564.31769 -41.746375 
L 565.841032 -43.146375 
L 567.364373 -44.546375 
L 568.887715 -45.946375 
L 570.411057 -47.346375 
L 571.934398 -48.746375 
L 573.45774 -50.146375 
L 574.981081 -51.546375 
L 576.504423 -52.946375 
L 578.027764 -54.346375 
L 579.551106 -55.746375 
L 581.074447 -57.146375 
L 582.597789 -58.546375 
L 584.12113 -59.946375 
L 585.644472 -61.346375 
L 587.167813 -62.746375 
L 588.691155 -64.146375 
L 590.214496 -65.546375 
L 591.737838 -66.946375 
L 593.261179 -68.346375 
L 594.784521 -69.746375 
L 596.307862 -71.146375 
L 597.831204 -72.546375 
L 599.354545 -73.946375 
L 600.877887 -75.346375 
L 602.401229 -76.746375 
L 603.92457 -78.146375 
L 605.447912 -79.546375 
L 606.971253 -80.946375 
L 608.494595 -82.346375 
L 610.017936 -83.746375 
L 611.541278 -85.146375 
L 613.064619 -86.546375 
L 614.587961 -87.946375 
L 616.111302 -89.346375 
L 617.634644 -90.746375 
L 619.157985 -92.146375 
L 620.681327 -93.546375 
L 622.204668 -94.946375 
L 623.72801 -96.346375 
L 625.251351 -97.746375 
L 626.774693 -99.146375 
L 628.298034 -100.546375 
L 629.821376 -101.946375 
L 631.344717 -103.346375 
L 632.868059 -104.746375 
L 634.3914 -106.146375 
L 635.914742 -107.546375 
L 637.438084 -108.946375 
L 638.961425 -110.346375 
L 640.484767 -111.746375 
L 642.008108 -113.146375 
L 643.53145 -114.546375 
L 645.054791 -115.946375 
L 646.578133 -117.346375 
L 648.101474 -118.746375 
L 649.624816 -120.146375 
L 651.148157 -121.546375 
L 652.671499 -122.946375 
L 654.19484 -124.346375 
L 655.718182 -125.746375 
L 657.241523 -127.146375 
L 658.764865 -128.546375 
L 660.288206 -129.946375 
L 661.811548 -131.346375 
L 663.334889 -132.746375 
L 664.858231 -134.146375 
L 666.381572 -135.546375 
L 667.904914 -136.946375 
L 669.428256 -138.346375 
L 670.951597 -139.746375 
L 672.474939 -141.146375 
L 673.99828 -142.546375 
L 675.521622 -143.946375 
L 677.044963 -145.346375 
L 678.568305 -146.746375 
L 680.091646 -148.146375 
L 681.614988 -149.546375 
L 683.138329 -150.946375 
L 684.661671 -152.346375 
L 686.185012 -153.746375 
L 687.708354 -155.146375 
L 689.231695 -156.546375 
L 690.755037 -157.946375 
L 692.278378 -159.346375 
L 693.80172 -160.746375 
L 695.325061 -162.146375 
L 696.848403 -163.546375 
L 698.371744 -164.946375 
L 699.895086 -166.346375 
L 701.418428 -167.746375 
L 702.941769 -169.146375 
L 704.465111 -170.546375 
L 705.988452 -171.946375 
L 707.511794 -173.346375 
L 709.035135 -174.746375 
L 709.035135 -230.186375 
L 709.035135 -230.186375 
L 707.511794 -228.786375 
L 705.988452 -227.386375 
L 704.465111 -225.986375 
L 702.941769 -224.586375 
L 701.418428 -223.186375 
L 699.895086 -221.786375 
L 698.371744 -220.386375 
L 696.848403 -218.986375 
L 695.325061 -217.586375 
L 693.80172 -216.186375 
L 692.278378 -214.786375 
L 690.755037 -213.386375 
L 689.231695 -211.986375 
L 687.708354 -210.586375 
L 686.185012 -209.186375 
L 684.661671 -207.786375 
L 683.138329 -206.386375 
L 681.614988 -204.986375 
L 680.091646 -203.586375 
L 678.568305 -202.186375 
L 677.044963 -200.786375 
L 675.521622 -199.386375 
L 673.99828 -197.986375 
L 672.474939 -196.586375 
L 670.951597 -195.186375 
L 669.428256 -193.786375 
L 667.904914 -192.386375 
L 666.381572 -190.986375 
L 664.858231 -189.586375 
L 663.334889 -188.186375 
L 661.811548 -186.786375 
L 660.288206 -185.386375 
L 658.764865 -183.986375 
L 657.241523 -182.586375 
L 655.718182 -181.186375 
L 654.19484 -179.786375 
L 652.671499 -178.386375 
L 651.148157 -176.986375 
L 649.624816 -175.586375 
L 648.101474 -174.186375 
L 646.578133 -172.786375 
L 645.054791 -171.386375 
L 643.53145 -169.986375 
L 642.008108 -168.586375 
L 640.484767 -167.186375 
L 638.961425 -165.786375 
L 637.438084 -164.386375 
L 635.914742 -162.986375 
L 634.3914 -161.586375 
L 632.868059 -160.186375 
L 631.344717 -158.786375 
L 629.821376 -157.386375 
L 628.298034 -155.986375 
L 626.774693 -154.586375 
L 625.251351 -153.186375 
L 623.72801 -151.786375 
L 622.204668 -150.386375 
L 620.681327 -148.986375 
L 619.157985 -147.586375 
L 617.634644 -146.186375 
L 616.111302 -144.786375 
L 614.587961 -143.386375 
L 613.064619 -141.986375 
L 611.541278 -140.586375 
L 610.017936 -139.186375 
L 608.494595 -137.786375 
L 606.971253 -136.386375 
L 605.447912 -134.986375 
L 603.92457 -133.586375 
L 602.401229 -132.186375 
L 600.877887 -130.786375 
L 599.354545 -129.386375 
L 597.831204 -127.986375 
L 596.307862 -126.586375 
L 594.784521 -125.186375 
L 593.261179 -123.786375 
L 591.737838 -122.386375 
L 590.214496 -120.986375 
L 588.691155 -119.586375 
L 587.167813 -118.186375 
L 585.644472 -116.786375 
L 584.12113 -115.386375 
L 582.597789 -113.986375 
L 581.074447 -112.586375 
L 579.551106 -111.186375 
L 578.027764 -109.786375 
L 576.504423 -108.386375 
L 574.981081 -106.986375 
L 573.45774 -105.586375 
L 571.934398 -104.186375 
L 570.411057 -102.786375 
L 568.887715 -101.386375 
L 567.364373 -99.986375 
L 565.841032 -98.586375 
L 564.31769 -97.186375 
L 562.794349 -95.786375 
L 561.271007 -94.386375 
L 559.747666 -92.986375 
L 558.224324 -91.586375 
z
" style="stroke: #d3d3d3"/>
    </defs>
    <g clip-path="url(#p662d0e13d9)">
     <use xlink:href="#m26e7c86e9b" x="0" y="276.720125" style="fill: #d3d3d3; stroke: #d3d3d3"/>
    </g>
   </g>
   <g id="PathCollection_3">
    <defs>
     <path id="C2_0_ef550189b0" d="M 0 3 
C 0.795609 3 1.55874 2.683901 2.12132 2.12132 
C 2.683901 1.55874 3 0.795609 3 -0 
C 3 -0.795609 2.683901 -1.55874 2.12132 -2.12132 
C 1.55874 -2.683901 0.795609 -3 0 -3 
C -0.795609 -3 -1.55874 -2.683901 -2.12132 -2.12132 
C -2.683901 -1.55874 -3 -0.795609 -3 0 
C -3 0.795609 -2.683901 1.55874 -2.12132 2.12132 
C -1.55874 2.683901 -0.795609 3 0 3 
z
"/>
    </defs>
    <g clip-path="url(#p662d0e13d9)">
     <use xlink:href="#C2_0_ef550189b0" x="637.918596" y="152.47959" style="fill: #ff7f0e; stroke: #000000; stroke-width: 0.48"/>
    </g>
    <g clip-path="url(#p662d0e13d9)">
     <use xlink:href="#C2_0_ef550189b0" x="643.724488" y="139.78383" style="fill: #ff7f0e; stroke: #000000; stroke-width: 0.48"/>
    </g>
    <g clip-path="url(#p662d0e13d9)">
     <use xlink:href="#C2_0_ef550189b0" x="625.964488" y="144.88431" style="fill: #1f77b4; stroke: #000000; stroke-width: 0.48"/>
    </g>
    <g clip-path="url(#p662d0e13d9)">
     <use xlink:href="#C2_0_ef550189b0" x="637.974872" y="138.50871" style="fill: #ff7f0e; stroke: #000000; stroke-width: 0.48"/>
    </g>
    <g clip-path="url(#p662d0e13d9)">
     <use xlink:href="#C2_0_ef550189b0" x="633.203043" y="150.37287" style="fill: #ff7f0e; stroke: #000000; stroke-width: 0.48"/>
    </g>
    <g clip-path="url(#p662d0e13d9)">
     <use xlink:href="#C2_0_ef550189b0" x="646.014414" y="156.58215" style="fill: #ff7f0e; stroke: #000000; stroke-width: 0.48"/>
    </g>
    <g clip-path="url(#p662d0e13d9)">
     <use xlink:href="#C2_0_ef550189b0" x="618.547797" y="150.20655" style="fill: #1f77b4; stroke: #000000; stroke-width: 0.48"/>
    </g>
    <g clip-path="url(#p662d0e13d9)">
     <use xlink:href="#C2_0_ef550189b0" x="647.53702" y="161.07279" style="fill: #ff7f0e; stroke: #000000; stroke-width: 0.48"/>
    </g>
    <g clip-path="url(#p662d0e13d9)">
     <use xlink:href="#C2_0_ef550189b0" x="658.288802" y="154.97439" style="fill: #1f77b4; stroke: #000000; stroke-width: 0.48"/>
    </g>
    <g clip-path="url(#p662d0e13d9)">
     <use xlink:href="#C2_0_ef550189b0" x="630.813775" y="147.04647" style="fill: #1f77b4; stroke: #000000; stroke-width: 0.48"/>
    </g>
    <g clip-path="url(#p662d0e13d9)">
     <use xlink:href="#C2_0_ef550189b0" x="672.862805" y="162.18159" style="fill: #1f77b4; stroke: #000000; stroke-width: 0.48"/>
    </g>
    <g clip-path="url(#p662d0e13d9)">
     <use xlink:href="#C2_0_ef550189b0" x="655.509678" y="162.23703" style="fill: #1f77b4; stroke: #000000; stroke-width: 0.48"/>
    </g>
    <g clip-path="url(#p662d0e13d9)">
     <use xlink:href="#C2_0_ef550189b0" x="634.055346" y="153.08943" style="fill: #ff7f0e; stroke: #000000; stroke-width: 0.48"/>
    </g>
    <g clip-path="url(#p662d0e13d9)">
     <use xlink:href="#C2_0_ef550189b0" x="638.955823" y="152.70135" style="fill: #ff7f0e; stroke: #000000; stroke-width: 0.48"/>
    </g>
    <g clip-path="url(#p662d0e13d9)">
     <use xlink:href="#C2_0_ef550189b0" x="632.82009" y="155.02983" style="fill: #ff7f0e; stroke: #000000; stroke-width: 0.48"/>
    </g>
    <g clip-path="url(#p662d0e13d9)">
     <use xlink:href="#C2_0_ef550189b0" x="621.35067" y="154.41999" style="fill: #ff7f0e; stroke: #000000; stroke-width: 0.48"/>
    </g>
    <g clip-path="url(#p662d0e13d9)">
     <use xlink:href="#C2_0_ef550189b0" x="639.406603" y="163.45671" style="fill: #1f77b4; stroke: #000000; stroke-width: 0.48"/>
    </g>
    <g clip-path="url(#p662d0e13d9)">
     <use xlink:href="#C2_0_ef550189b0" x="666.327677" y="155.41791" style="fill: #1f77b4; stroke: #000000; stroke-width: 0.48"/>
    </g>
    <g clip-path="url(#p662d0e13d9)">
     <use xlink:href="#C2_0_ef550189b0" x="626.3139" y="150.31743" style="fill: #ff7f0e; stroke: #000000; stroke-width: 0.48"/>
    </g>
    <g clip-path="url(#p662d0e13d9)">
     <use xlink:href="#C2_0_ef550189b0" x="625.638455" y="152.31327" style="fill: #ff7f0e; stroke: #000000; stroke-width: 0.48"/>
    </g>
    <g clip-path="url(#p662d0e13d9)">
     <use xlink:href="#C2_0_ef550189b0" x="626.804595" y="153.03399" style="fill: #ff7f0e; stroke: #000000; stroke-width: 0.48"/>
    </g>
    <g clip-path="url(#p662d0e13d9)">
     <use xlink:href="#C2_0_ef550189b0" x="636.379641" y="153.42207" style="fill: #ff7f0e; stroke: #000000; stroke-width: 0.48"/>
    </g>
    <g clip-path="url(#p662d0e13d9)">
     <use xlink:href="#C2_0_ef550189b0" x="625.665413" y="153.42207" style="fill: #ff7f0e; stroke: #000000; stroke-width: 0.48"/>
    </g>
    <g clip-path="url(#p662d0e13d9)">
     <use xlink:href="#C2_0_ef550189b0" x="626.568907" y="155.47335" style="fill: #ff7f0e; stroke: #000000; stroke-width: 0.48"/>
    </g>
    <g clip-path="url(#p662d0e13d9)">
     <use xlink:href="#C2_0_ef550189b0" x="652.715434" y="155.69511" style="fill: #1f77b4; stroke: #000000; stroke-width: 0.48"/>
    </g>
    <g clip-path="url(#p662d0e13d9)">
     <use xlink:href="#C2_0_ef550189b0" x="646.693415" y="157.08111" style="fill: #1f77b4; stroke: #000000; stroke-width: 0.48"/>
    </g>
    <g clip-path="url(#p662d0e13d9)">
     <use xlink:href="#C2_0_ef550189b0" x="649.93631" y="154.36455" style="fill: #1f77b4; stroke: #000000; stroke-width: 0.48"/>
    </g>
    <g clip-path="url(#p662d0e13d9)">
     <use xlink:href="#C2_0_ef550189b0" x="651.393504" y="157.24743" style="fill: #1f77b4; stroke: #000000; stroke-width: 0.48"/>
    </g>
    <g clip-path="url(#p662d0e13d9)">
     <use xlink:href="#C2_0_ef550189b0" x="648.228044" y="158.46711" style="fill: #1f77b4; stroke: #000000; stroke-width: 0.48"/>
    </g>
    <g clip-path="url(#p662d0e13d9)">
     <use xlink:href="#C2_0_ef550189b0" x="623.043713" y="130.35903" style="fill: #1f77b4; stroke: #000000; stroke-width: 0.48"/>
    </g>
    <g clip-path="url(#p662d0e13d9)">
     <use xlink:href="#C2_0_ef550189b0" x="639.466388" y="156.63759" style="fill: #ff7f0e; stroke: #000000; stroke-width: 0.48"/>
    </g>
    <g clip-path="url(#p662d0e13d9)">
     <use xlink:href="#C2_0_ef550189b0" x="633.527108" y="153.25575" style="fill: #ff7f0e; stroke: #000000; stroke-width: 0.48"/>
    </g>
    <g clip-path="url(#p662d0e13d9)">
     <use xlink:href="#C2_0_ef550189b0" x="662.569039" y="164.28831" style="fill: #1f77b4; stroke: #000000; stroke-width: 0.48"/>
    </g>
    <g clip-path="url(#p662d0e13d9)">
     <use xlink:href="#C2_0_ef550189b0" x="627.141639" y="157.80183" style="fill: #1f77b4; stroke: #000000; stroke-width: 0.48"/>
    </g>
    <g clip-path="url(#p662d0e13d9)">
     <use xlink:href="#C2_0_ef550189b0" x="654.406015" y="162.95775" style="fill: #1f77b4; stroke: #000000; stroke-width: 0.48"/>
    </g>
    <g clip-path="url(#p662d0e13d9)">
     <use xlink:href="#C2_0_ef550189b0" x="660.259956" y="161.57175" style="fill: #1f77b4; stroke: #000000; stroke-width: 0.48"/>
    </g>
    <g clip-path="url(#p662d0e13d9)">
     <use xlink:href="#C2_0_ef550189b0" x="660.030194" y="161.40543" style="fill: #1f77b4; stroke: #000000; stroke-width: 0.48"/>
    </g>
    <g clip-path="url(#p662d0e13d9)">
     <use xlink:href="#C2_0_ef550189b0" x="654.349245" y="163.23495" style="fill: #1f77b4; stroke: #000000; stroke-width: 0.48"/>
    </g>
    <g clip-path="url(#p662d0e13d9)">
     <use xlink:href="#C2_0_ef550189b0" x="633.153901" y="157.13655" style="fill: #1f77b4; stroke: #000000; stroke-width: 0.48"/>
    </g>
    <g clip-path="url(#p662d0e13d9)">
     <use xlink:href="#C2_0_ef550189b0" x="621.549654" y="155.47335" style="fill: #1f77b4; stroke: #000000; stroke-width: 0.48"/>
    </g>
    <g clip-path="url(#p662d0e13d9)">
     <use xlink:href="#C2_0_ef550189b0" x="680.590846" y="118.32855" style="fill: #ff7f0e; stroke: #000000; stroke-width: 0.48"/>
    </g>
    <g clip-path="url(#p662d0e13d9)">
     <use xlink:href="#C2_0_ef550189b0" x="659.83014" y="162.18159" style="fill: #1f77b4; stroke: #000000; stroke-width: 0.48"/>
    </g>
    <g clip-path="url(#p662d0e13d9)">
     <use xlink:href="#C2_0_ef550189b0" x="642.043365" y="155.19615" style="fill: #1f77b4; stroke: #000000; stroke-width: 0.48"/>
    </g>
    <g clip-path="url(#p662d0e13d9)">
     <use xlink:href="#C2_0_ef550189b0" x="636.990653" y="153.47751" style="fill: #ff7f0e; stroke: #000000; stroke-width: 0.48"/>
    </g>
    <g clip-path="url(#p662d0e13d9)">
     <use xlink:href="#C2_0_ef550189b0" x="632.492182" y="137.17815" style="fill: #ff7f0e; stroke: #000000; stroke-width: 0.48"/>
    </g>
    <g clip-path="url(#p662d0e13d9)">
     <use xlink:href="#C2_0_ef550189b0" x="637.678962" y="154.30911" style="fill: #ff7f0e; stroke: #000000; stroke-width: 0.48"/>
    </g>
    <g clip-path="url(#p662d0e13d9)">
     <use xlink:href="#C2_0_ef550189b0" x="661.552201" y="164.17743" style="fill: #ff7f0e; stroke: #000000; stroke-width: 0.48"/>
    </g>
    <g clip-path="url(#p662d0e13d9)">
     <use xlink:href="#C2_0_ef550189b0" x="640.530804" y="162.56967" style="fill: #1f77b4; stroke: #000000; stroke-width: 0.48"/>
    </g>
   </g>
   <g id="line2d_27">
    <path d="M 558.224324 212.85375 
L 709.035135 74.25375 
" clip-path="url(#p662d0e13d9)" style="fill: none; stroke-dasharray: 5.55,2.4; stroke-dashoffset: 0; stroke: #000000; stroke-width: 1.5"/>
   </g>
   <g id="matplotlib.axis_5">
    <g id="xtick_13">
     <g id="line2d_28">
      <g>
       <use xlink:href="#mb6d70be60e" x="558.224324" y="229.48575" style="stroke: #000000; stroke-width: 0.8"/>
      </g>
     </g>
     <g id="text_34">
      <!-- 10 -->
      <g transform="translate(549.316824 247.123562) scale(0.14 -0.14)">
       <use xlink:href="#DejaVuSans-31"/>
       <use xlink:href="#DejaVuSans-30" x="63.623047"/>
      </g>
     </g>
    </g>
    <g id="xtick_14">
     <g id="line2d_29">
      <g>
       <use xlink:href="#mb6d70be60e" x="588.386486" y="229.48575" style="stroke: #000000; stroke-width: 0.8"/>
      </g>
     </g>
     <g id="text_35">
      <!-- 15 -->
      <g transform="translate(579.478986 247.123562) scale(0.14 -0.14)">
       <use xlink:href="#DejaVuSans-31"/>
       <use xlink:href="#DejaVuSans-35" x="63.623047"/>
      </g>
     </g>
    </g>
    <g id="xtick_15">
     <g id="line2d_30">
      <g>
       <use xlink:href="#mb6d70be60e" x="618.548649" y="229.48575" style="stroke: #000000; stroke-width: 0.8"/>
      </g>
     </g>
     <g id="text_36">
      <!-- 20 -->
      <g transform="translate(609.641149 247.123562) scale(0.14 -0.14)">
       <use xlink:href="#DejaVuSans-32"/>
       <use xlink:href="#DejaVuSans-30" x="63.623047"/>
      </g>
     </g>
    </g>
    <g id="xtick_16">
     <g id="line2d_31">
      <g>
       <use xlink:href="#mb6d70be60e" x="648.710811" y="229.48575" style="stroke: #000000; stroke-width: 0.8"/>
      </g>
     </g>
     <g id="text_37">
      <!-- 25 -->
      <g transform="translate(639.803311 247.123562) scale(0.14 -0.14)">
       <use xlink:href="#DejaVuSans-32"/>
       <use xlink:href="#DejaVuSans-35" x="63.623047"/>
      </g>
     </g>
    </g>
    <g id="xtick_17">
     <g id="line2d_32">
      <g>
       <use xlink:href="#mb6d70be60e" x="678.872973" y="229.48575" style="stroke: #000000; stroke-width: 0.8"/>
      </g>
     </g>
     <g id="text_38">
      <!-- 30 -->
      <g transform="translate(669.965473 247.123562) scale(0.14 -0.14)">
       <use xlink:href="#DejaVuSans-33"/>
       <use xlink:href="#DejaVuSans-30" x="63.623047"/>
      </g>
     </g>
    </g>
    <g id="xtick_18">
     <g id="line2d_33">
      <g>
       <use xlink:href="#mb6d70be60e" x="709.035135" y="229.48575" style="stroke: #000000; stroke-width: 0.8"/>
      </g>
     </g>
     <g id="text_39">
      <!-- 35 -->
      <g transform="translate(700.127635 247.123562) scale(0.14 -0.14)">
       <use xlink:href="#DejaVuSans-33"/>
       <use xlink:href="#DejaVuSans-35" x="63.623047"/>
      </g>
     </g>
    </g>
    <g id="text_40">
     <!-- ROSEATE OGT (°C) -->
     <g transform="translate(555.823514 266.192625) scale(0.16 -0.16)">
      <use xlink:href="#DejaVuSans-52"/>
      <use xlink:href="#DejaVuSans-4f" x="69.482422"/>
      <use xlink:href="#DejaVuSans-53" x="148.193359"/>
      <use xlink:href="#DejaVuSans-45" x="211.669922"/>
      <use xlink:href="#DejaVuSans-41" x="274.853516"/>
      <use xlink:href="#DejaVuSans-54" x="335.511719"/>
      <use xlink:href="#DejaVuSans-45" x="396.595703"/>
      <use xlink:href="#DejaVuSans-20" x="459.779297"/>
      <use xlink:href="#DejaVuSans-4f" x="491.566406"/>
      <use xlink:href="#DejaVuSans-47" x="570.277344"/>
      <use xlink:href="#DejaVuSans-54" x="644.142578"/>
      <use xlink:href="#DejaVuSans-20" x="705.226562"/>
      <use xlink:href="#DejaVuSans-28" x="737.013672"/>
      <use xlink:href="#DejaVuSans-b0" x="776.027344"/>
      <use xlink:href="#DejaVuSans-43" x="826.027344"/>
      <use xlink:href="#DejaVuSans-29" x="895.851562"/>
     </g>
    </g>
   </g>
   <g id="matplotlib.axis_6">
    <g id="ytick_13">
     <g id="line2d_34">
      <g>
       <use xlink:href="#ma7bfa90ceb" x="540.127027" y="212.85375" style="stroke: #000000; stroke-width: 0.8"/>
      </g>
     </g>
     <g id="text_41">
      <!-- 10 -->
      <g transform="translate(515.312027 218.172656) scale(0.14 -0.14)">
       <use xlink:href="#DejaVuSans-31"/>
       <use xlink:href="#DejaVuSans-30" x="63.623047"/>
      </g>
     </g>
    </g>
    <g id="ytick_14">
     <g id="line2d_35">
      <g>
       <use xlink:href="#ma7bfa90ceb" x="540.127027" y="185.13375" style="stroke: #000000; stroke-width: 0.8"/>
      </g>
     </g>
     <g id="text_42">
      <!-- 15 -->
      <g transform="translate(515.312027 190.452656) scale(0.14 -0.14)">
       <use xlink:href="#DejaVuSans-31"/>
       <use xlink:href="#DejaVuSans-35" x="63.623047"/>
      </g>
     </g>
    </g>
    <g id="ytick_15">
     <g id="line2d_36">
      <g>
       <use xlink:href="#ma7bfa90ceb" x="540.127027" y="157.41375" style="stroke: #000000; stroke-width: 0.8"/>
      </g>
     </g>
     <g id="text_43">
      <!-- 20 -->
      <g transform="translate(515.312027 162.732656) scale(0.14 -0.14)">
       <use xlink:href="#DejaVuSans-32"/>
       <use xlink:href="#DejaVuSans-30" x="63.623047"/>
      </g>
     </g>
    </g>
    <g id="ytick_16">
     <g id="line2d_37">
      <g>
       <use xlink:href="#ma7bfa90ceb" x="540.127027" y="129.69375" style="stroke: #000000; stroke-width: 0.8"/>
      </g>
     </g>
     <g id="text_44">
      <!-- 25 -->
      <g transform="translate(515.312027 135.012656) scale(0.14 -0.14)">
       <use xlink:href="#DejaVuSans-32"/>
       <use xlink:href="#DejaVuSans-35" x="63.623047"/>
      </g>
     </g>
    </g>
    <g id="ytick_17">
     <g id="line2d_38">
      <g>
       <use xlink:href="#ma7bfa90ceb" x="540.127027" y="101.97375" style="stroke: #000000; stroke-width: 0.8"/>
      </g>
     </g>
     <g id="text_45">
      <!-- 30 -->
      <g transform="translate(515.312027 107.292656) scale(0.14 -0.14)">
       <use xlink:href="#DejaVuSans-33"/>
       <use xlink:href="#DejaVuSans-30" x="63.623047"/>
      </g>
     </g>
    </g>
    <g id="ytick_18">
     <g id="line2d_39">
      <g>
       <use xlink:href="#ma7bfa90ceb" x="540.127027" y="74.25375" style="stroke: #000000; stroke-width: 0.8"/>
      </g>
     </g>
     <g id="text_46">
      <!-- 35 -->
      <g transform="translate(515.312027 79.572656) scale(0.14 -0.14)">
       <use xlink:href="#DejaVuSans-33"/>
       <use xlink:href="#DejaVuSans-35" x="63.623047"/>
      </g>
     </g>
    </g>
    <g id="text_47">
     <!-- TOME OGT (°C) -->
     <g transform="translate(507.984527 207.47325) rotate(-90) scale(0.16 -0.16)">
      <use xlink:href="#DejaVuSans-54"/>
      <use xlink:href="#DejaVuSans-4f" x="61.083984"/>
      <use xlink:href="#DejaVuSans-4d" x="139.794922"/>
      <use xlink:href="#DejaVuSans-45" x="226.074219"/>
      <use xlink:href="#DejaVuSans-20" x="289.257812"/>
      <use xlink:href="#DejaVuSans-4f" x="321.044922"/>
      <use xlink:href="#DejaVuSans-47" x="399.755859"/>
      <use xlink:href="#DejaVuSans-54" x="473.621094"/>
      <use xlink:href="#DejaVuSans-20" x="534.705078"/>
      <use xlink:href="#DejaVuSans-28" x="566.492188"/>
      <use xlink:href="#DejaVuSans-b0" x="605.505859"/>
      <use xlink:href="#DejaVuSans-43" x="655.505859"/>
      <use xlink:href="#DejaVuSans-29" x="725.330078"/>
     </g>
    </g>
   </g>
   <g id="line2d_40"/>
   <g id="line2d_41"/>
   <g id="patch_9">
    <path d="M 540.127027 229.48575 
L 540.127027 63.16575 
" style="fill: none; stroke: #000000; stroke-width: 0.8; stroke-linejoin: miter; stroke-linecap: square"/>
   </g>
   <g id="patch_10">
    <path d="M 540.127027 229.48575 
L 721.1 229.48575 
" style="fill: none; stroke: #000000; stroke-width: 0.8; stroke-linejoin: miter; stroke-linecap: square"/>
   </g>
   <g id="text_48">
    <!-- ROSEATE vs. TOME -->
    <g transform="translate(554.158514 57.16575) scale(0.16 -0.16)">
     <defs>
      <path id="DejaVuSans-76" d="M 191 3500 
L 800 3500 
L 1894 563 
L 2988 3500 
L 3597 3500 
L 2284 0 
L 1503 0 
L 191 3500 
z
" transform="scale(0.015625)"/>
     </defs>
     <use xlink:href="#DejaVuSans-52"/>
     <use xlink:href="#DejaVuSans-4f" x="69.482422"/>
     <use xlink:href="#DejaVuSans-53" x="148.193359"/>
     <use xlink:href="#DejaVuSans-45" x="211.669922"/>
     <use xlink:href="#DejaVuSans-41" x="274.853516"/>
     <use xlink:href="#DejaVuSans-54" x="335.511719"/>
     <use xlink:href="#DejaVuSans-45" x="396.595703"/>
     <use xlink:href="#DejaVuSans-20" x="459.779297"/>
     <use xlink:href="#DejaVuSans-76" x="491.566406"/>
     <use xlink:href="#DejaVuSans-73" x="550.746094"/>
     <use xlink:href="#DejaVuSans-2e" x="602.845703"/>
     <use xlink:href="#DejaVuSans-20" x="634.632812"/>
     <use xlink:href="#DejaVuSans-54" x="666.419922"/>
     <use xlink:href="#DejaVuSans-4f" x="727.503906"/>
     <use xlink:href="#DejaVuSans-4d" x="806.214844"/>
     <use xlink:href="#DejaVuSans-45" x="892.494141"/>
    </g>
   </g>
   <g id="legend_1">
    <g id="patch_11">
     <path d="M 728.1 177.182 
L 811.035937 177.182 
Q 813.035937 177.182 813.035937 175.182 
L 813.035937 117.4695 
Q 813.035937 115.4695 811.035937 115.4695 
L 728.1 115.4695 
Q 726.1 115.4695 726.1 117.4695 
L 726.1 175.182 
Q 726.1 177.182 728.1 177.182 
z
" style="fill: #ffffff; opacity: 0.8; stroke: #cccccc; stroke-linejoin: miter"/>
    </g>
    <g id="line2d_42">
     <defs>
      <path id="ma24cde2450" d="M 0 3 
C 0.795609 3 1.55874 2.683901 2.12132 2.12132 
C 2.683901 1.55874 3 0.795609 3 0 
C 3 -0.795609 2.683901 -1.55874 2.12132 -2.12132 
C 1.55874 -2.683901 0.795609 -3 0 -3 
C -0.795609 -3 -1.55874 -2.683901 -2.12132 -2.12132 
C -2.683901 -1.55874 -3 -0.795609 -3 0 
C -3 0.795609 -2.683901 1.55874 -2.12132 2.12132 
C -1.55874 2.683901 -0.795609 3 0 3 
z
" style="stroke: #000000; stroke-width: 0.48"/>
     </defs>
     <g>
      <use xlink:href="#ma24cde2450" x="740.1" y="123.567937" style="fill: #1f77b4; stroke: #000000; stroke-width: 0.48"/>
     </g>
    </g>
    <g id="text_49">
     <!-- Antarctica -->
     <g transform="translate(758.1 127.067937) scale(0.1 -0.1)">
      <defs>
       <path id="DejaVuSans-6e" d="M 3513 2113 
L 3513 0 
L 2938 0 
L 2938 2094 
Q 2938 2591 2744 2837 
Q 2550 3084 2163 3084 
Q 1697 3084 1428 2787 
Q 1159 2491 1159 1978 
L 1159 0 
L 581 0 
L 581 3500 
L 1159 3500 
L 1159 2956 
Q 1366 3272 1645 3428 
Q 1925 3584 2291 3584 
Q 2894 3584 3203 3211 
Q 3513 2838 3513 2113 
z
" transform="scale(0.015625)"/>
      </defs>
      <use xlink:href="#DejaVuSans-41"/>
      <use xlink:href="#DejaVuSans-6e" x="68.408203"/>
      <use xlink:href="#DejaVuSans-74" x="131.787109"/>
      <use xlink:href="#DejaVuSans-61" x="170.996094"/>
      <use xlink:href="#DejaVuSans-72" x="232.275391"/>
      <use xlink:href="#DejaVuSans-63" x="271.138672"/>
      <use xlink:href="#DejaVuSans-74" x="326.119141"/>
      <use xlink:href="#DejaVuSans-69" x="365.328125"/>
      <use xlink:href="#DejaVuSans-63" x="393.111328"/>
      <use xlink:href="#DejaVuSans-61" x="448.091797"/>
     </g>
    </g>
    <g id="line2d_43">
     <defs>
      <path id="mf484e9456e" d="M 0 3 
C 0.795609 3 1.55874 2.683901 2.12132 2.12132 
C 2.683901 1.55874 3 0.795609 3 0 
C 3 -0.795609 2.683901 -1.55874 2.12132 -2.12132 
C 1.55874 -2.683901 0.795609 -3 0 -3 
C -0.795609 -3 -1.55874 -2.683901 -2.12132 -2.12132 
C -2.683901 -1.55874 -3 -0.795609 -3 0 
C -3 0.795609 -2.683901 1.55874 -2.12132 2.12132 
C -1.55874 2.683901 -0.795609 3 0 3 
z
" style="stroke: #000000; stroke-width: 0.48"/>
     </defs>
     <g>
      <use xlink:href="#mf484e9456e" x="740.1" y="138.246062" style="fill: #ff7f0e; stroke: #000000; stroke-width: 0.48"/>
     </g>
    </g>
    <g id="text_50">
     <!-- Other -->
     <g transform="translate(758.1 141.746062) scale(0.1 -0.1)">
      <use xlink:href="#DejaVuSans-4f"/>
      <use xlink:href="#DejaVuSans-74" x="78.710938"/>
      <use xlink:href="#DejaVuSans-68" x="117.919922"/>
      <use xlink:href="#DejaVuSans-65" x="181.298828"/>
      <use xlink:href="#DejaVuSans-72" x="242.822266"/>
     </g>
    </g>
    <g id="line2d_44">
     <path d="M 730.1 152.924187 
L 740.1 152.924187 
L 750.1 152.924187 
" style="fill: none; stroke-dasharray: 5.55,2.4; stroke-dashoffset: 0; stroke: #000000; stroke-width: 1.5"/>
    </g>
    <g id="text_51">
     <!-- x=y -->
     <g transform="translate(758.1 156.424187) scale(0.1 -0.1)">
      <defs>
       <path id="DejaVuSans-78" d="M 3513 3500 
L 2247 1797 
L 3578 0 
L 2900 0 
L 1881 1375 
L 863 0 
L 184 0 
L 1544 1831 
L 300 3500 
L 978 3500 
L 1906 2253 
L 2834 3500 
L 3513 3500 
z
" transform="scale(0.015625)"/>
       <path id="DejaVuSans-79" d="M 2059 -325 
Q 1816 -950 1584 -1140 
Q 1353 -1331 966 -1331 
L 506 -1331 
L 506 -850 
L 844 -850 
Q 1081 -850 1212 -737 
Q 1344 -625 1503 -206 
L 1606 56 
L 191 3500 
L 800 3500 
L 1894 763 
L 2988 3500 
L 3597 3500 
L 2059 -325 
z
" transform="scale(0.015625)"/>
      </defs>
      <use xlink:href="#DejaVuSans-78"/>
      <use xlink:href="#DejaVuSans-3d" x="59.179688"/>
      <use xlink:href="#DejaVuSans-79" x="142.96875"/>
     </g>
    </g>
    <g id="patch_12">
     <path d="M 730.1 171.102312 
L 750.1 171.102312 
L 750.1 164.102312 
L 730.1 164.102312 
z
" style="fill: #d3d3d3; stroke: #d3d3d3; stroke-linejoin: miter"/>
    </g>
    <g id="text_52">
     <!-- +/- 5°C -->
     <g transform="translate(758.1 171.102312) scale(0.1 -0.1)">
      <defs>
       <path id="DejaVuSans-2b" d="M 2944 4013 
L 2944 2272 
L 4684 2272 
L 4684 1741 
L 2944 1741 
L 2944 0 
L 2419 0 
L 2419 1741 
L 678 1741 
L 678 2272 
L 2419 2272 
L 2419 4013 
L 2944 4013 
z
" transform="scale(0.015625)"/>
      </defs>
      <use xlink:href="#DejaVuSans-2b"/>
      <use xlink:href="#DejaVuSans-2f" x="83.789062"/>
      <use xlink:href="#DejaVuSans-2d" x="117.480469"/>
      <use xlink:href="#DejaVuSans-20" x="153.564453"/>
      <use xlink:href="#DejaVuSans-35" x="185.351562"/>
      <use xlink:href="#DejaVuSans-b0" x="248.974609"/>
      <use xlink:href="#DejaVuSans-43" x="298.974609"/>
     </g>
    </g>
   </g>
  </g>
 </g>
 <defs>
  <clipPath id="pfcaa77f60e">
   <rect x="51.5" y="63.16575" width="180.972973" height="166.32"/>
  </clipPath>
  <clipPath id="p8b528cd7a0">
   <rect x="295.813514" y="63.16575" width="180.972973" height="166.32"/>
  </clipPath>
  <clipPath id="p662d0e13d9">
   <rect x="540.127027" y="63.16575" width="180.972973" height="166.32"/>
  </clipPath>
 </defs>
</svg>
