<?xml version="1.0" encoding="utf-8" standalone="no"?>
<!DOCTYPE svg PUBLIC "-//W3C//DTD SVG 1.1//EN"
  "http://www.w3.org/Graphics/SVG/1.1/DTD/svg11.dtd">
<svg xmlns:xlink="http://www.w3.org/1999/xlink" width="728.3pt" height="269.924254pt" viewBox="0 0 728.3 269.924254" xmlns="http://www.w3.org/2000/svg" version="1.1">
 <metadata>
  <rdf:RDF xmlns:dc="http://purl.org/dc/elements/1.1/" xmlns:cc="http://creativecommons.org/ns#" xmlns:rdf="http://www.w3.org/1999/02/22-rdf-syntax-ns#">
   <cc:Work>
    <dc:type rdf:resource="http://purl.org/dc/dcmitype/StillImage"/>
    <dc:date>2026-04-23T16:48:13.980508</dc:date>
    <dc:format>image/svg+xml</dc:format>
    <dc:creator>
     <cc:Agent>
      <dc:title>Matplotlib v3.8.2, https://matplotlib.org/</dc:title>
     </cc:Agent>
    </dc:creator>
   </cc:Work>
  </rdf:RDF>
 </metadata>
 <defs>
  <style type="text/css">*{stroke-linejoin: round; stroke-linecap: butt}</style>
 </defs>
 <g id="figure_1">
  <g id="patch_1">
   <path d="M -0 269.924254 
L 728.3 269.924254 
L 728.3 0 
L -0 0 
z
" style="fill: #ffffff"/>
  </g>
  <g id="axes_1">
   <g id="patch_2">
    <path d="M 51.5 222.689879 
L 232.472973 222.689879 
L 232.472973 56.369879 
L 51.5 56.369879 
z
" style="fill: #ffffff"/>
   </g>
   <g id="PolyCollection_1">
    <defs>
     <path id="me568124967" d="M 98.202703 -116.981472 
L 98.202703 -63.329859 
L 99.382064 -64.41373 
L 100.561425 -65.497601 
L 101.740786 -66.581472 
L 102.920147 -67.665343 
L 104.099509 -68.749214 
L 105.27887 -69.833085 
L 106.458231 -70.916956 
L 107.637592 -72.000827 
L 108.816953 -73.084698 
L 109.996314 -74.168569 
L 111.175676 -75.25244 
L 112.355037 -76.33631 
L 113.534398 -77.420181 
L 114.713759 -78.504052 
L 115.89312 -79.587923 
L 117.072482 -80.671794 
L 118.251843 -81.755665 
L 119.431204 -82.839536 
L 120.610565 -83.923407 
L 121.789926 -85.007278 
L 122.969287 -86.091149 
L 124.148649 -87.17502 
L 125.32801 -88.258891 
L 126.507371 -89.342762 
L 127.686732 -90.426633 
L 128.866093 -91.510504 
L 130.045455 -92.594375 
L 131.224816 -93.678246 
L 132.404177 -94.762117 
L 133.583538 -95.845988 
L 134.762899 -96.929859 
L 135.94226 -98.01373 
L 137.121622 -99.097601 
L 138.300983 -100.181472 
L 139.480344 -101.265343 
L 140.659705 -102.349214 
L 141.839066 -103.433085 
L 143.018428 -104.516956 
L 144.197789 -105.600827 
L 145.37715 -106.684698 
L 146.556511 -107.768569 
L 147.735872 -108.85244 
L 148.915233 -109.93631 
L 150.094595 -111.020181 
L 151.273956 -112.104052 
L 152.453317 -113.187923 
L 153.632678 -114.271794 
L 154.812039 -115.355665 
L 155.9914 -116.439536 
L 157.170762 -117.523407 
L 158.350123 -118.607278 
L 159.529484 -119.691149 
L 160.708845 -120.77502 
L 161.888206 -121.858891 
L 163.067568 -122.942762 
L 164.246929 -124.026633 
L 165.42629 -125.110504 
L 166.605651 -126.194375 
L 167.785012 -127.278246 
L 168.964373 -128.362117 
L 170.143735 -129.445988 
L 171.323096 -130.529859 
L 172.502457 -131.61373 
L 173.681818 -132.697601 
L 174.861179 -133.781472 
L 176.040541 -134.865343 
L 177.219902 -135.949214 
L 178.399263 -137.033085 
L 179.578624 -138.116956 
L 180.757985 -139.200827 
L 181.937346 -140.284698 
L 183.116708 -141.368569 
L 184.296069 -142.45244 
L 185.47543 -143.53631 
L 186.654791 -144.620181 
L 187.834152 -145.704052 
L 189.013514 -146.787923 
L 190.192875 -147.871794 
L 191.372236 -148.955665 
L 192.551597 -150.039536 
L 193.730958 -151.123407 
L 194.910319 -152.207278 
L 196.089681 -153.291149 
L 197.269042 -154.37502 
L 198.448403 -155.458891 
L 199.627764 -156.542762 
L 200.807125 -157.626633 
L 201.986486 -158.710504 
L 203.165848 -159.794375 
L 204.345209 -160.878246 
L 205.52457 -161.962117 
L 206.703931 -163.045988 
L 207.883292 -164.129859 
L 209.062654 -165.21373 
L 210.242015 -166.297601 
L 211.421376 -167.381472 
L 212.600737 -168.465343 
L 213.780098 -169.549214 
L 214.959459 -170.633085 
L 214.959459 -224.284698 
L 214.959459 -224.284698 
L 213.780098 -223.200827 
L 212.600737 -222.116956 
L 211.421376 -221.033085 
L 210.242015 -219.949214 
L 209.062654 -218.865343 
L 207.883292 -217.781472 
L 206.703931 -216.697601 
L 205.52457 -215.61373 
L 204.345209 -214.529859 
L 203.165848 -213.445988 
L 201.986486 -212.362117 
L 200.807125 -211.278246 
L 199.627764 -210.194375 
L 198.448403 -209.110504 
L 197.269042 -208.026633 
L 196.089681 -206.942762 
L 194.910319 -205.858891 
L 193.730958 -204.77502 
L 192.551597 -203.691149 
L 191.372236 -202.607278 
L 190.192875 -201.523407 
L 189.013514 -200.439536 
L 187.834152 -199.355665 
L 186.654791 -198.271794 
L 185.47543 -197.187923 
L 184.296069 -196.104052 
L 183.116708 -195.020181 
L 181.937346 -193.93631 
L 180.757985 -192.85244 
L 179.578624 -191.768569 
L 178.399263 -190.684698 
L 177.219902 -189.600827 
L 176.040541 -188.516956 
L 174.861179 -187.433085 
L 173.681818 -186.349214 
L 172.502457 -185.265343 
L 171.323096 -184.181472 
L 170.143735 -183.097601 
L 168.964373 -182.01373 
L 167.785012 -180.929859 
L 166.605651 -179.845988 
L 165.42629 -178.762117 
L 164.246929 -177.678246 
L 163.067568 -176.594375 
L 161.888206 -175.510504 
L 160.708845 -174.426633 
L 159.529484 -173.342762 
L 158.350123 -172.258891 
L 157.170762 -171.17502 
L 155.9914 -170.091149 
L 154.812039 -169.007278 
L 153.632678 -167.923407 
L 152.453317 -166.839536 
L 151.273956 -165.755665 
L 150.094595 -164.671794 
L 148.915233 -163.587923 
L 147.735872 -162.504052 
L 146.556511 -161.420181 
L 145.37715 -160.33631 
L 144.197789 -159.25244 
L 143.018428 -158.168569 
L 141.839066 -157.084698 
L 140.659705 -156.000827 
L 139.480344 -154.916956 
L 138.300983 -153.833085 
L 137.121622 -152.749214 
L 135.94226 -151.665343 
L 134.762899 -150.581472 
L 133.583538 -149.497601 
L 132.404177 -148.41373 
L 131.224816 -147.329859 
L 130.045455 -146.245988 
L 128.866093 -145.162117 
L 127.686732 -144.078246 
L 126.507371 -142.994375 
L 125.32801 -141.910504 
L 124.148649 -140.826633 
L 122.969287 -139.742762 
L 121.789926 -138.658891 
L 120.610565 -137.57502 
L 119.431204 -136.491149 
L 118.251843 -135.407278 
L 117.072482 -134.323407 
L 115.89312 -133.239536 
L 114.713759 -132.155665 
L 113.534398 -131.071794 
L 112.355037 -129.987923 
L 111.175676 -128.904052 
L 109.996314 -127.820181 
L 108.816953 -126.73631 
L 107.637592 -125.65244 
L 106.458231 -124.568569 
L 105.27887 -123.484698 
L 104.099509 -122.400827 
L 102.920147 -121.316956 
L 101.740786 -120.233085 
L 100.561425 -119.149214 
L 99.382064 -118.065343 
L 98.202703 -116.981472 
z
" style="stroke: #d3d3d3"/>
    </defs>
    <g clip-path="url(#p1cb593b4c2)">
     <use xlink:href="#me568124967" x="0" y="269.924254" style="fill: #d3d3d3; stroke: #d3d3d3"/>
    </g>
   </g>
   <g id="line2d_1">
    <path d="M 98.202703 179.768589 
L 214.959459 72.465363 
" clip-path="url(#p1cb593b4c2)" style="fill: none; stroke-dasharray: 5.55,2.4; stroke-dashoffset: 0; stroke: #000000; stroke-width: 1.5"/>
   </g>
   <g id="matplotlib.axis_1">
    <g id="xtick_1">
     <g id="line2d_2">
      <defs>
       <path id="m1256aaa792" d="M 0 0 
L 0 3.5 
" style="stroke: #000000; stroke-width: 0.8"/>
      </defs>
      <g>
       <use xlink:href="#m1256aaa792" x="69.013514" y="222.689879" style="stroke: #000000; stroke-width: 0.8"/>
      </g>
     </g>
     <g id="text_1">
      <!-- 20 -->
      <g transform="translate(60.106014 240.327692) scale(0.14 -0.14)">
       <defs>
        <path id="DejaVuSans-32" d="M 1228 531 
L 3431 531 
L 3431 0 
L 469 0 
L 469 531 
Q 828 903 1448 1529 
Q 2069 2156 2228 2338 
Q 2531 2678 2651 2914 
Q 2772 3150 2772 3378 
Q 2772 3750 2511 3984 
Q 2250 4219 1831 4219 
Q 1534 4219 1204 4116 
Q 875 4013 500 3803 
L 500 4441 
Q 881 4594 1212 4672 
Q 1544 4750 1819 4750 
Q 2544 4750 2975 4387 
Q 3406 4025 3406 3419 
Q 3406 3131 3298 2873 
Q 3191 2616 2906 2266 
Q 2828 2175 2409 1742 
Q 1991 1309 1228 531 
z
" transform="scale(0.015625)"/>
        <path id="DejaVuSans-30" d="M 2034 4250 
Q 1547 4250 1301 3770 
Q 1056 3291 1056 2328 
Q 1056 1369 1301 889 
Q 1547 409 2034 409 
Q 2525 409 2770 889 
Q 3016 1369 3016 2328 
Q 3016 3291 2770 3770 
Q 2525 4250 2034 4250 
z
M 2034 4750 
Q 2819 4750 3233 4129 
Q 3647 3509 3647 2328 
Q 3647 1150 3233 529 
Q 2819 -91 2034 -91 
Q 1250 -91 836 529 
Q 422 1150 422 2328 
Q 422 3509 836 4129 
Q 1250 4750 2034 4750 
z
" transform="scale(0.015625)"/>
       </defs>
       <use xlink:href="#DejaVuSans-32"/>
       <use xlink:href="#DejaVuSans-30" x="63.623047"/>
      </g>
     </g>
    </g>
    <g id="xtick_2">
     <g id="line2d_3">
      <g>
       <use xlink:href="#m1256aaa792" x="98.202703" y="222.689879" style="stroke: #000000; stroke-width: 0.8"/>
      </g>
     </g>
     <g id="text_2">
      <!-- 25 -->
      <g transform="translate(89.295203 240.327692) scale(0.14 -0.14)">
       <defs>
        <path id="DejaVuSans-35" d="M 691 4666 
L 3169 4666 
L 3169 4134 
L 1269 4134 
L 1269 2991 
Q 1406 3038 1543 3061 
Q 1681 3084 1819 3084 
Q 2600 3084 3056 2656 
Q 3513 2228 3513 1497 
Q 3513 744 3044 326 
Q 2575 -91 1722 -91 
Q 1428 -91 1123 -41 
Q 819 9 494 109 
L 494 744 
Q 775 591 1075 516 
Q 1375 441 1709 441 
Q 2250 441 2565 725 
Q 2881 1009 2881 1497 
Q 2881 1984 2565 2268 
Q 2250 2553 1709 2553 
Q 1456 2553 1204 2497 
Q 953 2441 691 2322 
L 691 4666 
z
" transform="scale(0.015625)"/>
       </defs>
       <use xlink:href="#DejaVuSans-32"/>
       <use xlink:href="#DejaVuSans-35" x="63.623047"/>
      </g>
     </g>
    </g>
    <g id="xtick_3">
     <g id="line2d_4">
      <g>
       <use xlink:href="#m1256aaa792" x="127.391892" y="222.689879" style="stroke: #000000; stroke-width: 0.8"/>
      </g>
     </g>
     <g id="text_3">
      <!-- 30 -->
      <g transform="translate(118.484392 240.327692) scale(0.14 -0.14)">
       <defs>
        <path id="DejaVuSans-33" d="M 2597 2516 
Q 3050 2419 3304 2112 
Q 3559 1806 3559 1356 
Q 3559 666 3084 287 
Q 2609 -91 1734 -91 
Q 1441 -91 1130 -33 
Q 819 25 488 141 
L 488 750 
Q 750 597 1062 519 
Q 1375 441 1716 441 
Q 2309 441 2620 675 
Q 2931 909 2931 1356 
Q 2931 1769 2642 2001 
Q 2353 2234 1838 2234 
L 1294 2234 
L 1294 2753 
L 1863 2753 
Q 2328 2753 2575 2939 
Q 2822 3125 2822 3475 
Q 2822 3834 2567 4026 
Q 2313 4219 1838 4219 
Q 1578 4219 1281 4162 
Q 984 4106 628 3988 
L 628 4550 
Q 988 4650 1302 4700 
Q 1616 4750 1894 4750 
Q 2613 4750 3031 4423 
Q 3450 4097 3450 3541 
Q 3450 3153 3228 2886 
Q 3006 2619 2597 2516 
z
" transform="scale(0.015625)"/>
       </defs>
       <use xlink:href="#DejaVuSans-33"/>
       <use xlink:href="#DejaVuSans-30" x="63.623047"/>
      </g>
     </g>
    </g>
    <g id="xtick_4">
     <g id="line2d_5">
      <g>
       <use xlink:href="#m1256aaa792" x="156.581081" y="222.689879" style="stroke: #000000; stroke-width: 0.8"/>
      </g>
     </g>
     <g id="text_4">
      <!-- 35 -->
      <g transform="translate(147.673581 240.327692) scale(0.14 -0.14)">
       <use xlink:href="#DejaVuSans-33"/>
       <use xlink:href="#DejaVuSans-35" x="63.623047"/>
      </g>
     </g>
    </g>
    <g id="xtick_5">
     <g id="line2d_6">
      <g>
       <use xlink:href="#m1256aaa792" x="185.77027" y="222.689879" style="stroke: #000000; stroke-width: 0.8"/>
      </g>
     </g>
     <g id="text_5">
      <!-- 40 -->
      <g transform="translate(176.86277 240.327692) scale(0.14 -0.14)">
       <defs>
        <path id="DejaVuSans-34" d="M 2419 4116 
L 825 1625 
L 2419 1625 
L 2419 4116 
z
M 2253 4666 
L 3047 4666 
L 3047 1625 
L 3713 1625 
L 3713 1100 
L 3047 1100 
L 3047 0 
L 2419 0 
L 2419 1100 
L 313 1100 
L 313 1709 
L 2253 4666 
z
" transform="scale(0.015625)"/>
       </defs>
       <use xlink:href="#DejaVuSans-34"/>
       <use xlink:href="#DejaVuSans-30" x="63.623047"/>
      </g>
     </g>
    </g>
    <g id="xtick_6">
     <g id="line2d_7">
      <g>
       <use xlink:href="#m1256aaa792" x="214.959459" y="222.689879" style="stroke: #000000; stroke-width: 0.8"/>
      </g>
     </g>
     <g id="text_6">
      <!-- 45 -->
      <g transform="translate(206.051959 240.327692) scale(0.14 -0.14)">
       <use xlink:href="#DejaVuSans-34"/>
       <use xlink:href="#DejaVuSans-35" x="63.623047"/>
      </g>
     </g>
    </g>
    <g id="text_7">
     <!-- Measured OGT (°C) -->
     <g transform="translate(64.905236 259.396754) scale(0.16 -0.16)">
      <defs>
       <path id="DejaVuSans-4d" d="M 628 4666 
L 1569 4666 
L 2759 1491 
L 3956 4666 
L 4897 4666 
L 4897 0 
L 4281 0 
L 4281 4097 
L 3078 897 
L 2444 897 
L 1241 4097 
L 1241 0 
L 628 0 
L 628 4666 
z
" transform="scale(0.015625)"/>
       <path id="DejaVuSans-65" d="M 3597 1894 
L 3597 1613 
L 953 1613 
Q 991 1019 1311 708 
Q 1631 397 2203 397 
Q 2534 397 2845 478 
Q 3156 559 3463 722 
L 3463 178 
Q 3153 47 2828 -22 
Q 2503 -91 2169 -91 
Q 1331 -91 842 396 
Q 353 884 353 1716 
Q 353 2575 817 3079 
Q 1281 3584 2069 3584 
Q 2775 3584 3186 3129 
Q 3597 2675 3597 1894 
z
M 3022 2063 
Q 3016 2534 2758 2815 
Q 2500 3097 2075 3097 
Q 1594 3097 1305 2825 
Q 1016 2553 972 2059 
L 3022 2063 
z
" transform="scale(0.015625)"/>
       <path id="DejaVuSans-61" d="M 2194 1759 
Q 1497 1759 1228 1600 
Q 959 1441 959 1056 
Q 959 750 1161 570 
Q 1363 391 1709 391 
Q 2188 391 2477 730 
Q 2766 1069 2766 1631 
L 2766 1759 
L 2194 1759 
z
M 3341 1997 
L 3341 0 
L 2766 0 
L 2766 531 
Q 2569 213 2275 61 
Q 1981 -91 1556 -91 
Q 1019 -91 701 211 
Q 384 513 384 1019 
Q 384 1609 779 1909 
Q 1175 2209 1959 2209 
L 2766 2209 
L 2766 2266 
Q 2766 2663 2505 2880 
Q 2244 3097 1772 3097 
Q 1472 3097 1187 3025 
Q 903 2953 641 2809 
L 641 3341 
Q 956 3463 1253 3523 
Q 1550 3584 1831 3584 
Q 2591 3584 2966 3190 
Q 3341 2797 3341 1997 
z
" transform="scale(0.015625)"/>
       <path id="DejaVuSans-73" d="M 2834 3397 
L 2834 2853 
Q 2591 2978 2328 3040 
Q 2066 3103 1784 3103 
Q 1356 3103 1142 2972 
Q 928 2841 928 2578 
Q 928 2378 1081 2264 
Q 1234 2150 1697 2047 
L 1894 2003 
Q 2506 1872 2764 1633 
Q 3022 1394 3022 966 
Q 3022 478 2636 193 
Q 2250 -91 1575 -91 
Q 1294 -91 989 -36 
Q 684 19 347 128 
L 347 722 
Q 666 556 975 473 
Q 1284 391 1588 391 
Q 1994 391 2212 530 
Q 2431 669 2431 922 
Q 2431 1156 2273 1281 
Q 2116 1406 1581 1522 
L 1381 1569 
Q 847 1681 609 1914 
Q 372 2147 372 2553 
Q 372 3047 722 3315 
Q 1072 3584 1716 3584 
Q 2034 3584 2315 3537 
Q 2597 3491 2834 3397 
z
" transform="scale(0.015625)"/>
       <path id="DejaVuSans-75" d="M 544 1381 
L 544 3500 
L 1119 3500 
L 1119 1403 
Q 1119 906 1312 657 
Q 1506 409 1894 409 
Q 2359 409 2629 706 
Q 2900 1003 2900 1516 
L 2900 3500 
L 3475 3500 
L 3475 0 
L 2900 0 
L 2900 538 
Q 2691 219 2414 64 
Q 2138 -91 1772 -91 
Q 1169 -91 856 284 
Q 544 659 544 1381 
z
M 1991 3584 
L 1991 3584 
z
" transform="scale(0.015625)"/>
       <path id="DejaVuSans-72" d="M 2631 2963 
Q 2534 3019 2420 3045 
Q 2306 3072 2169 3072 
Q 1681 3072 1420 2755 
Q 1159 2438 1159 1844 
L 1159 0 
L 581 0 
L 581 3500 
L 1159 3500 
L 1159 2956 
Q 1341 3275 1631 3429 
Q 1922 3584 2338 3584 
Q 2397 3584 2469 3576 
Q 2541 3569 2628 3553 
L 2631 2963 
z
" transform="scale(0.015625)"/>
       <path id="DejaVuSans-64" d="M 2906 2969 
L 2906 4863 
L 3481 4863 
L 3481 0 
L 2906 0 
L 2906 525 
Q 2725 213 2448 61 
Q 2172 -91 1784 -91 
Q 1150 -91 751 415 
Q 353 922 353 1747 
Q 353 2572 751 3078 
Q 1150 3584 1784 3584 
Q 2172 3584 2448 3432 
Q 2725 3281 2906 2969 
z
M 947 1747 
Q 947 1113 1208 752 
Q 1469 391 1925 391 
Q 2381 391 2643 752 
Q 2906 1113 2906 1747 
Q 2906 2381 2643 2742 
Q 2381 3103 1925 3103 
Q 1469 3103 1208 2742 
Q 947 2381 947 1747 
z
" transform="scale(0.015625)"/>
       <path id="DejaVuSans-20" transform="scale(0.015625)"/>
       <path id="DejaVuSans-4f" d="M 2522 4238 
Q 1834 4238 1429 3725 
Q 1025 3213 1025 2328 
Q 1025 1447 1429 934 
Q 1834 422 2522 422 
Q 3209 422 3611 934 
Q 4013 1447 4013 2328 
Q 4013 3213 3611 3725 
Q 3209 4238 2522 4238 
z
M 2522 4750 
Q 3503 4750 4090 4092 
Q 4678 3434 4678 2328 
Q 4678 1225 4090 567 
Q 3503 -91 2522 -91 
Q 1538 -91 948 565 
Q 359 1222 359 2328 
Q 359 3434 948 4092 
Q 1538 4750 2522 4750 
z
" transform="scale(0.015625)"/>
       <path id="DejaVuSans-47" d="M 3809 666 
L 3809 1919 
L 2778 1919 
L 2778 2438 
L 4434 2438 
L 4434 434 
Q 4069 175 3628 42 
Q 3188 -91 2688 -91 
Q 1594 -91 976 548 
Q 359 1188 359 2328 
Q 359 3472 976 4111 
Q 1594 4750 2688 4750 
Q 3144 4750 3555 4637 
Q 3966 4525 4313 4306 
L 4313 3634 
Q 3963 3931 3569 4081 
Q 3175 4231 2741 4231 
Q 1884 4231 1454 3753 
Q 1025 3275 1025 2328 
Q 1025 1384 1454 906 
Q 1884 428 2741 428 
Q 3075 428 3337 486 
Q 3600 544 3809 666 
z
" transform="scale(0.015625)"/>
       <path id="DejaVuSans-54" d="M -19 4666 
L 3928 4666 
L 3928 4134 
L 2272 4134 
L 2272 0 
L 1638 0 
L 1638 4134 
L -19 4134 
L -19 4666 
z
" transform="scale(0.015625)"/>
       <path id="DejaVuSans-28" d="M 1984 4856 
Q 1566 4138 1362 3434 
Q 1159 2731 1159 2009 
Q 1159 1288 1364 580 
Q 1569 -128 1984 -844 
L 1484 -844 
Q 1016 -109 783 600 
Q 550 1309 550 2009 
Q 550 2706 781 3412 
Q 1013 4119 1484 4856 
L 1984 4856 
z
" transform="scale(0.015625)"/>
       <path id="DejaVuSans-b0" d="M 1600 4347 
Q 1350 4347 1178 4173 
Q 1006 4000 1006 3750 
Q 1006 3503 1178 3333 
Q 1350 3163 1600 3163 
Q 1850 3163 2022 3333 
Q 2194 3503 2194 3750 
Q 2194 3997 2020 4172 
Q 1847 4347 1600 4347 
z
M 1600 4750 
Q 1800 4750 1984 4673 
Q 2169 4597 2303 4453 
Q 2447 4313 2519 4134 
Q 2591 3956 2591 3750 
Q 2591 3338 2302 3052 
Q 2013 2766 1594 2766 
Q 1172 2766 890 3047 
Q 609 3328 609 3750 
Q 609 4169 896 4459 
Q 1184 4750 1600 4750 
z
" transform="scale(0.015625)"/>
       <path id="DejaVuSans-43" d="M 4122 4306 
L 4122 3641 
Q 3803 3938 3442 4084 
Q 3081 4231 2675 4231 
Q 1875 4231 1450 3742 
Q 1025 3253 1025 2328 
Q 1025 1406 1450 917 
Q 1875 428 2675 428 
Q 3081 428 3442 575 
Q 3803 722 4122 1019 
L 4122 359 
Q 3791 134 3420 21 
Q 3050 -91 2638 -91 
Q 1578 -91 968 557 
Q 359 1206 359 2328 
Q 359 3453 968 4101 
Q 1578 4750 2638 4750 
Q 3056 4750 3426 4639 
Q 3797 4528 4122 4306 
z
" transform="scale(0.015625)"/>
       <path id="DejaVuSans-29" d="M 513 4856 
L 1013 4856 
Q 1481 4119 1714 3412 
Q 1947 2706 1947 2009 
Q 1947 1309 1714 600 
Q 1481 -109 1013 -844 
L 513 -844 
Q 928 -128 1133 580 
Q 1338 1288 1338 2009 
Q 1338 2731 1133 3434 
Q 928 4138 513 4856 
z
" transform="scale(0.015625)"/>
      </defs>
      <use xlink:href="#DejaVuSans-4d"/>
      <use xlink:href="#DejaVuSans-65" x="86.279297"/>
      <use xlink:href="#DejaVuSans-61" x="147.802734"/>
      <use xlink:href="#DejaVuSans-73" x="209.082031"/>
      <use xlink:href="#DejaVuSans-75" x="261.181641"/>
      <use xlink:href="#DejaVuSans-72" x="324.560547"/>
      <use xlink:href="#DejaVuSans-65" x="363.423828"/>
      <use xlink:href="#DejaVuSans-64" x="424.947266"/>
      <use xlink:href="#DejaVuSans-20" x="488.423828"/>
      <use xlink:href="#DejaVuSans-4f" x="520.210938"/>
      <use xlink:href="#DejaVuSans-47" x="598.921875"/>
      <use xlink:href="#DejaVuSans-54" x="672.787109"/>
      <use xlink:href="#DejaVuSans-20" x="733.871094"/>
      <use xlink:href="#DejaVuSans-28" x="765.658203"/>
      <use xlink:href="#DejaVuSans-b0" x="804.671875"/>
      <use xlink:href="#DejaVuSans-43" x="854.671875"/>
      <use xlink:href="#DejaVuSans-29" x="924.496094"/>
     </g>
    </g>
   </g>
   <g id="matplotlib.axis_2">
    <g id="ytick_1">
     <g id="line2d_8">
      <defs>
       <path id="m51628f5898" d="M 0 0 
L -3.5 0 
" style="stroke: #000000; stroke-width: 0.8"/>
      </defs>
      <g>
       <use xlink:href="#m51628f5898" x="51.5" y="206.594395" style="stroke: #000000; stroke-width: 0.8"/>
      </g>
     </g>
     <g id="text_8">
      <!-- 20 -->
      <g transform="translate(26.685 211.913301) scale(0.14 -0.14)">
       <use xlink:href="#DejaVuSans-32"/>
       <use xlink:href="#DejaVuSans-30" x="63.623047"/>
      </g>
     </g>
    </g>
    <g id="ytick_2">
     <g id="line2d_9">
      <g>
       <use xlink:href="#m51628f5898" x="51.5" y="179.768589" style="stroke: #000000; stroke-width: 0.8"/>
      </g>
     </g>
     <g id="text_9">
      <!-- 25 -->
      <g transform="translate(26.685 185.087495) scale(0.14 -0.14)">
       <use xlink:href="#DejaVuSans-32"/>
       <use xlink:href="#DejaVuSans-35" x="63.623047"/>
      </g>
     </g>
    </g>
    <g id="ytick_3">
     <g id="line2d_10">
      <g>
       <use xlink:href="#m51628f5898" x="51.5" y="152.942782" style="stroke: #000000; stroke-width: 0.8"/>
      </g>
     </g>
     <g id="text_10">
      <!-- 30 -->
      <g transform="translate(26.685 158.261689) scale(0.14 -0.14)">
       <use xlink:href="#DejaVuSans-33"/>
       <use xlink:href="#DejaVuSans-30" x="63.623047"/>
      </g>
     </g>
    </g>
    <g id="ytick_4">
     <g id="line2d_11">
      <g>
       <use xlink:href="#m51628f5898" x="51.5" y="126.116976" style="stroke: #000000; stroke-width: 0.8"/>
      </g>
     </g>
     <g id="text_11">
      <!-- 35 -->
      <g transform="translate(26.685 131.435882) scale(0.14 -0.14)">
       <use xlink:href="#DejaVuSans-33"/>
       <use xlink:href="#DejaVuSans-35" x="63.623047"/>
      </g>
     </g>
    </g>
    <g id="ytick_5">
     <g id="line2d_12">
      <g>
       <use xlink:href="#m51628f5898" x="51.5" y="99.291169" style="stroke: #000000; stroke-width: 0.8"/>
      </g>
     </g>
     <g id="text_12">
      <!-- 40 -->
      <g transform="translate(26.685 104.610076) scale(0.14 -0.14)">
       <use xlink:href="#DejaVuSans-34"/>
       <use xlink:href="#DejaVuSans-30" x="63.623047"/>
      </g>
     </g>
    </g>
    <g id="ytick_6">
     <g id="line2d_13">
      <g>
       <use xlink:href="#m51628f5898" x="51.5" y="72.465363" style="stroke: #000000; stroke-width: 0.8"/>
      </g>
     </g>
     <g id="text_13">
      <!-- 45 -->
      <g transform="translate(26.685 77.784269) scale(0.14 -0.14)">
       <use xlink:href="#DejaVuSans-34"/>
       <use xlink:href="#DejaVuSans-35" x="63.623047"/>
      </g>
     </g>
    </g>
    <g id="text_14">
     <!-- Predicted OGT (°C) -->
     <g transform="translate(19.3575 215.088629) rotate(-90) scale(0.16 -0.16)">
      <defs>
       <path id="DejaVuSans-50" d="M 1259 4147 
L 1259 2394 
L 2053 2394 
Q 2494 2394 2734 2622 
Q 2975 2850 2975 3272 
Q 2975 3691 2734 3919 
Q 2494 4147 2053 4147 
L 1259 4147 
z
M 628 4666 
L 2053 4666 
Q 2838 4666 3239 4311 
Q 3641 3956 3641 3272 
Q 3641 2581 3239 2228 
Q 2838 1875 2053 1875 
L 1259 1875 
L 1259 0 
L 628 0 
L 628 4666 
z
" transform="scale(0.015625)"/>
       <path id="DejaVuSans-69" d="M 603 3500 
L 1178 3500 
L 1178 0 
L 603 0 
L 603 3500 
z
M 603 4863 
L 1178 4863 
L 1178 4134 
L 603 4134 
L 603 4863 
z
" transform="scale(0.015625)"/>
       <path id="DejaVuSans-63" d="M 3122 3366 
L 3122 2828 
Q 2878 2963 2633 3030 
Q 2388 3097 2138 3097 
Q 1578 3097 1268 2742 
Q 959 2388 959 1747 
Q 959 1106 1268 751 
Q 1578 397 2138 397 
Q 2388 397 2633 464 
Q 2878 531 3122 666 
L 3122 134 
Q 2881 22 2623 -34 
Q 2366 -91 2075 -91 
Q 1284 -91 818 406 
Q 353 903 353 1747 
Q 353 2603 823 3093 
Q 1294 3584 2113 3584 
Q 2378 3584 2631 3529 
Q 2884 3475 3122 3366 
z
" transform="scale(0.015625)"/>
       <path id="DejaVuSans-74" d="M 1172 4494 
L 1172 3500 
L 2356 3500 
L 2356 3053 
L 1172 3053 
L 1172 1153 
Q 1172 725 1289 603 
Q 1406 481 1766 481 
L 2356 481 
L 2356 0 
L 1766 0 
Q 1100 0 847 248 
Q 594 497 594 1153 
L 594 3053 
L 172 3053 
L 172 3500 
L 594 3500 
L 594 4494 
L 1172 4494 
z
" transform="scale(0.015625)"/>
      </defs>
      <use xlink:href="#DejaVuSans-50"/>
      <use xlink:href="#DejaVuSans-72" x="58.552734"/>
      <use xlink:href="#DejaVuSans-65" x="97.416016"/>
      <use xlink:href="#DejaVuSans-64" x="158.939453"/>
      <use xlink:href="#DejaVuSans-69" x="222.416016"/>
      <use xlink:href="#DejaVuSans-63" x="250.199219"/>
      <use xlink:href="#DejaVuSans-74" x="305.179688"/>
      <use xlink:href="#DejaVuSans-65" x="344.388672"/>
      <use xlink:href="#DejaVuSans-64" x="405.912109"/>
      <use xlink:href="#DejaVuSans-20" x="469.388672"/>
      <use xlink:href="#DejaVuSans-4f" x="501.175781"/>
      <use xlink:href="#DejaVuSans-47" x="579.886719"/>
      <use xlink:href="#DejaVuSans-54" x="653.751953"/>
      <use xlink:href="#DejaVuSans-20" x="714.835938"/>
      <use xlink:href="#DejaVuSans-28" x="746.623047"/>
      <use xlink:href="#DejaVuSans-b0" x="785.636719"/>
      <use xlink:href="#DejaVuSans-43" x="835.636719"/>
      <use xlink:href="#DejaVuSans-29" x="905.460938"/>
     </g>
    </g>
   </g>
   <g id="PathCollection_1">
    <defs>
     <path id="m4871661968" d="M 0 3 
C 0.795609 3 1.55874 2.683901 2.12132 2.12132 
C 2.683901 1.55874 3 0.795609 3 0 
C 3 -0.795609 2.683901 -1.55874 2.12132 -2.12132 
C 1.55874 -2.683901 0.795609 -3 0 -3 
C -0.795609 -3 -1.55874 -2.683901 -2.12132 -2.12132 
C -2.683901 -1.55874 -3 -0.795609 -3 0 
C -3 0.795609 -2.683901 1.55874 -2.12132 2.12132 
C -1.55874 2.683901 -0.795609 3 0 3 
z
" style="stroke: #000000; stroke-width: 0.48"/>
    </defs>
    <g clip-path="url(#p1cb593b4c2)">
     <use xlink:href="#m4871661968" x="136.732432" y="149.157868" style="fill: #1f77b4; stroke: #000000; stroke-width: 0.48"/>
     <use xlink:href="#m4871661968" x="175.262162" y="137.103989" style="fill: #1f77b4; stroke: #000000; stroke-width: 0.48"/>
     <use xlink:href="#m4871661968" x="170.591892" y="112.765288" style="fill: #1f77b4; stroke: #000000; stroke-width: 0.48"/>
     <use xlink:href="#m4871661968" x="143.737838" y="127.935831" style="fill: #1f77b4; stroke: #000000; stroke-width: 0.48"/>
     <use xlink:href="#m4871661968" x="139.067568" y="133.261696" style="fill: #1f77b4; stroke: #000000; stroke-width: 0.48"/>
     <use xlink:href="#m4871661968" x="173.510811" y="151.280997" style="fill: #1f77b4; stroke: #000000; stroke-width: 0.48"/>
     <use xlink:href="#m4871661968" x="147.240541" y="138.793966" style="fill: #1f77b4; stroke: #000000; stroke-width: 0.48"/>
     <use xlink:href="#m4871661968" x="177.597297" y="115.728279" style="fill: #1f77b4; stroke: #000000; stroke-width: 0.48"/>
     <use xlink:href="#m4871661968" x="109.294595" y="152.243443" style="fill: #1f77b4; stroke: #000000; stroke-width: 0.48"/>
     <use xlink:href="#m4871661968" x="91.781081" y="144.586979" style="fill: #1f77b4; stroke: #000000; stroke-width: 0.48"/>
     <use xlink:href="#m4871661968" x="167.089189" y="125.698744" style="fill: #1f77b4; stroke: #000000; stroke-width: 0.48"/>
     <use xlink:href="#m4871661968" x="73.1" y="138.496793" style="fill: #1f77b4; stroke: #000000; stroke-width: 0.48"/>
     <use xlink:href="#m4871661968" x="134.981081" y="131.536987" style="fill: #1f77b4; stroke: #000000; stroke-width: 0.48"/>
     <use xlink:href="#m4871661968" x="203.283784" y="143.795203" style="fill: #1f77b4; stroke: #000000; stroke-width: 0.48"/>
     <use xlink:href="#m4871661968" x="203.283784" y="101.619803" style="fill: #1f77b4; stroke: #000000; stroke-width: 0.48"/>
     <use xlink:href="#m4871661968" x="132.062162" y="145.549763" style="fill: #1f77b4; stroke: #000000; stroke-width: 0.48"/>
     <use xlink:href="#m4871661968" x="168.840541" y="130.465138" style="fill: #1f77b4; stroke: #000000; stroke-width: 0.48"/>
     <use xlink:href="#m4871661968" x="130.310811" y="131.271824" style="fill: #1f77b4; stroke: #000000; stroke-width: 0.48"/>
     <use xlink:href="#m4871661968" x="175.262162" y="120.836136" style="fill: #1f77b4; stroke: #000000; stroke-width: 0.48"/>
     <use xlink:href="#m4871661968" x="143.737838" y="114.420677" style="fill: #1f77b4; stroke: #000000; stroke-width: 0.48"/>
    </g>
   </g>
   <g id="patch_3">
    <path d="M 51.5 222.689879 
L 51.5 56.369879 
" style="fill: none; stroke: #000000; stroke-width: 0.8; stroke-linejoin: miter; stroke-linecap: square"/>
   </g>
   <g id="patch_4">
    <path d="M 51.5 222.689879 
L 232.472973 222.689879 
" style="fill: none; stroke: #000000; stroke-width: 0.8; stroke-linejoin: miter; stroke-linecap: square"/>
   </g>
   <g id="text_15">
    <!-- $R^2$ = 0.21 -->
    <g transform="translate(69.013514 69.057925) scale(0.12 -0.12)">
     <defs>
      <path id="DejaVuSans-Oblique-52" d="M 1613 4147 
L 1294 2491 
L 2106 2491 
Q 2584 2491 2879 2755 
Q 3175 3019 3175 3444 
Q 3175 3784 2976 3965 
Q 2778 4147 2406 4147 
L 1613 4147 
z
M 2772 2241 
Q 2972 2194 3105 2009 
Q 3238 1825 3413 1275 
L 3809 0 
L 3144 0 
L 2778 1197 
Q 2638 1659 2453 1815 
Q 2269 1972 1888 1972 
L 1191 1972 
L 806 0 
L 172 0 
L 1081 4666 
L 2503 4666 
Q 3150 4666 3495 4373 
Q 3841 4081 3841 3531 
Q 3841 3044 3547 2687 
Q 3253 2331 2772 2241 
z
" transform="scale(0.015625)"/>
      <path id="DejaVuSans-3d" d="M 678 2906 
L 4684 2906 
L 4684 2381 
L 678 2381 
L 678 2906 
z
M 678 1631 
L 4684 1631 
L 4684 1100 
L 678 1100 
L 678 1631 
z
" transform="scale(0.015625)"/>
      <path id="DejaVuSans-2e" d="M 684 794 
L 1344 794 
L 1344 0 
L 684 0 
L 684 794 
z
" transform="scale(0.015625)"/>
      <path id="DejaVuSans-31" d="M 794 531 
L 1825 531 
L 1825 4091 
L 703 3866 
L 703 4441 
L 1819 4666 
L 2450 4666 
L 2450 531 
L 3481 531 
L 3481 0 
L 794 0 
L 794 531 
z
" transform="scale(0.015625)"/>
     </defs>
     <use xlink:href="#DejaVuSans-Oblique-52" transform="translate(0 0.765625)"/>
     <use xlink:href="#DejaVuSans-32" transform="translate(76.499193 39.046875) scale(0.7)"/>
     <use xlink:href="#DejaVuSans-20" transform="translate(123.769701 0.765625)"/>
     <use xlink:href="#DejaVuSans-3d" transform="translate(155.55681 0.765625)"/>
     <use xlink:href="#DejaVuSans-20" transform="translate(239.345872 0.765625)"/>
     <use xlink:href="#DejaVuSans-30" transform="translate(271.132982 0.765625)"/>
     <use xlink:href="#DejaVuSans-2e" transform="translate(334.756029 0.765625)"/>
     <use xlink:href="#DejaVuSans-32" transform="translate(361.043138 0.765625)"/>
     <use xlink:href="#DejaVuSans-31" transform="translate(424.666185 0.765625)"/>
    </g>
    <!-- RMSE = 5.02 -->
    <g transform="translate(69.013514 82.4953) scale(0.12 -0.12)">
     <defs>
      <path id="DejaVuSans-52" d="M 2841 2188 
Q 3044 2119 3236 1894 
Q 3428 1669 3622 1275 
L 4263 0 
L 3584 0 
L 2988 1197 
Q 2756 1666 2539 1819 
Q 2322 1972 1947 1972 
L 1259 1972 
L 1259 0 
L 628 0 
L 628 4666 
L 2053 4666 
Q 2853 4666 3247 4331 
Q 3641 3997 3641 3322 
Q 3641 2881 3436 2590 
Q 3231 2300 2841 2188 
z
M 1259 4147 
L 1259 2491 
L 2053 2491 
Q 2509 2491 2742 2702 
Q 2975 2913 2975 3322 
Q 2975 3731 2742 3939 
Q 2509 4147 2053 4147 
L 1259 4147 
z
" transform="scale(0.015625)"/>
      <path id="DejaVuSans-53" d="M 3425 4513 
L 3425 3897 
Q 3066 4069 2747 4153 
Q 2428 4238 2131 4238 
Q 1616 4238 1336 4038 
Q 1056 3838 1056 3469 
Q 1056 3159 1242 3001 
Q 1428 2844 1947 2747 
L 2328 2669 
Q 3034 2534 3370 2195 
Q 3706 1856 3706 1288 
Q 3706 609 3251 259 
Q 2797 -91 1919 -91 
Q 1588 -91 1214 -16 
Q 841 59 441 206 
L 441 856 
Q 825 641 1194 531 
Q 1563 422 1919 422 
Q 2459 422 2753 634 
Q 3047 847 3047 1241 
Q 3047 1584 2836 1778 
Q 2625 1972 2144 2069 
L 1759 2144 
Q 1053 2284 737 2584 
Q 422 2884 422 3419 
Q 422 4038 858 4394 
Q 1294 4750 2059 4750 
Q 2388 4750 2728 4690 
Q 3069 4631 3425 4513 
z
" transform="scale(0.015625)"/>
      <path id="DejaVuSans-45" d="M 628 4666 
L 3578 4666 
L 3578 4134 
L 1259 4134 
L 1259 2753 
L 3481 2753 
L 3481 2222 
L 1259 2222 
L 1259 531 
L 3634 531 
L 3634 0 
L 628 0 
L 628 4666 
z
" transform="scale(0.015625)"/>
     </defs>
     <use xlink:href="#DejaVuSans-52"/>
     <use xlink:href="#DejaVuSans-4d" x="69.482422"/>
     <use xlink:href="#DejaVuSans-53" x="155.761719"/>
     <use xlink:href="#DejaVuSans-45" x="219.238281"/>
     <use xlink:href="#DejaVuSans-20" x="282.421875"/>
     <use xlink:href="#DejaVuSans-3d" x="314.208984"/>
     <use xlink:href="#DejaVuSans-20" x="397.998047"/>
     <use xlink:href="#DejaVuSans-35" x="429.785156"/>
     <use xlink:href="#DejaVuSans-2e" x="493.408203"/>
     <use xlink:href="#DejaVuSans-30" x="525.195312"/>
     <use xlink:href="#DejaVuSans-32" x="588.818359"/>
    </g>
   </g>
   <g id="text_16">
    <!-- A - Mycobacteria -->
    <g transform="translate(10.635135 25.43625) scale(0.24 -0.24)">
     <defs>
      <path id="DejaVuSans-41" d="M 2188 4044 
L 1331 1722 
L 3047 1722 
L 2188 4044 
z
M 1831 4666 
L 2547 4666 
L 4325 0 
L 3669 0 
L 3244 1197 
L 1141 1197 
L 716 0 
L 50 0 
L 1831 4666 
z
" transform="scale(0.015625)"/>
      <path id="DejaVuSans-2d" d="M 313 2009 
L 1997 2009 
L 1997 1497 
L 313 1497 
L 313 2009 
z
" transform="scale(0.015625)"/>
      <path id="DejaVuSans-79" d="M 2059 -325 
Q 1816 -950 1584 -1140 
Q 1353 -1331 966 -1331 
L 506 -1331 
L 506 -850 
L 844 -850 
Q 1081 -850 1212 -737 
Q 1344 -625 1503 -206 
L 1606 56 
L 191 3500 
L 800 3500 
L 1894 763 
L 2988 3500 
L 3597 3500 
L 2059 -325 
z
" transform="scale(0.015625)"/>
      <path id="DejaVuSans-6f" d="M 1959 3097 
Q 1497 3097 1228 2736 
Q 959 2375 959 1747 
Q 959 1119 1226 758 
Q 1494 397 1959 397 
Q 2419 397 2687 759 
Q 2956 1122 2956 1747 
Q 2956 2369 2687 2733 
Q 2419 3097 1959 3097 
z
M 1959 3584 
Q 2709 3584 3137 3096 
Q 3566 2609 3566 1747 
Q 3566 888 3137 398 
Q 2709 -91 1959 -91 
Q 1206 -91 779 398 
Q 353 888 353 1747 
Q 353 2609 779 3096 
Q 1206 3584 1959 3584 
z
" transform="scale(0.015625)"/>
      <path id="DejaVuSans-62" d="M 3116 1747 
Q 3116 2381 2855 2742 
Q 2594 3103 2138 3103 
Q 1681 3103 1420 2742 
Q 1159 2381 1159 1747 
Q 1159 1113 1420 752 
Q 1681 391 2138 391 
Q 2594 391 2855 752 
Q 3116 1113 3116 1747 
z
M 1159 2969 
Q 1341 3281 1617 3432 
Q 1894 3584 2278 3584 
Q 2916 3584 3314 3078 
Q 3713 2572 3713 1747 
Q 3713 922 3314 415 
Q 2916 -91 2278 -91 
Q 1894 -91 1617 61 
Q 1341 213 1159 525 
L 1159 0 
L 581 0 
L 581 4863 
L 1159 4863 
L 1159 2969 
z
" transform="scale(0.015625)"/>
     </defs>
     <use xlink:href="#DejaVuSans-41"/>
     <use xlink:href="#DejaVuSans-20" x="68.408203"/>
     <use xlink:href="#DejaVuSans-2d" x="100.195312"/>
     <use xlink:href="#DejaVuSans-20" x="136.279297"/>
     <use xlink:href="#DejaVuSans-4d" x="168.066406"/>
     <use xlink:href="#DejaVuSans-79" x="254.345703"/>
     <use xlink:href="#DejaVuSans-63" x="313.525391"/>
     <use xlink:href="#DejaVuSans-6f" x="368.505859"/>
     <use xlink:href="#DejaVuSans-62" x="429.6875"/>
     <use xlink:href="#DejaVuSans-61" x="493.164062"/>
     <use xlink:href="#DejaVuSans-63" x="554.443359"/>
     <use xlink:href="#DejaVuSans-74" x="609.423828"/>
     <use xlink:href="#DejaVuSans-65" x="648.632812"/>
     <use xlink:href="#DejaVuSans-72" x="710.15625"/>
     <use xlink:href="#DejaVuSans-69" x="751.269531"/>
     <use xlink:href="#DejaVuSans-61" x="779.052734"/>
    </g>
   </g>
   <g id="text_17">
    <!-- ROSEATE -->
    <g transform="translate(109.800705 50.369879) scale(0.14 -0.14)">
     <use xlink:href="#DejaVuSans-52"/>
     <use xlink:href="#DejaVuSans-4f" x="69.482422"/>
     <use xlink:href="#DejaVuSans-53" x="148.193359"/>
     <use xlink:href="#DejaVuSans-45" x="211.669922"/>
     <use xlink:href="#DejaVuSans-41" x="274.853516"/>
     <use xlink:href="#DejaVuSans-54" x="335.511719"/>
     <use xlink:href="#DejaVuSans-45" x="396.595703"/>
    </g>
   </g>
  </g>
  <g id="axes_2">
   <g id="patch_5">
    <path d="M 295.813514 222.689879 
L 476.786486 222.689879 
L 476.786486 56.369879 
L 295.813514 56.369879 
z
" style="fill: #ffffff"/>
   </g>
   <g id="PolyCollection_2">
    <defs>
     <path id="mc9cb02cd4d" d="M 342.516216 -116.981472 
L 342.516216 -63.329859 
L 343.695577 -64.41373 
L 344.874939 -65.497601 
L 346.0543 -66.581472 
L 347.233661 -67.665343 
L 348.413022 -68.749214 
L 349.592383 -69.833085 
L 350.771744 -70.916956 
L 351.951106 -72.000827 
L 353.130467 -73.084698 
L 354.309828 -74.168569 
L 355.489189 -75.25244 
L 356.66855 -76.33631 
L 357.847912 -77.420181 
L 359.027273 -78.504052 
L 360.206634 -79.587923 
L 361.385995 -80.671794 
L 362.565356 -81.755665 
L 363.744717 -82.839536 
L 364.924079 -83.923407 
L 366.10344 -85.007278 
L 367.282801 -86.091149 
L 368.462162 -87.17502 
L 369.641523 -88.258891 
L 370.820885 -89.342762 
L 372.000246 -90.426633 
L 373.179607 -91.510504 
L 374.358968 -92.594375 
L 375.538329 -93.678246 
L 376.71769 -94.762117 
L 377.897052 -95.845988 
L 379.076413 -96.929859 
L 380.255774 -98.01373 
L 381.435135 -99.097601 
L 382.614496 -100.181472 
L 383.793857 -101.265343 
L 384.973219 -102.349214 
L 386.15258 -103.433085 
L 387.331941 -104.516956 
L 388.511302 -105.600827 
L 389.690663 -106.684698 
L 390.870025 -107.768569 
L 392.049386 -108.85244 
L 393.228747 -109.93631 
L 394.408108 -111.020181 
L 395.587469 -112.104052 
L 396.76683 -113.187923 
L 397.946192 -114.271794 
L 399.125553 -115.355665 
L 400.304914 -116.439536 
L 401.484275 -117.523407 
L 402.663636 -118.607278 
L 403.842998 -119.691149 
L 405.022359 -120.77502 
L 406.20172 -121.858891 
L 407.381081 -122.942762 
L 408.560442 -124.026633 
L 409.739803 -125.110504 
L 410.919165 -126.194375 
L 412.098526 -127.278246 
L 413.277887 -128.362117 
L 414.457248 -129.445988 
L 415.636609 -130.529859 
L 416.815971 -131.61373 
L 417.995332 -132.697601 
L 419.174693 -133.781472 
L 420.354054 -134.865343 
L 421.533415 -135.949214 
L 422.712776 -137.033085 
L 423.892138 -138.116956 
L 425.071499 -139.200827 
L 426.25086 -140.284698 
L 427.430221 -141.368569 
L 428.609582 -142.45244 
L 429.788943 -143.53631 
L 430.968305 -144.620181 
L 432.147666 -145.704052 
L 433.327027 -146.787923 
L 434.506388 -147.871794 
L 435.685749 -148.955665 
L 436.865111 -150.039536 
L 438.044472 -151.123407 
L 439.223833 -152.207278 
L 440.403194 -153.291149 
L 441.582555 -154.37502 
L 442.761916 -155.458891 
L 443.941278 -156.542762 
L 445.120639 -157.626633 
L 446.3 -158.710504 
L 447.479361 -159.794375 
L 448.658722 -160.878246 
L 449.838084 -161.962117 
L 451.017445 -163.045988 
L 452.196806 -164.129859 
L 453.376167 -165.21373 
L 454.555528 -166.297601 
L 455.734889 -167.381472 
L 456.914251 -168.465343 
L 458.093612 -169.549214 
L 459.272973 -170.633085 
L 459.272973 -224.284698 
L 459.272973 -224.284698 
L 458.093612 -223.200827 
L 456.914251 -222.116956 
L 455.734889 -221.033085 
L 454.555528 -219.949214 
L 453.376167 -218.865343 
L 452.196806 -217.781472 
L 451.017445 -216.697601 
L 449.838084 -215.61373 
L 448.658722 -214.529859 
L 447.479361 -213.445988 
L 446.3 -212.362117 
L 445.120639 -211.278246 
L 443.941278 -210.194375 
L 442.761916 -209.110504 
L 441.582555 -208.026633 
L 440.403194 -206.942762 
L 439.223833 -205.858891 
L 438.044472 -204.77502 
L 436.865111 -203.691149 
L 435.685749 -202.607278 
L 434.506388 -201.523407 
L 433.327027 -200.439536 
L 432.147666 -199.355665 
L 430.968305 -198.271794 
L 429.788943 -197.187923 
L 428.609582 -196.104052 
L 427.430221 -195.020181 
L 426.25086 -193.93631 
L 425.071499 -192.85244 
L 423.892138 -191.768569 
L 422.712776 -190.684698 
L 421.533415 -189.600827 
L 420.354054 -188.516956 
L 419.174693 -187.433085 
L 417.995332 -186.349214 
L 416.815971 -185.265343 
L 415.636609 -184.181472 
L 414.457248 -183.097601 
L 413.277887 -182.01373 
L 412.098526 -180.929859 
L 410.919165 -179.845988 
L 409.739803 -178.762117 
L 408.560442 -177.678246 
L 407.381081 -176.594375 
L 406.20172 -175.510504 
L 405.022359 -174.426633 
L 403.842998 -173.342762 
L 402.663636 -172.258891 
L 401.484275 -171.17502 
L 400.304914 -170.091149 
L 399.125553 -169.007278 
L 397.946192 -167.923407 
L 396.76683 -166.839536 
L 395.587469 -165.755665 
L 394.408108 -164.671794 
L 393.228747 -163.587923 
L 392.049386 -162.504052 
L 390.870025 -161.420181 
L 389.690663 -160.33631 
L 388.511302 -159.25244 
L 387.331941 -158.168569 
L 386.15258 -157.084698 
L 384.973219 -156.000827 
L 383.793857 -154.916956 
L 382.614496 -153.833085 
L 381.435135 -152.749214 
L 380.255774 -151.665343 
L 379.076413 -150.581472 
L 377.897052 -149.497601 
L 376.71769 -148.41373 
L 375.538329 -147.329859 
L 374.358968 -146.245988 
L 373.179607 -145.162117 
L 372.000246 -144.078246 
L 370.820885 -142.994375 
L 369.641523 -141.910504 
L 368.462162 -140.826633 
L 367.282801 -139.742762 
L 366.10344 -138.658891 
L 364.924079 -137.57502 
L 363.744717 -136.491149 
L 362.565356 -135.407278 
L 361.385995 -134.323407 
L 360.206634 -133.239536 
L 359.027273 -132.155665 
L 357.847912 -131.071794 
L 356.66855 -129.987923 
L 355.489189 -128.904052 
L 354.309828 -127.820181 
L 353.130467 -126.73631 
L 351.951106 -125.65244 
L 350.771744 -124.568569 
L 349.592383 -123.484698 
L 348.413022 -122.400827 
L 347.233661 -121.316956 
L 346.0543 -120.233085 
L 344.874939 -119.149214 
L 343.695577 -118.065343 
L 342.516216 -116.981472 
z
" style="stroke: #d3d3d3"/>
    </defs>
    <g clip-path="url(#p1f52d84e7a)">
     <use xlink:href="#mc9cb02cd4d" x="0" y="269.924254" style="fill: #d3d3d3; stroke: #d3d3d3"/>
    </g>
   </g>
   <g id="PathCollection_2">
    <g clip-path="url(#p1f52d84e7a)">
     <use xlink:href="#m4871661968" x="381.045946" y="139.422576" style="fill: #1f77b4; stroke: #000000; stroke-width: 0.48"/>
     <use xlink:href="#m4871661968" x="419.575676" y="148.972563" style="fill: #1f77b4; stroke: #000000; stroke-width: 0.48"/>
     <use xlink:href="#m4871661968" x="414.905405" y="78.206085" style="fill: #1f77b4; stroke: #000000; stroke-width: 0.48"/>
     <use xlink:href="#m4871661968" x="388.051351" y="86.68304" style="fill: #1f77b4; stroke: #000000; stroke-width: 0.48"/>
     <use xlink:href="#m4871661968" x="383.381081" y="135.720615" style="fill: #1f77b4; stroke: #000000; stroke-width: 0.48"/>
     <use xlink:href="#m4871661968" x="417.824324" y="144.841389" style="fill: #1f77b4; stroke: #000000; stroke-width: 0.48"/>
     <use xlink:href="#m4871661968" x="391.554054" y="129.014163" style="fill: #1f77b4; stroke: #000000; stroke-width: 0.48"/>
     <use xlink:href="#m4871661968" x="421.910811" y="119.94704" style="fill: #1f77b4; stroke: #000000; stroke-width: 0.48"/>
     <use xlink:href="#m4871661968" x="353.608108" y="159.595582" style="fill: #1f77b4; stroke: #000000; stroke-width: 0.48"/>
     <use xlink:href="#m4871661968" x="336.094595" y="162.063556" style="fill: #1f77b4; stroke: #000000; stroke-width: 0.48"/>
     <use xlink:href="#m4871661968" x="411.402703" y="127.082705" style="fill: #1f77b4; stroke: #000000; stroke-width: 0.48"/>
     <use xlink:href="#m4871661968" x="317.413514" y="149.079866" style="fill: #1f77b4; stroke: #000000; stroke-width: 0.48"/>
     <use xlink:href="#m4871661968" x="379.294595" y="135.506008" style="fill: #1f77b4; stroke: #000000; stroke-width: 0.48"/>
     <use xlink:href="#m4871661968" x="447.597297" y="112.167556" style="fill: #1f77b4; stroke: #000000; stroke-width: 0.48"/>
     <use xlink:href="#m4871661968" x="447.597297" y="89.955789" style="fill: #1f77b4; stroke: #000000; stroke-width: 0.48"/>
     <use xlink:href="#m4871661968" x="376.375676" y="136.203479" style="fill: #1f77b4; stroke: #000000; stroke-width: 0.48"/>
     <use xlink:href="#m4871661968" x="413.154054" y="130.784666" style="fill: #1f77b4; stroke: #000000; stroke-width: 0.48"/>
     <use xlink:href="#m4871661968" x="374.624324" y="124.346473" style="fill: #1f77b4; stroke: #000000; stroke-width: 0.48"/>
     <use xlink:href="#m4871661968" x="419.575676" y="138.24224" style="fill: #1f77b4; stroke: #000000; stroke-width: 0.48"/>
     <use xlink:href="#m4871661968" x="388.051351" y="138.349544" style="fill: #1f77b4; stroke: #000000; stroke-width: 0.48"/>
    </g>
   </g>
   <g id="line2d_14">
    <path d="M 342.516216 179.768589 
L 459.272973 72.465363 
" clip-path="url(#p1f52d84e7a)" style="fill: none; stroke-dasharray: 5.55,2.4; stroke-dashoffset: 0; stroke: #000000; stroke-width: 1.5"/>
   </g>
   <g id="matplotlib.axis_3">
    <g id="xtick_7">
     <g id="line2d_15">
      <g>
       <use xlink:href="#m1256aaa792" x="313.327027" y="222.689879" style="stroke: #000000; stroke-width: 0.8"/>
      </g>
     </g>
     <g id="text_18">
      <!-- 20 -->
      <g transform="translate(304.419527 240.327692) scale(0.14 -0.14)">
       <use xlink:href="#DejaVuSans-32"/>
       <use xlink:href="#DejaVuSans-30" x="63.623047"/>
      </g>
     </g>
    </g>
    <g id="xtick_8">
     <g id="line2d_16">
      <g>
       <use xlink:href="#m1256aaa792" x="342.516216" y="222.689879" style="stroke: #000000; stroke-width: 0.8"/>
      </g>
     </g>
     <g id="text_19">
      <!-- 25 -->
      <g transform="translate(333.608716 240.327692) scale(0.14 -0.14)">
       <use xlink:href="#DejaVuSans-32"/>
       <use xlink:href="#DejaVuSans-35" x="63.623047"/>
      </g>
     </g>
    </g>
    <g id="xtick_9">
     <g id="line2d_17">
      <g>
       <use xlink:href="#m1256aaa792" x="371.705405" y="222.689879" style="stroke: #000000; stroke-width: 0.8"/>
      </g>
     </g>
     <g id="text_20">
      <!-- 30 -->
      <g transform="translate(362.797905 240.327692) scale(0.14 -0.14)">
       <use xlink:href="#DejaVuSans-33"/>
       <use xlink:href="#DejaVuSans-30" x="63.623047"/>
      </g>
     </g>
    </g>
    <g id="xtick_10">
     <g id="line2d_18">
      <g>
       <use xlink:href="#m1256aaa792" x="400.894595" y="222.689879" style="stroke: #000000; stroke-width: 0.8"/>
      </g>
     </g>
     <g id="text_21">
      <!-- 35 -->
      <g transform="translate(391.987095 240.327692) scale(0.14 -0.14)">
       <use xlink:href="#DejaVuSans-33"/>
       <use xlink:href="#DejaVuSans-35" x="63.623047"/>
      </g>
     </g>
    </g>
    <g id="xtick_11">
     <g id="line2d_19">
      <g>
       <use xlink:href="#m1256aaa792" x="430.083784" y="222.689879" style="stroke: #000000; stroke-width: 0.8"/>
      </g>
     </g>
     <g id="text_22">
      <!-- 40 -->
      <g transform="translate(421.176284 240.327692) scale(0.14 -0.14)">
       <use xlink:href="#DejaVuSans-34"/>
       <use xlink:href="#DejaVuSans-30" x="63.623047"/>
      </g>
     </g>
    </g>
    <g id="xtick_12">
     <g id="line2d_20">
      <g>
       <use xlink:href="#m1256aaa792" x="459.272973" y="222.689879" style="stroke: #000000; stroke-width: 0.8"/>
      </g>
     </g>
     <g id="text_23">
      <!-- 45 -->
      <g transform="translate(450.365473 240.327692) scale(0.14 -0.14)">
       <use xlink:href="#DejaVuSans-34"/>
       <use xlink:href="#DejaVuSans-35" x="63.623047"/>
      </g>
     </g>
    </g>
    <g id="text_24">
     <!-- Measured OGT (°C) -->
     <g transform="translate(309.21875 259.396754) scale(0.16 -0.16)">
      <use xlink:href="#DejaVuSans-4d"/>
      <use xlink:href="#DejaVuSans-65" x="86.279297"/>
      <use xlink:href="#DejaVuSans-61" x="147.802734"/>
      <use xlink:href="#DejaVuSans-73" x="209.082031"/>
      <use xlink:href="#DejaVuSans-75" x="261.181641"/>
      <use xlink:href="#DejaVuSans-72" x="324.560547"/>
      <use xlink:href="#DejaVuSans-65" x="363.423828"/>
      <use xlink:href="#DejaVuSans-64" x="424.947266"/>
      <use xlink:href="#DejaVuSans-20" x="488.423828"/>
      <use xlink:href="#DejaVuSans-4f" x="520.210938"/>
      <use xlink:href="#DejaVuSans-47" x="598.921875"/>
      <use xlink:href="#DejaVuSans-54" x="672.787109"/>
      <use xlink:href="#DejaVuSans-20" x="733.871094"/>
      <use xlink:href="#DejaVuSans-28" x="765.658203"/>
      <use xlink:href="#DejaVuSans-b0" x="804.671875"/>
      <use xlink:href="#DejaVuSans-43" x="854.671875"/>
      <use xlink:href="#DejaVuSans-29" x="924.496094"/>
     </g>
    </g>
   </g>
   <g id="matplotlib.axis_4">
    <g id="ytick_7">
     <g id="line2d_21">
      <g>
       <use xlink:href="#m51628f5898" x="295.813514" y="206.594395" style="stroke: #000000; stroke-width: 0.8"/>
      </g>
     </g>
     <g id="text_25">
      <!-- 20 -->
      <g transform="translate(270.998514 211.913301) scale(0.14 -0.14)">
       <use xlink:href="#DejaVuSans-32"/>
       <use xlink:href="#DejaVuSans-30" x="63.623047"/>
      </g>
     </g>
    </g>
    <g id="ytick_8">
     <g id="line2d_22">
      <g>
       <use xlink:href="#m51628f5898" x="295.813514" y="179.768589" style="stroke: #000000; stroke-width: 0.8"/>
      </g>
     </g>
     <g id="text_26">
      <!-- 25 -->
      <g transform="translate(270.998514 185.087495) scale(0.14 -0.14)">
       <use xlink:href="#DejaVuSans-32"/>
       <use xlink:href="#DejaVuSans-35" x="63.623047"/>
      </g>
     </g>
    </g>
    <g id="ytick_9">
     <g id="line2d_23">
      <g>
       <use xlink:href="#m51628f5898" x="295.813514" y="152.942782" style="stroke: #000000; stroke-width: 0.8"/>
      </g>
     </g>
     <g id="text_27">
      <!-- 30 -->
      <g transform="translate(270.998514 158.261689) scale(0.14 -0.14)">
       <use xlink:href="#DejaVuSans-33"/>
       <use xlink:href="#DejaVuSans-30" x="63.623047"/>
      </g>
     </g>
    </g>
    <g id="ytick_10">
     <g id="line2d_24">
      <g>
       <use xlink:href="#m51628f5898" x="295.813514" y="126.116976" style="stroke: #000000; stroke-width: 0.8"/>
      </g>
     </g>
     <g id="text_28">
      <!-- 35 -->
      <g transform="translate(270.998514 131.435882) scale(0.14 -0.14)">
       <use xlink:href="#DejaVuSans-33"/>
       <use xlink:href="#DejaVuSans-35" x="63.623047"/>
      </g>
     </g>
    </g>
    <g id="ytick_11">
     <g id="line2d_25">
      <g>
       <use xlink:href="#m51628f5898" x="295.813514" y="99.291169" style="stroke: #000000; stroke-width: 0.8"/>
      </g>
     </g>
     <g id="text_29">
      <!-- 40 -->
      <g transform="translate(270.998514 104.610076) scale(0.14 -0.14)">
       <use xlink:href="#DejaVuSans-34"/>
       <use xlink:href="#DejaVuSans-30" x="63.623047"/>
      </g>
     </g>
    </g>
    <g id="ytick_12">
     <g id="line2d_26">
      <g>
       <use xlink:href="#m51628f5898" x="295.813514" y="72.465363" style="stroke: #000000; stroke-width: 0.8"/>
      </g>
     </g>
     <g id="text_30">
      <!-- 45 -->
      <g transform="translate(270.998514 77.784269) scale(0.14 -0.14)">
       <use xlink:href="#DejaVuSans-34"/>
       <use xlink:href="#DejaVuSans-35" x="63.623047"/>
      </g>
     </g>
    </g>
    <g id="text_31">
     <!-- Predicted OGT (°C) -->
     <g transform="translate(263.671014 215.088629) rotate(-90) scale(0.16 -0.16)">
      <use xlink:href="#DejaVuSans-50"/>
      <use xlink:href="#DejaVuSans-72" x="58.552734"/>
      <use xlink:href="#DejaVuSans-65" x="97.416016"/>
      <use xlink:href="#DejaVuSans-64" x="158.939453"/>
      <use xlink:href="#DejaVuSans-69" x="222.416016"/>
      <use xlink:href="#DejaVuSans-63" x="250.199219"/>
      <use xlink:href="#DejaVuSans-74" x="305.179688"/>
      <use xlink:href="#DejaVuSans-65" x="344.388672"/>
      <use xlink:href="#DejaVuSans-64" x="405.912109"/>
      <use xlink:href="#DejaVuSans-20" x="469.388672"/>
      <use xlink:href="#DejaVuSans-4f" x="501.175781"/>
      <use xlink:href="#DejaVuSans-47" x="579.886719"/>
      <use xlink:href="#DejaVuSans-54" x="653.751953"/>
      <use xlink:href="#DejaVuSans-20" x="714.835938"/>
      <use xlink:href="#DejaVuSans-28" x="746.623047"/>
      <use xlink:href="#DejaVuSans-b0" x="785.636719"/>
      <use xlink:href="#DejaVuSans-43" x="835.636719"/>
      <use xlink:href="#DejaVuSans-29" x="905.460938"/>
     </g>
    </g>
   </g>
   <g id="patch_6">
    <path d="M 295.813514 222.689879 
L 295.813514 56.369879 
" style="fill: none; stroke: #000000; stroke-width: 0.8; stroke-linejoin: miter; stroke-linecap: square"/>
   </g>
   <g id="patch_7">
    <path d="M 295.813514 222.689879 
L 476.786486 222.689879 
" style="fill: none; stroke: #000000; stroke-width: 0.8; stroke-linejoin: miter; stroke-linecap: square"/>
   </g>
   <g id="text_32">
    <!-- $R^2$ = 0.26 -->
    <g transform="translate(301.651351 69.057925) scale(0.12 -0.12)">
     <defs>
      <path id="DejaVuSans-36" d="M 2113 2584 
Q 1688 2584 1439 2293 
Q 1191 2003 1191 1497 
Q 1191 994 1439 701 
Q 1688 409 2113 409 
Q 2538 409 2786 701 
Q 3034 994 3034 1497 
Q 3034 2003 2786 2293 
Q 2538 2584 2113 2584 
z
M 3366 4563 
L 3366 3988 
Q 3128 4100 2886 4159 
Q 2644 4219 2406 4219 
Q 1781 4219 1451 3797 
Q 1122 3375 1075 2522 
Q 1259 2794 1537 2939 
Q 1816 3084 2150 3084 
Q 2853 3084 3261 2657 
Q 3669 2231 3669 1497 
Q 3669 778 3244 343 
Q 2819 -91 2113 -91 
Q 1303 -91 875 529 
Q 447 1150 447 2328 
Q 447 3434 972 4092 
Q 1497 4750 2381 4750 
Q 2619 4750 2861 4703 
Q 3103 4656 3366 4563 
z
" transform="scale(0.015625)"/>
     </defs>
     <use xlink:href="#DejaVuSans-Oblique-52" transform="translate(0 0.765625)"/>
     <use xlink:href="#DejaVuSans-32" transform="translate(76.499193 39.046875) scale(0.7)"/>
     <use xlink:href="#DejaVuSans-20" transform="translate(123.769701 0.765625)"/>
     <use xlink:href="#DejaVuSans-3d" transform="translate(155.55681 0.765625)"/>
     <use xlink:href="#DejaVuSans-20" transform="translate(239.345872 0.765625)"/>
     <use xlink:href="#DejaVuSans-30" transform="translate(271.132982 0.765625)"/>
     <use xlink:href="#DejaVuSans-2e" transform="translate(334.756029 0.765625)"/>
     <use xlink:href="#DejaVuSans-32" transform="translate(361.043138 0.765625)"/>
     <use xlink:href="#DejaVuSans-36" transform="translate(424.666185 0.765625)"/>
    </g>
    <!-- RMSE = 4.84 -->
    <g transform="translate(301.651351 82.4953) scale(0.12 -0.12)">
     <defs>
      <path id="DejaVuSans-38" d="M 2034 2216 
Q 1584 2216 1326 1975 
Q 1069 1734 1069 1313 
Q 1069 891 1326 650 
Q 1584 409 2034 409 
Q 2484 409 2743 651 
Q 3003 894 3003 1313 
Q 3003 1734 2745 1975 
Q 2488 2216 2034 2216 
z
M 1403 2484 
Q 997 2584 770 2862 
Q 544 3141 544 3541 
Q 544 4100 942 4425 
Q 1341 4750 2034 4750 
Q 2731 4750 3128 4425 
Q 3525 4100 3525 3541 
Q 3525 3141 3298 2862 
Q 3072 2584 2669 2484 
Q 3125 2378 3379 2068 
Q 3634 1759 3634 1313 
Q 3634 634 3220 271 
Q 2806 -91 2034 -91 
Q 1263 -91 848 271 
Q 434 634 434 1313 
Q 434 1759 690 2068 
Q 947 2378 1403 2484 
z
M 1172 3481 
Q 1172 3119 1398 2916 
Q 1625 2713 2034 2713 
Q 2441 2713 2670 2916 
Q 2900 3119 2900 3481 
Q 2900 3844 2670 4047 
Q 2441 4250 2034 4250 
Q 1625 4250 1398 4047 
Q 1172 3844 1172 3481 
z
" transform="scale(0.015625)"/>
     </defs>
     <use xlink:href="#DejaVuSans-52"/>
     <use xlink:href="#DejaVuSans-4d" x="69.482422"/>
     <use xlink:href="#DejaVuSans-53" x="155.761719"/>
     <use xlink:href="#DejaVuSans-45" x="219.238281"/>
     <use xlink:href="#DejaVuSans-20" x="282.421875"/>
     <use xlink:href="#DejaVuSans-3d" x="314.208984"/>
     <use xlink:href="#DejaVuSans-20" x="397.998047"/>
     <use xlink:href="#DejaVuSans-34" x="429.785156"/>
     <use xlink:href="#DejaVuSans-2e" x="493.408203"/>
     <use xlink:href="#DejaVuSans-38" x="525.195312"/>
     <use xlink:href="#DejaVuSans-34" x="588.818359"/>
    </g>
   </g>
   <g id="text_33">
    <!-- AA/SVR Model (TOME) -->
    <g transform="translate(308.8975 50.369879) scale(0.14 -0.14)">
     <defs>
      <path id="DejaVuSans-2f" d="M 1625 4666 
L 2156 4666 
L 531 -594 
L 0 -594 
L 1625 4666 
z
" transform="scale(0.015625)"/>
      <path id="DejaVuSans-56" d="M 1831 0 
L 50 4666 
L 709 4666 
L 2188 738 
L 3669 4666 
L 4325 4666 
L 2547 0 
L 1831 0 
z
" transform="scale(0.015625)"/>
      <path id="DejaVuSans-6c" d="M 603 4863 
L 1178 4863 
L 1178 0 
L 603 0 
L 603 4863 
z
" transform="scale(0.015625)"/>
     </defs>
     <use xlink:href="#DejaVuSans-41"/>
     <use xlink:href="#DejaVuSans-41" x="71.158203"/>
     <use xlink:href="#DejaVuSans-2f" x="139.566406"/>
     <use xlink:href="#DejaVuSans-53" x="173.257812"/>
     <use xlink:href="#DejaVuSans-56" x="236.734375"/>
     <use xlink:href="#DejaVuSans-52" x="305.142578"/>
     <use xlink:href="#DejaVuSans-20" x="374.625"/>
     <use xlink:href="#DejaVuSans-4d" x="406.412109"/>
     <use xlink:href="#DejaVuSans-6f" x="492.691406"/>
     <use xlink:href="#DejaVuSans-64" x="553.873047"/>
     <use xlink:href="#DejaVuSans-65" x="617.349609"/>
     <use xlink:href="#DejaVuSans-6c" x="678.873047"/>
     <use xlink:href="#DejaVuSans-20" x="706.65625"/>
     <use xlink:href="#DejaVuSans-28" x="738.443359"/>
     <use xlink:href="#DejaVuSans-54" x="777.457031"/>
     <use xlink:href="#DejaVuSans-4f" x="838.541016"/>
     <use xlink:href="#DejaVuSans-4d" x="917.251953"/>
     <use xlink:href="#DejaVuSans-45" x="1003.53125"/>
     <use xlink:href="#DejaVuSans-29" x="1066.714844"/>
    </g>
   </g>
  </g>
  <g id="axes_3">
   <g id="patch_8">
    <path d="M 540.127027 222.689879 
L 721.1 222.689879 
L 721.1 56.369879 
L 540.127027 56.369879 
z
" style="fill: #ffffff"/>
   </g>
   <g id="PolyCollection_3">
    <defs>
     <path id="mdc999c1bf7" d="M 586.82973 -116.981472 
L 586.82973 -63.329859 
L 588.009091 -64.41373 
L 589.188452 -65.497601 
L 590.367813 -66.581472 
L 591.547174 -67.665343 
L 592.726536 -68.749214 
L 593.905897 -69.833085 
L 595.085258 -70.916956 
L 596.264619 -72.000827 
L 597.44398 -73.084698 
L 598.623342 -74.168569 
L 599.802703 -75.25244 
L 600.982064 -76.33631 
L 602.161425 -77.420181 
L 603.340786 -78.504052 
L 604.520147 -79.587923 
L 605.699509 -80.671794 
L 606.87887 -81.755665 
L 608.058231 -82.839536 
L 609.237592 -83.923407 
L 610.416953 -85.007278 
L 611.596314 -86.091149 
L 612.775676 -87.17502 
L 613.955037 -88.258891 
L 615.134398 -89.342762 
L 616.313759 -90.426633 
L 617.49312 -91.510504 
L 618.672482 -92.594375 
L 619.851843 -93.678246 
L 621.031204 -94.762117 
L 622.210565 -95.845988 
L 623.389926 -96.929859 
L 624.569287 -98.01373 
L 625.748649 -99.097601 
L 626.92801 -100.181472 
L 628.107371 -101.265343 
L 629.286732 -102.349214 
L 630.466093 -103.433085 
L 631.645455 -104.516956 
L 632.824816 -105.600827 
L 634.004177 -106.684698 
L 635.183538 -107.768569 
L 636.362899 -108.85244 
L 637.54226 -109.93631 
L 638.721622 -111.020181 
L 639.900983 -112.104052 
L 641.080344 -113.187923 
L 642.259705 -114.271794 
L 643.439066 -115.355665 
L 644.618428 -116.439536 
L 645.797789 -117.523407 
L 646.97715 -118.607278 
L 648.156511 -119.691149 
L 649.335872 -120.77502 
L 650.515233 -121.858891 
L 651.694595 -122.942762 
L 652.873956 -124.026633 
L 654.053317 -125.110504 
L 655.232678 -126.194375 
L 656.412039 -127.278246 
L 657.5914 -128.362117 
L 658.770762 -129.445988 
L 659.950123 -130.529859 
L 661.129484 -131.61373 
L 662.308845 -132.697601 
L 663.488206 -133.781472 
L 664.667568 -134.865343 
L 665.846929 -135.949214 
L 667.02629 -137.033085 
L 668.205651 -138.116956 
L 669.385012 -139.200827 
L 670.564373 -140.284698 
L 671.743735 -141.368569 
L 672.923096 -142.45244 
L 674.102457 -143.53631 
L 675.281818 -144.620181 
L 676.461179 -145.704052 
L 677.640541 -146.787923 
L 678.819902 -147.871794 
L 679.999263 -148.955665 
L 681.178624 -150.039536 
L 682.357985 -151.123407 
L 683.537346 -152.207278 
L 684.716708 -153.291149 
L 685.896069 -154.37502 
L 687.07543 -155.458891 
L 688.254791 -156.542762 
L 689.434152 -157.626633 
L 690.613514 -158.710504 
L 691.792875 -159.794375 
L 692.972236 -160.878246 
L 694.151597 -161.962117 
L 695.330958 -163.045988 
L 696.510319 -164.129859 
L 697.689681 -165.21373 
L 698.869042 -166.297601 
L 700.048403 -167.381472 
L 701.227764 -168.465343 
L 702.407125 -169.549214 
L 703.586486 -170.633085 
L 703.586486 -224.284698 
L 703.586486 -224.284698 
L 702.407125 -223.200827 
L 701.227764 -222.116956 
L 700.048403 -221.033085 
L 698.869042 -219.949214 
L 697.689681 -218.865343 
L 696.510319 -217.781472 
L 695.330958 -216.697601 
L 694.151597 -215.61373 
L 692.972236 -214.529859 
L 691.792875 -213.445988 
L 690.613514 -212.362117 
L 689.434152 -211.278246 
L 688.254791 -210.194375 
L 687.07543 -209.110504 
L 685.896069 -208.026633 
L 684.716708 -206.942762 
L 683.537346 -205.858891 
L 682.357985 -204.77502 
L 681.178624 -203.691149 
L 679.999263 -202.607278 
L 678.819902 -201.523407 
L 677.640541 -200.439536 
L 676.461179 -199.355665 
L 675.281818 -198.271794 
L 674.102457 -197.187923 
L 672.923096 -196.104052 
L 671.743735 -195.020181 
L 670.564373 -193.93631 
L 669.385012 -192.85244 
L 668.205651 -191.768569 
L 667.02629 -190.684698 
L 665.846929 -189.600827 
L 664.667568 -188.516956 
L 663.488206 -187.433085 
L 662.308845 -186.349214 
L 661.129484 -185.265343 
L 659.950123 -184.181472 
L 658.770762 -183.097601 
L 657.5914 -182.01373 
L 656.412039 -180.929859 
L 655.232678 -179.845988 
L 654.053317 -178.762117 
L 652.873956 -177.678246 
L 651.694595 -176.594375 
L 650.515233 -175.510504 
L 649.335872 -174.426633 
L 648.156511 -173.342762 
L 646.97715 -172.258891 
L 645.797789 -171.17502 
L 644.618428 -170.091149 
L 643.439066 -169.007278 
L 642.259705 -167.923407 
L 641.080344 -166.839536 
L 639.900983 -165.755665 
L 638.721622 -164.671794 
L 637.54226 -163.587923 
L 636.362899 -162.504052 
L 635.183538 -161.420181 
L 634.004177 -160.33631 
L 632.824816 -159.25244 
L 631.645455 -158.168569 
L 630.466093 -157.084698 
L 629.286732 -156.000827 
L 628.107371 -154.916956 
L 626.92801 -153.833085 
L 625.748649 -152.749214 
L 624.569287 -151.665343 
L 623.389926 -150.581472 
L 622.210565 -149.497601 
L 621.031204 -148.41373 
L 619.851843 -147.329859 
L 618.672482 -146.245988 
L 617.49312 -145.162117 
L 616.313759 -144.078246 
L 615.134398 -142.994375 
L 613.955037 -141.910504 
L 612.775676 -140.826633 
L 611.596314 -139.742762 
L 610.416953 -138.658891 
L 609.237592 -137.57502 
L 608.058231 -136.491149 
L 606.87887 -135.407278 
L 605.699509 -134.323407 
L 604.520147 -133.239536 
L 603.340786 -132.155665 
L 602.161425 -131.071794 
L 600.982064 -129.987923 
L 599.802703 -128.904052 
L 598.623342 -127.820181 
L 597.44398 -126.73631 
L 596.264619 -125.65244 
L 595.085258 -124.568569 
L 593.905897 -123.484698 
L 592.726536 -122.400827 
L 591.547174 -121.316956 
L 590.367813 -120.233085 
L 589.188452 -119.149214 
L 588.009091 -118.065343 
L 586.82973 -116.981472 
z
" style="stroke: #d3d3d3"/>
    </defs>
    <g clip-path="url(#p80bf160b69)">
     <use xlink:href="#mdc999c1bf7" x="0" y="269.924254" style="fill: #d3d3d3; stroke: #d3d3d3"/>
    </g>
   </g>
   <g id="PathCollection_3">
    <g clip-path="url(#p80bf160b69)">
     <use xlink:href="#m4871661968" x="620.137289" y="139.422576" style="fill: #1f77b4; stroke: #000000; stroke-width: 0.48"/>
     <use xlink:href="#m4871661968" x="633.253127" y="148.972563" style="fill: #1f77b4; stroke: #000000; stroke-width: 0.48"/>
     <use xlink:href="#m4871661968" x="659.736094" y="78.206085" style="fill: #1f77b4; stroke: #000000; stroke-width: 0.48"/>
     <use xlink:href="#m4871661968" x="643.22901" y="86.68304" style="fill: #1f77b4; stroke: #000000; stroke-width: 0.48"/>
     <use xlink:href="#m4871661968" x="637.43393" y="135.720615" style="fill: #1f77b4; stroke: #000000; stroke-width: 0.48"/>
     <use xlink:href="#m4871661968" x="617.827109" y="144.841389" style="fill: #1f77b4; stroke: #000000; stroke-width: 0.48"/>
     <use xlink:href="#m4871661968" x="631.414261" y="129.014163" style="fill: #1f77b4; stroke: #000000; stroke-width: 0.48"/>
     <use xlink:href="#m4871661968" x="656.51206" y="119.94704" style="fill: #1f77b4; stroke: #000000; stroke-width: 0.48"/>
     <use xlink:href="#m4871661968" x="616.779871" y="159.595582" style="fill: #1f77b4; stroke: #000000; stroke-width: 0.48"/>
     <use xlink:href="#m4871661968" x="625.110877" y="162.063556" style="fill: #1f77b4; stroke: #000000; stroke-width: 0.48"/>
     <use xlink:href="#m4871661968" x="645.663187" y="127.082705" style="fill: #1f77b4; stroke: #000000; stroke-width: 0.48"/>
     <use xlink:href="#m4871661968" x="631.737615" y="149.079866" style="fill: #1f77b4; stroke: #000000; stroke-width: 0.48"/>
     <use xlink:href="#m4871661968" x="639.310588" y="135.506008" style="fill: #1f77b4; stroke: #000000; stroke-width: 0.48"/>
     <use xlink:href="#m4871661968" x="625.97241" y="112.167556" style="fill: #1f77b4; stroke: #000000; stroke-width: 0.48"/>
     <use xlink:href="#m4871661968" x="671.863509" y="89.955789" style="fill: #1f77b4; stroke: #000000; stroke-width: 0.48"/>
     <use xlink:href="#m4871661968" x="624.063272" y="136.203479" style="fill: #1f77b4; stroke: #000000; stroke-width: 0.48"/>
     <use xlink:href="#m4871661968" x="640.476868" y="130.784666" style="fill: #1f77b4; stroke: #000000; stroke-width: 0.48"/>
     <use xlink:href="#m4871661968" x="639.599113" y="124.346473" style="fill: #1f77b4; stroke: #000000; stroke-width: 0.48"/>
     <use xlink:href="#m4871661968" x="650.954195" y="138.24224" style="fill: #1f77b4; stroke: #000000; stroke-width: 0.48"/>
     <use xlink:href="#m4871661968" x="657.934864" y="138.349544" style="fill: #1f77b4; stroke: #000000; stroke-width: 0.48"/>
    </g>
   </g>
   <g id="line2d_27">
    <path d="M 586.82973 179.768589 
L 703.586486 72.465363 
" clip-path="url(#p80bf160b69)" style="fill: none; stroke-dasharray: 5.55,2.4; stroke-dashoffset: 0; stroke: #000000; stroke-width: 1.5"/>
   </g>
   <g id="matplotlib.axis_5">
    <g id="xtick_13">
     <g id="line2d_28">
      <g>
       <use xlink:href="#m1256aaa792" x="557.640541" y="222.689879" style="stroke: #000000; stroke-width: 0.8"/>
      </g>
     </g>
     <g id="text_34">
      <!-- 20 -->
      <g transform="translate(548.733041 240.327692) scale(0.14 -0.14)">
       <use xlink:href="#DejaVuSans-32"/>
       <use xlink:href="#DejaVuSans-30" x="63.623047"/>
      </g>
     </g>
    </g>
    <g id="xtick_14">
     <g id="line2d_29">
      <g>
       <use xlink:href="#m1256aaa792" x="586.82973" y="222.689879" style="stroke: #000000; stroke-width: 0.8"/>
      </g>
     </g>
     <g id="text_35">
      <!-- 25 -->
      <g transform="translate(577.92223 240.327692) scale(0.14 -0.14)">
       <use xlink:href="#DejaVuSans-32"/>
       <use xlink:href="#DejaVuSans-35" x="63.623047"/>
      </g>
     </g>
    </g>
    <g id="xtick_15">
     <g id="line2d_30">
      <g>
       <use xlink:href="#m1256aaa792" x="616.018919" y="222.689879" style="stroke: #000000; stroke-width: 0.8"/>
      </g>
     </g>
     <g id="text_36">
      <!-- 30 -->
      <g transform="translate(607.111419 240.327692) scale(0.14 -0.14)">
       <use xlink:href="#DejaVuSans-33"/>
       <use xlink:href="#DejaVuSans-30" x="63.623047"/>
      </g>
     </g>
    </g>
    <g id="xtick_16">
     <g id="line2d_31">
      <g>
       <use xlink:href="#m1256aaa792" x="645.208108" y="222.689879" style="stroke: #000000; stroke-width: 0.8"/>
      </g>
     </g>
     <g id="text_37">
      <!-- 35 -->
      <g transform="translate(636.300608 240.327692) scale(0.14 -0.14)">
       <use xlink:href="#DejaVuSans-33"/>
       <use xlink:href="#DejaVuSans-35" x="63.623047"/>
      </g>
     </g>
    </g>
    <g id="xtick_17">
     <g id="line2d_32">
      <g>
       <use xlink:href="#m1256aaa792" x="674.397297" y="222.689879" style="stroke: #000000; stroke-width: 0.8"/>
      </g>
     </g>
     <g id="text_38">
      <!-- 40 -->
      <g transform="translate(665.489797 240.327692) scale(0.14 -0.14)">
       <use xlink:href="#DejaVuSans-34"/>
       <use xlink:href="#DejaVuSans-30" x="63.623047"/>
      </g>
     </g>
    </g>
    <g id="xtick_18">
     <g id="line2d_33">
      <g>
       <use xlink:href="#m1256aaa792" x="703.586486" y="222.689879" style="stroke: #000000; stroke-width: 0.8"/>
      </g>
     </g>
     <g id="text_39">
      <!-- 45 -->
      <g transform="translate(694.678986 240.327692) scale(0.14 -0.14)">
       <use xlink:href="#DejaVuSans-34"/>
       <use xlink:href="#DejaVuSans-35" x="63.623047"/>
      </g>
     </g>
    </g>
    <g id="text_40">
     <!-- ROSEATE OGT (°C) -->
     <g transform="translate(555.823514 259.396754) scale(0.16 -0.16)">
      <use xlink:href="#DejaVuSans-52"/>
      <use xlink:href="#DejaVuSans-4f" x="69.482422"/>
      <use xlink:href="#DejaVuSans-53" x="148.193359"/>
      <use xlink:href="#DejaVuSans-45" x="211.669922"/>
      <use xlink:href="#DejaVuSans-41" x="274.853516"/>
      <use xlink:href="#DejaVuSans-54" x="335.511719"/>
      <use xlink:href="#DejaVuSans-45" x="396.595703"/>
      <use xlink:href="#DejaVuSans-20" x="459.779297"/>
      <use xlink:href="#DejaVuSans-4f" x="491.566406"/>
      <use xlink:href="#DejaVuSans-47" x="570.277344"/>
      <use xlink:href="#DejaVuSans-54" x="644.142578"/>
      <use xlink:href="#DejaVuSans-20" x="705.226562"/>
      <use xlink:href="#DejaVuSans-28" x="737.013672"/>
      <use xlink:href="#DejaVuSans-b0" x="776.027344"/>
      <use xlink:href="#DejaVuSans-43" x="826.027344"/>
      <use xlink:href="#DejaVuSans-29" x="895.851562"/>
     </g>
    </g>
   </g>
   <g id="matplotlib.axis_6">
    <g id="ytick_13">
     <g id="line2d_34">
      <g>
       <use xlink:href="#m51628f5898" x="540.127027" y="206.594395" style="stroke: #000000; stroke-width: 0.8"/>
      </g>
     </g>
     <g id="text_41">
      <!-- 20 -->
      <g transform="translate(515.312027 211.913301) scale(0.14 -0.14)">
       <use xlink:href="#DejaVuSans-32"/>
       <use xlink:href="#DejaVuSans-30" x="63.623047"/>
      </g>
     </g>
    </g>
    <g id="ytick_14">
     <g id="line2d_35">
      <g>
       <use xlink:href="#m51628f5898" x="540.127027" y="179.768589" style="stroke: #000000; stroke-width: 0.8"/>
      </g>
     </g>
     <g id="text_42">
      <!-- 25 -->
      <g transform="translate(515.312027 185.087495) scale(0.14 -0.14)">
       <use xlink:href="#DejaVuSans-32"/>
       <use xlink:href="#DejaVuSans-35" x="63.623047"/>
      </g>
     </g>
    </g>
    <g id="ytick_15">
     <g id="line2d_36">
      <g>
       <use xlink:href="#m51628f5898" x="540.127027" y="152.942782" style="stroke: #000000; stroke-width: 0.8"/>
      </g>
     </g>
     <g id="text_43">
      <!-- 30 -->
      <g transform="translate(515.312027 158.261689) scale(0.14 -0.14)">
       <use xlink:href="#DejaVuSans-33"/>
       <use xlink:href="#DejaVuSans-30" x="63.623047"/>
      </g>
     </g>
    </g>
    <g id="ytick_16">
     <g id="line2d_37">
      <g>
       <use xlink:href="#m51628f5898" x="540.127027" y="126.116976" style="stroke: #000000; stroke-width: 0.8"/>
      </g>
     </g>
     <g id="text_44">
      <!-- 35 -->
      <g transform="translate(515.312027 131.435882) scale(0.14 -0.14)">
       <use xlink:href="#DejaVuSans-33"/>
       <use xlink:href="#DejaVuSans-35" x="63.623047"/>
      </g>
     </g>
    </g>
    <g id="ytick_17">
     <g id="line2d_38">
      <g>
       <use xlink:href="#m51628f5898" x="540.127027" y="99.291169" style="stroke: #000000; stroke-width: 0.8"/>
      </g>
     </g>
     <g id="text_45">
      <!-- 40 -->
      <g transform="translate(515.312027 104.610076) scale(0.14 -0.14)">
       <use xlink:href="#DejaVuSans-34"/>
       <use xlink:href="#DejaVuSans-30" x="63.623047"/>
      </g>
     </g>
    </g>
    <g id="ytick_18">
     <g id="line2d_39">
      <g>
       <use xlink:href="#m51628f5898" x="540.127027" y="72.465363" style="stroke: #000000; stroke-width: 0.8"/>
      </g>
     </g>
     <g id="text_46">
      <!-- 45 -->
      <g transform="translate(515.312027 77.784269) scale(0.14 -0.14)">
       <use xlink:href="#DejaVuSans-34"/>
       <use xlink:href="#DejaVuSans-35" x="63.623047"/>
      </g>
     </g>
    </g>
    <g id="text_47">
     <!-- TOME OGT (°C) -->
     <g transform="translate(507.984527 200.677379) rotate(-90) scale(0.16 -0.16)">
      <use xlink:href="#DejaVuSans-54"/>
      <use xlink:href="#DejaVuSans-4f" x="61.083984"/>
      <use xlink:href="#DejaVuSans-4d" x="139.794922"/>
      <use xlink:href="#DejaVuSans-45" x="226.074219"/>
      <use xlink:href="#DejaVuSans-20" x="289.257812"/>
      <use xlink:href="#DejaVuSans-4f" x="321.044922"/>
      <use xlink:href="#DejaVuSans-47" x="399.755859"/>
      <use xlink:href="#DejaVuSans-54" x="473.621094"/>
      <use xlink:href="#DejaVuSans-20" x="534.705078"/>
      <use xlink:href="#DejaVuSans-28" x="566.492188"/>
      <use xlink:href="#DejaVuSans-b0" x="605.505859"/>
      <use xlink:href="#DejaVuSans-43" x="655.505859"/>
      <use xlink:href="#DejaVuSans-29" x="725.330078"/>
     </g>
    </g>
   </g>
   <g id="patch_9">
    <path d="M 540.127027 222.689879 
L 540.127027 56.369879 
" style="fill: none; stroke: #000000; stroke-width: 0.8; stroke-linejoin: miter; stroke-linecap: square"/>
   </g>
   <g id="patch_10">
    <path d="M 540.127027 222.689879 
L 721.1 222.689879 
" style="fill: none; stroke: #000000; stroke-width: 0.8; stroke-linejoin: miter; stroke-linecap: square"/>
   </g>
   <g id="text_48">
    <!-- ROSEATE vs. TOME -->
    <g transform="translate(554.158514 50.369879) scale(0.16 -0.16)">
     <defs>
      <path id="DejaVuSans-76" d="M 191 3500 
L 800 3500 
L 1894 563 
L 2988 3500 
L 3597 3500 
L 2284 0 
L 1503 0 
L 191 3500 
z
" transform="scale(0.015625)"/>
     </defs>
     <use xlink:href="#DejaVuSans-52"/>
     <use xlink:href="#DejaVuSans-4f" x="69.482422"/>
     <use xlink:href="#DejaVuSans-53" x="148.193359"/>
     <use xlink:href="#DejaVuSans-45" x="211.669922"/>
     <use xlink:href="#DejaVuSans-41" x="274.853516"/>
     <use xlink:href="#DejaVuSans-54" x="335.511719"/>
     <use xlink:href="#DejaVuSans-45" x="396.595703"/>
     <use xlink:href="#DejaVuSans-20" x="459.779297"/>
     <use xlink:href="#DejaVuSans-76" x="491.566406"/>
     <use xlink:href="#DejaVuSans-73" x="550.746094"/>
     <use xlink:href="#DejaVuSans-2e" x="602.845703"/>
     <use xlink:href="#DejaVuSans-20" x="634.632812"/>
     <use xlink:href="#DejaVuSans-54" x="666.419922"/>
     <use xlink:href="#DejaVuSans-4f" x="727.503906"/>
     <use xlink:href="#DejaVuSans-4d" x="806.214844"/>
     <use xlink:href="#DejaVuSans-45" x="892.494141"/>
    </g>
   </g>
  </g>
 </g>
 <defs>
  <clipPath id="p1cb593b4c2">
   <rect x="51.5" y="56.369879" width="180.972973" height="166.32"/>
  </clipPath>
  <clipPath id="p1f52d84e7a">
   <rect x="295.813514" y="56.369879" width="180.972973" height="166.32"/>
  </clipPath>
  <clipPath id="p80bf160b69">
   <rect x="540.127027" y="56.369879" width="180.972973" height="166.32"/>
  </clipPath>
 </defs>
</svg>
