<?xml version="1.0" encoding="utf-8" standalone="no"?>
<!DOCTYPE svg PUBLIC "-//W3C//DTD SVG 1.1//EN"
  "http://www.w3.org/Graphics/SVG/1.1/DTD/svg11.dtd">
<svg xmlns:xlink="http://www.w3.org/1999/xlink" width="432pt" height="72pt" viewBox="0 0 432 72" xmlns="http://www.w3.org/2000/svg" version="1.1">
 <metadata>
  <rdf:RDF xmlns:dc="http://purl.org/dc/elements/1.1/" xmlns:cc="http://creativecommons.org/ns#" xmlns:rdf="http://www.w3.org/1999/02/22-rdf-syntax-ns#">
   <cc:Work>
    <dc:type rdf:resource="http://purl.org/dc/dcmitype/StillImage"/>
    <dc:date>2026-06-08T19:30:51.788878</dc:date>
    <dc:format>image/svg+xml</dc:format>
    <dc:creator>
     <cc:Agent>
      <dc:title>Matplotlib v3.8.2, https://matplotlib.org/</dc:title>
     </cc:Agent>
    </dc:creator>
   </cc:Work>
  </rdf:RDF>
 </metadata>
 <defs>
  <style type="text/css">*{stroke-linejoin: round; stroke-linecap: butt}</style>
 </defs>
 <g id="figure_1">
  <g id="patch_1">
   <path d="M 0 72 
L 432 72 
L 432 0 
L 0 0 
z
" style="fill: #ffffff"/>
  </g>
  <g id="axes_1">
   <g id="patch_2">
    <path d="M 54 64.08 
L 282.272727 64.08 
L 282.272727 8.64 
L 54 8.64 
z
" style="fill: #ffffff"/>
   </g>
   <g id="patch_3">
    <path d="M 64.376033 64.08 
L 69.56405 64.08 
L 69.56405 63.909799 
L 64.376033 63.909799 
z
" clip-path="url(#p596f1edfbb)" style="fill: #696969; fill-opacity: 0.75; stroke: #000000; stroke-width: 0.518802; stroke-linejoin: miter"/>
   </g>
   <g id="patch_4">
    <path d="M 69.56405 64.08 
L 74.752066 64.08 
L 74.752066 64.023266 
L 69.56405 64.023266 
z
" clip-path="url(#p596f1edfbb)" style="fill: #696969; fill-opacity: 0.75; stroke: #000000; stroke-width: 0.518802; stroke-linejoin: miter"/>
   </g>
   <g id="patch_5">
    <path d="M 74.752066 64.08 
L 79.940083 64.08 
L 79.940083 64.042178 
L 74.752066 64.042178 
z
" clip-path="url(#p596f1edfbb)" style="fill: #696969; fill-opacity: 0.75; stroke: #000000; stroke-width: 0.518802; stroke-linejoin: miter"/>
   </g>
   <g id="patch_6">
    <path d="M 79.940083 64.08 
L 85.128099 64.08 
L 85.128099 63.626132 
L 79.940083 63.626132 
z
" clip-path="url(#p596f1edfbb)" style="fill: #696969; fill-opacity: 0.75; stroke: #000000; stroke-width: 0.518802; stroke-linejoin: miter"/>
   </g>
   <g id="patch_7">
    <path d="M 85.128099 64.08 
L 90.316116 64.08 
L 90.316116 63.966533 
L 85.128099 63.966533 
z
" clip-path="url(#p596f1edfbb)" style="fill: #696969; fill-opacity: 0.75; stroke: #000000; stroke-width: 0.518802; stroke-linejoin: miter"/>
   </g>
   <g id="patch_8">
    <path d="M 90.316116 64.08 
L 95.504132 64.08 
L 95.504132 62.718395 
L 90.316116 62.718395 
z
" clip-path="url(#p596f1edfbb)" style="fill: #696969; fill-opacity: 0.75; stroke: #000000; stroke-width: 0.518802; stroke-linejoin: miter"/>
   </g>
   <g id="patch_9">
    <path d="M 95.504132 64.08 
L 100.692149 64.08 
L 100.692149 63.626132 
L 95.504132 63.626132 
z
" clip-path="url(#p596f1edfbb)" style="fill: #696969; fill-opacity: 0.75; stroke: #000000; stroke-width: 0.518802; stroke-linejoin: miter"/>
   </g>
   <g id="patch_10">
    <path d="M 100.692149 64.08 
L 105.880165 64.08 
L 105.880165 63.777421 
L 100.692149 63.777421 
z
" clip-path="url(#p596f1edfbb)" style="fill: #696969; fill-opacity: 0.75; stroke: #000000; stroke-width: 0.518802; stroke-linejoin: miter"/>
   </g>
   <g id="patch_11">
    <path d="M 105.880165 64.08 
L 111.068182 64.08 
L 111.068182 59.57914 
L 105.880165 59.57914 
z
" clip-path="url(#p596f1edfbb)" style="fill: #696969; fill-opacity: 0.75; stroke: #000000; stroke-width: 0.518802; stroke-linejoin: miter"/>
   </g>
   <g id="patch_12">
    <path d="M 111.068182 64.08 
L 116.256198 64.08 
L 116.256198 62.869685 
L 111.068182 62.869685 
z
" clip-path="url(#p596f1edfbb)" style="fill: #696969; fill-opacity: 0.75; stroke: #000000; stroke-width: 0.518802; stroke-linejoin: miter"/>
   </g>
   <g id="patch_13">
    <path d="M 116.256198 64.08 
L 121.444215 64.08 
L 121.444215 63.020974 
L 116.256198 63.020974 
z
" clip-path="url(#p596f1edfbb)" style="fill: #696969; fill-opacity: 0.75; stroke: #000000; stroke-width: 0.518802; stroke-linejoin: miter"/>
   </g>
   <g id="patch_14">
    <path d="M 121.444215 64.08 
L 126.632231 64.08 
L 126.632231 46.435874 
L 121.444215 46.435874 
z
" clip-path="url(#p596f1edfbb)" style="fill: #696969; fill-opacity: 0.75; stroke: #000000; stroke-width: 0.518802; stroke-linejoin: miter"/>
   </g>
   <g id="patch_15">
    <path d="M 126.632231 64.08 
L 131.820248 64.08 
L 131.820248 11.28 
L 126.632231 11.28 
z
" clip-path="url(#p596f1edfbb)" style="fill: #696969; fill-opacity: 0.75; stroke: #000000; stroke-width: 0.518802; stroke-linejoin: miter"/>
   </g>
   <g id="patch_16">
    <path d="M 131.820248 64.08 
L 137.008264 64.08 
L 137.008264 14.249054 
L 131.820248 14.249054 
z
" clip-path="url(#p596f1edfbb)" style="fill: #696969; fill-opacity: 0.75; stroke: #000000; stroke-width: 0.518802; stroke-linejoin: miter"/>
   </g>
   <g id="patch_17">
    <path d="M 137.008264 64.08 
L 142.196281 64.08 
L 142.196281 61.318968 
L 137.008264 61.318968 
z
" clip-path="url(#p596f1edfbb)" style="fill: #696969; fill-opacity: 0.75; stroke: #000000; stroke-width: 0.518802; stroke-linejoin: miter"/>
   </g>
   <g id="patch_18">
    <path d="M 142.196281 64.08 
L 147.384298 64.08 
L 147.384298 61.526991 
L 142.196281 61.526991 
z
" clip-path="url(#p596f1edfbb)" style="fill: #696969; fill-opacity: 0.75; stroke: #000000; stroke-width: 0.518802; stroke-linejoin: miter"/>
   </g>
   <g id="patch_19">
    <path d="M 147.384298 64.08 
L 152.572314 64.08 
L 152.572314 60.827278 
L 147.384298 60.827278 
z
" clip-path="url(#p596f1edfbb)" style="fill: #696969; fill-opacity: 0.75; stroke: #000000; stroke-width: 0.518802; stroke-linejoin: miter"/>
   </g>
   <g id="patch_20">
    <path d="M 152.572314 64.08 
L 157.760331 64.08 
L 157.760331 34.900057 
L 152.572314 34.900057 
z
" clip-path="url(#p596f1edfbb)" style="fill: #696969; fill-opacity: 0.75; stroke: #000000; stroke-width: 0.518802; stroke-linejoin: miter"/>
   </g>
   <g id="patch_21">
    <path d="M 157.760331 64.08 
L 162.948347 64.08 
L 162.948347 63.550487 
L 157.760331 63.550487 
z
" clip-path="url(#p596f1edfbb)" style="fill: #696969; fill-opacity: 0.75; stroke: #000000; stroke-width: 0.518802; stroke-linejoin: miter"/>
   </g>
   <g id="patch_22">
    <path d="M 162.948347 64.08 
L 168.136364 64.08 
L 168.136364 63.871977 
L 162.948347 63.871977 
z
" clip-path="url(#p596f1edfbb)" style="fill: #696969; fill-opacity: 0.75; stroke: #000000; stroke-width: 0.518802; stroke-linejoin: miter"/>
   </g>
   <g id="patch_23">
    <path d="M 168.136364 64.08 
L 173.32438 64.08 
L 173.32438 63.834155 
L 168.136364 63.834155 
z
" clip-path="url(#p596f1edfbb)" style="fill: #696969; fill-opacity: 0.75; stroke: #000000; stroke-width: 0.518802; stroke-linejoin: miter"/>
   </g>
   <g id="patch_24">
    <path d="M 173.32438 64.08 
L 178.512397 64.08 
L 178.512397 62.94533 
L 173.32438 62.94533 
z
" clip-path="url(#p596f1edfbb)" style="fill: #696969; fill-opacity: 0.75; stroke: #000000; stroke-width: 0.518802; stroke-linejoin: miter"/>
   </g>
   <g id="patch_25">
    <path d="M 178.512397 64.08 
L 183.700413 64.08 
L 183.700413 63.985444 
L 178.512397 63.985444 
z
" clip-path="url(#p596f1edfbb)" style="fill: #696969; fill-opacity: 0.75; stroke: #000000; stroke-width: 0.518802; stroke-linejoin: miter"/>
   </g>
   <g id="patch_26">
    <path d="M 183.700413 64.08 
L 188.88843 64.08 
L 188.88843 64.004355 
L 183.700413 64.004355 
z
" clip-path="url(#p596f1edfbb)" style="fill: #696969; fill-opacity: 0.75; stroke: #000000; stroke-width: 0.518802; stroke-linejoin: miter"/>
   </g>
   <g id="patch_27">
    <path d="M 188.88843 64.08 
L 194.076446 64.08 
L 194.076446 62.586017 
L 188.88843 62.586017 
z
" clip-path="url(#p596f1edfbb)" style="fill: #696969; fill-opacity: 0.75; stroke: #000000; stroke-width: 0.518802; stroke-linejoin: miter"/>
   </g>
   <g id="patch_28">
    <path d="M 194.076446 64.08 
L 199.264463 64.08 
L 199.264463 63.909799 
L 194.076446 63.909799 
z
" clip-path="url(#p596f1edfbb)" style="fill: #696969; fill-opacity: 0.75; stroke: #000000; stroke-width: 0.518802; stroke-linejoin: miter"/>
   </g>
   <g id="patch_29">
    <path d="M 199.264463 64.08 
L 204.452479 64.08 
L 204.452479 62.415817 
L 199.264463 62.415817 
z
" clip-path="url(#p596f1edfbb)" style="fill: #696969; fill-opacity: 0.75; stroke: #000000; stroke-width: 0.518802; stroke-linejoin: miter"/>
   </g>
   <g id="patch_30">
    <path d="M 204.452479 64.08 
L 209.640496 64.08 
L 209.640496 63.890888 
L 204.452479 63.890888 
z
" clip-path="url(#p596f1edfbb)" style="fill: #696969; fill-opacity: 0.75; stroke: #000000; stroke-width: 0.518802; stroke-linejoin: miter"/>
   </g>
   <g id="patch_31">
    <path d="M 209.640496 64.08 
L 214.828512 64.08 
L 214.828512 64.08 
L 209.640496 64.08 
z
" clip-path="url(#p596f1edfbb)" style="fill: #696969; fill-opacity: 0.75; stroke: #000000; stroke-width: 0.518802; stroke-linejoin: miter"/>
   </g>
   <g id="patch_32">
    <path d="M 214.828512 64.08 
L 220.016529 64.08 
L 220.016529 63.058797 
L 214.828512 63.058797 
z
" clip-path="url(#p596f1edfbb)" style="fill: #696969; fill-opacity: 0.75; stroke: #000000; stroke-width: 0.518802; stroke-linejoin: miter"/>
   </g>
   <g id="patch_33">
    <path d="M 220.016529 64.08 
L 225.204545 64.08 
L 225.204545 63.985444 
L 220.016529 63.985444 
z
" clip-path="url(#p596f1edfbb)" style="fill: #696969; fill-opacity: 0.75; stroke: #000000; stroke-width: 0.518802; stroke-linejoin: miter"/>
   </g>
   <g id="patch_34">
    <path d="M 225.204545 64.08 
L 230.392562 64.08 
L 230.392562 64.023266 
L 225.204545 64.023266 
z
" clip-path="url(#p596f1edfbb)" style="fill: #696969; fill-opacity: 0.75; stroke: #000000; stroke-width: 0.518802; stroke-linejoin: miter"/>
   </g>
   <g id="patch_35">
    <path d="M 230.392562 64.08 
L 235.580579 64.08 
L 235.580579 63.323553 
L 230.392562 63.323553 
z
" clip-path="url(#p596f1edfbb)" style="fill: #696969; fill-opacity: 0.75; stroke: #000000; stroke-width: 0.518802; stroke-linejoin: miter"/>
   </g>
   <g id="patch_36">
    <path d="M 235.580579 64.08 
L 240.768595 64.08 
L 240.768595 63.966533 
L 235.580579 63.966533 
z
" clip-path="url(#p596f1edfbb)" style="fill: #696969; fill-opacity: 0.75; stroke: #000000; stroke-width: 0.518802; stroke-linejoin: miter"/>
   </g>
   <g id="patch_37">
    <path d="M 240.768595 64.08 
L 245.956612 64.08 
L 245.956612 63.399198 
L 240.768595 63.399198 
z
" clip-path="url(#p596f1edfbb)" style="fill: #696969; fill-opacity: 0.75; stroke: #000000; stroke-width: 0.518802; stroke-linejoin: miter"/>
   </g>
   <g id="patch_38">
    <path d="M 245.956612 64.08 
L 251.144628 64.08 
L 251.144628 64.061089 
L 245.956612 64.061089 
z
" clip-path="url(#p596f1edfbb)" style="fill: #696969; fill-opacity: 0.75; stroke: #000000; stroke-width: 0.518802; stroke-linejoin: miter"/>
   </g>
   <g id="patch_39">
    <path d="M 251.144628 64.08 
L 256.332645 64.08 
L 256.332645 64.061089 
L 251.144628 64.061089 
z
" clip-path="url(#p596f1edfbb)" style="fill: #696969; fill-opacity: 0.75; stroke: #000000; stroke-width: 0.518802; stroke-linejoin: miter"/>
   </g>
   <g id="patch_40">
    <path d="M 256.332645 64.08 
L 261.520661 64.08 
L 261.520661 63.871977 
L 256.332645 63.871977 
z
" clip-path="url(#p596f1edfbb)" style="fill: #696969; fill-opacity: 0.75; stroke: #000000; stroke-width: 0.518802; stroke-linejoin: miter"/>
   </g>
   <g id="patch_41">
    <path d="M 261.520661 64.08 
L 266.708678 64.08 
L 266.708678 64.061089 
L 261.520661 64.061089 
z
" clip-path="url(#p596f1edfbb)" style="fill: #696969; fill-opacity: 0.75; stroke: #000000; stroke-width: 0.518802; stroke-linejoin: miter"/>
   </g>
   <g id="patch_42">
    <path d="M 266.708678 64.08 
L 271.896694 64.08 
L 271.896694 63.966533 
L 266.708678 63.966533 
z
" clip-path="url(#p596f1edfbb)" style="fill: #696969; fill-opacity: 0.75; stroke: #000000; stroke-width: 0.518802; stroke-linejoin: miter"/>
   </g>
   <g id="matplotlib.axis_1">
    <g id="xtick_1">
     <g id="line2d_1">
      <defs>
       <path id="mcb74de5ac7" d="M 0 0 
L 0 3.5 
" style="stroke: #000000; stroke-width: 0.8"/>
      </defs>
      <g>
       <use xlink:href="#mcb74de5ac7" x="108.064593" y="64.08" style="stroke: #000000; stroke-width: 0.8"/>
      </g>
     </g>
     <g id="text_1">
      <!-- 20 -->
      <g transform="translate(101.702093 78.678438) scale(0.1 -0.1)">
       <defs>
        <path id="DejaVuSans-32" d="M 1228 531 
L 3431 531 
L 3431 0 
L 469 0 
L 469 531 
Q 828 903 1448 1529 
Q 2069 2156 2228 2338 
Q 2531 2678 2651 2914 
Q 2772 3150 2772 3378 
Q 2772 3750 2511 3984 
Q 2250 4219 1831 4219 
Q 1534 4219 1204 4116 
Q 875 4013 500 3803 
L 500 4441 
Q 881 4594 1212 4672 
Q 1544 4750 1819 4750 
Q 2544 4750 2975 4387 
Q 3406 4025 3406 3419 
Q 3406 3131 3298 2873 
Q 3191 2616 2906 2266 
Q 2828 2175 2409 1742 
Q 1991 1309 1228 531 
z
" transform="scale(0.015625)"/>
        <path id="DejaVuSans-30" d="M 2034 4250 
Q 1547 4250 1301 3770 
Q 1056 3291 1056 2328 
Q 1056 1369 1301 889 
Q 1547 409 2034 409 
Q 2525 409 2770 889 
Q 3016 1369 3016 2328 
Q 3016 3291 2770 3770 
Q 2525 4250 2034 4250 
z
M 2034 4750 
Q 2819 4750 3233 4129 
Q 3647 3509 3647 2328 
Q 3647 1150 3233 529 
Q 2819 -91 2034 -91 
Q 1250 -91 836 529 
Q 422 1150 422 2328 
Q 422 3509 836 4129 
Q 1250 4750 2034 4750 
z
" transform="scale(0.015625)"/>
       </defs>
       <use xlink:href="#DejaVuSans-32"/>
       <use xlink:href="#DejaVuSans-30" x="63.623047"/>
      </g>
     </g>
    </g>
    <g id="xtick_2">
     <g id="line2d_2">
      <g>
       <use xlink:href="#mcb74de5ac7" x="162.675294" y="64.08" style="stroke: #000000; stroke-width: 0.8"/>
      </g>
     </g>
     <g id="text_2">
      <!-- 40 -->
      <g transform="translate(156.312794 78.678438) scale(0.1 -0.1)">
       <defs>
        <path id="DejaVuSans-34" d="M 2419 4116 
L 825 1625 
L 2419 1625 
L 2419 4116 
z
M 2253 4666 
L 3047 4666 
L 3047 1625 
L 3713 1625 
L 3713 1100 
L 3047 1100 
L 3047 0 
L 2419 0 
L 2419 1100 
L 313 1100 
L 313 1709 
L 2253 4666 
z
" transform="scale(0.015625)"/>
       </defs>
       <use xlink:href="#DejaVuSans-34"/>
       <use xlink:href="#DejaVuSans-30" x="63.623047"/>
      </g>
     </g>
    </g>
    <g id="xtick_3">
     <g id="line2d_3">
      <g>
       <use xlink:href="#mcb74de5ac7" x="217.285994" y="64.08" style="stroke: #000000; stroke-width: 0.8"/>
      </g>
     </g>
     <g id="text_3">
      <!-- 60 -->
      <g transform="translate(210.923494 78.678438) scale(0.1 -0.1)">
       <defs>
        <path id="DejaVuSans-36" d="M 2113 2584 
Q 1688 2584 1439 2293 
Q 1191 2003 1191 1497 
Q 1191 994 1439 701 
Q 1688 409 2113 409 
Q 2538 409 2786 701 
Q 3034 994 3034 1497 
Q 3034 2003 2786 2293 
Q 2538 2584 2113 2584 
z
M 3366 4563 
L 3366 3988 
Q 3128 4100 2886 4159 
Q 2644 4219 2406 4219 
Q 1781 4219 1451 3797 
Q 1122 3375 1075 2522 
Q 1259 2794 1537 2939 
Q 1816 3084 2150 3084 
Q 2853 3084 3261 2657 
Q 3669 2231 3669 1497 
Q 3669 778 3244 343 
Q 2819 -91 2113 -91 
Q 1303 -91 875 529 
Q 447 1150 447 2328 
Q 447 3434 972 4092 
Q 1497 4750 2381 4750 
Q 2619 4750 2861 4703 
Q 3103 4656 3366 4563 
z
" transform="scale(0.015625)"/>
       </defs>
       <use xlink:href="#DejaVuSans-36"/>
       <use xlink:href="#DejaVuSans-30" x="63.623047"/>
      </g>
     </g>
    </g>
    <g id="xtick_4">
     <g id="line2d_4">
      <g>
       <use xlink:href="#mcb74de5ac7" x="271.896694" y="64.08" style="stroke: #000000; stroke-width: 0.8"/>
      </g>
     </g>
     <g id="text_4">
      <!-- 80 -->
      <g transform="translate(265.534194 78.678438) scale(0.1 -0.1)">
       <defs>
        <path id="DejaVuSans-38" d="M 2034 2216 
Q 1584 2216 1326 1975 
Q 1069 1734 1069 1313 
Q 1069 891 1326 650 
Q 1584 409 2034 409 
Q 2484 409 2743 651 
Q 3003 894 3003 1313 
Q 3003 1734 2745 1975 
Q 2488 2216 2034 2216 
z
M 1403 2484 
Q 997 2584 770 2862 
Q 544 3141 544 3541 
Q 544 4100 942 4425 
Q 1341 4750 2034 4750 
Q 2731 4750 3128 4425 
Q 3525 4100 3525 3541 
Q 3525 3141 3298 2862 
Q 3072 2584 2669 2484 
Q 3125 2378 3379 2068 
Q 3634 1759 3634 1313 
Q 3634 634 3220 271 
Q 2806 -91 2034 -91 
Q 1263 -91 848 271 
Q 434 634 434 1313 
Q 434 1759 690 2068 
Q 947 2378 1403 2484 
z
M 1172 3481 
Q 1172 3119 1398 2916 
Q 1625 2713 2034 2713 
Q 2441 2713 2670 2916 
Q 2900 3119 2900 3481 
Q 2900 3844 2670 4047 
Q 2441 4250 2034 4250 
Q 1625 4250 1398 4047 
Q 1172 3844 1172 3481 
z
" transform="scale(0.015625)"/>
       </defs>
       <use xlink:href="#DejaVuSans-38"/>
       <use xlink:href="#DejaVuSans-30" x="63.623047"/>
      </g>
     </g>
    </g>
   </g>
   <g id="matplotlib.axis_2">
    <g id="ytick_1">
     <g id="line2d_5">
      <defs>
       <path id="me9a36dbd8f" d="M 0 0 
L -3.5 0 
" style="stroke: #000000; stroke-width: 0.8"/>
      </defs>
      <g>
       <use xlink:href="#me9a36dbd8f" x="54" y="64.08" style="stroke: #000000; stroke-width: 0.8"/>
      </g>
     </g>
     <g id="text_5">
      <!-- 0 -->
      <g transform="translate(40.6375 67.879219) scale(0.1 -0.1)">
       <use xlink:href="#DejaVuSans-30"/>
      </g>
     </g>
    </g>
    <g id="ytick_2">
     <g id="line2d_6">
      <g>
       <use xlink:href="#me9a36dbd8f" x="54" y="26.25765" style="stroke: #000000; stroke-width: 0.8"/>
      </g>
     </g>
     <g id="text_6">
      <!-- 2000 -->
      <g transform="translate(21.55 30.056869) scale(0.1 -0.1)">
       <use xlink:href="#DejaVuSans-32"/>
       <use xlink:href="#DejaVuSans-30" x="63.623047"/>
       <use xlink:href="#DejaVuSans-30" x="127.246094"/>
       <use xlink:href="#DejaVuSans-30" x="190.869141"/>
      </g>
     </g>
    </g>
    <g id="text_7">
     <!-- Count -->
     <g transform="translate(15.470312 51.208438) rotate(-90) scale(0.1 -0.1)">
      <defs>
       <path id="DejaVuSans-43" d="M 4122 4306 
L 4122 3641 
Q 3803 3938 3442 4084 
Q 3081 4231 2675 4231 
Q 1875 4231 1450 3742 
Q 1025 3253 1025 2328 
Q 1025 1406 1450 917 
Q 1875 428 2675 428 
Q 3081 428 3442 575 
Q 3803 722 4122 1019 
L 4122 359 
Q 3791 134 3420 21 
Q 3050 -91 2638 -91 
Q 1578 -91 968 557 
Q 359 1206 359 2328 
Q 359 3453 968 4101 
Q 1578 4750 2638 4750 
Q 3056 4750 3426 4639 
Q 3797 4528 4122 4306 
z
" transform="scale(0.015625)"/>
       <path id="DejaVuSans-6f" d="M 1959 3097 
Q 1497 3097 1228 2736 
Q 959 2375 959 1747 
Q 959 1119 1226 758 
Q 1494 397 1959 397 
Q 2419 397 2687 759 
Q 2956 1122 2956 1747 
Q 2956 2369 2687 2733 
Q 2419 3097 1959 3097 
z
M 1959 3584 
Q 2709 3584 3137 3096 
Q 3566 2609 3566 1747 
Q 3566 888 3137 398 
Q 2709 -91 1959 -91 
Q 1206 -91 779 398 
Q 353 888 353 1747 
Q 353 2609 779 3096 
Q 1206 3584 1959 3584 
z
" transform="scale(0.015625)"/>
       <path id="DejaVuSans-75" d="M 544 1381 
L 544 3500 
L 1119 3500 
L 1119 1403 
Q 1119 906 1312 657 
Q 1506 409 1894 409 
Q 2359 409 2629 706 
Q 2900 1003 2900 1516 
L 2900 3500 
L 3475 3500 
L 3475 0 
L 2900 0 
L 2900 538 
Q 2691 219 2414 64 
Q 2138 -91 1772 -91 
Q 1169 -91 856 284 
Q 544 659 544 1381 
z
M 1991 3584 
L 1991 3584 
z
" transform="scale(0.015625)"/>
       <path id="DejaVuSans-6e" d="M 3513 2113 
L 3513 0 
L 2938 0 
L 2938 2094 
Q 2938 2591 2744 2837 
Q 2550 3084 2163 3084 
Q 1697 3084 1428 2787 
Q 1159 2491 1159 1978 
L 1159 0 
L 581 0 
L 581 3500 
L 1159 3500 
L 1159 2956 
Q 1366 3272 1645 3428 
Q 1925 3584 2291 3584 
Q 2894 3584 3203 3211 
Q 3513 2838 3513 2113 
z
" transform="scale(0.015625)"/>
       <path id="DejaVuSans-74" d="M 1172 4494 
L 1172 3500 
L 2356 3500 
L 2356 3053 
L 1172 3053 
L 1172 1153 
Q 1172 725 1289 603 
Q 1406 481 1766 481 
L 2356 481 
L 2356 0 
L 1766 0 
Q 1100 0 847 248 
Q 594 497 594 1153 
L 594 3053 
L 172 3053 
L 172 3500 
L 594 3500 
L 594 4494 
L 1172 4494 
z
" transform="scale(0.015625)"/>
      </defs>
      <use xlink:href="#DejaVuSans-43"/>
      <use xlink:href="#DejaVuSans-6f" x="69.824219"/>
      <use xlink:href="#DejaVuSans-75" x="131.005859"/>
      <use xlink:href="#DejaVuSans-6e" x="194.384766"/>
      <use xlink:href="#DejaVuSans-74" x="257.763672"/>
     </g>
    </g>
   </g>
   <g id="patch_43">
    <path d="M 54 64.08 
L 54 8.64 
" style="fill: none; stroke: #000000; stroke-width: 0.8; stroke-linejoin: miter; stroke-linecap: square"/>
   </g>
   <g id="patch_44">
    <path d="M 54 64.08 
L 282.272727 64.08 
" style="fill: none; stroke: #000000; stroke-width: 0.8; stroke-linejoin: miter; stroke-linecap: square"/>
   </g>
  </g>
  <g id="axes_2">
   <g id="patch_45">
    <path d="M 312.709091 64.08 
L 388.8 64.08 
L 388.8 8.64 
L 312.709091 8.64 
z
" style="fill: #ffffff"/>
   </g>
   <g id="patch_46">
    <path d="M 316.167769 64.08 
L 330.730622 64.08 
L 330.730622 20.172455 
L 316.167769 20.172455 
z
" clip-path="url(#p90ddce7766)" style="fill: #696969"/>
   </g>
   <g id="patch_47">
    <path d="M 334.371335 64.08 
L 348.934189 64.08 
L 348.934189 29.165769 
L 334.371335 29.165769 
z
" clip-path="url(#p90ddce7766)" style="fill: #696969"/>
   </g>
   <g id="patch_48">
    <path d="M 352.574902 64.08 
L 367.137756 64.08 
L 367.137756 38.310372 
L 352.574902 38.310372 
z
" clip-path="url(#p90ddce7766)" style="fill: #696969"/>
   </g>
   <g id="patch_49">
    <path d="M 370.778469 64.08 
L 385.341322 64.08 
L 385.341322 11.28 
L 370.778469 11.28 
z
" clip-path="url(#p90ddce7766)" style="fill: #696969"/>
   </g>
   <g id="matplotlib.axis_3">
    <g id="xtick_5">
     <g id="line2d_7">
      <g>
       <use xlink:href="#mcb74de5ac7" x="323.449195" y="64.08" style="stroke: #000000; stroke-width: 0.8"/>
      </g>
     </g>
     <g id="text_8">
      <!-- 28 -->
      <g transform="translate(326.760445 86.35) rotate(-90) scale(0.12 -0.12)">
       <use xlink:href="#DejaVuSans-32"/>
       <use xlink:href="#DejaVuSans-38" x="63.623047"/>
      </g>
     </g>
    </g>
    <g id="xtick_6">
     <g id="line2d_8">
      <g>
       <use xlink:href="#mcb74de5ac7" x="341.652762" y="64.08" style="stroke: #000000; stroke-width: 0.8"/>
      </g>
     </g>
     <g id="text_9">
      <!-- 30 -->
      <g transform="translate(344.964012 86.35) rotate(-90) scale(0.12 -0.12)">
       <defs>
        <path id="DejaVuSans-33" d="M 2597 2516 
Q 3050 2419 3304 2112 
Q 3559 1806 3559 1356 
Q 3559 666 3084 287 
Q 2609 -91 1734 -91 
Q 1441 -91 1130 -33 
Q 819 25 488 141 
L 488 750 
Q 750 597 1062 519 
Q 1375 441 1716 441 
Q 2309 441 2620 675 
Q 2931 909 2931 1356 
Q 2931 1769 2642 2001 
Q 2353 2234 1838 2234 
L 1294 2234 
L 1294 2753 
L 1863 2753 
Q 2328 2753 2575 2939 
Q 2822 3125 2822 3475 
Q 2822 3834 2567 4026 
Q 2313 4219 1838 4219 
Q 1578 4219 1281 4162 
Q 984 4106 628 3988 
L 628 4550 
Q 988 4650 1302 4700 
Q 1616 4750 1894 4750 
Q 2613 4750 3031 4423 
Q 3450 4097 3450 3541 
Q 3450 3153 3228 2886 
Q 3006 2619 2597 2516 
z
" transform="scale(0.015625)"/>
       </defs>
       <use xlink:href="#DejaVuSans-33"/>
       <use xlink:href="#DejaVuSans-30" x="63.623047"/>
      </g>
     </g>
    </g>
    <g id="xtick_7">
     <g id="line2d_9">
      <g>
       <use xlink:href="#mcb74de5ac7" x="359.856329" y="64.08" style="stroke: #000000; stroke-width: 0.8"/>
      </g>
     </g>
     <g id="text_10">
      <!-- 37 -->
      <g transform="translate(363.167579 86.35) rotate(-90) scale(0.12 -0.12)">
       <defs>
        <path id="DejaVuSans-37" d="M 525 4666 
L 3525 4666 
L 3525 4397 
L 1831 0 
L 1172 0 
L 2766 4134 
L 525 4134 
L 525 4666 
z
" transform="scale(0.015625)"/>
       </defs>
       <use xlink:href="#DejaVuSans-33"/>
       <use xlink:href="#DejaVuSans-37" x="63.623047"/>
      </g>
     </g>
    </g>
    <g id="xtick_8">
     <g id="line2d_10">
      <g>
       <use xlink:href="#mcb74de5ac7" x="378.059896" y="64.08" style="stroke: #000000; stroke-width: 0.8"/>
      </g>
     </g>
     <g id="text_11">
      <!-- * -->
      <g transform="translate(381.371146 77.08) rotate(-90) scale(0.12 -0.12)">
       <defs>
        <path id="DejaVuSans-2a" d="M 3009 3897 
L 1888 3291 
L 3009 2681 
L 2828 2375 
L 1778 3009 
L 1778 1831 
L 1422 1831 
L 1422 3009 
L 372 2375 
L 191 2681 
L 1313 3291 
L 191 3897 
L 372 4206 
L 1422 3572 
L 1422 4750 
L 1778 4750 
L 1778 3572 
L 2828 4206 
L 3009 3897 
z
" transform="scale(0.015625)"/>
       </defs>
       <use xlink:href="#DejaVuSans-2a"/>
      </g>
     </g>
    </g>
    <g id="text_12">
     <!-- OGT ($^\circ$C) -->
     <g transform="translate(317.714545 100.987813) scale(0.14 -0.14)">
      <defs>
       <path id="DejaVuSans-4f" d="M 2522 4238 
Q 1834 4238 1429 3725 
Q 1025 3213 1025 2328 
Q 1025 1447 1429 934 
Q 1834 422 2522 422 
Q 3209 422 3611 934 
Q 4013 1447 4013 2328 
Q 4013 3213 3611 3725 
Q 3209 4238 2522 4238 
z
M 2522 4750 
Q 3503 4750 4090 4092 
Q 4678 3434 4678 2328 
Q 4678 1225 4090 567 
Q 3503 -91 2522 -91 
Q 1538 -91 948 565 
Q 359 1222 359 2328 
Q 359 3434 948 4092 
Q 1538 4750 2522 4750 
z
" transform="scale(0.015625)"/>
       <path id="DejaVuSans-47" d="M 3809 666 
L 3809 1919 
L 2778 1919 
L 2778 2438 
L 4434 2438 
L 4434 434 
Q 4069 175 3628 42 
Q 3188 -91 2688 -91 
Q 1594 -91 976 548 
Q 359 1188 359 2328 
Q 359 3472 976 4111 
Q 1594 4750 2688 4750 
Q 3144 4750 3555 4637 
Q 3966 4525 4313 4306 
L 4313 3634 
Q 3963 3931 3569 4081 
Q 3175 4231 2741 4231 
Q 1884 4231 1454 3753 
Q 1025 3275 1025 2328 
Q 1025 1384 1454 906 
Q 1884 428 2741 428 
Q 3075 428 3337 486 
Q 3600 544 3809 666 
z
" transform="scale(0.015625)"/>
       <path id="DejaVuSans-54" d="M -19 4666 
L 3928 4666 
L 3928 4134 
L 2272 4134 
L 2272 0 
L 1638 0 
L 1638 4134 
L -19 4134 
L -19 4666 
z
" transform="scale(0.015625)"/>
       <path id="DejaVuSans-20" transform="scale(0.015625)"/>
       <path id="DejaVuSans-28" d="M 1984 4856 
Q 1566 4138 1362 3434 
Q 1159 2731 1159 2009 
Q 1159 1288 1364 580 
Q 1569 -128 1984 -844 
L 1484 -844 
Q 1016 -109 783 600 
Q 550 1309 550 2009 
Q 550 2706 781 3412 
Q 1013 4119 1484 4856 
L 1984 4856 
z
" transform="scale(0.015625)"/>
       <path id="DejaVuSans-2218" d="M 2003 2603 
Q 1753 2603 1581 2429 
Q 1409 2256 1409 2006 
Q 1409 1759 1581 1589 
Q 1753 1419 2003 1419 
Q 2253 1419 2425 1589 
Q 2597 1759 2597 2006 
Q 2597 2253 2423 2428 
Q 2250 2603 2003 2603 
z
M 2003 3006 
Q 2203 3006 2387 2929 
Q 2572 2853 2706 2709 
Q 2850 2569 2922 2390 
Q 2994 2212 2994 2006 
Q 2994 1594 2705 1308 
Q 2416 1022 1997 1022 
Q 1575 1022 1294 1303 
Q 1013 1584 1013 2006 
Q 1013 2425 1300 2715 
Q 1588 3006 2003 3006 
z
" transform="scale(0.015625)"/>
       <path id="DejaVuSans-29" d="M 513 4856 
L 1013 4856 
Q 1481 4119 1714 3412 
Q 1947 2706 1947 2009 
Q 1947 1309 1714 600 
Q 1481 -109 1013 -844 
L 513 -844 
Q 928 -128 1133 580 
Q 1338 1288 1338 2009 
Q 1338 2731 1133 3434 
Q 928 4138 513 4856 
z
" transform="scale(0.015625)"/>
      </defs>
      <use xlink:href="#DejaVuSans-4f" transform="translate(0 0.125)"/>
      <use xlink:href="#DejaVuSans-47" transform="translate(78.710938 0.125)"/>
      <use xlink:href="#DejaVuSans-54" transform="translate(156.201172 0.125)"/>
      <use xlink:href="#DejaVuSans-20" transform="translate(217.285156 0.125)"/>
      <use xlink:href="#DejaVuSans-28" transform="translate(249.072266 0.125)"/>
      <use xlink:href="#DejaVuSans-2218" transform="translate(302.680664 38.40625) scale(0.7)"/>
      <use xlink:href="#DejaVuSans-43" transform="translate(362.871094 0.125)"/>
      <use xlink:href="#DejaVuSans-29" transform="translate(432.695312 0.125)"/>
     </g>
    </g>
   </g>
   <g id="matplotlib.axis_4">
    <g id="ytick_3">
     <g id="line2d_11">
      <g>
       <use xlink:href="#me9a36dbd8f" x="312.709091" y="64.08" style="stroke: #000000; stroke-width: 0.8"/>
      </g>
     </g>
     <g id="text_13">
      <!-- 0 -->
      <g transform="translate(298.074091 68.639062) scale(0.12 -0.12)">
       <use xlink:href="#DejaVuSans-30"/>
      </g>
     </g>
    </g>
    <g id="ytick_4">
     <g id="line2d_12">
      <g>
       <use xlink:href="#me9a36dbd8f" x="312.709091" y="32.033543" style="stroke: #000000; stroke-width: 0.8"/>
      </g>
     </g>
     <g id="text_14">
      <!-- 20 -->
      <g transform="translate(290.439091 36.592606) scale(0.12 -0.12)">
       <use xlink:href="#DejaVuSans-32"/>
       <use xlink:href="#DejaVuSans-30" x="63.623047"/>
      </g>
     </g>
    </g>
   </g>
   <g id="patch_50">
    <path d="M 312.709091 64.08 
L 312.709091 8.64 
" style="fill: none; stroke: #000000; stroke-width: 0.8; stroke-linejoin: miter; stroke-linecap: square"/>
   </g>
   <g id="patch_51">
    <path d="M 312.709091 64.08 
L 388.8 64.08 
" style="fill: none; stroke: #000000; stroke-width: 0.8; stroke-linejoin: miter; stroke-linecap: square"/>
   </g>
  </g>
 </g>
 <defs>
  <clipPath id="p596f1edfbb">
   <rect x="54" y="8.64" width="228.272727" height="55.44"/>
  </clipPath>
  <clipPath id="p90ddce7766">
   <rect x="312.709091" y="8.64" width="76.090909" height="55.44"/>
  </clipPath>
 </defs>
</svg>
