<?xml version="1.0" encoding="utf-8" standalone="no"?>
<!DOCTYPE svg PUBLIC "-//W3C//DTD SVG 1.1//EN"
  "http://www.w3.org/Graphics/SVG/1.1/DTD/svg11.dtd">
<svg xmlns:xlink="http://www.w3.org/1999/xlink" width="614.949358pt" height="239.89425pt" viewBox="0 0 614.949358 239.89425" xmlns="http://www.w3.org/2000/svg" version="1.1">
 <metadata>
  <rdf:RDF xmlns:dc="http://purl.org/dc/elements/1.1/" xmlns:cc="http://creativecommons.org/ns#" xmlns:rdf="http://www.w3.org/1999/02/22-rdf-syntax-ns#">
   <cc:Work>
    <dc:type rdf:resource="http://purl.org/dc/dcmitype/StillImage"/>
    <dc:date>2026-04-23T16:29:00.150148</dc:date>
    <dc:format>image/svg+xml</dc:format>
    <dc:creator>
     <cc:Agent>
      <dc:title>Matplotlib v3.8.2, https://matplotlib.org/</dc:title>
     </cc:Agent>
    </dc:creator>
   </cc:Work>
  </rdf:RDF>
 </metadata>
 <defs>
  <style type="text/css">*{stroke-linejoin: round; stroke-linecap: butt}</style>
 </defs>
 <g id="figure_1">
  <g id="patch_1">
   <path d="M 0 239.89425 
L 614.949358 239.89425 
L 614.949358 -0 
L 0 -0 
z
" style="fill: #ffffff"/>
  </g>
  <g id="axes_1">
   <g id="patch_2">
    <path d="M 57.075845 192.874875 
L 238.048818 192.874875 
L 238.048818 26.554875 
L 57.075845 26.554875 
z
" style="fill: #ffffff"/>
   </g>
   <g id="patch_3">
    <path d="M 75.173142 42900.760152 
L 78.229574 42900.760152 
L 78.229574 142.59943 
L 75.173142 142.59943 
z
" clip-path="url(#p616e5f3306)"/>
   </g>
   <g id="patch_4">
    <path d="M 78.229574 42900.760152 
L 81.286007 42900.760152 
L 81.286007 164.934428 
L 78.229574 164.934428 
z
" clip-path="url(#p616e5f3306)"/>
   </g>
   <g id="patch_5">
    <path d="M 81.286007 42900.760152 
L 84.342439 42900.760152 
L 84.342439 42900.760152 
L 81.286007 42900.760152 
z
" clip-path="url(#p616e5f3306)"/>
   </g>
   <g id="patch_6">
    <path d="M 84.342439 42900.760152 
L 87.398872 42900.760152 
L 87.398872 121.021723 
L 84.342439 121.021723 
z
" clip-path="url(#p616e5f3306)"/>
   </g>
   <g id="patch_7">
    <path d="M 87.398872 42900.760152 
L 90.455304 42900.760152 
L 90.455304 172.456245 
L 87.398872 172.456245 
z
" clip-path="url(#p616e5f3306)"/>
   </g>
   <g id="patch_8">
    <path d="M 90.455304 42900.760152 
L 93.511736 42900.760152 
L 93.511736 149.216136 
L 90.455304 149.216136 
z
" clip-path="url(#p616e5f3306)"/>
   </g>
   <g id="patch_9">
    <path d="M 93.511736 42900.760152 
L 96.568169 42900.760152 
L 96.568169 155.45806 
L 93.511736 155.45806 
z
" clip-path="url(#p616e5f3306)"/>
   </g>
   <g id="patch_10">
    <path d="M 96.568169 42900.760152 
L 99.624601 42900.760152 
L 99.624601 102.255432 
L 96.568169 102.255432 
z
" clip-path="url(#p616e5f3306)"/>
   </g>
   <g id="patch_11">
    <path d="M 99.624601 42900.760152 
L 102.681034 42900.760152 
L 102.681034 136.357506 
L 99.624601 136.357506 
z
" clip-path="url(#p616e5f3306)"/>
   </g>
   <g id="patch_12">
    <path d="M 102.681034 42900.760152 
L 105.737466 42900.760152 
L 105.737466 127.972692 
L 102.681034 127.972692 
z
" clip-path="url(#p616e5f3306)"/>
   </g>
   <g id="patch_13">
    <path d="M 105.737466 42900.760152 
L 108.793899 42900.760152 
L 108.793899 81.945388 
L 105.737466 81.945388 
z
" clip-path="url(#p616e5f3306)"/>
   </g>
   <g id="patch_14">
    <path d="M 108.793899 42900.760152 
L 111.850331 42900.760152 
L 111.850331 99.883984 
L 108.793899 99.883984 
z
" clip-path="url(#p616e5f3306)"/>
   </g>
   <g id="patch_15">
    <path d="M 111.850331 42900.760152 
L 114.906764 42900.760152 
L 114.906764 117.351842 
L 111.850331 117.351842 
z
" clip-path="url(#p616e5f3306)"/>
   </g>
   <g id="patch_16">
    <path d="M 114.906764 42900.760152 
L 117.963196 42900.760152 
L 117.963196 58.316395 
L 114.906764 58.316395 
z
" clip-path="url(#p616e5f3306)"/>
   </g>
   <g id="patch_17">
    <path d="M 117.963196 42900.760152 
L 121.019628 42900.760152 
L 121.019628 85.426665 
L 117.963196 85.426665 
z
" clip-path="url(#p616e5f3306)"/>
   </g>
   <g id="patch_18">
    <path d="M 121.019628 42900.760152 
L 124.076061 42900.760152 
L 124.076061 34.114875 
L 121.019628 34.114875 
z
" clip-path="url(#p616e5f3306)"/>
   </g>
   <g id="patch_19">
    <path d="M 124.076061 42900.760152 
L 127.132493 42900.760152 
L 127.132493 63.574435 
L 124.076061 63.574435 
z
" clip-path="url(#p616e5f3306)"/>
   </g>
   <g id="patch_20">
    <path d="M 127.132493 42900.760152 
L 130.188926 42900.760152 
L 130.188926 37.889956 
L 127.132493 37.889956 
z
" clip-path="url(#p616e5f3306)"/>
   </g>
   <g id="patch_21">
    <path d="M 130.188926 42900.760152 
L 133.245358 42900.760152 
L 133.245358 99.516624 
L 130.188926 99.516624 
z
" clip-path="url(#p616e5f3306)"/>
   </g>
   <g id="patch_22">
    <path d="M 133.245358 42900.760152 
L 136.301791 42900.760152 
L 136.301791 88.471625 
L 133.245358 88.471625 
z
" clip-path="url(#p616e5f3306)"/>
   </g>
   <g id="patch_23">
    <path d="M 136.301791 42900.760152 
L 139.358223 42900.760152 
L 139.358223 92.238904 
L 136.301791 92.238904 
z
" clip-path="url(#p616e5f3306)"/>
   </g>
   <g id="patch_24">
    <path d="M 139.358223 42900.760152 
L 142.414655 42900.760152 
L 142.414655 40.140696 
L 139.358223 40.140696 
z
" clip-path="url(#p616e5f3306)"/>
   </g>
   <g id="patch_25">
    <path d="M 142.414655 42900.760152 
L 145.471088 42900.760152 
L 145.471088 142.59943 
L 142.414655 142.59943 
z
" clip-path="url(#p616e5f3306)"/>
   </g>
   <g id="patch_26">
    <path d="M 145.471088 42900.760152 
L 148.52752 42900.760152 
L 148.52752 120.450876 
L 145.471088 120.450876 
z
" clip-path="url(#p616e5f3306)"/>
   </g>
   <g id="patch_27">
    <path d="M 148.52752 42900.760152 
L 151.583953 42900.760152 
L 151.583953 140.831323 
L 148.52752 140.831323 
z
" clip-path="url(#p616e5f3306)"/>
   </g>
   <g id="patch_28">
    <path d="M 151.583953 42900.760152 
L 154.640385 42900.760152 
L 154.640385 133.880354 
L 151.583953 133.880354 
z
" clip-path="url(#p616e5f3306)"/>
   </g>
   <g id="patch_29">
    <path d="M 154.640385 42900.760152 
L 157.696818 42900.760152 
L 157.696818 106.767617 
L 154.640385 106.767617 
z
" clip-path="url(#p616e5f3306)"/>
   </g>
   <g id="patch_30">
    <path d="M 157.696818 42900.760152 
L 160.75325 42900.760152 
L 160.75325 164.934428 
L 157.696818 164.934428 
z
" clip-path="url(#p616e5f3306)"/>
   </g>
   <g id="patch_31">
    <path d="M 160.75325 42900.760152 
L 163.809682 42900.760152 
L 163.809682 146.738984 
L 160.75325 146.738984 
z
" clip-path="url(#p616e5f3306)"/>
   </g>
   <g id="patch_32">
    <path d="M 163.809682 42900.760152 
L 166.866115 42900.760152 
L 166.866115 185.314875 
L 163.809682 185.314875 
z
" clip-path="url(#p616e5f3306)"/>
   </g>
   <g id="patch_33">
    <path d="M 166.866115 42900.760152 
L 169.922547 42900.760152 
L 169.922547 101.430804 
L 166.866115 101.430804 
z
" clip-path="url(#p616e5f3306)"/>
   </g>
   <g id="patch_34">
    <path d="M 169.922547 42900.760152 
L 172.97898 42900.760152 
L 172.97898 140.831323 
L 169.922547 140.831323 
z
" clip-path="url(#p616e5f3306)"/>
   </g>
   <g id="patch_35">
    <path d="M 172.97898 42900.760152 
L 176.035412 42900.760152 
L 176.035412 159.597614 
L 172.97898 159.597614 
z
" clip-path="url(#p616e5f3306)"/>
   </g>
   <g id="patch_36">
    <path d="M 176.035412 42900.760152 
L 179.091845 42900.760152 
L 179.091845 97.781615 
L 176.035412 97.781615 
z
" clip-path="url(#p616e5f3306)"/>
   </g>
   <g id="patch_37">
    <path d="M 179.091845 42900.760152 
L 182.148277 42900.760152 
L 182.148277 142.59943 
L 179.091845 142.59943 
z
" clip-path="url(#p616e5f3306)"/>
   </g>
   <g id="patch_38">
    <path d="M 182.148277 42900.760152 
L 185.204709 42900.760152 
L 185.204709 42900.760152 
L 182.148277 42900.760152 
z
" clip-path="url(#p616e5f3306)"/>
   </g>
   <g id="patch_39">
    <path d="M 185.204709 42900.760152 
L 188.261142 42900.760152 
L 188.261142 107.875474 
L 185.204709 107.875474 
z
" clip-path="url(#p616e5f3306)"/>
   </g>
   <g id="patch_40">
    <path d="M 188.261142 42900.760152 
L 191.317574 42900.760152 
L 191.317574 185.314875 
L 188.261142 185.314875 
z
" clip-path="url(#p616e5f3306)"/>
   </g>
   <g id="patch_41">
    <path d="M 191.317574 42900.760152 
L 194.374007 42900.760152 
L 194.374007 146.738984 
L 191.317574 146.738984 
z
" clip-path="url(#p616e5f3306)"/>
   </g>
   <g id="patch_42">
    <path d="M 194.374007 42900.760152 
L 197.430439 42900.760152 
L 197.430439 185.314875 
L 194.374007 185.314875 
z
" clip-path="url(#p616e5f3306)"/>
   </g>
   <g id="patch_43">
    <path d="M 197.430439 42900.760152 
L 200.486872 42900.760152 
L 200.486872 112.742615 
L 197.430439 112.742615 
z
" clip-path="url(#p616e5f3306)"/>
   </g>
   <g id="patch_44">
    <path d="M 200.486872 42900.760152 
L 203.543304 42900.760152 
L 203.543304 164.934428 
L 200.486872 164.934428 
z
" clip-path="url(#p616e5f3306)"/>
   </g>
   <g id="patch_45">
    <path d="M 203.543304 42900.760152 
L 206.599736 42900.760152 
L 206.599736 164.934428 
L 203.543304 164.934428 
z
" clip-path="url(#p616e5f3306)"/>
   </g>
   <g id="patch_46">
    <path d="M 206.599736 42900.760152 
L 209.656169 42900.760152 
L 209.656169 115.114062 
L 206.599736 115.114062 
z
" clip-path="url(#p616e5f3306)"/>
   </g>
   <g id="patch_47">
    <path d="M 209.656169 42900.760152 
L 212.712601 42900.760152 
L 212.712601 185.314875 
L 209.656169 185.314875 
z
" clip-path="url(#p616e5f3306)"/>
   </g>
   <g id="patch_48">
    <path d="M 212.712601 42900.760152 
L 215.769034 42900.760152 
L 215.769034 185.314875 
L 212.712601 185.314875 
z
" clip-path="url(#p616e5f3306)"/>
   </g>
   <g id="patch_49">
    <path d="M 215.769034 42900.760152 
L 218.825466 42900.760152 
L 218.825466 136.357506 
L 215.769034 136.357506 
z
" clip-path="url(#p616e5f3306)"/>
   </g>
   <g id="patch_50">
    <path d="M 218.825466 42900.760152 
L 221.881899 42900.760152 
L 221.881899 42900.760152 
L 218.825466 42900.760152 
z
" clip-path="url(#p616e5f3306)"/>
   </g>
   <g id="patch_51">
    <path d="M 221.881899 42900.760152 
L 224.938331 42900.760152 
L 224.938331 185.314875 
L 221.881899 185.314875 
z
" clip-path="url(#p616e5f3306)"/>
   </g>
   <g id="patch_52">
    <path d="M 224.938331 42900.760152 
L 227.994764 42900.760152 
L 227.994764 146.738984 
L 224.938331 146.738984 
z
" clip-path="url(#p616e5f3306)"/>
   </g>
   <g id="matplotlib.axis_1">
    <g id="xtick_1">
     <g id="line2d_1">
      <defs>
       <path id="m0cfd9cbe35" d="M 0 0 
L 0 3.5 
" style="stroke: #000000; stroke-width: 0.8"/>
      </defs>
      <g>
       <use xlink:href="#m0cfd9cbe35" x="67.129899" y="192.874875" style="stroke: #000000; stroke-width: 0.8"/>
      </g>
     </g>
     <g id="text_1">
      <!-- 0 -->
      <g transform="translate(63.312399 208.993) scale(0.12 -0.12)">
       <defs>
        <path id="DejaVuSans-30" d="M 2034 4250 
Q 1547 4250 1301 3770 
Q 1056 3291 1056 2328 
Q 1056 1369 1301 889 
Q 1547 409 2034 409 
Q 2525 409 2770 889 
Q 3016 1369 3016 2328 
Q 3016 3291 2770 3770 
Q 2525 4250 2034 4250 
z
M 2034 4750 
Q 2819 4750 3233 4129 
Q 3647 3509 3647 2328 
Q 3647 1150 3233 529 
Q 2819 -91 2034 -91 
Q 1250 -91 836 529 
Q 422 1150 422 2328 
Q 422 3509 836 4129 
Q 1250 4750 2034 4750 
z
" transform="scale(0.015625)"/>
       </defs>
       <use xlink:href="#DejaVuSans-30"/>
      </g>
     </g>
    </g>
    <g id="xtick_2">
     <g id="line2d_2">
      <g>
       <use xlink:href="#m0cfd9cbe35" x="117.400169" y="192.874875" style="stroke: #000000; stroke-width: 0.8"/>
      </g>
     </g>
     <g id="text_2">
      <!-- 25 -->
      <g transform="translate(109.765169 208.993) scale(0.12 -0.12)">
       <defs>
        <path id="DejaVuSans-32" d="M 1228 531 
L 3431 531 
L 3431 0 
L 469 0 
L 469 531 
Q 828 903 1448 1529 
Q 2069 2156 2228 2338 
Q 2531 2678 2651 2914 
Q 2772 3150 2772 3378 
Q 2772 3750 2511 3984 
Q 2250 4219 1831 4219 
Q 1534 4219 1204 4116 
Q 875 4013 500 3803 
L 500 4441 
Q 881 4594 1212 4672 
Q 1544 4750 1819 4750 
Q 2544 4750 2975 4387 
Q 3406 4025 3406 3419 
Q 3406 3131 3298 2873 
Q 3191 2616 2906 2266 
Q 2828 2175 2409 1742 
Q 1991 1309 1228 531 
z
" transform="scale(0.015625)"/>
        <path id="DejaVuSans-35" d="M 691 4666 
L 3169 4666 
L 3169 4134 
L 1269 4134 
L 1269 2991 
Q 1406 3038 1543 3061 
Q 1681 3084 1819 3084 
Q 2600 3084 3056 2656 
Q 3513 2228 3513 1497 
Q 3513 744 3044 326 
Q 2575 -91 1722 -91 
Q 1428 -91 1123 -41 
Q 819 9 494 109 
L 494 744 
Q 775 591 1075 516 
Q 1375 441 1709 441 
Q 2250 441 2565 725 
Q 2881 1009 2881 1497 
Q 2881 1984 2565 2268 
Q 2250 2553 1709 2553 
Q 1456 2553 1204 2497 
Q 953 2441 691 2322 
L 691 4666 
z
" transform="scale(0.015625)"/>
       </defs>
       <use xlink:href="#DejaVuSans-32"/>
       <use xlink:href="#DejaVuSans-35" x="63.623047"/>
      </g>
     </g>
    </g>
    <g id="xtick_3">
     <g id="line2d_3">
      <g>
       <use xlink:href="#m0cfd9cbe35" x="167.670439" y="192.874875" style="stroke: #000000; stroke-width: 0.8"/>
      </g>
     </g>
     <g id="text_3">
      <!-- 50 -->
      <g transform="translate(160.035439 208.993) scale(0.12 -0.12)">
       <use xlink:href="#DejaVuSans-35"/>
       <use xlink:href="#DejaVuSans-30" x="63.623047"/>
      </g>
     </g>
    </g>
    <g id="xtick_4">
     <g id="line2d_4">
      <g>
       <use xlink:href="#m0cfd9cbe35" x="217.940709" y="192.874875" style="stroke: #000000; stroke-width: 0.8"/>
      </g>
     </g>
     <g id="text_4">
      <!-- 75 -->
      <g transform="translate(210.305709 208.993) scale(0.12 -0.12)">
       <defs>
        <path id="DejaVuSans-37" d="M 525 4666 
L 3525 4666 
L 3525 4397 
L 1831 0 
L 1172 0 
L 2766 4134 
L 525 4134 
L 525 4666 
z
" transform="scale(0.015625)"/>
       </defs>
       <use xlink:href="#DejaVuSans-37"/>
       <use xlink:href="#DejaVuSans-35" x="63.623047"/>
      </g>
     </g>
    </g>
    <g id="text_5">
     <!-- OGT ($^\circ$C) -->
     <g transform="translate(114.522331 226.126438) scale(0.14 -0.14)">
      <defs>
       <path id="DejaVuSans-4f" d="M 2522 4238 
Q 1834 4238 1429 3725 
Q 1025 3213 1025 2328 
Q 1025 1447 1429 934 
Q 1834 422 2522 422 
Q 3209 422 3611 934 
Q 4013 1447 4013 2328 
Q 4013 3213 3611 3725 
Q 3209 4238 2522 4238 
z
M 2522 4750 
Q 3503 4750 4090 4092 
Q 4678 3434 4678 2328 
Q 4678 1225 4090 567 
Q 3503 -91 2522 -91 
Q 1538 -91 948 565 
Q 359 1222 359 2328 
Q 359 3434 948 4092 
Q 1538 4750 2522 4750 
z
" transform="scale(0.015625)"/>
       <path id="DejaVuSans-47" d="M 3809 666 
L 3809 1919 
L 2778 1919 
L 2778 2438 
L 4434 2438 
L 4434 434 
Q 4069 175 3628 42 
Q 3188 -91 2688 -91 
Q 1594 -91 976 548 
Q 359 1188 359 2328 
Q 359 3472 976 4111 
Q 1594 4750 2688 4750 
Q 3144 4750 3555 4637 
Q 3966 4525 4313 4306 
L 4313 3634 
Q 3963 3931 3569 4081 
Q 3175 4231 2741 4231 
Q 1884 4231 1454 3753 
Q 1025 3275 1025 2328 
Q 1025 1384 1454 906 
Q 1884 428 2741 428 
Q 3075 428 3337 486 
Q 3600 544 3809 666 
z
" transform="scale(0.015625)"/>
       <path id="DejaVuSans-54" d="M -19 4666 
L 3928 4666 
L 3928 4134 
L 2272 4134 
L 2272 0 
L 1638 0 
L 1638 4134 
L -19 4134 
L -19 4666 
z
" transform="scale(0.015625)"/>
       <path id="DejaVuSans-20" transform="scale(0.015625)"/>
       <path id="DejaVuSans-28" d="M 1984 4856 
Q 1566 4138 1362 3434 
Q 1159 2731 1159 2009 
Q 1159 1288 1364 580 
Q 1569 -128 1984 -844 
L 1484 -844 
Q 1016 -109 783 600 
Q 550 1309 550 2009 
Q 550 2706 781 3412 
Q 1013 4119 1484 4856 
L 1984 4856 
z
" transform="scale(0.015625)"/>
       <path id="DejaVuSans-2218" d="M 2003 2603 
Q 1753 2603 1581 2429 
Q 1409 2256 1409 2006 
Q 1409 1759 1581 1589 
Q 1753 1419 2003 1419 
Q 2253 1419 2425 1589 
Q 2597 1759 2597 2006 
Q 2597 2253 2423 2428 
Q 2250 2603 2003 2603 
z
M 2003 3006 
Q 2203 3006 2387 2929 
Q 2572 2853 2706 2709 
Q 2850 2569 2922 2390 
Q 2994 2212 2994 2006 
Q 2994 1594 2705 1308 
Q 2416 1022 1997 1022 
Q 1575 1022 1294 1303 
Q 1013 1584 1013 2006 
Q 1013 2425 1300 2715 
Q 1588 3006 2003 3006 
z
" transform="scale(0.015625)"/>
       <path id="DejaVuSans-43" d="M 4122 4306 
L 4122 3641 
Q 3803 3938 3442 4084 
Q 3081 4231 2675 4231 
Q 1875 4231 1450 3742 
Q 1025 3253 1025 2328 
Q 1025 1406 1450 917 
Q 1875 428 2675 428 
Q 3081 428 3442 575 
Q 3803 722 4122 1019 
L 4122 359 
Q 3791 134 3420 21 
Q 3050 -91 2638 -91 
Q 1578 -91 968 557 
Q 359 1206 359 2328 
Q 359 3453 968 4101 
Q 1578 4750 2638 4750 
Q 3056 4750 3426 4639 
Q 3797 4528 4122 4306 
z
" transform="scale(0.015625)"/>
       <path id="DejaVuSans-29" d="M 513 4856 
L 1013 4856 
Q 1481 4119 1714 3412 
Q 1947 2706 1947 2009 
Q 1947 1309 1714 600 
Q 1481 -109 1013 -844 
L 513 -844 
Q 928 -128 1133 580 
Q 1338 1288 1338 2009 
Q 1338 2731 1133 3434 
Q 928 4138 513 4856 
z
" transform="scale(0.015625)"/>
      </defs>
      <use xlink:href="#DejaVuSans-4f" transform="translate(0 0.125)"/>
      <use xlink:href="#DejaVuSans-47" transform="translate(78.710938 0.125)"/>
      <use xlink:href="#DejaVuSans-54" transform="translate(156.201172 0.125)"/>
      <use xlink:href="#DejaVuSans-20" transform="translate(217.285156 0.125)"/>
      <use xlink:href="#DejaVuSans-28" transform="translate(249.072266 0.125)"/>
      <use xlink:href="#DejaVuSans-2218" transform="translate(302.680664 38.40625) scale(0.7)"/>
      <use xlink:href="#DejaVuSans-43" transform="translate(362.871094 0.125)"/>
      <use xlink:href="#DejaVuSans-29" transform="translate(432.695312 0.125)"/>
     </g>
    </g>
   </g>
   <g id="matplotlib.axis_2">
    <g id="ytick_1">
     <g id="line2d_5">
      <defs>
       <path id="mf56d07eb1b" d="M 0 0 
L -3.5 0 
" style="stroke: #000000; stroke-width: 0.8"/>
      </defs>
      <g>
       <use xlink:href="#mf56d07eb1b" x="57.075845" y="185.314875" style="stroke: #000000; stroke-width: 0.8"/>
      </g>
     </g>
     <g id="text_6">
      <!-- $\mathdefault{10^{0}}$ -->
      <g transform="translate(28.955845 189.873938) scale(0.12 -0.12)">
       <defs>
        <path id="DejaVuSans-31" d="M 794 531 
L 1825 531 
L 1825 4091 
L 703 3866 
L 703 4441 
L 1819 4666 
L 2450 4666 
L 2450 531 
L 3481 531 
L 3481 0 
L 794 0 
L 794 531 
z
" transform="scale(0.015625)"/>
       </defs>
       <use xlink:href="#DejaVuSans-31" transform="translate(0 0.765625)"/>
       <use xlink:href="#DejaVuSans-30" transform="translate(63.623047 0.765625)"/>
       <use xlink:href="#DejaVuSans-30" transform="translate(128.203125 39.046875) scale(0.7)"/>
      </g>
     </g>
    </g>
    <g id="ytick_2">
     <g id="line2d_6">
      <g>
       <use xlink:href="#mf56d07eb1b" x="57.075845" y="142.59943" style="stroke: #000000; stroke-width: 0.8"/>
      </g>
     </g>
     <g id="text_7">
      <!-- $\mathdefault{10^{1}}$ -->
      <g transform="translate(28.955845 147.158492) scale(0.12 -0.12)">
       <use xlink:href="#DejaVuSans-31" transform="translate(0 0.684375)"/>
       <use xlink:href="#DejaVuSans-30" transform="translate(63.623047 0.684375)"/>
       <use xlink:href="#DejaVuSans-31" transform="translate(128.203125 38.965625) scale(0.7)"/>
      </g>
     </g>
    </g>
    <g id="ytick_3">
     <g id="line2d_7">
      <g>
       <use xlink:href="#mf56d07eb1b" x="57.075845" y="99.883984" style="stroke: #000000; stroke-width: 0.8"/>
      </g>
     </g>
     <g id="text_8">
      <!-- $\mathdefault{10^{2}}$ -->
      <g transform="translate(28.955845 104.443047) scale(0.12 -0.12)">
       <use xlink:href="#DejaVuSans-31" transform="translate(0 0.765625)"/>
       <use xlink:href="#DejaVuSans-30" transform="translate(63.623047 0.765625)"/>
       <use xlink:href="#DejaVuSans-32" transform="translate(128.203125 39.046875) scale(0.7)"/>
      </g>
     </g>
    </g>
    <g id="ytick_4">
     <g id="line2d_8">
      <g>
       <use xlink:href="#mf56d07eb1b" x="57.075845" y="57.168539" style="stroke: #000000; stroke-width: 0.8"/>
      </g>
     </g>
     <g id="text_9">
      <!-- $\mathdefault{10^{3}}$ -->
      <g transform="translate(28.955845 61.727602) scale(0.12 -0.12)">
       <defs>
        <path id="DejaVuSans-33" d="M 2597 2516 
Q 3050 2419 3304 2112 
Q 3559 1806 3559 1356 
Q 3559 666 3084 287 
Q 2609 -91 1734 -91 
Q 1441 -91 1130 -33 
Q 819 25 488 141 
L 488 750 
Q 750 597 1062 519 
Q 1375 441 1716 441 
Q 2309 441 2620 675 
Q 2931 909 2931 1356 
Q 2931 1769 2642 2001 
Q 2353 2234 1838 2234 
L 1294 2234 
L 1294 2753 
L 1863 2753 
Q 2328 2753 2575 2939 
Q 2822 3125 2822 3475 
Q 2822 3834 2567 4026 
Q 2313 4219 1838 4219 
Q 1578 4219 1281 4162 
Q 984 4106 628 3988 
L 628 4550 
Q 988 4650 1302 4700 
Q 1616 4750 1894 4750 
Q 2613 4750 3031 4423 
Q 3450 4097 3450 3541 
Q 3450 3153 3228 2886 
Q 3006 2619 2597 2516 
z
" transform="scale(0.015625)"/>
       </defs>
       <use xlink:href="#DejaVuSans-31" transform="translate(0 0.765625)"/>
       <use xlink:href="#DejaVuSans-30" transform="translate(63.623047 0.765625)"/>
       <use xlink:href="#DejaVuSans-33" transform="translate(128.203125 39.046875) scale(0.7)"/>
      </g>
     </g>
    </g>
    <g id="ytick_5">
     <g id="line2d_9">
      <defs>
       <path id="mcaf2e7f7e4" d="M 0 0 
L -2 0 
" style="stroke: #000000; stroke-width: 0.6"/>
      </defs>
      <g>
       <use xlink:href="#mcaf2e7f7e4" x="57.075845" y="191.931581" style="stroke: #000000; stroke-width: 0.6"/>
      </g>
     </g>
    </g>
    <g id="ytick_6">
     <g id="line2d_10">
      <g>
       <use xlink:href="#mcaf2e7f7e4" x="57.075845" y="189.454429" style="stroke: #000000; stroke-width: 0.6"/>
      </g>
     </g>
    </g>
    <g id="ytick_7">
     <g id="line2d_11">
      <g>
       <use xlink:href="#mcaf2e7f7e4" x="57.075845" y="187.269427" style="stroke: #000000; stroke-width: 0.6"/>
      </g>
     </g>
    </g>
    <g id="ytick_8">
     <g id="line2d_12">
      <g>
       <use xlink:href="#mcaf2e7f7e4" x="57.075845" y="172.456245" style="stroke: #000000; stroke-width: 0.6"/>
      </g>
     </g>
    </g>
    <g id="ytick_9">
     <g id="line2d_13">
      <g>
       <use xlink:href="#mcaf2e7f7e4" x="57.075845" y="164.934428" style="stroke: #000000; stroke-width: 0.6"/>
      </g>
     </g>
    </g>
    <g id="ytick_10">
     <g id="line2d_14">
      <g>
       <use xlink:href="#mcaf2e7f7e4" x="57.075845" y="159.597614" style="stroke: #000000; stroke-width: 0.6"/>
      </g>
     </g>
    </g>
    <g id="ytick_11">
     <g id="line2d_15">
      <g>
       <use xlink:href="#mcaf2e7f7e4" x="57.075845" y="155.45806" style="stroke: #000000; stroke-width: 0.6"/>
      </g>
     </g>
    </g>
    <g id="ytick_12">
     <g id="line2d_16">
      <g>
       <use xlink:href="#mcaf2e7f7e4" x="57.075845" y="152.075798" style="stroke: #000000; stroke-width: 0.6"/>
      </g>
     </g>
    </g>
    <g id="ytick_13">
     <g id="line2d_17">
      <g>
       <use xlink:href="#mcaf2e7f7e4" x="57.075845" y="149.216136" style="stroke: #000000; stroke-width: 0.6"/>
      </g>
     </g>
    </g>
    <g id="ytick_14">
     <g id="line2d_18">
      <g>
       <use xlink:href="#mcaf2e7f7e4" x="57.075845" y="146.738984" style="stroke: #000000; stroke-width: 0.6"/>
      </g>
     </g>
    </g>
    <g id="ytick_15">
     <g id="line2d_19">
      <g>
       <use xlink:href="#mcaf2e7f7e4" x="57.075845" y="144.553981" style="stroke: #000000; stroke-width: 0.6"/>
      </g>
     </g>
    </g>
    <g id="ytick_16">
     <g id="line2d_20">
      <g>
       <use xlink:href="#mcaf2e7f7e4" x="57.075845" y="129.740799" style="stroke: #000000; stroke-width: 0.6"/>
      </g>
     </g>
    </g>
    <g id="ytick_17">
     <g id="line2d_21">
      <g>
       <use xlink:href="#mcaf2e7f7e4" x="57.075845" y="122.218983" style="stroke: #000000; stroke-width: 0.6"/>
      </g>
     </g>
    </g>
    <g id="ytick_18">
     <g id="line2d_22">
      <g>
       <use xlink:href="#mcaf2e7f7e4" x="57.075845" y="116.882169" style="stroke: #000000; stroke-width: 0.6"/>
      </g>
     </g>
    </g>
    <g id="ytick_19">
     <g id="line2d_23">
      <g>
       <use xlink:href="#mcaf2e7f7e4" x="57.075845" y="112.742615" style="stroke: #000000; stroke-width: 0.6"/>
      </g>
     </g>
    </g>
    <g id="ytick_20">
     <g id="line2d_24">
      <g>
       <use xlink:href="#mcaf2e7f7e4" x="57.075845" y="109.360353" style="stroke: #000000; stroke-width: 0.6"/>
      </g>
     </g>
    </g>
    <g id="ytick_21">
     <g id="line2d_25">
      <g>
       <use xlink:href="#mcaf2e7f7e4" x="57.075845" y="106.500691" style="stroke: #000000; stroke-width: 0.6"/>
      </g>
     </g>
    </g>
    <g id="ytick_22">
     <g id="line2d_26">
      <g>
       <use xlink:href="#mcaf2e7f7e4" x="57.075845" y="104.023539" style="stroke: #000000; stroke-width: 0.6"/>
      </g>
     </g>
    </g>
    <g id="ytick_23">
     <g id="line2d_27">
      <g>
       <use xlink:href="#mcaf2e7f7e4" x="57.075845" y="101.838536" style="stroke: #000000; stroke-width: 0.6"/>
      </g>
     </g>
    </g>
    <g id="ytick_24">
     <g id="line2d_28">
      <g>
       <use xlink:href="#mcaf2e7f7e4" x="57.075845" y="87.025354" style="stroke: #000000; stroke-width: 0.6"/>
      </g>
     </g>
    </g>
    <g id="ytick_25">
     <g id="line2d_29">
      <g>
       <use xlink:href="#mcaf2e7f7e4" x="57.075845" y="79.503538" style="stroke: #000000; stroke-width: 0.6"/>
      </g>
     </g>
    </g>
    <g id="ytick_26">
     <g id="line2d_30">
      <g>
       <use xlink:href="#mcaf2e7f7e4" x="57.075845" y="74.166724" style="stroke: #000000; stroke-width: 0.6"/>
      </g>
     </g>
    </g>
    <g id="ytick_27">
     <g id="line2d_31">
      <g>
       <use xlink:href="#mcaf2e7f7e4" x="57.075845" y="70.027169" style="stroke: #000000; stroke-width: 0.6"/>
      </g>
     </g>
    </g>
    <g id="ytick_28">
     <g id="line2d_32">
      <g>
       <use xlink:href="#mcaf2e7f7e4" x="57.075845" y="66.644907" style="stroke: #000000; stroke-width: 0.6"/>
      </g>
     </g>
    </g>
    <g id="ytick_29">
     <g id="line2d_33">
      <g>
       <use xlink:href="#mcaf2e7f7e4" x="57.075845" y="63.785245" style="stroke: #000000; stroke-width: 0.6"/>
      </g>
     </g>
    </g>
    <g id="ytick_30">
     <g id="line2d_34">
      <g>
       <use xlink:href="#mcaf2e7f7e4" x="57.075845" y="61.308094" style="stroke: #000000; stroke-width: 0.6"/>
      </g>
     </g>
    </g>
    <g id="ytick_31">
     <g id="line2d_35">
      <g>
       <use xlink:href="#mcaf2e7f7e4" x="57.075845" y="59.123091" style="stroke: #000000; stroke-width: 0.6"/>
      </g>
     </g>
    </g>
    <g id="ytick_32">
     <g id="line2d_36">
      <g>
       <use xlink:href="#mcaf2e7f7e4" x="57.075845" y="44.309909" style="stroke: #000000; stroke-width: 0.6"/>
      </g>
     </g>
    </g>
    <g id="ytick_33">
     <g id="line2d_37">
      <g>
       <use xlink:href="#mcaf2e7f7e4" x="57.075845" y="36.788092" style="stroke: #000000; stroke-width: 0.6"/>
      </g>
     </g>
    </g>
    <g id="ytick_34">
     <g id="line2d_38">
      <g>
       <use xlink:href="#mcaf2e7f7e4" x="57.075845" y="31.451279" style="stroke: #000000; stroke-width: 0.6"/>
      </g>
     </g>
    </g>
    <g id="ytick_35">
     <g id="line2d_39">
      <g>
       <use xlink:href="#mcaf2e7f7e4" x="57.075845" y="27.311724" style="stroke: #000000; stroke-width: 0.6"/>
      </g>
     </g>
    </g>
    <g id="text_10">
     <!-- Count -->
     <g transform="translate(22.044282 130.502688) rotate(-90) scale(0.14 -0.14)">
      <defs>
       <path id="DejaVuSans-6f" d="M 1959 3097 
Q 1497 3097 1228 2736 
Q 959 2375 959 1747 
Q 959 1119 1226 758 
Q 1494 397 1959 397 
Q 2419 397 2687 759 
Q 2956 1122 2956 1747 
Q 2956 2369 2687 2733 
Q 2419 3097 1959 3097 
z
M 1959 3584 
Q 2709 3584 3137 3096 
Q 3566 2609 3566 1747 
Q 3566 888 3137 398 
Q 2709 -91 1959 -91 
Q 1206 -91 779 398 
Q 353 888 353 1747 
Q 353 2609 779 3096 
Q 1206 3584 1959 3584 
z
" transform="scale(0.015625)"/>
       <path id="DejaVuSans-75" d="M 544 1381 
L 544 3500 
L 1119 3500 
L 1119 1403 
Q 1119 906 1312 657 
Q 1506 409 1894 409 
Q 2359 409 2629 706 
Q 2900 1003 2900 1516 
L 2900 3500 
L 3475 3500 
L 3475 0 
L 2900 0 
L 2900 538 
Q 2691 219 2414 64 
Q 2138 -91 1772 -91 
Q 1169 -91 856 284 
Q 544 659 544 1381 
z
M 1991 3584 
L 1991 3584 
z
" transform="scale(0.015625)"/>
       <path id="DejaVuSans-6e" d="M 3513 2113 
L 3513 0 
L 2938 0 
L 2938 2094 
Q 2938 2591 2744 2837 
Q 2550 3084 2163 3084 
Q 1697 3084 1428 2787 
Q 1159 2491 1159 1978 
L 1159 0 
L 581 0 
L 581 3500 
L 1159 3500 
L 1159 2956 
Q 1366 3272 1645 3428 
Q 1925 3584 2291 3584 
Q 2894 3584 3203 3211 
Q 3513 2838 3513 2113 
z
" transform="scale(0.015625)"/>
       <path id="DejaVuSans-74" d="M 1172 4494 
L 1172 3500 
L 2356 3500 
L 2356 3053 
L 1172 3053 
L 1172 1153 
Q 1172 725 1289 603 
Q 1406 481 1766 481 
L 2356 481 
L 2356 0 
L 1766 0 
Q 1100 0 847 248 
Q 594 497 594 1153 
L 594 3053 
L 172 3053 
L 172 3500 
L 594 3500 
L 594 4494 
L 1172 4494 
z
" transform="scale(0.015625)"/>
      </defs>
      <use xlink:href="#DejaVuSans-43"/>
      <use xlink:href="#DejaVuSans-6f" x="69.824219"/>
      <use xlink:href="#DejaVuSans-75" x="131.005859"/>
      <use xlink:href="#DejaVuSans-6e" x="194.384766"/>
      <use xlink:href="#DejaVuSans-74" x="257.763672"/>
     </g>
    </g>
   </g>
   <g id="patch_53">
    <path d="M 57.075845 192.874875 
L 57.075845 26.554875 
" style="fill: none; stroke: #000000; stroke-width: 0.8; stroke-linejoin: miter; stroke-linecap: square"/>
   </g>
   <g id="patch_54">
    <path d="M 57.075845 192.874875 
L 238.048818 192.874875 
" style="fill: none; stroke: #000000; stroke-width: 0.8; stroke-linejoin: miter; stroke-linecap: square"/>
   </g>
   <g id="text_11">
    <!-- A -->
    <g transform="translate(7.2 22.396875) scale(0.2 -0.2)">
     <defs>
      <path id="DejaVuSans-41" d="M 2188 4044 
L 1331 1722 
L 3047 1722 
L 2188 4044 
z
M 1831 4666 
L 2547 4666 
L 4325 0 
L 3669 0 
L 3244 1197 
L 1141 1197 
L 716 0 
L 50 0 
L 1831 4666 
z
" transform="scale(0.015625)"/>
     </defs>
     <use xlink:href="#DejaVuSans-41"/>
    </g>
   </g>
  </g>
  <g id="axes_2">
   <g id="patch_55">
    <path d="M 290.832601 192.874875 
L 381.319088 192.874875 
L 381.319088 26.554875 
L 290.832601 26.554875 
z
" style="fill: #ffffff"/>
   </g>
   <g id="patch_56">
    <path d="M 294.945623 192.874875 
L 312.263611 192.874875 
L 312.263611 57.597442 
L 294.945623 57.597442 
z
" clip-path="url(#p192c15ea7d)"/>
   </g>
   <g id="patch_57">
    <path d="M 316.593108 192.874875 
L 333.911096 192.874875 
L 333.911096 78.011961 
L 316.593108 78.011961 
z
" clip-path="url(#p192c15ea7d)"/>
   </g>
   <g id="patch_58">
    <path d="M 338.240593 192.874875 
L 355.558581 192.874875 
L 355.558581 90.427321 
L 338.240593 90.427321 
z
" clip-path="url(#p192c15ea7d)"/>
   </g>
   <g id="patch_59">
    <path d="M 359.888078 192.874875 
L 377.206066 192.874875 
L 377.206066 34.474875 
L 359.888078 34.474875 
z
" clip-path="url(#p192c15ea7d)"/>
   </g>
   <g id="matplotlib.axis_3">
    <g id="xtick_5">
     <g id="line2d_40">
      <g>
       <use xlink:href="#m0cfd9cbe35" x="303.604617" y="192.874875" style="stroke: #000000; stroke-width: 0.8"/>
      </g>
     </g>
     <g id="text_12">
      <!-- 28 -->
      <g transform="translate(306.915867 215.144875) rotate(-90) scale(0.12 -0.12)">
       <defs>
        <path id="DejaVuSans-38" d="M 2034 2216 
Q 1584 2216 1326 1975 
Q 1069 1734 1069 1313 
Q 1069 891 1326 650 
Q 1584 409 2034 409 
Q 2484 409 2743 651 
Q 3003 894 3003 1313 
Q 3003 1734 2745 1975 
Q 2488 2216 2034 2216 
z
M 1403 2484 
Q 997 2584 770 2862 
Q 544 3141 544 3541 
Q 544 4100 942 4425 
Q 1341 4750 2034 4750 
Q 2731 4750 3128 4425 
Q 3525 4100 3525 3541 
Q 3525 3141 3298 2862 
Q 3072 2584 2669 2484 
Q 3125 2378 3379 2068 
Q 3634 1759 3634 1313 
Q 3634 634 3220 271 
Q 2806 -91 2034 -91 
Q 1263 -91 848 271 
Q 434 634 434 1313 
Q 434 1759 690 2068 
Q 947 2378 1403 2484 
z
M 1172 3481 
Q 1172 3119 1398 2916 
Q 1625 2713 2034 2713 
Q 2441 2713 2670 2916 
Q 2900 3119 2900 3481 
Q 2900 3844 2670 4047 
Q 2441 4250 2034 4250 
Q 1625 4250 1398 4047 
Q 1172 3844 1172 3481 
z
" transform="scale(0.015625)"/>
       </defs>
       <use xlink:href="#DejaVuSans-32"/>
       <use xlink:href="#DejaVuSans-38" x="63.623047"/>
      </g>
     </g>
    </g>
    <g id="xtick_6">
     <g id="line2d_41">
      <g>
       <use xlink:href="#m0cfd9cbe35" x="325.252102" y="192.874875" style="stroke: #000000; stroke-width: 0.8"/>
      </g>
     </g>
     <g id="text_13">
      <!-- 30 -->
      <g transform="translate(328.563352 215.144875) rotate(-90) scale(0.12 -0.12)">
       <use xlink:href="#DejaVuSans-33"/>
       <use xlink:href="#DejaVuSans-30" x="63.623047"/>
      </g>
     </g>
    </g>
    <g id="xtick_7">
     <g id="line2d_42">
      <g>
       <use xlink:href="#m0cfd9cbe35" x="346.899587" y="192.874875" style="stroke: #000000; stroke-width: 0.8"/>
      </g>
     </g>
     <g id="text_14">
      <!-- 37 -->
      <g transform="translate(350.210837 215.144875) rotate(-90) scale(0.12 -0.12)">
       <use xlink:href="#DejaVuSans-33"/>
       <use xlink:href="#DejaVuSans-37" x="63.623047"/>
      </g>
     </g>
    </g>
    <g id="xtick_8">
     <g id="line2d_43">
      <g>
       <use xlink:href="#m0cfd9cbe35" x="368.547072" y="192.874875" style="stroke: #000000; stroke-width: 0.8"/>
      </g>
     </g>
     <g id="text_15">
      <!-- * -->
      <g transform="translate(371.858322 205.874875) rotate(-90) scale(0.12 -0.12)">
       <defs>
        <path id="DejaVuSans-2a" d="M 3009 3897 
L 1888 3291 
L 3009 2681 
L 2828 2375 
L 1778 3009 
L 1778 1831 
L 1422 1831 
L 1422 3009 
L 372 2375 
L 191 2681 
L 1313 3291 
L 191 3897 
L 372 4206 
L 1422 3572 
L 1422 4750 
L 1778 4750 
L 1778 3572 
L 2828 4206 
L 3009 3897 
z
" transform="scale(0.015625)"/>
       </defs>
       <use xlink:href="#DejaVuSans-2a"/>
      </g>
     </g>
    </g>
    <g id="text_16">
     <!-- OGT ($^\circ$C) -->
     <g transform="translate(303.035845 229.782688) scale(0.14 -0.14)">
      <use xlink:href="#DejaVuSans-4f" transform="translate(0 0.125)"/>
      <use xlink:href="#DejaVuSans-47" transform="translate(78.710938 0.125)"/>
      <use xlink:href="#DejaVuSans-54" transform="translate(156.201172 0.125)"/>
      <use xlink:href="#DejaVuSans-20" transform="translate(217.285156 0.125)"/>
      <use xlink:href="#DejaVuSans-28" transform="translate(249.072266 0.125)"/>
      <use xlink:href="#DejaVuSans-2218" transform="translate(302.680664 38.40625) scale(0.7)"/>
      <use xlink:href="#DejaVuSans-43" transform="translate(362.871094 0.125)"/>
      <use xlink:href="#DejaVuSans-29" transform="translate(432.695312 0.125)"/>
     </g>
    </g>
   </g>
   <g id="matplotlib.axis_4">
    <g id="ytick_36">
     <g id="line2d_44">
      <g>
       <use xlink:href="#mf56d07eb1b" x="290.832601" y="151.212592" style="stroke: #000000; stroke-width: 0.8"/>
      </g>
     </g>
     <g id="text_17">
      <!-- 1,000 -->
      <g transform="translate(249.478851 155.771654) scale(0.12 -0.12)">
       <defs>
        <path id="DejaVuSans-2c" d="M 750 794 
L 1409 794 
L 1409 256 
L 897 -744 
L 494 -744 
L 750 256 
L 750 794 
z
" transform="scale(0.015625)"/>
       </defs>
       <use xlink:href="#DejaVuSans-31"/>
       <use xlink:href="#DejaVuSans-2c" x="63.623047"/>
       <use xlink:href="#DejaVuSans-30" x="95.410156"/>
       <use xlink:href="#DejaVuSans-30" x="159.033203"/>
       <use xlink:href="#DejaVuSans-30" x="222.65625"/>
      </g>
     </g>
    </g>
    <g id="ytick_37">
     <g id="line2d_45">
      <g>
       <use xlink:href="#mf56d07eb1b" x="290.832601" y="109.550309" style="stroke: #000000; stroke-width: 0.8"/>
      </g>
     </g>
     <g id="text_18">
      <!-- 2,000 -->
      <g transform="translate(249.478851 114.109371) scale(0.12 -0.12)">
       <use xlink:href="#DejaVuSans-32"/>
       <use xlink:href="#DejaVuSans-2c" x="63.623047"/>
       <use xlink:href="#DejaVuSans-30" x="95.410156"/>
       <use xlink:href="#DejaVuSans-30" x="159.033203"/>
       <use xlink:href="#DejaVuSans-30" x="222.65625"/>
      </g>
     </g>
    </g>
    <g id="ytick_38">
     <g id="line2d_46">
      <g>
       <use xlink:href="#mf56d07eb1b" x="290.832601" y="67.888026" style="stroke: #000000; stroke-width: 0.8"/>
      </g>
     </g>
     <g id="text_19">
      <!-- 3,000 -->
      <g transform="translate(249.478851 72.447088) scale(0.12 -0.12)">
       <use xlink:href="#DejaVuSans-33"/>
       <use xlink:href="#DejaVuSans-2c" x="63.623047"/>
       <use xlink:href="#DejaVuSans-30" x="95.410156"/>
       <use xlink:href="#DejaVuSans-30" x="159.033203"/>
       <use xlink:href="#DejaVuSans-30" x="222.65625"/>
      </g>
     </g>
    </g>
    <g id="text_20">
     <!-- Records -->
     <g transform="translate(242.567289 137.548625) rotate(-90) scale(0.14 -0.14)">
      <defs>
       <path id="DejaVuSans-52" d="M 2841 2188 
Q 3044 2119 3236 1894 
Q 3428 1669 3622 1275 
L 4263 0 
L 3584 0 
L 2988 1197 
Q 2756 1666 2539 1819 
Q 2322 1972 1947 1972 
L 1259 1972 
L 1259 0 
L 628 0 
L 628 4666 
L 2053 4666 
Q 2853 4666 3247 4331 
Q 3641 3997 3641 3322 
Q 3641 2881 3436 2590 
Q 3231 2300 2841 2188 
z
M 1259 4147 
L 1259 2491 
L 2053 2491 
Q 2509 2491 2742 2702 
Q 2975 2913 2975 3322 
Q 2975 3731 2742 3939 
Q 2509 4147 2053 4147 
L 1259 4147 
z
" transform="scale(0.015625)"/>
       <path id="DejaVuSans-65" d="M 3597 1894 
L 3597 1613 
L 953 1613 
Q 991 1019 1311 708 
Q 1631 397 2203 397 
Q 2534 397 2845 478 
Q 3156 559 3463 722 
L 3463 178 
Q 3153 47 2828 -22 
Q 2503 -91 2169 -91 
Q 1331 -91 842 396 
Q 353 884 353 1716 
Q 353 2575 817 3079 
Q 1281 3584 2069 3584 
Q 2775 3584 3186 3129 
Q 3597 2675 3597 1894 
z
M 3022 2063 
Q 3016 2534 2758 2815 
Q 2500 3097 2075 3097 
Q 1594 3097 1305 2825 
Q 1016 2553 972 2059 
L 3022 2063 
z
" transform="scale(0.015625)"/>
       <path id="DejaVuSans-63" d="M 3122 3366 
L 3122 2828 
Q 2878 2963 2633 3030 
Q 2388 3097 2138 3097 
Q 1578 3097 1268 2742 
Q 959 2388 959 1747 
Q 959 1106 1268 751 
Q 1578 397 2138 397 
Q 2388 397 2633 464 
Q 2878 531 3122 666 
L 3122 134 
Q 2881 22 2623 -34 
Q 2366 -91 2075 -91 
Q 1284 -91 818 406 
Q 353 903 353 1747 
Q 353 2603 823 3093 
Q 1294 3584 2113 3584 
Q 2378 3584 2631 3529 
Q 2884 3475 3122 3366 
z
" transform="scale(0.015625)"/>
       <path id="DejaVuSans-72" d="M 2631 2963 
Q 2534 3019 2420 3045 
Q 2306 3072 2169 3072 
Q 1681 3072 1420 2755 
Q 1159 2438 1159 1844 
L 1159 0 
L 581 0 
L 581 3500 
L 1159 3500 
L 1159 2956 
Q 1341 3275 1631 3429 
Q 1922 3584 2338 3584 
Q 2397 3584 2469 3576 
Q 2541 3569 2628 3553 
L 2631 2963 
z
" transform="scale(0.015625)"/>
       <path id="DejaVuSans-64" d="M 2906 2969 
L 2906 4863 
L 3481 4863 
L 3481 0 
L 2906 0 
L 2906 525 
Q 2725 213 2448 61 
Q 2172 -91 1784 -91 
Q 1150 -91 751 415 
Q 353 922 353 1747 
Q 353 2572 751 3078 
Q 1150 3584 1784 3584 
Q 2172 3584 2448 3432 
Q 2725 3281 2906 2969 
z
M 947 1747 
Q 947 1113 1208 752 
Q 1469 391 1925 391 
Q 2381 391 2643 752 
Q 2906 1113 2906 1747 
Q 2906 2381 2643 2742 
Q 2381 3103 1925 3103 
Q 1469 3103 1208 2742 
Q 947 2381 947 1747 
z
" transform="scale(0.015625)"/>
       <path id="DejaVuSans-73" d="M 2834 3397 
L 2834 2853 
Q 2591 2978 2328 3040 
Q 2066 3103 1784 3103 
Q 1356 3103 1142 2972 
Q 928 2841 928 2578 
Q 928 2378 1081 2264 
Q 1234 2150 1697 2047 
L 1894 2003 
Q 2506 1872 2764 1633 
Q 3022 1394 3022 966 
Q 3022 478 2636 193 
Q 2250 -91 1575 -91 
Q 1294 -91 989 -36 
Q 684 19 347 128 
L 347 722 
Q 666 556 975 473 
Q 1284 391 1588 391 
Q 1994 391 2212 530 
Q 2431 669 2431 922 
Q 2431 1156 2273 1281 
Q 2116 1406 1581 1522 
L 1381 1569 
Q 847 1681 609 1914 
Q 372 2147 372 2553 
Q 372 3047 722 3315 
Q 1072 3584 1716 3584 
Q 2034 3584 2315 3537 
Q 2597 3491 2834 3397 
z
" transform="scale(0.015625)"/>
      </defs>
      <use xlink:href="#DejaVuSans-52"/>
      <use xlink:href="#DejaVuSans-65" x="64.982422"/>
      <use xlink:href="#DejaVuSans-63" x="126.505859"/>
      <use xlink:href="#DejaVuSans-6f" x="181.486328"/>
      <use xlink:href="#DejaVuSans-72" x="242.667969"/>
      <use xlink:href="#DejaVuSans-64" x="282.03125"/>
      <use xlink:href="#DejaVuSans-73" x="345.507812"/>
     </g>
    </g>
   </g>
   <g id="patch_60">
    <path d="M 290.832601 192.874875 
L 290.832601 26.554875 
" style="fill: none; stroke: #000000; stroke-width: 0.8; stroke-linejoin: miter; stroke-linecap: square"/>
   </g>
   <g id="patch_61">
    <path d="M 290.832601 192.874875 
L 381.319088 192.874875 
" style="fill: none; stroke: #000000; stroke-width: 0.8; stroke-linejoin: miter; stroke-linecap: square"/>
   </g>
   <g id="text_21">
    <!-- B -->
    <g transform="translate(231.867483 22.396875) scale(0.2 -0.2)">
     <defs>
      <path id="DejaVuSans-42" d="M 1259 2228 
L 1259 519 
L 2272 519 
Q 2781 519 3026 730 
Q 3272 941 3272 1375 
Q 3272 1813 3026 2020 
Q 2781 2228 2272 2228 
L 1259 2228 
z
M 1259 4147 
L 1259 2741 
L 2194 2741 
Q 2656 2741 2882 2914 
Q 3109 3088 3109 3444 
Q 3109 3797 2882 3972 
Q 2656 4147 2194 4147 
L 1259 4147 
z
M 628 4666 
L 2241 4666 
Q 2963 4666 3353 4366 
Q 3744 4066 3744 3513 
Q 3744 3084 3544 2831 
Q 3344 2578 2956 2516 
Q 3422 2416 3680 2098 
Q 3938 1781 3938 1306 
Q 3938 681 3513 340 
Q 3088 0 2303 0 
L 628 0 
L 628 4666 
z
" transform="scale(0.015625)"/>
     </defs>
     <use xlink:href="#DejaVuSans-42"/>
    </g>
   </g>
  </g>
  <g id="axes_3">
   <g id="patch_62">
    <path d="M 441.429358 192.874875 
L 607.749358 192.874875 
L 607.749358 26.554875 
L 441.429358 26.554875 
z
" style="fill: #ffffff"/>
   </g>
   <g id="line2d_47">
    <path d="M 448.989358 185.314875 
L 600.189358 34.114875 
" clip-path="url(#pe544b38762)" style="fill: none; stroke: #ff0000; stroke-linecap: square"/>
   </g>
   <g id="PathCollection_1">
    <defs>
     <path id="m49e4de6d1f" d="M 0 1.936492 
C 0.513564 1.936492 1.006162 1.732451 1.369306 1.369306 
C 1.732451 1.006162 1.936492 0.513564 1.936492 0 
C 1.936492 -0.513564 1.732451 -1.006162 1.369306 -1.369306 
C 1.006162 -1.732451 0.513564 -1.936492 0 -1.936492 
C -0.513564 -1.936492 -1.006162 -1.732451 -1.369306 -1.369306 
C -1.732451 -1.006162 -1.936492 -0.513564 -1.936492 0 
C -1.936492 0.513564 -1.732451 1.006162 -1.369306 1.369306 
C -1.006162 1.732451 -0.513564 1.936492 0 1.936492 
z
"/>
    </defs>
    <g clip-path="url(#pe544b38762)">
     <use xlink:href="#m49e4de6d1f" x="555.774358" y="115.384875"/>
     <use xlink:href="#m49e4de6d1f" x="530.320464" y="96.484875"/>
     <use xlink:href="#m49e4de6d1f" x="483.566343" y="147.514875"/>
     <use xlink:href="#m49e4de6d1f" x="505.689358" y="128.614875"/>
     <use xlink:href="#m49e4de6d1f" x="467.302873" y="166.414875"/>
     <use xlink:href="#m49e4de6d1f" x="519.899768" y="115.384875"/>
     <use xlink:href="#m49e4de6d1f" x="543.606798" y="71.914875"/>
     <use xlink:href="#m49e4de6d1f" x="550.772171" y="81.364875"/>
     <use xlink:href="#m49e4de6d1f" x="571.130718" y="34.114875"/>
     <use xlink:href="#m49e4de6d1f" x="576.564358" y="53.014875"/>
     <use xlink:href="#m49e4de6d1f" x="500.792959" y="138.064875"/>
     <use xlink:href="#m49e4de6d1f" x="560.499358" y="81.364875"/>
     <use xlink:href="#m49e4de6d1f" x="552.939358" y="92.704875"/>
     <use xlink:href="#m49e4de6d1f" x="571.839358" y="62.464875"/>
     <use xlink:href="#m49e4de6d1f" x="549.159358" y="90.814875"/>
     <use xlink:href="#m49e4de6d1f" x="477.901892" y="136.174875"/>
     <use xlink:href="#m49e4de6d1f" x="562.389358" y="71.914875"/>
     <use xlink:href="#m49e4de6d1f" x="573.57876" y="53.014875"/>
     <use xlink:href="#m49e4de6d1f" x="577.509358" y="56.794875"/>
     <use xlink:href="#m49e4de6d1f" x="582.575797" y="53.014875"/>
     <use xlink:href="#m49e4de6d1f" x="529.178192" y="105.934875"/>
     <use xlink:href="#m49e4de6d1f" x="505.689358" y="132.394875"/>
     <use xlink:href="#m49e4de6d1f" x="575.209203" y="43.564875"/>
     <use xlink:href="#m49e4de6d1f" x="526.866358" y="100.264875"/>
     <use xlink:href="#m49e4de6d1f" x="554.199358" y="62.464875"/>
     <use xlink:href="#m49e4de6d1f" x="556.617832" y="71.914875"/>
     <use xlink:href="#m49e4de6d1f" x="581.177439" y="53.014875"/>
     <use xlink:href="#m49e4de6d1f" x="600.189358" y="58.684875"/>
     <use xlink:href="#m49e4de6d1f" x="464.66923" y="172.084875"/>
     <use xlink:href="#m49e4de6d1f" x="578.489945" y="58.684875"/>
     <use xlink:href="#m49e4de6d1f" x="549.096094" y="90.814875"/>
     <use xlink:href="#m49e4de6d1f" x="548.599602" y="81.364875"/>
     <use xlink:href="#m49e4de6d1f" x="552.939358" y="90.814875"/>
     <use xlink:href="#m49e4de6d1f" x="518.919358" y="115.384875"/>
     <use xlink:href="#m49e4de6d1f" x="590.163725" y="43.564875"/>
     <use xlink:href="#m49e4de6d1f" x="472.614358" y="128.614875"/>
     <use xlink:href="#m49e4de6d1f" x="576.564358" y="62.464875"/>
     <use xlink:href="#m49e4de6d1f" x="518.919358" y="115.384875"/>
     <use xlink:href="#m49e4de6d1f" x="467.297354" y="172.084875"/>
     <use xlink:href="#m49e4de6d1f" x="504.942223" y="119.164875"/>
     <use xlink:href="#m49e4de6d1f" x="571.530435" y="53.014875"/>
     <use xlink:href="#m49e4de6d1f" x="571.839358" y="62.464875"/>
     <use xlink:href="#m49e4de6d1f" x="581.289358" y="53.014875"/>
     <use xlink:href="#m49e4de6d1f" x="517.510775" y="105.934875"/>
     <use xlink:href="#m49e4de6d1f" x="575.911772" y="53.014875"/>
     <use xlink:href="#m49e4de6d1f" x="571.237733" y="90.814875"/>
     <use xlink:href="#m49e4de6d1f" x="577.009894" y="43.564875"/>
     <use xlink:href="#m49e4de6d1f" x="581.280894" y="43.564875"/>
     <use xlink:href="#m49e4de6d1f" x="510.227963" y="115.384875"/>
     <use xlink:href="#m49e4de6d1f" x="500.964358" y="138.064875"/>
     <use xlink:href="#m49e4de6d1f" x="552.779957" y="53.014875"/>
     <use xlink:href="#m49e4de6d1f" x="563.588706" y="53.014875"/>
     <use xlink:href="#m49e4de6d1f" x="533.396374" y="100.264875"/>
     <use xlink:href="#m49e4de6d1f" x="500.214658" y="128.614875"/>
     <use xlink:href="#m49e4de6d1f" x="552.939358" y="81.364875"/>
     <use xlink:href="#m49e4de6d1f" x="505.689358" y="128.614875"/>
     <use xlink:href="#m49e4de6d1f" x="552.939358" y="90.814875"/>
     <use xlink:href="#m49e4de6d1f" x="543.489358" y="90.814875"/>
     <use xlink:href="#m49e4de6d1f" x="581.289358" y="53.014875"/>
     <use xlink:href="#m49e4de6d1f" x="532.397763" y="98.374875"/>
     <use xlink:href="#m49e4de6d1f" x="508.524358" y="128.614875"/>
     <use xlink:href="#m49e4de6d1f" x="543.489358" y="90.814875"/>
     <use xlink:href="#m49e4de6d1f" x="511.595608" y="128.614875"/>
     <use xlink:href="#m49e4de6d1f" x="567.932202" y="62.464875"/>
     <use xlink:href="#m49e4de6d1f" x="515.139358" y="128.614875"/>
     <use xlink:href="#m49e4de6d1f" x="500.964358" y="138.064875"/>
     <use xlink:href="#m49e4de6d1f" x="557.951584" y="71.914875"/>
     <use xlink:href="#m49e4de6d1f" x="478.599358" y="138.064875"/>
     <use xlink:href="#m49e4de6d1f" x="482.064358" y="147.514875"/>
     <use xlink:href="#m49e4de6d1f" x="504.891094" y="115.384875"/>
     <use xlink:href="#m49e4de6d1f" x="510.767517" y="115.384875"/>
     <use xlink:href="#m49e4de6d1f" x="558.904757" y="62.464875"/>
     <use xlink:href="#m49e4de6d1f" x="552.939358" y="81.364875"/>
     <use xlink:href="#m49e4de6d1f" x="507.461233" y="128.614875"/>
     <use xlink:href="#m49e4de6d1f" x="567.222839" y="62.464875"/>
     <use xlink:href="#m49e4de6d1f" x="550.239358" y="81.364875"/>
     <use xlink:href="#m49e4de6d1f" x="503.799358" y="143.734875"/>
     <use xlink:href="#m49e4de6d1f" x="521.103037" y="115.384875"/>
     <use xlink:href="#m49e4de6d1f" x="562.389358" y="71.914875"/>
     <use xlink:href="#m49e4de6d1f" x="505.689358" y="130.504875"/>
     <use xlink:href="#m49e4de6d1f" x="521.754358" y="115.384875"/>
     <use xlink:href="#m49e4de6d1f" x="494.491327" y="134.284875"/>
     <use xlink:href="#m49e4de6d1f" x="507.383877" y="115.384875"/>
     <use xlink:href="#m49e4de6d1f" x="474.533668" y="128.614875"/>
     <use xlink:href="#m49e4de6d1f" x="496.843917" y="138.064875"/>
     <use xlink:href="#m49e4de6d1f" x="572.265773" y="53.014875"/>
     <use xlink:href="#m49e4de6d1f" x="552.939358" y="81.364875"/>
     <use xlink:href="#m49e4de6d1f" x="461.409358" y="166.414875"/>
     <use xlink:href="#m49e4de6d1f" x="519.386111" y="121.054875"/>
     <use xlink:href="#m49e4de6d1f" x="522.699358" y="115.384875"/>
     <use xlink:href="#m49e4de6d1f" x="482.682499" y="128.614875"/>
     <use xlink:href="#m49e4de6d1f" x="478.444041" y="156.964875"/>
     <use xlink:href="#m49e4de6d1f" x="571.839358" y="53.014875"/>
     <use xlink:href="#m49e4de6d1f" x="570.76072" y="53.014875"/>
     <use xlink:href="#m49e4de6d1f" x="497.722845" y="132.394875"/>
     <use xlink:href="#m49e4de6d1f" x="533.699056" y="104.044875"/>
     <use xlink:href="#m49e4de6d1f" x="576.201858" y="62.464875"/>
     <use xlink:href="#m49e4de6d1f" x="496.239358" y="138.064875"/>
     <use xlink:href="#m49e4de6d1f" x="543.489358" y="88.924875"/>
     <use xlink:href="#m49e4de6d1f" x="502.870292" y="128.614875"/>
     <use xlink:href="#m49e4de6d1f" x="518.919358" y="128.614875"/>
     <use xlink:href="#m49e4de6d1f" x="543.436715" y="90.814875"/>
     <use xlink:href="#m49e4de6d1f" x="510.414358" y="128.614875"/>
     <use xlink:href="#m49e4de6d1f" x="505.689358" y="128.614875"/>
     <use xlink:href="#m49e4de6d1f" x="484.066834" y="132.394875"/>
     <use xlink:href="#m49e4de6d1f" x="539.512415" y="90.814875"/>
     <use xlink:href="#m49e4de6d1f" x="566.159682" y="122.944875"/>
     <use xlink:href="#m49e4de6d1f" x="501.909358" y="132.394875"/>
     <use xlink:href="#m49e4de6d1f" x="538.764358" y="100.264875"/>
     <use xlink:href="#m49e4de6d1f" x="528.642026" y="100.264875"/>
     <use xlink:href="#m49e4de6d1f" x="503.799358" y="138.064875"/>
     <use xlink:href="#m49e4de6d1f" x="573.729358" y="62.464875"/>
     <use xlink:href="#m49e4de6d1f" x="518.919358" y="115.384875"/>
     <use xlink:href="#m49e4de6d1f" x="588.749272" y="34.114875"/>
     <use xlink:href="#m49e4de6d1f" x="525.048542" y="109.714875"/>
     <use xlink:href="#m49e4de6d1f" x="567.114358" y="68.134875"/>
     <use xlink:href="#m49e4de6d1f" x="538.925785" y="90.814875"/>
     <use xlink:href="#m49e4de6d1f" x="517.556267" y="115.384875"/>
     <use xlink:href="#m49e4de6d1f" x="496.239358" y="147.514875"/>
     <use xlink:href="#m49e4de6d1f" x="562.389358" y="71.914875"/>
     <use xlink:href="#m49e4de6d1f" x="535.438787" y="90.814875"/>
     <use xlink:href="#m49e4de6d1f" x="505.681686" y="130.504875"/>
     <use xlink:href="#m49e4de6d1f" x="579.508881" y="53.014875"/>
     <use xlink:href="#m49e4de6d1f" x="559.554358" y="71.914875"/>
     <use xlink:href="#m49e4de6d1f" x="571.665844" y="53.014875"/>
     <use xlink:href="#m49e4de6d1f" x="577.509358" y="71.914875"/>
     <use xlink:href="#m49e4de6d1f" x="509.321294" y="119.164875"/>
     <use xlink:href="#m49e4de6d1f" x="566.811249" y="71.914875"/>
     <use xlink:href="#m49e4de6d1f" x="502.798085" y="130.504875"/>
     <use xlink:href="#m49e4de6d1f" x="583.39661" y="53.014875"/>
     <use xlink:href="#m49e4de6d1f" x="566.453804" y="71.914875"/>
     <use xlink:href="#m49e4de6d1f" x="481.277823" y="147.514875"/>
     <use xlink:href="#m49e4de6d1f" x="500.964358" y="115.384875"/>
     <use xlink:href="#m49e4de6d1f" x="581.289358" y="53.014875"/>
     <use xlink:href="#m49e4de6d1f" x="543.489358" y="90.814875"/>
     <use xlink:href="#m49e4de6d1f" x="518.919358" y="115.384875"/>
     <use xlink:href="#m49e4de6d1f" x="517.029358" y="119.164875"/>
     <use xlink:href="#m49e4de6d1f" x="521.754358" y="115.384875"/>
     <use xlink:href="#m49e4de6d1f" x="503.799358" y="128.614875"/>
     <use xlink:href="#m49e4de6d1f" x="562.389358" y="77.584875"/>
     <use xlink:href="#m49e4de6d1f" x="575.879662" y="53.014875"/>
     <use xlink:href="#m49e4de6d1f" x="518.919358" y="115.384875"/>
     <use xlink:href="#m49e4de6d1f" x="557.873818" y="81.364875"/>
     <use xlink:href="#m49e4de6d1f" x="585.7777" y="53.014875"/>
     <use xlink:href="#m49e4de6d1f" x="562.389358" y="71.914875"/>
     <use xlink:href="#m49e4de6d1f" x="500.019358" y="132.394875"/>
     <use xlink:href="#m49e4de6d1f" x="518.919358" y="115.384875"/>
     <use xlink:href="#m49e4de6d1f" x="510.414358" y="119.164875"/>
     <use xlink:href="#m49e4de6d1f" x="463.595686" y="166.414875"/>
     <use xlink:href="#m49e4de6d1f" x="567.632567" y="62.464875"/>
     <use xlink:href="#m49e4de6d1f" x="581.289358" y="53.014875"/>
     <use xlink:href="#m49e4de6d1f" x="513.249358" y="115.384875"/>
     <use xlink:href="#m49e4de6d1f" x="547.269358" y="90.814875"/>
     <use xlink:href="#m49e4de6d1f" x="505.689358" y="138.064875"/>
     <use xlink:href="#m49e4de6d1f" x="534.96226" y="115.384875"/>
     <use xlink:href="#m49e4de6d1f" x="476.565123" y="132.394875"/>
     <use xlink:href="#m49e4de6d1f" x="486.891642" y="128.614875"/>
     <use xlink:href="#m49e4de6d1f" x="548.333484" y="81.364875"/>
     <use xlink:href="#m49e4de6d1f" x="543.479933" y="81.364875"/>
     <use xlink:href="#m49e4de6d1f" x="552.4203" y="71.914875"/>
     <use xlink:href="#m49e4de6d1f" x="468.72886" y="162.634875"/>
     <use xlink:href="#m49e4de6d1f" x="571.839358" y="62.464875"/>
     <use xlink:href="#m49e4de6d1f" x="571.839358" y="71.914875"/>
     <use xlink:href="#m49e4de6d1f" x="503.799358" y="138.064875"/>
     <use xlink:href="#m49e4de6d1f" x="476.065015" y="158.854875"/>
     <use xlink:href="#m49e4de6d1f" x="486.786057" y="128.614875"/>
     <use xlink:href="#m49e4de6d1f" x="489.962351" y="128.614875"/>
     <use xlink:href="#m49e4de6d1f" x="476.394358" y="147.514875"/>
     <use xlink:href="#m49e4de6d1f" x="553.180765" y="62.464875"/>
     <use xlink:href="#m49e4de6d1f" x="477.13496" y="156.964875"/>
     <use xlink:href="#m49e4de6d1f" x="576.070701" y="43.564875"/>
     <use xlink:href="#m49e4de6d1f" x="472.328799" y="156.964875"/>
     <use xlink:href="#m49e4de6d1f" x="479.474383" y="155.074875"/>
     <use xlink:href="#m49e4de6d1f" x="505.689358" y="128.614875"/>
     <use xlink:href="#m49e4de6d1f" x="503.695581" y="132.394875"/>
     <use xlink:href="#m49e4de6d1f" x="510.414358" y="130.504875"/>
     <use xlink:href="#m49e4de6d1f" x="501.326035" y="115.384875"/>
     <use xlink:href="#m49e4de6d1f" x="506.634358" y="128.614875"/>
     <use xlink:href="#m49e4de6d1f" x="542.744357" y="81.364875"/>
     <use xlink:href="#m49e4de6d1f" x="533.932036" y="90.814875"/>
     <use xlink:href="#m49e4de6d1f" x="524.801795" y="115.384875"/>
     <use xlink:href="#m49e4de6d1f" x="552.939358" y="81.364875"/>
     <use xlink:href="#m49e4de6d1f" x="473.503941" y="151.294875"/>
     <use xlink:href="#m49e4de6d1f" x="466.932973" y="166.414875"/>
     <use xlink:href="#m49e4de6d1f" x="511.359358" y="132.394875"/>
     <use xlink:href="#m49e4de6d1f" x="472.896868" y="147.514875"/>
     <use xlink:href="#m49e4de6d1f" x="480.434849" y="147.514875"/>
     <use xlink:href="#m49e4de6d1f" x="501.909358" y="132.394875"/>
     <use xlink:href="#m49e4de6d1f" x="477.033107" y="156.964875"/>
     <use xlink:href="#m49e4de6d1f" x="498.261658" y="134.284875"/>
     <use xlink:href="#m49e4de6d1f" x="551.177884" y="71.914875"/>
     <use xlink:href="#m49e4de6d1f" x="515.139358" y="128.614875"/>
     <use xlink:href="#m49e4de6d1f" x="540.206356" y="68.134875"/>
     <use xlink:href="#m49e4de6d1f" x="533.98491" y="90.814875"/>
     <use xlink:href="#m49e4de6d1f" x="543.475546" y="71.914875"/>
     <use xlink:href="#m49e4de6d1f" x="506.634358" y="128.614875"/>
     <use xlink:href="#m49e4de6d1f" x="508.842542" y="117.274875"/>
     <use xlink:href="#m49e4de6d1f" x="571.118335" y="53.014875"/>
     <use xlink:href="#m49e4de6d1f" x="518.919358" y="126.724875"/>
     <use xlink:href="#m49e4de6d1f" x="505.649455" y="128.614875"/>
     <use xlink:href="#m49e4de6d1f" x="477.562865" y="128.614875"/>
     <use xlink:href="#m49e4de6d1f" x="596.409358" y="37.894875"/>
     <use xlink:href="#m49e4de6d1f" x="486.521599" y="128.614875"/>
     <use xlink:href="#m49e4de6d1f" x="494.349358" y="138.064875"/>
     <use xlink:href="#m49e4de6d1f" x="518.919358" y="115.384875"/>
     <use xlink:href="#m49e4de6d1f" x="518.919358" y="115.384875"/>
     <use xlink:href="#m49e4de6d1f" x="497.806494" y="138.064875"/>
     <use xlink:href="#m49e4de6d1f" x="562.389358" y="71.914875"/>
     <use xlink:href="#m49e4de6d1f" x="518.919358" y="115.384875"/>
     <use xlink:href="#m49e4de6d1f" x="502.790068" y="115.384875"/>
     <use xlink:href="#m49e4de6d1f" x="475.672569" y="156.964875"/>
     <use xlink:href="#m49e4de6d1f" x="461.25024" y="177.754875"/>
     <use xlink:href="#m49e4de6d1f" x="462.778167" y="166.414875"/>
     <use xlink:href="#m49e4de6d1f" x="463.541349" y="173.974875"/>
     <use xlink:href="#m49e4de6d1f" x="510.350585" y="119.164875"/>
     <use xlink:href="#m49e4de6d1f" x="522.699358" y="115.384875"/>
     <use xlink:href="#m49e4de6d1f" x="496.054037" y="132.394875"/>
     <use xlink:href="#m49e4de6d1f" x="562.389358" y="71.914875"/>
     <use xlink:href="#m49e4de6d1f" x="540.415738" y="90.814875"/>
     <use xlink:href="#m49e4de6d1f" x="490.569358" y="147.514875"/>
     <use xlink:href="#m49e4de6d1f" x="539.372447" y="90.814875"/>
     <use xlink:href="#m49e4de6d1f" x="542.444558" y="71.914875"/>
     <use xlink:href="#m49e4de6d1f" x="492.738082" y="128.614875"/>
     <use xlink:href="#m49e4de6d1f" x="521.754358" y="115.384875"/>
     <use xlink:href="#m49e4de6d1f" x="520.187351" y="115.384875"/>
     <use xlink:href="#m49e4de6d1f" x="541.599358" y="81.364875"/>
     <use xlink:href="#m49e4de6d1f" x="539.099599" y="71.914875"/>
     <use xlink:href="#m49e4de6d1f" x="562.389358" y="71.914875"/>
     <use xlink:href="#m49e4de6d1f" x="547.562755" y="81.364875"/>
     <use xlink:href="#m49e4de6d1f" x="540.935174" y="90.814875"/>
     <use xlink:href="#m49e4de6d1f" x="552.939358" y="81.364875"/>
     <use xlink:href="#m49e4de6d1f" x="472.212816" y="156.964875"/>
     <use xlink:href="#m49e4de6d1f" x="496.239358" y="138.064875"/>
     <use xlink:href="#m49e4de6d1f" x="565.60308" y="71.914875"/>
     <use xlink:href="#m49e4de6d1f" x="505.689358" y="134.284875"/>
     <use xlink:href="#m49e4de6d1f" x="571.839358" y="62.464875"/>
     <use xlink:href="#m49e4de6d1f" x="542.439911" y="81.364875"/>
     <use xlink:href="#m49e4de6d1f" x="528.369358" y="107.824875"/>
     <use xlink:href="#m49e4de6d1f" x="505.689358" y="128.614875"/>
     <use xlink:href="#m49e4de6d1f" x="534.039358" y="100.264875"/>
     <use xlink:href="#m49e4de6d1f" x="484.51825" y="132.394875"/>
     <use xlink:href="#m49e4de6d1f" x="518.919358" y="115.384875"/>
     <use xlink:href="#m49e4de6d1f" x="590.739358" y="132.394875"/>
     <use xlink:href="#m49e4de6d1f" x="571.052835" y="53.014875"/>
     <use xlink:href="#m49e4de6d1f" x="538.829426" y="81.364875"/>
     <use xlink:href="#m49e4de6d1f" x="505.689358" y="128.614875"/>
     <use xlink:href="#m49e4de6d1f" x="570.875988" y="53.014875"/>
     <use xlink:href="#m49e4de6d1f" x="487.123268" y="128.614875"/>
     <use xlink:href="#m49e4de6d1f" x="567.985073" y="53.014875"/>
     <use xlink:href="#m49e4de6d1f" x="566.495362" y="47.344875"/>
    </g>
   </g>
   <g id="matplotlib.axis_5">
    <g id="xtick_9">
     <g id="line2d_48">
      <g>
       <use xlink:href="#m0cfd9cbe35" x="448.989358" y="192.874875" style="stroke: #000000; stroke-width: 0.8"/>
      </g>
     </g>
     <g id="text_22">
      <!-- 0 -->
      <g transform="translate(444.535608 210.512688) scale(0.14 -0.14)">
       <use xlink:href="#DejaVuSans-30"/>
      </g>
     </g>
    </g>
    <g id="xtick_10">
     <g id="line2d_49">
      <g>
       <use xlink:href="#m0cfd9cbe35" x="496.239358" y="192.874875" style="stroke: #000000; stroke-width: 0.8"/>
      </g>
     </g>
     <g id="text_23">
      <!-- 25 -->
      <g transform="translate(487.331858 210.512688) scale(0.14 -0.14)">
       <use xlink:href="#DejaVuSans-32"/>
       <use xlink:href="#DejaVuSans-35" x="63.623047"/>
      </g>
     </g>
    </g>
    <g id="xtick_11">
     <g id="line2d_50">
      <g>
       <use xlink:href="#m0cfd9cbe35" x="543.489358" y="192.874875" style="stroke: #000000; stroke-width: 0.8"/>
      </g>
     </g>
     <g id="text_24">
      <!-- 50 -->
      <g transform="translate(534.581858 210.512688) scale(0.14 -0.14)">
       <use xlink:href="#DejaVuSans-35"/>
       <use xlink:href="#DejaVuSans-30" x="63.623047"/>
      </g>
     </g>
    </g>
    <g id="xtick_12">
     <g id="line2d_51">
      <g>
       <use xlink:href="#m0cfd9cbe35" x="590.739358" y="192.874875" style="stroke: #000000; stroke-width: 0.8"/>
      </g>
     </g>
     <g id="text_25">
      <!-- 75 -->
      <g transform="translate(581.831858 210.512688) scale(0.14 -0.14)">
       <use xlink:href="#DejaVuSans-37"/>
       <use xlink:href="#DejaVuSans-35" x="63.623047"/>
      </g>
     </g>
    </g>
    <g id="text_26">
     <!-- Growth curve OGT ($^\circ$C) -->
     <g transform="translate(441.989358 228.062063) scale(0.14 -0.14)">
      <defs>
       <path id="DejaVuSans-77" d="M 269 3500 
L 844 3500 
L 1563 769 
L 2278 3500 
L 2956 3500 
L 3675 769 
L 4391 3500 
L 4966 3500 
L 4050 0 
L 3372 0 
L 2619 2869 
L 1863 0 
L 1184 0 
L 269 3500 
z
" transform="scale(0.015625)"/>
       <path id="DejaVuSans-68" d="M 3513 2113 
L 3513 0 
L 2938 0 
L 2938 2094 
Q 2938 2591 2744 2837 
Q 2550 3084 2163 3084 
Q 1697 3084 1428 2787 
Q 1159 2491 1159 1978 
L 1159 0 
L 581 0 
L 581 4863 
L 1159 4863 
L 1159 2956 
Q 1366 3272 1645 3428 
Q 1925 3584 2291 3584 
Q 2894 3584 3203 3211 
Q 3513 2838 3513 2113 
z
" transform="scale(0.015625)"/>
       <path id="DejaVuSans-76" d="M 191 3500 
L 800 3500 
L 1894 563 
L 2988 3500 
L 3597 3500 
L 2284 0 
L 1503 0 
L 191 3500 
z
" transform="scale(0.015625)"/>
      </defs>
      <use xlink:href="#DejaVuSans-47" transform="translate(0 0.015625)"/>
      <use xlink:href="#DejaVuSans-72" transform="translate(77.490234 0.015625)"/>
      <use xlink:href="#DejaVuSans-6f" transform="translate(118.603516 0.015625)"/>
      <use xlink:href="#DejaVuSans-77" transform="translate(179.785156 0.015625)"/>
      <use xlink:href="#DejaVuSans-74" transform="translate(261.572266 0.015625)"/>
      <use xlink:href="#DejaVuSans-68" transform="translate(300.78125 0.015625)"/>
      <use xlink:href="#DejaVuSans-20" transform="translate(364.160156 0.015625)"/>
      <use xlink:href="#DejaVuSans-63" transform="translate(395.947266 0.015625)"/>
      <use xlink:href="#DejaVuSans-75" transform="translate(450.927734 0.015625)"/>
      <use xlink:href="#DejaVuSans-72" transform="translate(514.306641 0.015625)"/>
      <use xlink:href="#DejaVuSans-76" transform="translate(555.419922 0.015625)"/>
      <use xlink:href="#DejaVuSans-65" transform="translate(614.599609 0.015625)"/>
      <use xlink:href="#DejaVuSans-20" transform="translate(676.123047 0.015625)"/>
      <use xlink:href="#DejaVuSans-4f" transform="translate(707.910156 0.015625)"/>
      <use xlink:href="#DejaVuSans-47" transform="translate(786.621094 0.015625)"/>
      <use xlink:href="#DejaVuSans-54" transform="translate(864.111328 0.015625)"/>
      <use xlink:href="#DejaVuSans-20" transform="translate(925.195312 0.015625)"/>
      <use xlink:href="#DejaVuSans-28" transform="translate(956.982422 0.015625)"/>
      <use xlink:href="#DejaVuSans-2218" transform="translate(1010.59082 38.296875) scale(0.7)"/>
      <use xlink:href="#DejaVuSans-43" transform="translate(1070.78125 0.015625)"/>
      <use xlink:href="#DejaVuSans-29" transform="translate(1140.605469 0.015625)"/>
     </g>
    </g>
   </g>
   <g id="matplotlib.axis_6">
    <g id="ytick_39">
     <g id="line2d_52">
      <g>
       <use xlink:href="#mf56d07eb1b" x="441.429358" y="185.314875" style="stroke: #000000; stroke-width: 0.8"/>
      </g>
     </g>
     <g id="text_27">
      <!-- 0 -->
      <g transform="translate(425.521858 190.633781) scale(0.14 -0.14)">
       <use xlink:href="#DejaVuSans-30"/>
      </g>
     </g>
    </g>
    <g id="ytick_40">
     <g id="line2d_53">
      <g>
       <use xlink:href="#mf56d07eb1b" x="441.429358" y="138.064875" style="stroke: #000000; stroke-width: 0.8"/>
      </g>
     </g>
     <g id="text_28">
      <!-- 25 -->
      <g transform="translate(416.614358 143.383781) scale(0.14 -0.14)">
       <use xlink:href="#DejaVuSans-32"/>
       <use xlink:href="#DejaVuSans-35" x="63.623047"/>
      </g>
     </g>
    </g>
    <g id="ytick_41">
     <g id="line2d_54">
      <g>
       <use xlink:href="#mf56d07eb1b" x="441.429358" y="90.814875" style="stroke: #000000; stroke-width: 0.8"/>
      </g>
     </g>
     <g id="text_29">
      <!-- 50 -->
      <g transform="translate(416.614358 96.133781) scale(0.14 -0.14)">
       <use xlink:href="#DejaVuSans-35"/>
       <use xlink:href="#DejaVuSans-30" x="63.623047"/>
      </g>
     </g>
    </g>
    <g id="ytick_42">
     <g id="line2d_55">
      <g>
       <use xlink:href="#mf56d07eb1b" x="441.429358" y="43.564875" style="stroke: #000000; stroke-width: 0.8"/>
      </g>
     </g>
     <g id="text_30">
      <!-- 75 -->
      <g transform="translate(416.614358 48.883781) scale(0.14 -0.14)">
       <use xlink:href="#DejaVuSans-37"/>
       <use xlink:href="#DejaVuSans-35" x="63.623047"/>
      </g>
     </g>
    </g>
    <g id="text_31">
     <!-- Gosha OGT ($^\circ$C) -->
     <g transform="translate(409.702796 167.044875) rotate(-90) scale(0.14 -0.14)">
      <defs>
       <path id="DejaVuSans-61" d="M 2194 1759 
Q 1497 1759 1228 1600 
Q 959 1441 959 1056 
Q 959 750 1161 570 
Q 1363 391 1709 391 
Q 2188 391 2477 730 
Q 2766 1069 2766 1631 
L 2766 1759 
L 2194 1759 
z
M 3341 1997 
L 3341 0 
L 2766 0 
L 2766 531 
Q 2569 213 2275 61 
Q 1981 -91 1556 -91 
Q 1019 -91 701 211 
Q 384 513 384 1019 
Q 384 1609 779 1909 
Q 1175 2209 1959 2209 
L 2766 2209 
L 2766 2266 
Q 2766 2663 2505 2880 
Q 2244 3097 1772 3097 
Q 1472 3097 1187 3025 
Q 903 2953 641 2809 
L 641 3341 
Q 956 3463 1253 3523 
Q 1550 3584 1831 3584 
Q 2591 3584 2966 3190 
Q 3341 2797 3341 1997 
z
" transform="scale(0.015625)"/>
      </defs>
      <use xlink:href="#DejaVuSans-47" transform="translate(0 0.015625)"/>
      <use xlink:href="#DejaVuSans-6f" transform="translate(77.490234 0.015625)"/>
      <use xlink:href="#DejaVuSans-73" transform="translate(138.671875 0.015625)"/>
      <use xlink:href="#DejaVuSans-68" transform="translate(190.771484 0.015625)"/>
      <use xlink:href="#DejaVuSans-61" transform="translate(254.150391 0.015625)"/>
      <use xlink:href="#DejaVuSans-20" transform="translate(315.429688 0.015625)"/>
      <use xlink:href="#DejaVuSans-4f" transform="translate(347.216797 0.015625)"/>
      <use xlink:href="#DejaVuSans-47" transform="translate(425.927734 0.015625)"/>
      <use xlink:href="#DejaVuSans-54" transform="translate(503.417969 0.015625)"/>
      <use xlink:href="#DejaVuSans-20" transform="translate(564.501953 0.015625)"/>
      <use xlink:href="#DejaVuSans-28" transform="translate(596.289062 0.015625)"/>
      <use xlink:href="#DejaVuSans-2218" transform="translate(649.897461 38.296875) scale(0.7)"/>
      <use xlink:href="#DejaVuSans-43" transform="translate(710.087891 0.015625)"/>
      <use xlink:href="#DejaVuSans-29" transform="translate(779.912109 0.015625)"/>
     </g>
    </g>
   </g>
   <g id="patch_63">
    <path d="M 441.429358 192.874875 
L 441.429358 26.554875 
" style="fill: none; stroke: #000000; stroke-width: 0.8; stroke-linejoin: miter; stroke-linecap: square"/>
   </g>
   <g id="patch_64">
    <path d="M 441.429358 192.874875 
L 607.749358 192.874875 
" style="fill: none; stroke: #000000; stroke-width: 0.8; stroke-linejoin: miter; stroke-linecap: square"/>
   </g>
   <g id="text_32">
    <!-- C -->
    <g transform="translate(394.199733 22.396875) scale(0.2 -0.2)">
     <use xlink:href="#DejaVuSans-43"/>
    </g>
   </g>
  </g>
 </g>
 <defs>
  <clipPath id="p616e5f3306">
   <rect x="57.075845" y="26.554875" width="180.972973" height="166.32"/>
  </clipPath>
  <clipPath id="p192c15ea7d">
   <rect x="290.832601" y="26.554875" width="90.486486" height="166.32"/>
  </clipPath>
  <clipPath id="pe544b38762">
   <rect x="441.429358" y="26.554875" width="166.32" height="166.32"/>
  </clipPath>
 </defs>
</svg>
